<?xml version="1.0" encoding="utf-8" standalone="no"?>
<!DOCTYPE svg PUBLIC "-//W3C//DTD SVG 1.1//EN"
  "http://www.w3.org/Graphics/SVG/1.1/DTD/svg11.dtd">
<svg xmlns:xlink="http://www.w3.org/1999/xlink" width="864pt" height="360pt" viewBox="0 0 864 360" xmlns="http://www.w3.org/2000/svg" version="1.1">
 <metadata>
  <rdf:RDF xmlns:dc="http://purl.org/dc/elements/1.1/" xmlns:cc="http://creativecommons.org/ns#" xmlns:rdf="http://www.w3.org/1999/02/22-rdf-syntax-ns#">
   <cc:Work>
    <dc:type rdf:resource="http://purl.org/dc/dcmitype/StillImage"/>
    <dc:date>2025-08-26T16:17:26.424697</dc:date>
    <dc:format>image/svg+xml</dc:format>
    <dc:creator>
     <cc:Agent>
      <dc:title>Matplotlib v3.5.1, https://matplotlib.org/</dc:title>
     </cc:Agent>
    </dc:creator>
   </cc:Work>
  </rdf:RDF>
 </metadata>
 <defs>
  <style type="text/css">*{stroke-linejoin: round; stroke-linecap: butt}</style>
 </defs>
 <g id="figure_1">
  <g id="patch_1">
   <path d="M 0 360 
L 864 360 
L 864 0 
L 0 0 
z
" style="fill: #ffffff"/>
  </g>
  <g id="axes_1">
   <g id="patch_2">
    <path d="M 108 320.4 
L 412.363636 320.4 
L 412.363636 43.2 
L 108 43.2 
z
" style="fill: #ffffff"/>
   </g>
   <g id="matplotlib.axis_1">
    <g id="xtick_1">
     <g id="line2d_1">
      <path d="M 121.834711 320.4 
L 121.834711 43.2 
" clip-path="url(#p86011329d4)" style="fill: none; stroke: #b0b0b0; stroke-width: 0.8; stroke-linecap: square"/>
     </g>
     <g id="line2d_2">
      <defs>
       <path id="mfc322a35fe" d="M 0 0 
L 0 3.5 
" style="stroke: #000000; stroke-width: 0.8"/>
      </defs>
      <g>
       <use xlink:href="#mfc322a35fe" x="121.834711" y="320.4" style="stroke: #000000; stroke-width: 0.8"/>
      </g>
     </g>
     <g id="text_1">
      <!-- 0 -->
      <g transform="translate(118.653461 334.998438)scale(0.1 -0.1)">
       <defs>
        <path id="DejaVuSans-30" d="M 2034 4250 
Q 1547 4250 1301 3770 
Q 1056 3291 1056 2328 
Q 1056 1369 1301 889 
Q 1547 409 2034 409 
Q 2525 409 2770 889 
Q 3016 1369 3016 2328 
Q 3016 3291 2770 3770 
Q 2525 4250 2034 4250 
z
M 2034 4750 
Q 2819 4750 3233 4129 
Q 3647 3509 3647 2328 
Q 3647 1150 3233 529 
Q 2819 -91 2034 -91 
Q 1250 -91 836 529 
Q 422 1150 422 2328 
Q 422 3509 836 4129 
Q 1250 4750 2034 4750 
z
" transform="scale(0.015625)"/>
       </defs>
       <use xlink:href="#DejaVuSans-30"/>
      </g>
     </g>
    </g>
    <g id="xtick_2">
     <g id="line2d_3">
      <path d="M 177.228948 320.4 
L 177.228948 43.2 
" clip-path="url(#p86011329d4)" style="fill: none; stroke: #b0b0b0; stroke-width: 0.8; stroke-linecap: square"/>
     </g>
     <g id="line2d_4">
      <g>
       <use xlink:href="#mfc322a35fe" x="177.228948" y="320.4" style="stroke: #000000; stroke-width: 0.8"/>
      </g>
     </g>
     <g id="text_2">
      <!-- 200 -->
      <g transform="translate(167.685198 334.998438)scale(0.1 -0.1)">
       <defs>
        <path id="DejaVuSans-32" d="M 1228 531 
L 3431 531 
L 3431 0 
L 469 0 
L 469 531 
Q 828 903 1448 1529 
Q 2069 2156 2228 2338 
Q 2531 2678 2651 2914 
Q 2772 3150 2772 3378 
Q 2772 3750 2511 3984 
Q 2250 4219 1831 4219 
Q 1534 4219 1204 4116 
Q 875 4013 500 3803 
L 500 4441 
Q 881 4594 1212 4672 
Q 1544 4750 1819 4750 
Q 2544 4750 2975 4387 
Q 3406 4025 3406 3419 
Q 3406 3131 3298 2873 
Q 3191 2616 2906 2266 
Q 2828 2175 2409 1742 
Q 1991 1309 1228 531 
z
" transform="scale(0.015625)"/>
       </defs>
       <use xlink:href="#DejaVuSans-32"/>
       <use xlink:href="#DejaVuSans-30" x="63.623047"/>
       <use xlink:href="#DejaVuSans-30" x="127.246094"/>
      </g>
     </g>
    </g>
    <g id="xtick_3">
     <g id="line2d_5">
      <path d="M 232.623185 320.4 
L 232.623185 43.2 
" clip-path="url(#p86011329d4)" style="fill: none; stroke: #b0b0b0; stroke-width: 0.8; stroke-linecap: square"/>
     </g>
     <g id="line2d_6">
      <g>
       <use xlink:href="#mfc322a35fe" x="232.623185" y="320.4" style="stroke: #000000; stroke-width: 0.8"/>
      </g>
     </g>
     <g id="text_3">
      <!-- 400 -->
      <g transform="translate(223.079435 334.998438)scale(0.1 -0.1)">
       <defs>
        <path id="DejaVuSans-34" d="M 2419 4116 
L 825 1625 
L 2419 1625 
L 2419 4116 
z
M 2253 4666 
L 3047 4666 
L 3047 1625 
L 3713 1625 
L 3713 1100 
L 3047 1100 
L 3047 0 
L 2419 0 
L 2419 1100 
L 313 1100 
L 313 1709 
L 2253 4666 
z
" transform="scale(0.015625)"/>
       </defs>
       <use xlink:href="#DejaVuSans-34"/>
       <use xlink:href="#DejaVuSans-30" x="63.623047"/>
       <use xlink:href="#DejaVuSans-30" x="127.246094"/>
      </g>
     </g>
    </g>
    <g id="xtick_4">
     <g id="line2d_7">
      <path d="M 288.017422 320.4 
L 288.017422 43.2 
" clip-path="url(#p86011329d4)" style="fill: none; stroke: #b0b0b0; stroke-width: 0.8; stroke-linecap: square"/>
     </g>
     <g id="line2d_8">
      <g>
       <use xlink:href="#mfc322a35fe" x="288.017422" y="320.4" style="stroke: #000000; stroke-width: 0.8"/>
      </g>
     </g>
     <g id="text_4">
      <!-- 600 -->
      <g transform="translate(278.473672 334.998438)scale(0.1 -0.1)">
       <defs>
        <path id="DejaVuSans-36" d="M 2113 2584 
Q 1688 2584 1439 2293 
Q 1191 2003 1191 1497 
Q 1191 994 1439 701 
Q 1688 409 2113 409 
Q 2538 409 2786 701 
Q 3034 994 3034 1497 
Q 3034 2003 2786 2293 
Q 2538 2584 2113 2584 
z
M 3366 4563 
L 3366 3988 
Q 3128 4100 2886 4159 
Q 2644 4219 2406 4219 
Q 1781 4219 1451 3797 
Q 1122 3375 1075 2522 
Q 1259 2794 1537 2939 
Q 1816 3084 2150 3084 
Q 2853 3084 3261 2657 
Q 3669 2231 3669 1497 
Q 3669 778 3244 343 
Q 2819 -91 2113 -91 
Q 1303 -91 875 529 
Q 447 1150 447 2328 
Q 447 3434 972 4092 
Q 1497 4750 2381 4750 
Q 2619 4750 2861 4703 
Q 3103 4656 3366 4563 
z
" transform="scale(0.015625)"/>
       </defs>
       <use xlink:href="#DejaVuSans-36"/>
       <use xlink:href="#DejaVuSans-30" x="63.623047"/>
       <use xlink:href="#DejaVuSans-30" x="127.246094"/>
      </g>
     </g>
    </g>
    <g id="xtick_5">
     <g id="line2d_9">
      <path d="M 343.41166 320.4 
L 343.41166 43.2 
" clip-path="url(#p86011329d4)" style="fill: none; stroke: #b0b0b0; stroke-width: 0.8; stroke-linecap: square"/>
     </g>
     <g id="line2d_10">
      <g>
       <use xlink:href="#mfc322a35fe" x="343.41166" y="320.4" style="stroke: #000000; stroke-width: 0.8"/>
      </g>
     </g>
     <g id="text_5">
      <!-- 800 -->
      <g transform="translate(333.86791 334.998438)scale(0.1 -0.1)">
       <defs>
        <path id="DejaVuSans-38" d="M 2034 2216 
Q 1584 2216 1326 1975 
Q 1069 1734 1069 1313 
Q 1069 891 1326 650 
Q 1584 409 2034 409 
Q 2484 409 2743 651 
Q 3003 894 3003 1313 
Q 3003 1734 2745 1975 
Q 2488 2216 2034 2216 
z
M 1403 2484 
Q 997 2584 770 2862 
Q 544 3141 544 3541 
Q 544 4100 942 4425 
Q 1341 4750 2034 4750 
Q 2731 4750 3128 4425 
Q 3525 4100 3525 3541 
Q 3525 3141 3298 2862 
Q 3072 2584 2669 2484 
Q 3125 2378 3379 2068 
Q 3634 1759 3634 1313 
Q 3634 634 3220 271 
Q 2806 -91 2034 -91 
Q 1263 -91 848 271 
Q 434 634 434 1313 
Q 434 1759 690 2068 
Q 947 2378 1403 2484 
z
M 1172 3481 
Q 1172 3119 1398 2916 
Q 1625 2713 2034 2713 
Q 2441 2713 2670 2916 
Q 2900 3119 2900 3481 
Q 2900 3844 2670 4047 
Q 2441 4250 2034 4250 
Q 1625 4250 1398 4047 
Q 1172 3844 1172 3481 
z
" transform="scale(0.015625)"/>
       </defs>
       <use xlink:href="#DejaVuSans-38"/>
       <use xlink:href="#DejaVuSans-30" x="63.623047"/>
       <use xlink:href="#DejaVuSans-30" x="127.246094"/>
      </g>
     </g>
    </g>
    <g id="xtick_6">
     <g id="line2d_11">
      <path d="M 398.805897 320.4 
L 398.805897 43.2 
" clip-path="url(#p86011329d4)" style="fill: none; stroke: #b0b0b0; stroke-width: 0.8; stroke-linecap: square"/>
     </g>
     <g id="line2d_12">
      <g>
       <use xlink:href="#mfc322a35fe" x="398.805897" y="320.4" style="stroke: #000000; stroke-width: 0.8"/>
      </g>
     </g>
     <g id="text_6">
      <!-- 1000 -->
      <g transform="translate(386.080897 334.998438)scale(0.1 -0.1)">
       <defs>
        <path id="DejaVuSans-31" d="M 794 531 
L 1825 531 
L 1825 4091 
L 703 3866 
L 703 4441 
L 1819 4666 
L 2450 4666 
L 2450 531 
L 3481 531 
L 3481 0 
L 794 0 
L 794 531 
z
" transform="scale(0.015625)"/>
       </defs>
       <use xlink:href="#DejaVuSans-31"/>
       <use xlink:href="#DejaVuSans-30" x="63.623047"/>
       <use xlink:href="#DejaVuSans-30" x="127.246094"/>
       <use xlink:href="#DejaVuSans-30" x="190.869141"/>
      </g>
     </g>
    </g>
    <g id="text_7">
     <!-- Epoch -->
     <g transform="translate(244.870881 348.676562)scale(0.1 -0.1)">
      <defs>
       <path id="DejaVuSans-45" d="M 628 4666 
L 3578 4666 
L 3578 4134 
L 1259 4134 
L 1259 2753 
L 3481 2753 
L 3481 2222 
L 1259 2222 
L 1259 531 
L 3634 531 
L 3634 0 
L 628 0 
L 628 4666 
z
" transform="scale(0.015625)"/>
       <path id="DejaVuSans-70" d="M 1159 525 
L 1159 -1331 
L 581 -1331 
L 581 3500 
L 1159 3500 
L 1159 2969 
Q 1341 3281 1617 3432 
Q 1894 3584 2278 3584 
Q 2916 3584 3314 3078 
Q 3713 2572 3713 1747 
Q 3713 922 3314 415 
Q 2916 -91 2278 -91 
Q 1894 -91 1617 61 
Q 1341 213 1159 525 
z
M 3116 1747 
Q 3116 2381 2855 2742 
Q 2594 3103 2138 3103 
Q 1681 3103 1420 2742 
Q 1159 2381 1159 1747 
Q 1159 1113 1420 752 
Q 1681 391 2138 391 
Q 2594 391 2855 752 
Q 3116 1113 3116 1747 
z
" transform="scale(0.015625)"/>
       <path id="DejaVuSans-6f" d="M 1959 3097 
Q 1497 3097 1228 2736 
Q 959 2375 959 1747 
Q 959 1119 1226 758 
Q 1494 397 1959 397 
Q 2419 397 2687 759 
Q 2956 1122 2956 1747 
Q 2956 2369 2687 2733 
Q 2419 3097 1959 3097 
z
M 1959 3584 
Q 2709 3584 3137 3096 
Q 3566 2609 3566 1747 
Q 3566 888 3137 398 
Q 2709 -91 1959 -91 
Q 1206 -91 779 398 
Q 353 888 353 1747 
Q 353 2609 779 3096 
Q 1206 3584 1959 3584 
z
" transform="scale(0.015625)"/>
       <path id="DejaVuSans-63" d="M 3122 3366 
L 3122 2828 
Q 2878 2963 2633 3030 
Q 2388 3097 2138 3097 
Q 1578 3097 1268 2742 
Q 959 2388 959 1747 
Q 959 1106 1268 751 
Q 1578 397 2138 397 
Q 2388 397 2633 464 
Q 2878 531 3122 666 
L 3122 134 
Q 2881 22 2623 -34 
Q 2366 -91 2075 -91 
Q 1284 -91 818 406 
Q 353 903 353 1747 
Q 353 2603 823 3093 
Q 1294 3584 2113 3584 
Q 2378 3584 2631 3529 
Q 2884 3475 3122 3366 
z
" transform="scale(0.015625)"/>
       <path id="DejaVuSans-68" d="M 3513 2113 
L 3513 0 
L 2938 0 
L 2938 2094 
Q 2938 2591 2744 2837 
Q 2550 3084 2163 3084 
Q 1697 3084 1428 2787 
Q 1159 2491 1159 1978 
L 1159 0 
L 581 0 
L 581 4863 
L 1159 4863 
L 1159 2956 
Q 1366 3272 1645 3428 
Q 1925 3584 2291 3584 
Q 2894 3584 3203 3211 
Q 3513 2838 3513 2113 
z
" transform="scale(0.015625)"/>
      </defs>
      <use xlink:href="#DejaVuSans-45"/>
      <use xlink:href="#DejaVuSans-70" x="63.183594"/>
      <use xlink:href="#DejaVuSans-6f" x="126.660156"/>
      <use xlink:href="#DejaVuSans-63" x="187.841797"/>
      <use xlink:href="#DejaVuSans-68" x="242.822266"/>
     </g>
    </g>
   </g>
   <g id="matplotlib.axis_2">
    <g id="ytick_1">
     <g id="line2d_13">
      <path d="M 108 311.76922 
L 412.363636 311.76922 
" clip-path="url(#p86011329d4)" style="fill: none; stroke: #b0b0b0; stroke-width: 0.8; stroke-linecap: square"/>
     </g>
     <g id="line2d_14">
      <defs>
       <path id="m0d29979766" d="M 0 0 
L -3.5 0 
" style="stroke: #000000; stroke-width: 0.8"/>
      </defs>
      <g>
       <use xlink:href="#m0d29979766" x="108" y="311.76922" style="stroke: #000000; stroke-width: 0.8"/>
      </g>
     </g>
     <g id="text_8">
      <!-- 0.45 -->
      <g transform="translate(78.734375 315.568439)scale(0.1 -0.1)">
       <defs>
        <path id="DejaVuSans-2e" d="M 684 794 
L 1344 794 
L 1344 0 
L 684 0 
L 684 794 
z
" transform="scale(0.015625)"/>
        <path id="DejaVuSans-35" d="M 691 4666 
L 3169 4666 
L 3169 4134 
L 1269 4134 
L 1269 2991 
Q 1406 3038 1543 3061 
Q 1681 3084 1819 3084 
Q 2600 3084 3056 2656 
Q 3513 2228 3513 1497 
Q 3513 744 3044 326 
Q 2575 -91 1722 -91 
Q 1428 -91 1123 -41 
Q 819 9 494 109 
L 494 744 
Q 775 591 1075 516 
Q 1375 441 1709 441 
Q 2250 441 2565 725 
Q 2881 1009 2881 1497 
Q 2881 1984 2565 2268 
Q 2250 2553 1709 2553 
Q 1456 2553 1204 2497 
Q 953 2441 691 2322 
L 691 4666 
z
" transform="scale(0.015625)"/>
       </defs>
       <use xlink:href="#DejaVuSans-30"/>
       <use xlink:href="#DejaVuSans-2e" x="63.623047"/>
       <use xlink:href="#DejaVuSans-34" x="95.410156"/>
       <use xlink:href="#DejaVuSans-35" x="159.033203"/>
      </g>
     </g>
    </g>
    <g id="ytick_2">
     <g id="line2d_15">
      <path d="M 108 273.382258 
L 412.363636 273.382258 
" clip-path="url(#p86011329d4)" style="fill: none; stroke: #b0b0b0; stroke-width: 0.8; stroke-linecap: square"/>
     </g>
     <g id="line2d_16">
      <g>
       <use xlink:href="#m0d29979766" x="108" y="273.382258" style="stroke: #000000; stroke-width: 0.8"/>
      </g>
     </g>
     <g id="text_9">
      <!-- 0.50 -->
      <g transform="translate(78.734375 277.181477)scale(0.1 -0.1)">
       <use xlink:href="#DejaVuSans-30"/>
       <use xlink:href="#DejaVuSans-2e" x="63.623047"/>
       <use xlink:href="#DejaVuSans-35" x="95.410156"/>
       <use xlink:href="#DejaVuSans-30" x="159.033203"/>
      </g>
     </g>
    </g>
    <g id="ytick_3">
     <g id="line2d_17">
      <path d="M 108 234.995297 
L 412.363636 234.995297 
" clip-path="url(#p86011329d4)" style="fill: none; stroke: #b0b0b0; stroke-width: 0.8; stroke-linecap: square"/>
     </g>
     <g id="line2d_18">
      <g>
       <use xlink:href="#m0d29979766" x="108" y="234.995297" style="stroke: #000000; stroke-width: 0.8"/>
      </g>
     </g>
     <g id="text_10">
      <!-- 0.55 -->
      <g transform="translate(78.734375 238.794515)scale(0.1 -0.1)">
       <use xlink:href="#DejaVuSans-30"/>
       <use xlink:href="#DejaVuSans-2e" x="63.623047"/>
       <use xlink:href="#DejaVuSans-35" x="95.410156"/>
       <use xlink:href="#DejaVuSans-35" x="159.033203"/>
      </g>
     </g>
    </g>
    <g id="ytick_4">
     <g id="line2d_19">
      <path d="M 108 196.608335 
L 412.363636 196.608335 
" clip-path="url(#p86011329d4)" style="fill: none; stroke: #b0b0b0; stroke-width: 0.8; stroke-linecap: square"/>
     </g>
     <g id="line2d_20">
      <g>
       <use xlink:href="#m0d29979766" x="108" y="196.608335" style="stroke: #000000; stroke-width: 0.8"/>
      </g>
     </g>
     <g id="text_11">
      <!-- 0.60 -->
      <g transform="translate(78.734375 200.407554)scale(0.1 -0.1)">
       <use xlink:href="#DejaVuSans-30"/>
       <use xlink:href="#DejaVuSans-2e" x="63.623047"/>
       <use xlink:href="#DejaVuSans-36" x="95.410156"/>
       <use xlink:href="#DejaVuSans-30" x="159.033203"/>
      </g>
     </g>
    </g>
    <g id="ytick_5">
     <g id="line2d_21">
      <path d="M 108 158.221373 
L 412.363636 158.221373 
" clip-path="url(#p86011329d4)" style="fill: none; stroke: #b0b0b0; stroke-width: 0.8; stroke-linecap: square"/>
     </g>
     <g id="line2d_22">
      <g>
       <use xlink:href="#m0d29979766" x="108" y="158.221373" style="stroke: #000000; stroke-width: 0.8"/>
      </g>
     </g>
     <g id="text_12">
      <!-- 0.65 -->
      <g transform="translate(78.734375 162.020592)scale(0.1 -0.1)">
       <use xlink:href="#DejaVuSans-30"/>
       <use xlink:href="#DejaVuSans-2e" x="63.623047"/>
       <use xlink:href="#DejaVuSans-36" x="95.410156"/>
       <use xlink:href="#DejaVuSans-35" x="159.033203"/>
      </g>
     </g>
    </g>
    <g id="ytick_6">
     <g id="line2d_23">
      <path d="M 108 119.834411 
L 412.363636 119.834411 
" clip-path="url(#p86011329d4)" style="fill: none; stroke: #b0b0b0; stroke-width: 0.8; stroke-linecap: square"/>
     </g>
     <g id="line2d_24">
      <g>
       <use xlink:href="#m0d29979766" x="108" y="119.834411" style="stroke: #000000; stroke-width: 0.8"/>
      </g>
     </g>
     <g id="text_13">
      <!-- 0.70 -->
      <g transform="translate(78.734375 123.63363)scale(0.1 -0.1)">
       <defs>
        <path id="DejaVuSans-37" d="M 525 4666 
L 3525 4666 
L 3525 4397 
L 1831 0 
L 1172 0 
L 2766 4134 
L 525 4134 
L 525 4666 
z
" transform="scale(0.015625)"/>
       </defs>
       <use xlink:href="#DejaVuSans-30"/>
       <use xlink:href="#DejaVuSans-2e" x="63.623047"/>
       <use xlink:href="#DejaVuSans-37" x="95.410156"/>
       <use xlink:href="#DejaVuSans-30" x="159.033203"/>
      </g>
     </g>
    </g>
    <g id="ytick_7">
     <g id="line2d_25">
      <path d="M 108 81.44745 
L 412.363636 81.44745 
" clip-path="url(#p86011329d4)" style="fill: none; stroke: #b0b0b0; stroke-width: 0.8; stroke-linecap: square"/>
     </g>
     <g id="line2d_26">
      <g>
       <use xlink:href="#m0d29979766" x="108" y="81.44745" style="stroke: #000000; stroke-width: 0.8"/>
      </g>
     </g>
     <g id="text_14">
      <!-- 0.75 -->
      <g transform="translate(78.734375 85.246668)scale(0.1 -0.1)">
       <use xlink:href="#DejaVuSans-30"/>
       <use xlink:href="#DejaVuSans-2e" x="63.623047"/>
       <use xlink:href="#DejaVuSans-37" x="95.410156"/>
       <use xlink:href="#DejaVuSans-35" x="159.033203"/>
      </g>
     </g>
    </g>
    <g id="text_15">
     <!-- Loss -->
     <g transform="translate(72.654687 192.767187)rotate(-90)scale(0.1 -0.1)">
      <defs>
       <path id="DejaVuSans-4c" d="M 628 4666 
L 1259 4666 
L 1259 531 
L 3531 531 
L 3531 0 
L 628 0 
L 628 4666 
z
" transform="scale(0.015625)"/>
       <path id="DejaVuSans-73" d="M 2834 3397 
L 2834 2853 
Q 2591 2978 2328 3040 
Q 2066 3103 1784 3103 
Q 1356 3103 1142 2972 
Q 928 2841 928 2578 
Q 928 2378 1081 2264 
Q 1234 2150 1697 2047 
L 1894 2003 
Q 2506 1872 2764 1633 
Q 3022 1394 3022 966 
Q 3022 478 2636 193 
Q 2250 -91 1575 -91 
Q 1294 -91 989 -36 
Q 684 19 347 128 
L 347 722 
Q 666 556 975 473 
Q 1284 391 1588 391 
Q 1994 391 2212 530 
Q 2431 669 2431 922 
Q 2431 1156 2273 1281 
Q 2116 1406 1581 1522 
L 1381 1569 
Q 847 1681 609 1914 
Q 372 2147 372 2553 
Q 372 3047 722 3315 
Q 1072 3584 1716 3584 
Q 2034 3584 2315 3537 
Q 2597 3491 2834 3397 
z
" transform="scale(0.015625)"/>
      </defs>
      <use xlink:href="#DejaVuSans-4c"/>
      <use xlink:href="#DejaVuSans-6f" x="53.962891"/>
      <use xlink:href="#DejaVuSans-73" x="115.144531"/>
      <use xlink:href="#DejaVuSans-73" x="167.244141"/>
     </g>
    </g>
   </g>
   <g id="line2d_27">
    <path d="M 121.834711 55.8 
L 122.665624 62.565161 
L 125.989279 86.714988 
L 126.26625 87.91227 
L 128.205048 100.602613 
L 128.482019 101.417341 
L 129.035962 105.03327 
L 129.312933 106.323069 
L 130.143846 111.490283 
L 130.97476 115.232834 
L 131.528702 118.424197 
L 132.359616 122.749853 
L 132.636587 123.669928 
L 133.467501 128.102585 
L 134.021443 130.847627 
L 135.406299 137.341907 
L 135.68327 137.626882 
L 135.960241 138.740119 
L 136.237212 140.666085 
L 136.514184 141.697506 
L 136.791155 143.613919 
L 137.068126 143.762967 
L 137.622068 146.033718 
L 137.89904 146.764022 
L 138.176011 148.612506 
L 138.452982 149.528152 
L 138.729953 149.839643 
L 139.006924 151.453416 
L 139.560867 153.64251 
L 139.837838 154.947784 
L 140.114809 155.0869 
L 140.668751 158.372819 
L 140.945723 158.421074 
L 141.222694 159.81879 
L 141.499665 160.598516 
L 141.776636 160.812425 
L 142.330579 163.337342 
L 142.60755 164.393883 
L 142.884521 164.643476 
L 143.715434 167.50955 
L 143.992406 168.097538 
L 144.269377 169.725302 
L 144.546348 170.042076 
L 147.039089 177.394152 
L 147.593031 178.921788 
L 148.977887 182.998909 
L 149.254858 182.894553 
L 149.531829 183.672652 
L 149.808801 185.010625 
L 150.085772 184.944053 
L 150.362743 185.601051 
L 150.639714 187.244843 
L 151.470628 188.42844 
L 151.747599 189.956732 
L 152.02457 190.527478 
L 152.301541 190.650867 
L 153.963368 194.932909 
L 154.24034 195.010206 
L 154.517311 195.332238 
L 154.794282 195.955154 
L 155.071253 196.129353 
L 155.625195 198.429566 
L 155.902167 198.784417 
L 156.179138 199.481321 
L 156.456109 199.844616 
L 156.73308 200.401767 
L 157.010051 201.317019 
L 157.287023 201.283962 
L 158.394907 203.608365 
L 158.671878 204.399176 
L 158.94885 204.705138 
L 159.225821 205.339728 
L 159.502792 206.347844 
L 159.779763 206.060248 
L 160.056734 207.127545 
L 160.333706 206.443843 
L 160.610677 207.10301 
L 161.164619 208.998273 
L 161.44159 209.047451 
L 161.718562 209.645837 
L 161.995533 209.941778 
L 162.272504 210.747448 
L 162.549475 210.890868 
L 162.826446 211.241283 
L 163.103417 212.0236 
L 163.380389 212.413607 
L 163.65736 212.351789 
L 163.934331 213.877534 
L 164.211302 214.30239 
L 164.488273 214.470545 
L 164.765245 213.97191 
L 165.319187 216.035529 
L 165.596158 216.169024 
L 165.873129 217.26746 
L 166.150101 216.579525 
L 166.427072 217.953603 
L 166.704043 218.374864 
L 166.981014 218.320661 
L 167.257985 218.435723 
L 167.534956 219.380426 
L 167.811928 219.516569 
L 168.088899 220.371944 
L 168.36587 219.989268 
L 168.642841 220.645688 
L 169.196784 222.359848 
L 169.473755 221.544147 
L 169.750726 222.492533 
L 170.027697 222.676228 
L 170.304668 223.137636 
L 170.581639 223.138836 
L 170.858611 223.527204 
L 171.135582 223.544022 
L 171.412553 224.739799 
L 171.689524 224.910882 
L 171.966495 225.877822 
L 172.243467 225.457352 
L 172.520438 226.200292 
L 172.797409 225.207319 
L 173.351351 227.930802 
L 173.628323 226.824963 
L 173.905294 227.345994 
L 174.182265 228.678964 
L 174.459236 228.956897 
L 174.736207 227.961034 
L 175.013178 228.841945 
L 175.29015 230.172311 
L 175.567121 229.582458 
L 176.398034 231.163567 
L 176.675006 230.467274 
L 176.951977 231.040242 
L 177.228948 232.496934 
L 177.78289 232.019941 
L 178.059862 233.677575 
L 178.336833 233.61575 
L 178.613804 233.898222 
L 178.890775 233.452977 
L 179.444717 234.813159 
L 179.721689 234.498287 
L 179.99866 234.983679 
L 180.275631 235.906134 
L 181.383516 235.555072 
L 182.214429 237.575617 
L 182.4914 237.547112 
L 182.768372 238.072063 
L 183.045343 238.326033 
L 183.322314 239.088859 
L 183.876256 239.239938 
L 184.430199 240.002353 
L 184.70717 240.155963 
L 184.984141 240.944006 
L 185.261112 240.660936 
L 185.815055 241.686145 
L 186.092026 241.714015 
L 186.645968 242.131837 
L 186.922939 241.727855 
L 187.199911 242.887611 
L 187.476882 242.302827 
L 187.753853 243.201448 
L 188.030824 242.85539 
L 188.307795 243.957822 
L 188.584767 243.534073 
L 188.861738 244.693641 
L 189.138709 244.040507 
L 189.41568 245.086851 
L 189.692651 245.4527 
L 189.969623 244.639841 
L 190.246594 245.271573 
L 190.523565 244.923814 
L 190.800536 245.672996 
L 191.077507 245.756276 
L 191.354478 245.667877 
L 191.908421 247.237372 
L 192.185392 246.296703 
L 192.462363 247.414872 
L 192.739334 247.354113 
L 193.016306 248.096916 
L 193.293277 247.4323 
L 193.847219 248.868068 
L 194.12419 248.740887 
L 194.401161 249.080829 
L 194.678133 249.056568 
L 194.955104 249.187418 
L 195.232075 250.259713 
L 195.509046 249.645121 
L 195.786017 250.831201 
L 196.062989 250.233705 
L 196.33996 250.39 
L 196.616931 250.053485 
L 196.893902 250.753395 
L 197.447845 251.517637 
L 197.724816 251.455334 
L 198.001787 251.535911 
L 198.278758 251.890368 
L 198.555729 252.616147 
L 198.8327 252.313381 
L 199.109672 253.405339 
L 199.386643 252.520755 
L 199.663614 252.840397 
L 199.940585 254.088375 
L 200.217556 253.595875 
L 200.494528 253.975163 
L 200.771499 253.867575 
L 201.04847 254.077396 
L 201.325441 254.633235 
L 201.602412 253.779062 
L 201.879384 254.732455 
L 202.156355 254.744206 
L 202.433326 255.231229 
L 202.987268 254.661956 
L 203.541211 256.566485 
L 204.095153 256.137992 
L 204.372124 257.320907 
L 204.649095 256.451042 
L 205.203038 257.535558 
L 205.480009 256.337263 
L 205.75698 257.817201 
L 206.033951 257.660724 
L 206.310922 257.190276 
L 206.587894 257.670973 
L 206.864865 257.830521 
L 207.418807 258.741733 
L 207.695778 258.283645 
L 208.249721 259.683891 
L 208.526692 258.904277 
L 208.803663 260.043808 
L 209.080634 259.966069 
L 209.357606 259.398274 
L 209.634577 259.928932 
L 209.911548 260.795376 
L 210.188519 260.521481 
L 210.46549 260.690542 
L 210.742461 259.923884 
L 211.019433 261.407647 
L 211.296404 261.252492 
L 211.850346 261.193457 
L 212.404289 261.57745 
L 212.68126 262.444156 
L 212.958231 261.679807 
L 213.235202 262.640215 
L 213.512173 262.170719 
L 213.789145 263.581056 
L 214.066116 261.150546 
L 214.343087 263.713906 
L 214.620058 263.753942 
L 214.897029 262.586834 
L 215.174 263.665431 
L 215.450972 264.109282 
L 215.727943 263.832714 
L 216.004914 264.586141 
L 216.281885 263.831691 
L 216.558856 264.680932 
L 216.835828 264.657398 
L 217.112799 264.185409 
L 217.38977 264.329028 
L 217.666741 265.036486 
L 218.497655 264.750803 
L 218.774626 265.906297 
L 219.051597 265.55429 
L 219.328568 265.885987 
L 219.605539 265.747557 
L 219.882511 265.89686 
L 220.159482 266.472948 
L 220.436453 266.368371 
L 220.713424 267.1143 
L 220.990395 266.205713 
L 221.544338 267.679467 
L 221.821309 267.046644 
L 222.09828 267.607229 
L 222.375251 267.640398 
L 222.652222 268.358451 
L 222.929194 268.257218 
L 223.206165 267.160416 
L 223.483136 268.211032 
L 224.037078 268.57379 
L 224.31405 268.663563 
L 224.591021 268.390913 
L 224.867992 269.348505 
L 225.144963 268.960373 
L 225.421934 269.232318 
L 225.698906 269.953279 
L 225.975877 268.879745 
L 226.252848 269.927369 
L 226.529819 269.759144 
L 226.80679 270.755518 
L 227.083761 269.729108 
L 227.360733 270.060172 
L 227.914675 270.363512 
L 228.191646 270.97293 
L 228.468617 270.810654 
L 228.745589 271.432477 
L 229.02256 271.065913 
L 229.299531 271.879398 
L 229.576502 271.572015 
L 230.130444 271.42996 
L 230.407416 271.195659 
L 230.684387 271.546939 
L 230.961358 270.767922 
L 231.238329 271.994636 
L 231.5153 271.426475 
L 231.792272 272.491459 
L 232.069243 273.041556 
L 232.346214 272.641343 
L 232.623185 272.476749 
L 233.177128 273.186511 
L 233.454099 272.98744 
L 233.73107 273.873874 
L 234.008041 273.030718 
L 234.285012 272.717359 
L 234.561983 274.040731 
L 234.838955 273.226793 
L 235.115926 273.672719 
L 235.392897 273.281686 
L 235.669868 274.679227 
L 235.946839 273.987093 
L 236.223811 274.555097 
L 236.500782 274.559781 
L 236.777753 274.699946 
L 237.054724 275.443037 
L 237.331695 274.399348 
L 237.608667 274.824253 
L 237.885638 273.393031 
L 238.162609 275.224195 
L 238.43958 275.507278 
L 238.716551 275.012793 
L 239.547465 276.315987 
L 239.824436 275.983065 
L 240.101407 276.212828 
L 240.378378 275.962548 
L 240.65535 276.824959 
L 240.932321 276.618353 
L 241.209292 275.734734 
L 241.486263 276.82717 
L 241.763234 277.235348 
L 242.040205 275.943133 
L 242.317177 276.465563 
L 242.594148 277.41099 
L 242.871119 276.929696 
L 243.14809 277.196517 
L 243.425061 277.819772 
L 243.702033 277.419259 
L 243.979004 278.170409 
L 244.255975 278.057005 
L 244.809917 278.676046 
L 245.086889 277.625061 
L 245.36386 278.770897 
L 245.640831 278.117051 
L 245.917802 278.269696 
L 246.194773 277.909511 
L 246.471744 278.855508 
L 246.748716 279.113423 
L 247.302658 278.122313 
L 247.579629 278.858098 
L 247.8566 278.822388 
L 248.133572 279.565448 
L 248.410543 278.313121 
L 248.687514 279.547619 
L 248.964485 278.854563 
L 249.518428 280.251794 
L 250.07237 280.444756 
L 250.626312 279.576168 
L 250.903283 280.214605 
L 251.180255 279.769829 
L 251.457226 281.251982 
L 251.734197 279.358261 
L 252.011168 279.692546 
L 252.288139 280.835507 
L 252.565111 280.364313 
L 252.842082 281.724469 
L 253.119053 280.621054 
L 253.396024 281.798096 
L 253.672995 280.89974 
L 253.949966 280.909446 
L 254.226938 281.369842 
L 254.503909 280.537228 
L 254.78088 281.647819 
L 255.334822 281.508462 
L 255.611794 281.701279 
L 255.888765 282.261671 
L 256.165736 282.366299 
L 256.442707 281.704955 
L 256.719678 282.221258 
L 256.99665 281.934489 
L 257.273621 281.477502 
L 257.550592 282.581072 
L 257.827563 282.914001 
L 258.104534 283.450438 
L 258.381505 283.195786 
L 258.658477 283.84203 
L 258.935448 282.650647 
L 259.48939 283.778031 
L 259.766361 283.178927 
L 260.597275 283.510536 
L 260.874246 283.391659 
L 261.151217 283.800309 
L 261.428189 283.461497 
L 261.70516 284.051488 
L 261.982131 284.165472 
L 262.259102 283.849266 
L 262.536073 284.727976 
L 262.813044 284.450017 
L 263.090016 284.838791 
L 263.643958 284.105648 
L 263.920929 284.322985 
L 264.1979 285.165232 
L 264.474872 285.051315 
L 264.751843 284.737578 
L 265.028814 283.515304 
L 265.582756 286.079667 
L 265.859727 284.968712 
L 266.136699 284.504033 
L 266.690641 285.327314 
L 267.521555 285.51955 
L 267.798526 285.846374 
L 268.075497 286.386313 
L 268.352468 286.281181 
L 268.629439 286.415308 
L 268.906411 285.990573 
L 269.460353 286.919478 
L 269.737324 286.454093 
L 270.014295 285.70216 
L 270.291266 285.566356 
L 270.568238 286.904476 
L 270.845209 286.328304 
L 271.12218 287.779675 
L 271.399151 286.978423 
L 271.676122 286.570566 
L 271.953094 287.116874 
L 272.230065 287.213972 
L 272.507036 286.604017 
L 272.784007 286.95877 
L 273.060978 287.955348 
L 273.614921 287.024115 
L 273.891892 287.689088 
L 274.445834 287.633423 
L 274.722805 287.483765 
L 274.999777 287.760664 
L 275.553719 288.680881 
L 275.83069 287.804377 
L 276.107661 287.587502 
L 276.384633 288.682972 
L 276.661604 288.170233 
L 276.938575 288.098905 
L 277.215546 288.8138 
L 277.492517 287.906401 
L 277.769488 288.641533 
L 278.04646 288.875213 
L 278.323431 288.861449 
L 278.877373 289.109237 
L 279.154344 288.776334 
L 279.431316 289.129237 
L 279.708287 288.932907 
L 279.985258 289.453912 
L 280.262229 288.389297 
L 280.5392 289.013604 
L 280.816172 288.997429 
L 281.093143 289.631396 
L 281.370114 290.60092 
L 281.647085 290.301291 
L 282.201027 289.500267 
L 282.477999 289.731903 
L 282.75497 290.48686 
L 283.031941 290.267072 
L 283.308912 288.929174 
L 283.862855 290.594647 
L 284.139826 290.327419 
L 284.416797 291.04518 
L 284.693768 289.875005 
L 285.247711 291.15637 
L 285.524682 290.96083 
L 285.801653 291.602551 
L 286.355595 291.267832 
L 286.632566 291.107942 
L 286.909538 290.532993 
L 287.186509 290.530705 
L 287.46348 291.262638 
L 287.740451 290.530314 
L 288.294394 292.354332 
L 288.571365 292.101261 
L 288.848336 290.451515 
L 289.125307 291.481182 
L 289.679249 290.903044 
L 290.233192 291.721614 
L 290.787134 291.734184 
L 291.064105 291.686949 
L 291.341077 292.497924 
L 291.618048 291.687911 
L 291.895019 292.615698 
L 292.17199 292.03536 
L 292.448961 292.654605 
L 292.725933 291.834003 
L 293.279875 292.792897 
L 293.556846 292.933029 
L 293.833817 291.963646 
L 294.110788 292.789916 
L 294.38776 293.019565 
L 294.664731 293.526561 
L 294.941702 292.887806 
L 295.218673 293.387762 
L 295.495644 291.760534 
L 295.772616 292.677944 
L 296.049587 292.120565 
L 296.326558 294.435148 
L 296.603529 293.111598 
L 296.8805 292.974106 
L 297.157472 293.871386 
L 297.434443 293.876686 
L 297.988385 292.851404 
L 298.265356 293.237942 
L 298.542327 293.082142 
L 298.819299 293.116263 
L 299.09627 293.87469 
L 299.373241 293.840887 
L 299.650212 293.215851 
L 299.927183 293.371733 
L 300.204155 294.055611 
L 300.481126 293.867597 
L 300.758097 294.306892 
L 301.035068 293.70325 
L 301.312039 294.965543 
L 301.58901 294.570131 
L 301.865982 293.471219 
L 302.142953 294.903006 
L 302.419924 293.935497 
L 302.696895 294.949177 
L 302.973866 294.822777 
L 303.250838 293.51636 
L 303.527809 294.942294 
L 303.80478 294.76772 
L 304.081751 294.947518 
L 304.358722 295.268016 
L 304.635694 295.256375 
L 304.912665 295.669511 
L 305.189636 293.539314 
L 305.466607 294.485952 
L 305.743578 294.85501 
L 306.020549 294.439253 
L 306.297521 295.592504 
L 306.574492 294.910137 
L 306.851463 295.204812 
L 307.128434 295.100469 
L 307.405405 295.399573 
L 307.682377 295.179264 
L 307.959348 295.837185 
L 308.236319 294.982776 
L 308.51329 296.527003 
L 308.790261 295.069706 
L 309.067233 295.602492 
L 309.344204 296.46678 
L 309.898146 296.477219 
L 310.175117 295.285662 
L 310.452088 296.360812 
L 310.72906 296.778948 
L 311.006031 296.2195 
L 311.283002 296.996521 
L 311.559973 296.68135 
L 311.836944 296.723706 
L 312.113916 295.168919 
L 312.390887 295.963767 
L 312.944829 296.43329 
L 313.2218 295.95001 
L 313.498771 296.739567 
L 314.052714 295.939101 
L 314.329685 296.612202 
L 314.606656 295.90163 
L 315.160599 297.589664 
L 315.43757 296.994315 
L 315.714541 297.233402 
L 315.991512 296.722023 
L 316.268483 296.696346 
L 316.545455 297.777907 
L 316.822426 296.577191 
L 317.099397 297.186833 
L 317.376368 297.450184 
L 317.93031 297.081423 
L 318.207282 297.476436 
L 318.484253 297.59945 
L 318.761224 296.435822 
L 319.038195 296.689688 
L 319.592138 297.957348 
L 319.869109 296.745752 
L 320.423051 296.875189 
L 320.700022 297.872909 
L 320.976994 295.852946 
L 321.253965 298.261131 
L 322.084878 298.244755 
L 322.361849 297.710931 
L 322.638821 298.454419 
L 322.915792 296.833933 
L 323.469734 298.326926 
L 323.746705 298.312786 
L 324.023677 298.549678 
L 324.300648 299.58376 
L 324.577619 298.952292 
L 324.85459 297.753159 
L 325.131561 298.218179 
L 325.408532 298.288272 
L 325.685504 298.155154 
L 325.962475 298.311085 
L 326.239446 298.601881 
L 326.793388 298.636302 
L 327.07036 298.93327 
L 327.901273 298.119 
L 328.455216 299.418168 
L 328.732187 299.407798 
L 329.286129 298.293387 
L 329.5631 299.366669 
L 329.840071 298.590976 
L 330.117043 299.054017 
L 330.394014 299.134991 
L 330.670985 300.416763 
L 330.947956 299.524196 
L 331.224927 300.252506 
L 331.501899 299.370851 
L 331.77887 300.138116 
L 332.055841 299.778266 
L 332.332812 299.656108 
L 332.609783 298.549482 
L 332.886755 300.212689 
L 333.163726 300.171598 
L 333.440697 299.373757 
L 333.717668 300.327927 
L 333.994639 300.228908 
L 334.27161 298.533358 
L 334.548582 299.566545 
L 335.102524 300.016591 
L 335.656466 299.735211 
L 335.933438 299.969363 
L 336.210409 300.506597 
L 336.48738 299.745406 
L 336.764351 300.469821 
L 337.041322 299.388418 
L 337.318294 299.995873 
L 337.595265 299.974382 
L 337.872236 300.689414 
L 338.149207 300.502173 
L 338.426178 300.897367 
L 338.703149 300.80525 
L 338.980121 300.42322 
L 339.257092 301.145655 
L 339.534063 301.39036 
L 339.811034 300.913136 
L 340.088005 301.255156 
L 340.364977 300.024933 
L 340.641948 301.363363 
L 340.918919 301.442159 
L 341.19589 300.571039 
L 341.472861 301.008219 
L 341.749832 300.522887 
L 342.026804 301.928073 
L 342.303775 300.952852 
L 342.857717 300.477724 
L 343.134688 300.710517 
L 343.41166 300.479516 
L 343.688631 301.593714 
L 343.965602 300.637448 
L 344.242573 300.760489 
L 344.519544 301.828988 
L 344.796516 301.103594 
L 345.073487 301.88769 
L 345.350458 300.841131 
L 345.627429 302.314405 
L 345.9044 302.401101 
L 346.181371 301.441456 
L 346.458343 302.047109 
L 346.735314 301.962309 
L 347.012285 301.69035 
L 347.289256 301.992282 
L 347.566227 300.079417 
L 347.843199 301.449933 
L 348.12017 301.312098 
L 348.397141 301.964543 
L 348.674112 300.113787 
L 348.951083 301.446149 
L 349.228055 301.140437 
L 349.505026 302.04537 
L 349.781997 302.381589 
L 350.058968 303.070263 
L 350.335939 302.089901 
L 350.61291 301.711156 
L 350.889882 302.60449 
L 351.166853 301.811412 
L 351.443824 302.756655 
L 351.720795 302.728841 
L 351.997766 302.078902 
L 352.274738 303.285866 
L 352.551709 303.311107 
L 353.105651 302.302905 
L 353.382622 302.300857 
L 353.659593 302.817213 
L 353.936565 302.862257 
L 354.213536 302.316957 
L 354.490507 302.637763 
L 354.767478 303.406825 
L 355.044449 302.922322 
L 355.321421 301.96521 
L 355.598392 303.458598 
L 355.875363 304.191955 
L 356.429305 302.077933 
L 356.706277 303.316323 
L 356.983248 303.112814 
L 357.260219 302.218484 
L 357.53719 303.456662 
L 357.814161 303.729067 
L 358.091132 303.385428 
L 358.368104 303.680328 
L 358.645075 303.743993 
L 359.475988 302.639774 
L 359.75296 303.458967 
L 360.029931 302.688522 
L 360.306902 302.897389 
L 360.583873 302.235358 
L 360.860844 304.107576 
L 361.137816 303.900693 
L 361.414787 302.526162 
L 361.691758 303.872523 
L 361.968729 304.023541 
L 362.2457 304.487551 
L 362.799643 303.245302 
L 363.353585 303.773565 
L 363.630556 304.248746 
L 363.907527 304.388808 
L 364.46147 303.250347 
L 364.738441 304.452822 
L 365.015412 304.441257 
L 365.569354 303.523795 
L 365.846326 303.192799 
L 366.123297 304.41827 
L 366.400268 304.843192 
L 366.677239 302.667261 
L 366.95421 304.436731 
L 367.231182 303.141422 
L 367.508153 304.059988 
L 367.785124 303.638211 
L 368.062095 303.524253 
L 368.339066 303.595488 
L 368.616038 304.811769 
L 368.893009 304.47623 
L 369.16998 303.885971 
L 369.446951 304.705651 
L 370.000893 304.893046 
L 370.277865 303.982117 
L 370.554836 304.905346 
L 371.108778 303.252605 
L 371.385749 305.050936 
L 371.662721 304.182486 
L 372.493634 305.228121 
L 372.770605 304.121906 
L 373.047577 305.143732 
L 373.324548 303.706861 
L 373.601519 304.808323 
L 373.87849 304.762848 
L 374.155461 305.666183 
L 374.432432 305.49309 
L 374.709404 305.794856 
L 374.986375 305.481622 
L 375.263346 303.528302 
L 376.09426 305.261087 
L 376.371231 303.891953 
L 376.648202 304.009025 
L 376.925173 305.029635 
L 377.202144 304.952132 
L 377.479115 304.465203 
L 377.756087 305.944474 
L 378.033058 305.633491 
L 378.310029 304.946913 
L 378.587 305.611013 
L 378.863971 305.641515 
L 379.140943 305.161813 
L 379.694885 305.708115 
L 379.971856 306.284114 
L 380.525799 305.353681 
L 380.80277 306.018925 
L 381.079741 305.610267 
L 381.356712 305.921242 
L 381.633683 305.716047 
L 381.910654 305.335773 
L 382.187626 305.183748 
L 382.464597 306.214853 
L 382.741568 305.226554 
L 383.018539 305.559559 
L 383.29551 305.258389 
L 383.572482 306.257417 
L 383.849453 304.584064 
L 384.126424 306.114077 
L 384.403395 305.682666 
L 384.680366 306.199589 
L 384.957338 305.364304 
L 385.51128 306.187633 
L 385.788251 305.944597 
L 386.065222 306.608333 
L 386.342193 305.835527 
L 386.619165 306.153623 
L 387.727049 305.382081 
L 388.004021 306.865357 
L 388.280992 307.082974 
L 388.557963 306.929028 
L 388.834934 306.343537 
L 389.111905 306.623053 
L 389.388876 306.437229 
L 389.665848 306.547459 
L 389.942819 305.845621 
L 390.21979 306.083716 
L 390.496761 306.995461 
L 390.773732 306.745899 
L 391.050704 305.481371 
L 391.327675 307.090051 
L 391.604646 306.177189 
L 391.881617 307.437268 
L 392.158588 305.821568 
L 392.43556 306.165861 
L 392.712531 307.49504 
L 393.266473 305.812271 
L 393.543444 304.96021 
L 393.820415 307.356532 
L 394.097387 306.958687 
L 394.374358 307.098217 
L 394.651329 306.992906 
L 394.9283 307.711389 
L 395.205271 307.058194 
L 395.482243 307.8 
L 395.759214 306.714657 
L 396.036185 306.162121 
L 396.313156 306.765485 
L 396.590127 306.853023 
L 396.867099 307.557094 
L 397.14407 305.988827 
L 397.421041 307.237814 
L 397.698012 306.233175 
L 397.974983 306.845757 
L 398.251954 306.938705 
L 398.528926 307.697511 
L 398.528926 307.697511 
" clip-path="url(#p86011329d4)" style="fill: none; stroke: #1f77b4; stroke-width: 1.5; stroke-linecap: square"/>
   </g>
   <g id="line2d_28">
    <path d="M 121.834711 96.591839 
L 124.05048 109.771826 
L 126.26625 121.534701 
L 128.482019 132.063058 
L 130.697789 141.495334 
L 132.913558 149.982567 
L 135.406299 158.529829 
L 137.89904 166.16051 
L 140.39178 173.009743 
L 142.884521 179.17347 
L 145.377262 184.744539 
L 148.146973 190.33211 
L 150.639714 194.890455 
L 153.686397 199.958238 
L 156.73308 204.534915 
L 159.779763 208.701758 
L 162.549475 212.176561 
L 165.873129 216.015784 
L 169.473755 219.816468 
L 173.351351 223.537221 
L 177.505919 227.188907 
L 181.660487 230.539487 
L 185.815055 233.63858 
L 191.077507 237.236268 
L 196.33996 240.516418 
L 201.325441 243.397098 
L 206.864865 246.348035 
L 214.066116 249.850404 
L 220.159482 252.578463 
L 227.083761 255.436602 
L 235.115926 258.453284 
L 242.317177 260.923929 
L 251.734197 263.86009 
L 265.582756 267.698613 
L 271.399151 269.160236 
L 285.801653 272.422192 
L 299.650212 275.145478 
L 320.423051 278.592279 
L 332.609783 280.340768 
L 345.9044 282.016209 
L 361.414787 283.73796 
L 381.910654 285.678443 
L 394.374358 286.701001 
L 398.528926 287.014659 
L 398.528926 287.014659 
" clip-path="url(#p86011329d4)" style="fill: none; stroke: #ff7f0e; stroke-width: 1.5; stroke-linecap: square"/>
   </g>
   <g id="patch_3">
    <path d="M 108 320.4 
L 108 43.2 
" style="fill: none; stroke: #000000; stroke-width: 0.8; stroke-linejoin: miter; stroke-linecap: square"/>
   </g>
   <g id="patch_4">
    <path d="M 412.363636 320.4 
L 412.363636 43.2 
" style="fill: none; stroke: #000000; stroke-width: 0.8; stroke-linejoin: miter; stroke-linecap: square"/>
   </g>
   <g id="patch_5">
    <path d="M 108 320.4 
L 412.363636 320.4 
" style="fill: none; stroke: #000000; stroke-width: 0.8; stroke-linejoin: miter; stroke-linecap: square"/>
   </g>
   <g id="patch_6">
    <path d="M 108 43.2 
L 412.363636 43.2 
" style="fill: none; stroke: #000000; stroke-width: 0.8; stroke-linejoin: miter; stroke-linecap: square"/>
   </g>
   <g id="text_16">
    <!-- Loss Curve -->
    <g transform="translate(227.412443 37.2)scale(0.12 -0.12)">
     <defs>
      <path id="DejaVuSans-20" transform="scale(0.015625)"/>
      <path id="DejaVuSans-43" d="M 4122 4306 
L 4122 3641 
Q 3803 3938 3442 4084 
Q 3081 4231 2675 4231 
Q 1875 4231 1450 3742 
Q 1025 3253 1025 2328 
Q 1025 1406 1450 917 
Q 1875 428 2675 428 
Q 3081 428 3442 575 
Q 3803 722 4122 1019 
L 4122 359 
Q 3791 134 3420 21 
Q 3050 -91 2638 -91 
Q 1578 -91 968 557 
Q 359 1206 359 2328 
Q 359 3453 968 4101 
Q 1578 4750 2638 4750 
Q 3056 4750 3426 4639 
Q 3797 4528 4122 4306 
z
" transform="scale(0.015625)"/>
      <path id="DejaVuSans-75" d="M 544 1381 
L 544 3500 
L 1119 3500 
L 1119 1403 
Q 1119 906 1312 657 
Q 1506 409 1894 409 
Q 2359 409 2629 706 
Q 2900 1003 2900 1516 
L 2900 3500 
L 3475 3500 
L 3475 0 
L 2900 0 
L 2900 538 
Q 2691 219 2414 64 
Q 2138 -91 1772 -91 
Q 1169 -91 856 284 
Q 544 659 544 1381 
z
M 1991 3584 
L 1991 3584 
z
" transform="scale(0.015625)"/>
      <path id="DejaVuSans-72" d="M 2631 2963 
Q 2534 3019 2420 3045 
Q 2306 3072 2169 3072 
Q 1681 3072 1420 2755 
Q 1159 2438 1159 1844 
L 1159 0 
L 581 0 
L 581 3500 
L 1159 3500 
L 1159 2956 
Q 1341 3275 1631 3429 
Q 1922 3584 2338 3584 
Q 2397 3584 2469 3576 
Q 2541 3569 2628 3553 
L 2631 2963 
z
" transform="scale(0.015625)"/>
      <path id="DejaVuSans-76" d="M 191 3500 
L 800 3500 
L 1894 563 
L 2988 3500 
L 3597 3500 
L 2284 0 
L 1503 0 
L 191 3500 
z
" transform="scale(0.015625)"/>
      <path id="DejaVuSans-65" d="M 3597 1894 
L 3597 1613 
L 953 1613 
Q 991 1019 1311 708 
Q 1631 397 2203 397 
Q 2534 397 2845 478 
Q 3156 559 3463 722 
L 3463 178 
Q 3153 47 2828 -22 
Q 2503 -91 2169 -91 
Q 1331 -91 842 396 
Q 353 884 353 1716 
Q 353 2575 817 3079 
Q 1281 3584 2069 3584 
Q 2775 3584 3186 3129 
Q 3597 2675 3597 1894 
z
M 3022 2063 
Q 3016 2534 2758 2815 
Q 2500 3097 2075 3097 
Q 1594 3097 1305 2825 
Q 1016 2553 972 2059 
L 3022 2063 
z
" transform="scale(0.015625)"/>
     </defs>
     <use xlink:href="#DejaVuSans-4c"/>
     <use xlink:href="#DejaVuSans-6f" x="53.962891"/>
     <use xlink:href="#DejaVuSans-73" x="115.144531"/>
     <use xlink:href="#DejaVuSans-73" x="167.244141"/>
     <use xlink:href="#DejaVuSans-20" x="219.34375"/>
     <use xlink:href="#DejaVuSans-43" x="251.130859"/>
     <use xlink:href="#DejaVuSans-75" x="320.955078"/>
     <use xlink:href="#DejaVuSans-72" x="384.333984"/>
     <use xlink:href="#DejaVuSans-76" x="425.447266"/>
     <use xlink:href="#DejaVuSans-65" x="484.626953"/>
    </g>
   </g>
   <g id="legend_1">
    <g id="patch_7">
     <path d="M 298.869886 80.55625 
L 405.363636 80.55625 
Q 407.363636 80.55625 407.363636 78.55625 
L 407.363636 50.2 
Q 407.363636 48.2 405.363636 48.2 
L 298.869886 48.2 
Q 296.869886 48.2 296.869886 50.2 
L 296.869886 78.55625 
Q 296.869886 80.55625 298.869886 80.55625 
z
" style="fill: #ffffff; opacity: 0.8; stroke: #cccccc; stroke-linejoin: miter"/>
    </g>
    <g id="line2d_29">
     <path d="M 300.869886 56.298437 
L 310.869886 56.298437 
L 320.869886 56.298437 
" style="fill: none; stroke: #1f77b4; stroke-width: 1.5; stroke-linecap: square"/>
    </g>
    <g id="text_17">
     <!-- Train Loss -->
     <g transform="translate(328.869886 59.798437)scale(0.1 -0.1)">
      <defs>
       <path id="DejaVuSans-54" d="M -19 4666 
L 3928 4666 
L 3928 4134 
L 2272 4134 
L 2272 0 
L 1638 0 
L 1638 4134 
L -19 4134 
L -19 4666 
z
" transform="scale(0.015625)"/>
       <path id="DejaVuSans-61" d="M 2194 1759 
Q 1497 1759 1228 1600 
Q 959 1441 959 1056 
Q 959 750 1161 570 
Q 1363 391 1709 391 
Q 2188 391 2477 730 
Q 2766 1069 2766 1631 
L 2766 1759 
L 2194 1759 
z
M 3341 1997 
L 3341 0 
L 2766 0 
L 2766 531 
Q 2569 213 2275 61 
Q 1981 -91 1556 -91 
Q 1019 -91 701 211 
Q 384 513 384 1019 
Q 384 1609 779 1909 
Q 1175 2209 1959 2209 
L 2766 2209 
L 2766 2266 
Q 2766 2663 2505 2880 
Q 2244 3097 1772 3097 
Q 1472 3097 1187 3025 
Q 903 2953 641 2809 
L 641 3341 
Q 956 3463 1253 3523 
Q 1550 3584 1831 3584 
Q 2591 3584 2966 3190 
Q 3341 2797 3341 1997 
z
" transform="scale(0.015625)"/>
       <path id="DejaVuSans-69" d="M 603 3500 
L 1178 3500 
L 1178 0 
L 603 0 
L 603 3500 
z
M 603 4863 
L 1178 4863 
L 1178 4134 
L 603 4134 
L 603 4863 
z
" transform="scale(0.015625)"/>
       <path id="DejaVuSans-6e" d="M 3513 2113 
L 3513 0 
L 2938 0 
L 2938 2094 
Q 2938 2591 2744 2837 
Q 2550 3084 2163 3084 
Q 1697 3084 1428 2787 
Q 1159 2491 1159 1978 
L 1159 0 
L 581 0 
L 581 3500 
L 1159 3500 
L 1159 2956 
Q 1366 3272 1645 3428 
Q 1925 3584 2291 3584 
Q 2894 3584 3203 3211 
Q 3513 2838 3513 2113 
z
" transform="scale(0.015625)"/>
      </defs>
      <use xlink:href="#DejaVuSans-54"/>
      <use xlink:href="#DejaVuSans-72" x="46.333984"/>
      <use xlink:href="#DejaVuSans-61" x="87.447266"/>
      <use xlink:href="#DejaVuSans-69" x="148.726562"/>
      <use xlink:href="#DejaVuSans-6e" x="176.509766"/>
      <use xlink:href="#DejaVuSans-20" x="239.888672"/>
      <use xlink:href="#DejaVuSans-4c" x="271.675781"/>
      <use xlink:href="#DejaVuSans-6f" x="325.638672"/>
      <use xlink:href="#DejaVuSans-73" x="386.820312"/>
      <use xlink:href="#DejaVuSans-73" x="438.919922"/>
     </g>
    </g>
    <g id="line2d_30">
     <path d="M 300.869886 70.976562 
L 310.869886 70.976562 
L 320.869886 70.976562 
" style="fill: none; stroke: #ff7f0e; stroke-width: 1.5; stroke-linecap: square"/>
    </g>
    <g id="text_18">
     <!-- Validation Loss -->
     <g transform="translate(328.869886 74.476562)scale(0.1 -0.1)">
      <defs>
       <path id="DejaVuSans-56" d="M 1831 0 
L 50 4666 
L 709 4666 
L 2188 738 
L 3669 4666 
L 4325 4666 
L 2547 0 
L 1831 0 
z
" transform="scale(0.015625)"/>
       <path id="DejaVuSans-6c" d="M 603 4863 
L 1178 4863 
L 1178 0 
L 603 0 
L 603 4863 
z
" transform="scale(0.015625)"/>
       <path id="DejaVuSans-64" d="M 2906 2969 
L 2906 4863 
L 3481 4863 
L 3481 0 
L 2906 0 
L 2906 525 
Q 2725 213 2448 61 
Q 2172 -91 1784 -91 
Q 1150 -91 751 415 
Q 353 922 353 1747 
Q 353 2572 751 3078 
Q 1150 3584 1784 3584 
Q 2172 3584 2448 3432 
Q 2725 3281 2906 2969 
z
M 947 1747 
Q 947 1113 1208 752 
Q 1469 391 1925 391 
Q 2381 391 2643 752 
Q 2906 1113 2906 1747 
Q 2906 2381 2643 2742 
Q 2381 3103 1925 3103 
Q 1469 3103 1208 2742 
Q 947 2381 947 1747 
z
" transform="scale(0.015625)"/>
       <path id="DejaVuSans-74" d="M 1172 4494 
L 1172 3500 
L 2356 3500 
L 2356 3053 
L 1172 3053 
L 1172 1153 
Q 1172 725 1289 603 
Q 1406 481 1766 481 
L 2356 481 
L 2356 0 
L 1766 0 
Q 1100 0 847 248 
Q 594 497 594 1153 
L 594 3053 
L 172 3053 
L 172 3500 
L 594 3500 
L 594 4494 
L 1172 4494 
z
" transform="scale(0.015625)"/>
      </defs>
      <use xlink:href="#DejaVuSans-56"/>
      <use xlink:href="#DejaVuSans-61" x="60.658203"/>
      <use xlink:href="#DejaVuSans-6c" x="121.9375"/>
      <use xlink:href="#DejaVuSans-69" x="149.720703"/>
      <use xlink:href="#DejaVuSans-64" x="177.503906"/>
      <use xlink:href="#DejaVuSans-61" x="240.980469"/>
      <use xlink:href="#DejaVuSans-74" x="302.259766"/>
      <use xlink:href="#DejaVuSans-69" x="341.46875"/>
      <use xlink:href="#DejaVuSans-6f" x="369.251953"/>
      <use xlink:href="#DejaVuSans-6e" x="430.433594"/>
      <use xlink:href="#DejaVuSans-20" x="493.8125"/>
      <use xlink:href="#DejaVuSans-4c" x="525.599609"/>
      <use xlink:href="#DejaVuSans-6f" x="579.5625"/>
      <use xlink:href="#DejaVuSans-73" x="640.744141"/>
      <use xlink:href="#DejaVuSans-73" x="692.84375"/>
     </g>
    </g>
   </g>
  </g>
  <g id="axes_2">
   <g id="patch_8">
    <path d="M 473.236364 320.4 
L 777.6 320.4 
L 777.6 43.2 
L 473.236364 43.2 
z
" style="fill: #ffffff"/>
   </g>
   <g id="matplotlib.axis_3">
    <g id="xtick_7">
     <g id="line2d_31">
      <path d="M 487.071074 320.4 
L 487.071074 43.2 
" clip-path="url(#p48b78895bc)" style="fill: none; stroke: #b0b0b0; stroke-width: 0.8; stroke-linecap: square"/>
     </g>
     <g id="line2d_32">
      <g>
       <use xlink:href="#mfc322a35fe" x="487.071074" y="320.4" style="stroke: #000000; stroke-width: 0.8"/>
      </g>
     </g>
     <g id="text_19">
      <!-- 0 -->
      <g transform="translate(483.889824 334.998438)scale(0.1 -0.1)">
       <use xlink:href="#DejaVuSans-30"/>
      </g>
     </g>
    </g>
    <g id="xtick_8">
     <g id="line2d_33">
      <path d="M 542.465312 320.4 
L 542.465312 43.2 
" clip-path="url(#p48b78895bc)" style="fill: none; stroke: #b0b0b0; stroke-width: 0.8; stroke-linecap: square"/>
     </g>
     <g id="line2d_34">
      <g>
       <use xlink:href="#mfc322a35fe" x="542.465312" y="320.4" style="stroke: #000000; stroke-width: 0.8"/>
      </g>
     </g>
     <g id="text_20">
      <!-- 200 -->
      <g transform="translate(532.921562 334.998438)scale(0.1 -0.1)">
       <use xlink:href="#DejaVuSans-32"/>
       <use xlink:href="#DejaVuSans-30" x="63.623047"/>
       <use xlink:href="#DejaVuSans-30" x="127.246094"/>
      </g>
     </g>
    </g>
    <g id="xtick_9">
     <g id="line2d_35">
      <path d="M 597.859549 320.4 
L 597.859549 43.2 
" clip-path="url(#p48b78895bc)" style="fill: none; stroke: #b0b0b0; stroke-width: 0.8; stroke-linecap: square"/>
     </g>
     <g id="line2d_36">
      <g>
       <use xlink:href="#mfc322a35fe" x="597.859549" y="320.4" style="stroke: #000000; stroke-width: 0.8"/>
      </g>
     </g>
     <g id="text_21">
      <!-- 400 -->
      <g transform="translate(588.315799 334.998438)scale(0.1 -0.1)">
       <use xlink:href="#DejaVuSans-34"/>
       <use xlink:href="#DejaVuSans-30" x="63.623047"/>
       <use xlink:href="#DejaVuSans-30" x="127.246094"/>
      </g>
     </g>
    </g>
    <g id="xtick_10">
     <g id="line2d_37">
      <path d="M 653.253786 320.4 
L 653.253786 43.2 
" clip-path="url(#p48b78895bc)" style="fill: none; stroke: #b0b0b0; stroke-width: 0.8; stroke-linecap: square"/>
     </g>
     <g id="line2d_38">
      <g>
       <use xlink:href="#mfc322a35fe" x="653.253786" y="320.4" style="stroke: #000000; stroke-width: 0.8"/>
      </g>
     </g>
     <g id="text_22">
      <!-- 600 -->
      <g transform="translate(643.710036 334.998438)scale(0.1 -0.1)">
       <use xlink:href="#DejaVuSans-36"/>
       <use xlink:href="#DejaVuSans-30" x="63.623047"/>
       <use xlink:href="#DejaVuSans-30" x="127.246094"/>
      </g>
     </g>
    </g>
    <g id="xtick_11">
     <g id="line2d_39">
      <path d="M 708.648023 320.4 
L 708.648023 43.2 
" clip-path="url(#p48b78895bc)" style="fill: none; stroke: #b0b0b0; stroke-width: 0.8; stroke-linecap: square"/>
     </g>
     <g id="line2d_40">
      <g>
       <use xlink:href="#mfc322a35fe" x="708.648023" y="320.4" style="stroke: #000000; stroke-width: 0.8"/>
      </g>
     </g>
     <g id="text_23">
      <!-- 800 -->
      <g transform="translate(699.104273 334.998438)scale(0.1 -0.1)">
       <use xlink:href="#DejaVuSans-38"/>
       <use xlink:href="#DejaVuSans-30" x="63.623047"/>
       <use xlink:href="#DejaVuSans-30" x="127.246094"/>
      </g>
     </g>
    </g>
    <g id="xtick_12">
     <g id="line2d_41">
      <path d="M 764.04226 320.4 
L 764.04226 43.2 
" clip-path="url(#p48b78895bc)" style="fill: none; stroke: #b0b0b0; stroke-width: 0.8; stroke-linecap: square"/>
     </g>
     <g id="line2d_42">
      <g>
       <use xlink:href="#mfc322a35fe" x="764.04226" y="320.4" style="stroke: #000000; stroke-width: 0.8"/>
      </g>
     </g>
     <g id="text_24">
      <!-- 1000 -->
      <g transform="translate(751.31726 334.998438)scale(0.1 -0.1)">
       <use xlink:href="#DejaVuSans-31"/>
       <use xlink:href="#DejaVuSans-30" x="63.623047"/>
       <use xlink:href="#DejaVuSans-30" x="127.246094"/>
       <use xlink:href="#DejaVuSans-30" x="190.869141"/>
      </g>
     </g>
    </g>
    <g id="text_25">
     <!-- Epoch -->
     <g transform="translate(610.107244 348.676562)scale(0.1 -0.1)">
      <use xlink:href="#DejaVuSans-45"/>
      <use xlink:href="#DejaVuSans-70" x="63.183594"/>
      <use xlink:href="#DejaVuSans-6f" x="126.660156"/>
      <use xlink:href="#DejaVuSans-63" x="187.841797"/>
      <use xlink:href="#DejaVuSans-68" x="242.822266"/>
     </g>
    </g>
   </g>
   <g id="matplotlib.axis_4">
    <g id="ytick_8">
     <g id="line2d_43">
      <path d="M 473.236364 290.571429 
L 777.6 290.571429 
" clip-path="url(#p48b78895bc)" style="fill: none; stroke: #b0b0b0; stroke-width: 0.8; stroke-linecap: square"/>
     </g>
     <g id="line2d_44">
      <g>
       <use xlink:href="#m0d29979766" x="473.236364" y="290.571429" style="stroke: #000000; stroke-width: 0.8"/>
      </g>
     </g>
     <g id="text_26">
      <!-- 0.45 -->
      <g transform="translate(443.970739 294.370647)scale(0.1 -0.1)">
       <use xlink:href="#DejaVuSans-30"/>
       <use xlink:href="#DejaVuSans-2e" x="63.623047"/>
       <use xlink:href="#DejaVuSans-34" x="95.410156"/>
       <use xlink:href="#DejaVuSans-35" x="159.033203"/>
      </g>
     </g>
    </g>
    <g id="ytick_9">
     <g id="line2d_45">
      <path d="M 473.236364 253.8 
L 777.6 253.8 
" clip-path="url(#p48b78895bc)" style="fill: none; stroke: #b0b0b0; stroke-width: 0.8; stroke-linecap: square"/>
     </g>
     <g id="line2d_46">
      <g>
       <use xlink:href="#m0d29979766" x="473.236364" y="253.8" style="stroke: #000000; stroke-width: 0.8"/>
      </g>
     </g>
     <g id="text_27">
      <!-- 0.50 -->
      <g transform="translate(443.970739 257.599219)scale(0.1 -0.1)">
       <use xlink:href="#DejaVuSans-30"/>
       <use xlink:href="#DejaVuSans-2e" x="63.623047"/>
       <use xlink:href="#DejaVuSans-35" x="95.410156"/>
       <use xlink:href="#DejaVuSans-30" x="159.033203"/>
      </g>
     </g>
    </g>
    <g id="ytick_10">
     <g id="line2d_47">
      <path d="M 473.236364 217.028571 
L 777.6 217.028571 
" clip-path="url(#p48b78895bc)" style="fill: none; stroke: #b0b0b0; stroke-width: 0.8; stroke-linecap: square"/>
     </g>
     <g id="line2d_48">
      <g>
       <use xlink:href="#m0d29979766" x="473.236364" y="217.028571" style="stroke: #000000; stroke-width: 0.8"/>
      </g>
     </g>
     <g id="text_28">
      <!-- 0.55 -->
      <g transform="translate(443.970739 220.82779)scale(0.1 -0.1)">
       <use xlink:href="#DejaVuSans-30"/>
       <use xlink:href="#DejaVuSans-2e" x="63.623047"/>
       <use xlink:href="#DejaVuSans-35" x="95.410156"/>
       <use xlink:href="#DejaVuSans-35" x="159.033203"/>
      </g>
     </g>
    </g>
    <g id="ytick_11">
     <g id="line2d_49">
      <path d="M 473.236364 180.257143 
L 777.6 180.257143 
" clip-path="url(#p48b78895bc)" style="fill: none; stroke: #b0b0b0; stroke-width: 0.8; stroke-linecap: square"/>
     </g>
     <g id="line2d_50">
      <g>
       <use xlink:href="#m0d29979766" x="473.236364" y="180.257143" style="stroke: #000000; stroke-width: 0.8"/>
      </g>
     </g>
     <g id="text_29">
      <!-- 0.60 -->
      <g transform="translate(443.970739 184.056362)scale(0.1 -0.1)">
       <use xlink:href="#DejaVuSans-30"/>
       <use xlink:href="#DejaVuSans-2e" x="63.623047"/>
       <use xlink:href="#DejaVuSans-36" x="95.410156"/>
       <use xlink:href="#DejaVuSans-30" x="159.033203"/>
      </g>
     </g>
    </g>
    <g id="ytick_12">
     <g id="line2d_51">
      <path d="M 473.236364 143.485714 
L 777.6 143.485714 
" clip-path="url(#p48b78895bc)" style="fill: none; stroke: #b0b0b0; stroke-width: 0.8; stroke-linecap: square"/>
     </g>
     <g id="line2d_52">
      <g>
       <use xlink:href="#m0d29979766" x="473.236364" y="143.485714" style="stroke: #000000; stroke-width: 0.8"/>
      </g>
     </g>
     <g id="text_30">
      <!-- 0.65 -->
      <g transform="translate(443.970739 147.284933)scale(0.1 -0.1)">
       <use xlink:href="#DejaVuSans-30"/>
       <use xlink:href="#DejaVuSans-2e" x="63.623047"/>
       <use xlink:href="#DejaVuSans-36" x="95.410156"/>
       <use xlink:href="#DejaVuSans-35" x="159.033203"/>
      </g>
     </g>
    </g>
    <g id="ytick_13">
     <g id="line2d_53">
      <path d="M 473.236364 106.714286 
L 777.6 106.714286 
" clip-path="url(#p48b78895bc)" style="fill: none; stroke: #b0b0b0; stroke-width: 0.8; stroke-linecap: square"/>
     </g>
     <g id="line2d_54">
      <g>
       <use xlink:href="#m0d29979766" x="473.236364" y="106.714286" style="stroke: #000000; stroke-width: 0.8"/>
      </g>
     </g>
     <g id="text_31">
      <!-- 0.70 -->
      <g transform="translate(443.970739 110.513504)scale(0.1 -0.1)">
       <use xlink:href="#DejaVuSans-30"/>
       <use xlink:href="#DejaVuSans-2e" x="63.623047"/>
       <use xlink:href="#DejaVuSans-37" x="95.410156"/>
       <use xlink:href="#DejaVuSans-30" x="159.033203"/>
      </g>
     </g>
    </g>
    <g id="ytick_14">
     <g id="line2d_55">
      <path d="M 473.236364 69.942857 
L 777.6 69.942857 
" clip-path="url(#p48b78895bc)" style="fill: none; stroke: #b0b0b0; stroke-width: 0.8; stroke-linecap: square"/>
     </g>
     <g id="line2d_56">
      <g>
       <use xlink:href="#m0d29979766" x="473.236364" y="69.942857" style="stroke: #000000; stroke-width: 0.8"/>
      </g>
     </g>
     <g id="text_32">
      <!-- 0.75 -->
      <g transform="translate(443.970739 73.742076)scale(0.1 -0.1)">
       <use xlink:href="#DejaVuSans-30"/>
       <use xlink:href="#DejaVuSans-2e" x="63.623047"/>
       <use xlink:href="#DejaVuSans-37" x="95.410156"/>
       <use xlink:href="#DejaVuSans-35" x="159.033203"/>
      </g>
     </g>
    </g>
    <g id="text_33">
     <!-- Accuracy -->
     <g transform="translate(437.891051 204.628125)rotate(-90)scale(0.1 -0.1)">
      <defs>
       <path id="DejaVuSans-41" d="M 2188 4044 
L 1331 1722 
L 3047 1722 
L 2188 4044 
z
M 1831 4666 
L 2547 4666 
L 4325 0 
L 3669 0 
L 3244 1197 
L 1141 1197 
L 716 0 
L 50 0 
L 1831 4666 
z
" transform="scale(0.015625)"/>
       <path id="DejaVuSans-79" d="M 2059 -325 
Q 1816 -950 1584 -1140 
Q 1353 -1331 966 -1331 
L 506 -1331 
L 506 -850 
L 844 -850 
Q 1081 -850 1212 -737 
Q 1344 -625 1503 -206 
L 1606 56 
L 191 3500 
L 800 3500 
L 1894 763 
L 2988 3500 
L 3597 3500 
L 2059 -325 
z
" transform="scale(0.015625)"/>
      </defs>
      <use xlink:href="#DejaVuSans-41"/>
      <use xlink:href="#DejaVuSans-63" x="66.658203"/>
      <use xlink:href="#DejaVuSans-63" x="121.638672"/>
      <use xlink:href="#DejaVuSans-75" x="176.619141"/>
      <use xlink:href="#DejaVuSans-72" x="239.998047"/>
      <use xlink:href="#DejaVuSans-61" x="281.111328"/>
      <use xlink:href="#DejaVuSans-63" x="342.390625"/>
      <use xlink:href="#DejaVuSans-79" x="397.371094"/>
     </g>
    </g>
   </g>
   <g id="line2d_57">
    <path d="M 487.071074 307.8 
L 487.348046 302.657143 
L 487.901988 302.657143 
L 488.178959 307.8 
L 488.732901 307.8 
L 489.286844 297.514286 
L 490.117757 297.514286 
L 490.394729 302.657143 
L 491.225642 302.657143 
L 491.502613 292.371429 
L 491.779585 287.228571 
L 492.056556 292.371429 
L 492.610498 256.371429 
L 492.887469 210.085714 
L 493.441412 210.085714 
L 494.272325 194.657143 
L 494.549296 194.657143 
L 494.826268 199.8 
L 495.103239 189.514286 
L 495.38021 184.371429 
L 495.657181 184.371429 
L 495.934152 174.085714 
L 496.211124 174.085714 
L 496.488095 179.228571 
L 497.595979 179.228571 
L 497.872951 184.371429 
L 498.149922 179.228571 
L 498.426893 168.942857 
L 500.365691 168.942857 
L 500.642662 163.8 
L 501.196605 163.8 
L 501.750547 153.514286 
L 502.027518 158.657143 
L 502.30449 153.514286 
L 505.074201 153.514286 
L 505.351173 158.657143 
L 508.674827 158.657143 
L 508.951798 153.514286 
L 510.890596 153.514286 
L 511.167568 158.657143 
L 511.444539 158.657143 
L 511.998481 148.371429 
L 512.829395 148.371429 
L 513.106366 143.228571 
L 513.383337 143.228571 
L 513.660308 138.085714 
L 521.415501 138.085714 
L 521.692473 132.942857 
L 521.969444 132.942857 
L 522.246415 127.8 
L 529.170695 127.8 
L 529.447666 122.657143 
L 530.278579 122.657143 
L 530.555551 117.514286 
L 530.832522 117.514286 
L 531.109493 112.371429 
L 536.094974 112.371429 
L 536.371945 107.228571 
L 536.648917 107.228571 
L 536.925888 102.085714 
L 542.465312 102.085714 
L 542.742283 96.942857 
L 547.727764 96.942857 
L 548.004735 91.8 
L 560.468439 91.8 
L 560.74541 86.657143 
L 565.176949 86.657143 
L 565.45392 81.514286 
L 582.626134 81.514286 
L 582.903105 76.371429 
L 583.457047 76.371429 
L 583.734018 66.085714 
L 585.949788 66.085714 
L 586.226759 60.942857 
L 593.42801 60.942857 
L 593.704981 66.085714 
L 600.629261 66.085714 
L 600.906232 60.942857 
L 601.737145 60.942857 
L 602.014117 66.085714 
L 604.783828 66.085714 
L 605.0608 60.942857 
L 612.815993 60.942857 
L 613.092964 55.8 
L 614.200849 55.8 
L 614.47782 60.942857 
L 624.448783 60.942857 
L 624.725754 66.085714 
L 626.941523 66.085714 
L 627.218495 71.228571 
L 631.096091 71.228571 
L 631.373062 66.085714 
L 646.329506 66.085714 
L 646.606478 71.228571 
L 649.376189 71.228571 
L 649.653161 76.371429 
L 670.979942 76.371429 
L 671.256913 71.228571 
L 681.227876 71.228571 
L 681.504847 66.085714 
L 687.875184 66.085714 
L 688.152155 60.942857 
L 690.367925 60.942857 
L 690.644896 66.085714 
L 698.400089 66.085714 
L 698.677061 71.228571 
L 739.391825 71.228571 
L 739.668796 60.942857 
L 763.765289 60.942857 
L 763.765289 60.942857 
" clip-path="url(#p48b78895bc)" style="fill: none; stroke: #ffa500; stroke-width: 1.5; stroke-linecap: square"/>
   </g>
   <g id="patch_9">
    <path d="M 473.236364 320.4 
L 473.236364 43.2 
" style="fill: none; stroke: #000000; stroke-width: 0.8; stroke-linejoin: miter; stroke-linecap: square"/>
   </g>
   <g id="patch_10">
    <path d="M 777.6 320.4 
L 777.6 43.2 
" style="fill: none; stroke: #000000; stroke-width: 0.8; stroke-linejoin: miter; stroke-linecap: square"/>
   </g>
   <g id="patch_11">
    <path d="M 473.236364 320.4 
L 777.6 320.4 
" style="fill: none; stroke: #000000; stroke-width: 0.8; stroke-linejoin: miter; stroke-linecap: square"/>
   </g>
   <g id="patch_12">
    <path d="M 473.236364 43.2 
L 777.6 43.2 
" style="fill: none; stroke: #000000; stroke-width: 0.8; stroke-linejoin: miter; stroke-linecap: square"/>
   </g>
   <g id="text_34">
    <!-- Accuracy Curve -->
    <g transform="translate(578.415682 37.2)scale(0.12 -0.12)">
     <use xlink:href="#DejaVuSans-41"/>
     <use xlink:href="#DejaVuSans-63" x="66.658203"/>
     <use xlink:href="#DejaVuSans-63" x="121.638672"/>
     <use xlink:href="#DejaVuSans-75" x="176.619141"/>
     <use xlink:href="#DejaVuSans-72" x="239.998047"/>
     <use xlink:href="#DejaVuSans-61" x="281.111328"/>
     <use xlink:href="#DejaVuSans-63" x="342.390625"/>
     <use xlink:href="#DejaVuSans-79" x="397.371094"/>
     <use xlink:href="#DejaVuSans-20" x="456.550781"/>
     <use xlink:href="#DejaVuSans-43" x="488.337891"/>
     <use xlink:href="#DejaVuSans-75" x="558.162109"/>
     <use xlink:href="#DejaVuSans-72" x="621.541016"/>
     <use xlink:href="#DejaVuSans-76" x="662.654297"/>
     <use xlink:href="#DejaVuSans-65" x="721.833984"/>
    </g>
   </g>
   <g id="legend_2">
    <g id="patch_13">
     <path d="M 640.384375 315.4 
L 770.6 315.4 
Q 772.6 315.4 772.6 313.4 
L 772.6 299.721875 
Q 772.6 297.721875 770.6 297.721875 
L 640.384375 297.721875 
Q 638.384375 297.721875 638.384375 299.721875 
L 638.384375 313.4 
Q 638.384375 315.4 640.384375 315.4 
z
" style="fill: #ffffff; opacity: 0.8; stroke: #cccccc; stroke-linejoin: miter"/>
    </g>
    <g id="line2d_58">
     <path d="M 642.384375 305.820312 
L 652.384375 305.820312 
L 662.384375 305.820312 
" style="fill: none; stroke: #ffa500; stroke-width: 1.5; stroke-linecap: square"/>
    </g>
    <g id="text_35">
     <!-- Validation Accuracy -->
     <g transform="translate(670.384375 309.320312)scale(0.1 -0.1)">
      <use xlink:href="#DejaVuSans-56"/>
      <use xlink:href="#DejaVuSans-61" x="60.658203"/>
      <use xlink:href="#DejaVuSans-6c" x="121.9375"/>
      <use xlink:href="#DejaVuSans-69" x="149.720703"/>
      <use xlink:href="#DejaVuSans-64" x="177.503906"/>
      <use xlink:href="#DejaVuSans-61" x="240.980469"/>
      <use xlink:href="#DejaVuSans-74" x="302.259766"/>
      <use xlink:href="#DejaVuSans-69" x="341.46875"/>
      <use xlink:href="#DejaVuSans-6f" x="369.251953"/>
      <use xlink:href="#DejaVuSans-6e" x="430.433594"/>
      <use xlink:href="#DejaVuSans-20" x="493.8125"/>
      <use xlink:href="#DejaVuSans-41" x="525.599609"/>
      <use xlink:href="#DejaVuSans-63" x="592.257812"/>
      <use xlink:href="#DejaVuSans-63" x="647.238281"/>
      <use xlink:href="#DejaVuSans-75" x="702.21875"/>
      <use xlink:href="#DejaVuSans-72" x="765.597656"/>
      <use xlink:href="#DejaVuSans-61" x="806.710938"/>
      <use xlink:href="#DejaVuSans-63" x="867.990234"/>
      <use xlink:href="#DejaVuSans-79" x="922.970703"/>
     </g>
    </g>
   </g>
  </g>
 </g>
 <defs>
  <clipPath id="p86011329d4">
   <rect x="108" y="43.2" width="304.363636" height="277.2"/>
  </clipPath>
  <clipPath id="p48b78895bc">
   <rect x="473.236364" y="43.2" width="304.363636" height="277.2"/>
  </clipPath>
 </defs>
</svg>
