<?xml version="1.0" encoding="utf-8" standalone="no"?>
<!DOCTYPE svg PUBLIC "-//W3C//DTD SVG 1.1//EN"
  "http://www.w3.org/Graphics/SVG/1.1/DTD/svg11.dtd">
<svg xmlns:xlink="http://www.w3.org/1999/xlink" width="1214.203125pt" height="337.078906pt" viewBox="0 0 1214.203125 337.078906" xmlns="http://www.w3.org/2000/svg" version="1.1">
 <metadata>
  <rdf:RDF xmlns:dc="http://purl.org/dc/elements/1.1/" xmlns:cc="http://creativecommons.org/ns#" xmlns:rdf="http://www.w3.org/1999/02/22-rdf-syntax-ns#">
   <cc:Work>
    <dc:type rdf:resource="http://purl.org/dc/dcmitype/StillImage"/>
    <dc:date>2025-12-09T17:25:12.780963</dc:date>
    <dc:format>image/svg+xml</dc:format>
    <dc:creator>
     <cc:Agent>
      <dc:title>Matplotlib v3.5.1, https://matplotlib.org/</dc:title>
     </cc:Agent>
    </dc:creator>
   </cc:Work>
  </rdf:RDF>
 </metadata>
 <defs>
  <style type="text/css">*{stroke-linejoin: round; stroke-linecap: butt}</style>
 </defs>
 <g id="figure_1">
  <g id="patch_1">
   <path d="M 0 337.078906 
L 1214.203125 337.078906 
L 1214.203125 0 
L 0 0 
z
" style="fill: #ffffff"/>
  </g>
  <g id="axes_1">
   <g id="patch_2">
    <path d="M 40.603125 324 
L 201.485884 324 
L 201.485884 54 
L 40.603125 54 
z
" style="fill: #ffffff"/>
   </g>
   <g id="patch_3">
    <path d="M 47.915978 324 
L 60.537145 324 
L 60.537145 188.362317 
L 47.915978 188.362317 
z
" clip-path="url(#pd8959f888f)" style="fill: #eeeeee; stroke: #000000; stroke-linejoin: miter"/>
   </g>
   <g id="patch_4">
    <path d="M 62.764409 324 
L 75.385577 324 
L 75.385577 99 
L 62.764409 99 
z
" clip-path="url(#pd8959f888f)" style="fill: #eeeeee; stroke: #000000; stroke-linejoin: miter"/>
   </g>
   <g id="patch_5">
    <path d="M 77.612841 324 
L 90.234008 324 
L 90.234008 132.922656 
L 77.612841 132.922656 
z
" clip-path="url(#pd8959f888f)" style="fill: #eeeeee; stroke: #000000; stroke-linejoin: miter"/>
   </g>
   <g id="patch_6">
    <path d="M 92.461273 324 
L 105.08244 324 
L 105.08244 153.602453 
L 92.461273 153.602453 
z
" clip-path="url(#pd8959f888f)" style="fill: #eeeeee; stroke: #000000; stroke-linejoin: miter"/>
   </g>
   <g id="patch_7">
    <path d="M 107.309705 324 
L 119.930872 324 
L 119.930872 222.254127 
L 107.309705 222.254127 
z
" clip-path="url(#pd8959f888f)" style="fill: #eeeeee; stroke: #000000; stroke-linejoin: miter"/>
   </g>
   <g id="patch_8">
    <path d="M 122.158137 324 
L 134.779304 324 
L 134.779304 222.257868 
L 122.158137 222.257868 
z
" clip-path="url(#pd8959f888f)" style="fill: #eeeeee; stroke: #000000; stroke-linejoin: miter"/>
   </g>
   <g id="patch_9">
    <path d="M 137.006569 324 
L 149.627736 324 
L 149.627736 237.443459 
L 137.006569 237.443459 
z
" clip-path="url(#pd8959f888f)" style="fill: #eeeeee; stroke: #000000; stroke-linejoin: miter"/>
   </g>
   <g id="patch_10">
    <path d="M 151.855 324 
L 164.476167 324 
L 164.476167 112.111531 
L 151.855 112.111531 
z
" clip-path="url(#pd8959f888f)" style="fill: #eeeeee; stroke: #000000; stroke-linejoin: miter"/>
   </g>
   <g id="patch_11">
    <path d="M 166.703432 324 
L 179.324599 324 
L 179.324599 153.221456 
L 166.703432 153.221456 
z
" clip-path="url(#pd8959f888f)" style="fill: #eeeeee; stroke: #000000; stroke-linejoin: miter"/>
   </g>
   <g id="patch_12">
    <path d="M 181.551864 324 
L 194.173031 324 
L 194.173031 136.632764 
L 181.551864 136.632764 
z
" clip-path="url(#pd8959f888f)" style="fill: #eeeeee; stroke: #000000; stroke-linejoin: miter"/>
   </g>
   <g id="matplotlib.axis_1"/>
   <g id="matplotlib.axis_2">
    <g id="ytick_1">
     <g id="line2d_1">
      <path d="M 40.603125 324 
L 201.485884 324 
" clip-path="url(#pd8959f888f)" style="fill: none; stroke-dasharray: 2.96,1.28; stroke-dashoffset: 0; stroke: #b0b0b0; stroke-opacity: 0.5; stroke-width: 0.8"/>
     </g>
     <g id="line2d_2">
      <defs>
       <path id="m0468b5aa19" d="M 0 0 
L -3.5 0 
" style="stroke: #000000; stroke-width: 0.8"/>
      </defs>
      <g>
       <use xlink:href="#m0468b5aa19" x="40.603125" y="324" style="stroke: #000000; stroke-width: 0.8"/>
      </g>
     </g>
     <g id="text_1">
      <!-- 0 -->
      <g transform="translate(27.240625 327.799219)scale(0.1 -0.1)">
       <defs>
        <path id="DejaVuSans-30" d="M 2034 4250 
Q 1547 4250 1301 3770 
Q 1056 3291 1056 2328 
Q 1056 1369 1301 889 
Q 1547 409 2034 409 
Q 2525 409 2770 889 
Q 3016 1369 3016 2328 
Q 3016 3291 2770 3770 
Q 2525 4250 2034 4250 
z
M 2034 4750 
Q 2819 4750 3233 4129 
Q 3647 3509 3647 2328 
Q 3647 1150 3233 529 
Q 2819 -91 2034 -91 
Q 1250 -91 836 529 
Q 422 1150 422 2328 
Q 422 3509 836 4129 
Q 1250 4750 2034 4750 
z
" transform="scale(0.015625)"/>
       </defs>
       <use xlink:href="#DejaVuSans-30"/>
      </g>
     </g>
    </g>
    <g id="ytick_2">
     <g id="line2d_3">
      <path d="M 40.603125 292.980798 
L 201.485884 292.980798 
" clip-path="url(#pd8959f888f)" style="fill: none; stroke-dasharray: 2.96,1.28; stroke-dashoffset: 0; stroke: #b0b0b0; stroke-opacity: 0.5; stroke-width: 0.8"/>
     </g>
     <g id="line2d_4">
      <g>
       <use xlink:href="#m0468b5aa19" x="40.603125" y="292.980798" style="stroke: #000000; stroke-width: 0.8"/>
      </g>
     </g>
     <g id="text_2">
      <!-- 2 -->
      <g transform="translate(27.240625 296.780017)scale(0.1 -0.1)">
       <defs>
        <path id="DejaVuSans-32" d="M 1228 531 
L 3431 531 
L 3431 0 
L 469 0 
L 469 531 
Q 828 903 1448 1529 
Q 2069 2156 2228 2338 
Q 2531 2678 2651 2914 
Q 2772 3150 2772 3378 
Q 2772 3750 2511 3984 
Q 2250 4219 1831 4219 
Q 1534 4219 1204 4116 
Q 875 4013 500 3803 
L 500 4441 
Q 881 4594 1212 4672 
Q 1544 4750 1819 4750 
Q 2544 4750 2975 4387 
Q 3406 4025 3406 3419 
Q 3406 3131 3298 2873 
Q 3191 2616 2906 2266 
Q 2828 2175 2409 1742 
Q 1991 1309 1228 531 
z
" transform="scale(0.015625)"/>
       </defs>
       <use xlink:href="#DejaVuSans-32"/>
      </g>
     </g>
    </g>
    <g id="ytick_3">
     <g id="line2d_5">
      <path d="M 40.603125 261.961596 
L 201.485884 261.961596 
" clip-path="url(#pd8959f888f)" style="fill: none; stroke-dasharray: 2.96,1.28; stroke-dashoffset: 0; stroke: #b0b0b0; stroke-opacity: 0.5; stroke-width: 0.8"/>
     </g>
     <g id="line2d_6">
      <g>
       <use xlink:href="#m0468b5aa19" x="40.603125" y="261.961596" style="stroke: #000000; stroke-width: 0.8"/>
      </g>
     </g>
     <g id="text_3">
      <!-- 4 -->
      <g transform="translate(27.240625 265.760815)scale(0.1 -0.1)">
       <defs>
        <path id="DejaVuSans-34" d="M 2419 4116 
L 825 1625 
L 2419 1625 
L 2419 4116 
z
M 2253 4666 
L 3047 4666 
L 3047 1625 
L 3713 1625 
L 3713 1100 
L 3047 1100 
L 3047 0 
L 2419 0 
L 2419 1100 
L 313 1100 
L 313 1709 
L 2253 4666 
z
" transform="scale(0.015625)"/>
       </defs>
       <use xlink:href="#DejaVuSans-34"/>
      </g>
     </g>
    </g>
    <g id="ytick_4">
     <g id="line2d_7">
      <path d="M 40.603125 230.942394 
L 201.485884 230.942394 
" clip-path="url(#pd8959f888f)" style="fill: none; stroke-dasharray: 2.96,1.28; stroke-dashoffset: 0; stroke: #b0b0b0; stroke-opacity: 0.5; stroke-width: 0.8"/>
     </g>
     <g id="line2d_8">
      <g>
       <use xlink:href="#m0468b5aa19" x="40.603125" y="230.942394" style="stroke: #000000; stroke-width: 0.8"/>
      </g>
     </g>
     <g id="text_4">
      <!-- 6 -->
      <g transform="translate(27.240625 234.741613)scale(0.1 -0.1)">
       <defs>
        <path id="DejaVuSans-36" d="M 2113 2584 
Q 1688 2584 1439 2293 
Q 1191 2003 1191 1497 
Q 1191 994 1439 701 
Q 1688 409 2113 409 
Q 2538 409 2786 701 
Q 3034 994 3034 1497 
Q 3034 2003 2786 2293 
Q 2538 2584 2113 2584 
z
M 3366 4563 
L 3366 3988 
Q 3128 4100 2886 4159 
Q 2644 4219 2406 4219 
Q 1781 4219 1451 3797 
Q 1122 3375 1075 2522 
Q 1259 2794 1537 2939 
Q 1816 3084 2150 3084 
Q 2853 3084 3261 2657 
Q 3669 2231 3669 1497 
Q 3669 778 3244 343 
Q 2819 -91 2113 -91 
Q 1303 -91 875 529 
Q 447 1150 447 2328 
Q 447 3434 972 4092 
Q 1497 4750 2381 4750 
Q 2619 4750 2861 4703 
Q 3103 4656 3366 4563 
z
" transform="scale(0.015625)"/>
       </defs>
       <use xlink:href="#DejaVuSans-36"/>
      </g>
     </g>
    </g>
    <g id="ytick_5">
     <g id="line2d_9">
      <path d="M 40.603125 199.923192 
L 201.485884 199.923192 
" clip-path="url(#pd8959f888f)" style="fill: none; stroke-dasharray: 2.96,1.28; stroke-dashoffset: 0; stroke: #b0b0b0; stroke-opacity: 0.5; stroke-width: 0.8"/>
     </g>
     <g id="line2d_10">
      <g>
       <use xlink:href="#m0468b5aa19" x="40.603125" y="199.923192" style="stroke: #000000; stroke-width: 0.8"/>
      </g>
     </g>
     <g id="text_5">
      <!-- 8 -->
      <g transform="translate(27.240625 203.722411)scale(0.1 -0.1)">
       <defs>
        <path id="DejaVuSans-38" d="M 2034 2216 
Q 1584 2216 1326 1975 
Q 1069 1734 1069 1313 
Q 1069 891 1326 650 
Q 1584 409 2034 409 
Q 2484 409 2743 651 
Q 3003 894 3003 1313 
Q 3003 1734 2745 1975 
Q 2488 2216 2034 2216 
z
M 1403 2484 
Q 997 2584 770 2862 
Q 544 3141 544 3541 
Q 544 4100 942 4425 
Q 1341 4750 2034 4750 
Q 2731 4750 3128 4425 
Q 3525 4100 3525 3541 
Q 3525 3141 3298 2862 
Q 3072 2584 2669 2484 
Q 3125 2378 3379 2068 
Q 3634 1759 3634 1313 
Q 3634 634 3220 271 
Q 2806 -91 2034 -91 
Q 1263 -91 848 271 
Q 434 634 434 1313 
Q 434 1759 690 2068 
Q 947 2378 1403 2484 
z
M 1172 3481 
Q 1172 3119 1398 2916 
Q 1625 2713 2034 2713 
Q 2441 2713 2670 2916 
Q 2900 3119 2900 3481 
Q 2900 3844 2670 4047 
Q 2441 4250 2034 4250 
Q 1625 4250 1398 4047 
Q 1172 3844 1172 3481 
z
" transform="scale(0.015625)"/>
       </defs>
       <use xlink:href="#DejaVuSans-38"/>
      </g>
     </g>
    </g>
    <g id="ytick_6">
     <g id="line2d_11">
      <path d="M 40.603125 168.90399 
L 201.485884 168.90399 
" clip-path="url(#pd8959f888f)" style="fill: none; stroke-dasharray: 2.96,1.28; stroke-dashoffset: 0; stroke: #b0b0b0; stroke-opacity: 0.5; stroke-width: 0.8"/>
     </g>
     <g id="line2d_12">
      <g>
       <use xlink:href="#m0468b5aa19" x="40.603125" y="168.90399" style="stroke: #000000; stroke-width: 0.8"/>
      </g>
     </g>
     <g id="text_6">
      <!-- 10 -->
      <g transform="translate(20.878125 172.703209)scale(0.1 -0.1)">
       <defs>
        <path id="DejaVuSans-31" d="M 794 531 
L 1825 531 
L 1825 4091 
L 703 3866 
L 703 4441 
L 1819 4666 
L 2450 4666 
L 2450 531 
L 3481 531 
L 3481 0 
L 794 0 
L 794 531 
z
" transform="scale(0.015625)"/>
       </defs>
       <use xlink:href="#DejaVuSans-31"/>
       <use xlink:href="#DejaVuSans-30" x="63.623047"/>
      </g>
     </g>
    </g>
    <g id="ytick_7">
     <g id="line2d_13">
      <path d="M 40.603125 137.884788 
L 201.485884 137.884788 
" clip-path="url(#pd8959f888f)" style="fill: none; stroke-dasharray: 2.96,1.28; stroke-dashoffset: 0; stroke: #b0b0b0; stroke-opacity: 0.5; stroke-width: 0.8"/>
     </g>
     <g id="line2d_14">
      <g>
       <use xlink:href="#m0468b5aa19" x="40.603125" y="137.884788" style="stroke: #000000; stroke-width: 0.8"/>
      </g>
     </g>
     <g id="text_7">
      <!-- 12 -->
      <g transform="translate(20.878125 141.684007)scale(0.1 -0.1)">
       <use xlink:href="#DejaVuSans-31"/>
       <use xlink:href="#DejaVuSans-32" x="63.623047"/>
      </g>
     </g>
    </g>
    <g id="ytick_8">
     <g id="line2d_15">
      <path d="M 40.603125 106.865587 
L 201.485884 106.865587 
" clip-path="url(#pd8959f888f)" style="fill: none; stroke-dasharray: 2.96,1.28; stroke-dashoffset: 0; stroke: #b0b0b0; stroke-opacity: 0.5; stroke-width: 0.8"/>
     </g>
     <g id="line2d_16">
      <g>
       <use xlink:href="#m0468b5aa19" x="40.603125" y="106.865587" style="stroke: #000000; stroke-width: 0.8"/>
      </g>
     </g>
     <g id="text_8">
      <!-- 14 -->
      <g transform="translate(20.878125 110.664805)scale(0.1 -0.1)">
       <use xlink:href="#DejaVuSans-31"/>
       <use xlink:href="#DejaVuSans-34" x="63.623047"/>
      </g>
     </g>
    </g>
    <g id="ytick_9">
     <g id="line2d_17">
      <path d="M 40.603125 75.846385 
L 201.485884 75.846385 
" clip-path="url(#pd8959f888f)" style="fill: none; stroke-dasharray: 2.96,1.28; stroke-dashoffset: 0; stroke: #b0b0b0; stroke-opacity: 0.5; stroke-width: 0.8"/>
     </g>
     <g id="line2d_18">
      <g>
       <use xlink:href="#m0468b5aa19" x="40.603125" y="75.846385" style="stroke: #000000; stroke-width: 0.8"/>
      </g>
     </g>
     <g id="text_9">
      <!-- 16 -->
      <g transform="translate(20.878125 79.645603)scale(0.1 -0.1)">
       <use xlink:href="#DejaVuSans-31"/>
       <use xlink:href="#DejaVuSans-36" x="63.623047"/>
      </g>
     </g>
    </g>
    <g id="text_10">
     <!-- Logits Value -->
     <g transform="translate(14.798438 219.20625)rotate(-90)scale(0.1 -0.1)">
      <defs>
       <path id="DejaVuSans-4c" d="M 628 4666 
L 1259 4666 
L 1259 531 
L 3531 531 
L 3531 0 
L 628 0 
L 628 4666 
z
" transform="scale(0.015625)"/>
       <path id="DejaVuSans-6f" d="M 1959 3097 
Q 1497 3097 1228 2736 
Q 959 2375 959 1747 
Q 959 1119 1226 758 
Q 1494 397 1959 397 
Q 2419 397 2687 759 
Q 2956 1122 2956 1747 
Q 2956 2369 2687 2733 
Q 2419 3097 1959 3097 
z
M 1959 3584 
Q 2709 3584 3137 3096 
Q 3566 2609 3566 1747 
Q 3566 888 3137 398 
Q 2709 -91 1959 -91 
Q 1206 -91 779 398 
Q 353 888 353 1747 
Q 353 2609 779 3096 
Q 1206 3584 1959 3584 
z
" transform="scale(0.015625)"/>
       <path id="DejaVuSans-67" d="M 2906 1791 
Q 2906 2416 2648 2759 
Q 2391 3103 1925 3103 
Q 1463 3103 1205 2759 
Q 947 2416 947 1791 
Q 947 1169 1205 825 
Q 1463 481 1925 481 
Q 2391 481 2648 825 
Q 2906 1169 2906 1791 
z
M 3481 434 
Q 3481 -459 3084 -895 
Q 2688 -1331 1869 -1331 
Q 1566 -1331 1297 -1286 
Q 1028 -1241 775 -1147 
L 775 -588 
Q 1028 -725 1275 -790 
Q 1522 -856 1778 -856 
Q 2344 -856 2625 -561 
Q 2906 -266 2906 331 
L 2906 616 
Q 2728 306 2450 153 
Q 2172 0 1784 0 
Q 1141 0 747 490 
Q 353 981 353 1791 
Q 353 2603 747 3093 
Q 1141 3584 1784 3584 
Q 2172 3584 2450 3431 
Q 2728 3278 2906 2969 
L 2906 3500 
L 3481 3500 
L 3481 434 
z
" transform="scale(0.015625)"/>
       <path id="DejaVuSans-69" d="M 603 3500 
L 1178 3500 
L 1178 0 
L 603 0 
L 603 3500 
z
M 603 4863 
L 1178 4863 
L 1178 4134 
L 603 4134 
L 603 4863 
z
" transform="scale(0.015625)"/>
       <path id="DejaVuSans-74" d="M 1172 4494 
L 1172 3500 
L 2356 3500 
L 2356 3053 
L 1172 3053 
L 1172 1153 
Q 1172 725 1289 603 
Q 1406 481 1766 481 
L 2356 481 
L 2356 0 
L 1766 0 
Q 1100 0 847 248 
Q 594 497 594 1153 
L 594 3053 
L 172 3053 
L 172 3500 
L 594 3500 
L 594 4494 
L 1172 4494 
z
" transform="scale(0.015625)"/>
       <path id="DejaVuSans-73" d="M 2834 3397 
L 2834 2853 
Q 2591 2978 2328 3040 
Q 2066 3103 1784 3103 
Q 1356 3103 1142 2972 
Q 928 2841 928 2578 
Q 928 2378 1081 2264 
Q 1234 2150 1697 2047 
L 1894 2003 
Q 2506 1872 2764 1633 
Q 3022 1394 3022 966 
Q 3022 478 2636 193 
Q 2250 -91 1575 -91 
Q 1294 -91 989 -36 
Q 684 19 347 128 
L 347 722 
Q 666 556 975 473 
Q 1284 391 1588 391 
Q 1994 391 2212 530 
Q 2431 669 2431 922 
Q 2431 1156 2273 1281 
Q 2116 1406 1581 1522 
L 1381 1569 
Q 847 1681 609 1914 
Q 372 2147 372 2553 
Q 372 3047 722 3315 
Q 1072 3584 1716 3584 
Q 2034 3584 2315 3537 
Q 2597 3491 2834 3397 
z
" transform="scale(0.015625)"/>
       <path id="DejaVuSans-20" transform="scale(0.015625)"/>
       <path id="DejaVuSans-56" d="M 1831 0 
L 50 4666 
L 709 4666 
L 2188 738 
L 3669 4666 
L 4325 4666 
L 2547 0 
L 1831 0 
z
" transform="scale(0.015625)"/>
       <path id="DejaVuSans-61" d="M 2194 1759 
Q 1497 1759 1228 1600 
Q 959 1441 959 1056 
Q 959 750 1161 570 
Q 1363 391 1709 391 
Q 2188 391 2477 730 
Q 2766 1069 2766 1631 
L 2766 1759 
L 2194 1759 
z
M 3341 1997 
L 3341 0 
L 2766 0 
L 2766 531 
Q 2569 213 2275 61 
Q 1981 -91 1556 -91 
Q 1019 -91 701 211 
Q 384 513 384 1019 
Q 384 1609 779 1909 
Q 1175 2209 1959 2209 
L 2766 2209 
L 2766 2266 
Q 2766 2663 2505 2880 
Q 2244 3097 1772 3097 
Q 1472 3097 1187 3025 
Q 903 2953 641 2809 
L 641 3341 
Q 956 3463 1253 3523 
Q 1550 3584 1831 3584 
Q 2591 3584 2966 3190 
Q 3341 2797 3341 1997 
z
" transform="scale(0.015625)"/>
       <path id="DejaVuSans-6c" d="M 603 4863 
L 1178 4863 
L 1178 0 
L 603 0 
L 603 4863 
z
" transform="scale(0.015625)"/>
       <path id="DejaVuSans-75" d="M 544 1381 
L 544 3500 
L 1119 3500 
L 1119 1403 
Q 1119 906 1312 657 
Q 1506 409 1894 409 
Q 2359 409 2629 706 
Q 2900 1003 2900 1516 
L 2900 3500 
L 3475 3500 
L 3475 0 
L 2900 0 
L 2900 538 
Q 2691 219 2414 64 
Q 2138 -91 1772 -91 
Q 1169 -91 856 284 
Q 544 659 544 1381 
z
M 1991 3584 
L 1991 3584 
z
" transform="scale(0.015625)"/>
       <path id="DejaVuSans-65" d="M 3597 1894 
L 3597 1613 
L 953 1613 
Q 991 1019 1311 708 
Q 1631 397 2203 397 
Q 2534 397 2845 478 
Q 3156 559 3463 722 
L 3463 178 
Q 3153 47 2828 -22 
Q 2503 -91 2169 -91 
Q 1331 -91 842 396 
Q 353 884 353 1716 
Q 353 2575 817 3079 
Q 1281 3584 2069 3584 
Q 2775 3584 3186 3129 
Q 3597 2675 3597 1894 
z
M 3022 2063 
Q 3016 2534 2758 2815 
Q 2500 3097 2075 3097 
Q 1594 3097 1305 2825 
Q 1016 2553 972 2059 
L 3022 2063 
z
" transform="scale(0.015625)"/>
      </defs>
      <use xlink:href="#DejaVuSans-4c"/>
      <use xlink:href="#DejaVuSans-6f" x="53.962891"/>
      <use xlink:href="#DejaVuSans-67" x="115.144531"/>
      <use xlink:href="#DejaVuSans-69" x="178.621094"/>
      <use xlink:href="#DejaVuSans-74" x="206.404297"/>
      <use xlink:href="#DejaVuSans-73" x="245.613281"/>
      <use xlink:href="#DejaVuSans-20" x="297.712891"/>
      <use xlink:href="#DejaVuSans-56" x="329.5"/>
      <use xlink:href="#DejaVuSans-61" x="390.158203"/>
      <use xlink:href="#DejaVuSans-6c" x="451.4375"/>
      <use xlink:href="#DejaVuSans-75" x="479.220703"/>
      <use xlink:href="#DejaVuSans-65" x="542.599609"/>
     </g>
    </g>
   </g>
   <g id="patch_13">
    <path d="M 40.603125 324 
L 40.603125 54 
" style="fill: none; stroke: #000000; stroke-width: 0.8; stroke-linejoin: miter; stroke-linecap: square"/>
   </g>
   <g id="patch_14">
    <path d="M 201.485884 324 
L 201.485884 54 
" style="fill: none; stroke: #000000; stroke-width: 0.8; stroke-linejoin: miter; stroke-linecap: square"/>
   </g>
   <g id="patch_15">
    <path d="M 40.603125 324 
L 201.485884 324 
" style="fill: none; stroke: #000000; stroke-width: 0.8; stroke-linejoin: miter; stroke-linecap: square"/>
   </g>
   <g id="patch_16">
    <path d="M 40.603125 54 
L 201.485884 54 
" style="fill: none; stroke: #000000; stroke-width: 0.8; stroke-linejoin: miter; stroke-linecap: square"/>
   </g>
   <g id="text_11">
    <g id="patch_17">
     <path d="M 98.204036 49.2 
L 143.884973 49.2 
Q 147.184973 49.2 147.184973 45.9 
L 147.184973 35.168125 
Q 147.184973 31.868125 143.884973 31.868125 
L 98.204036 31.868125 
Q 94.904036 31.868125 94.904036 35.168125 
L 94.904036 45.9 
Q 94.904036 49.2 98.204036 49.2 
z
" style="fill: #ffffff; stroke: #808080; stroke-linejoin: miter"/>
    </g>
    <!--  Origin  -->
    <g transform="translate(98.204036 43.526406)scale(0.11 -0.11)">
     <defs>
      <path id="DejaVuSans-Bold-20" transform="scale(0.015625)"/>
      <path id="DejaVuSans-Bold-4f" d="M 2719 3878 
Q 2169 3878 1866 3472 
Q 1563 3066 1563 2328 
Q 1563 1594 1866 1187 
Q 2169 781 2719 781 
Q 3272 781 3575 1187 
Q 3878 1594 3878 2328 
Q 3878 3066 3575 3472 
Q 3272 3878 2719 3878 
z
M 2719 4750 
Q 3844 4750 4481 4106 
Q 5119 3463 5119 2328 
Q 5119 1197 4481 553 
Q 3844 -91 2719 -91 
Q 1597 -91 958 553 
Q 319 1197 319 2328 
Q 319 3463 958 4106 
Q 1597 4750 2719 4750 
z
" transform="scale(0.015625)"/>
      <path id="DejaVuSans-Bold-72" d="M 3138 2547 
Q 2991 2616 2845 2648 
Q 2700 2681 2553 2681 
Q 2122 2681 1889 2404 
Q 1656 2128 1656 1613 
L 1656 0 
L 538 0 
L 538 3500 
L 1656 3500 
L 1656 2925 
Q 1872 3269 2151 3426 
Q 2431 3584 2822 3584 
Q 2878 3584 2943 3579 
Q 3009 3575 3134 3559 
L 3138 2547 
z
" transform="scale(0.015625)"/>
      <path id="DejaVuSans-Bold-69" d="M 538 3500 
L 1656 3500 
L 1656 0 
L 538 0 
L 538 3500 
z
M 538 4863 
L 1656 4863 
L 1656 3950 
L 538 3950 
L 538 4863 
z
" transform="scale(0.015625)"/>
      <path id="DejaVuSans-Bold-67" d="M 2919 594 
Q 2688 288 2409 144 
Q 2131 0 1766 0 
Q 1125 0 706 504 
Q 288 1009 288 1791 
Q 288 2575 706 3076 
Q 1125 3578 1766 3578 
Q 2131 3578 2409 3434 
Q 2688 3291 2919 2981 
L 2919 3500 
L 4044 3500 
L 4044 353 
Q 4044 -491 3511 -936 
Q 2978 -1381 1966 -1381 
Q 1638 -1381 1331 -1331 
Q 1025 -1281 716 -1178 
L 716 -306 
Q 1009 -475 1290 -558 
Q 1572 -641 1856 -641 
Q 2406 -641 2662 -400 
Q 2919 -159 2919 353 
L 2919 594 
z
M 2181 2772 
Q 1834 2772 1640 2515 
Q 1447 2259 1447 1791 
Q 1447 1309 1634 1061 
Q 1822 813 2181 813 
Q 2531 813 2725 1069 
Q 2919 1325 2919 1791 
Q 2919 2259 2725 2515 
Q 2531 2772 2181 2772 
z
" transform="scale(0.015625)"/>
      <path id="DejaVuSans-Bold-6e" d="M 4056 2131 
L 4056 0 
L 2931 0 
L 2931 347 
L 2931 1631 
Q 2931 2084 2911 2256 
Q 2891 2428 2841 2509 
Q 2775 2619 2662 2680 
Q 2550 2741 2406 2741 
Q 2056 2741 1856 2470 
Q 1656 2200 1656 1722 
L 1656 0 
L 538 0 
L 538 3500 
L 1656 3500 
L 1656 2988 
Q 1909 3294 2193 3439 
Q 2478 3584 2822 3584 
Q 3428 3584 3742 3212 
Q 4056 2841 4056 2131 
z
" transform="scale(0.015625)"/>
     </defs>
     <use xlink:href="#DejaVuSans-Bold-20"/>
     <use xlink:href="#DejaVuSans-Bold-4f" x="34.814453"/>
     <use xlink:href="#DejaVuSans-Bold-72" x="119.824219"/>
     <use xlink:href="#DejaVuSans-Bold-69" x="169.140625"/>
     <use xlink:href="#DejaVuSans-Bold-67" x="203.417969"/>
     <use xlink:href="#DejaVuSans-Bold-69" x="275"/>
     <use xlink:href="#DejaVuSans-Bold-6e" x="309.277344"/>
     <use xlink:href="#DejaVuSans-Bold-20" x="380.46875"/>
    </g>
   </g>
  </g>
  <g id="axes_2">
   <g id="patch_18">
    <path d="M 241.706573 324 
L 402.589332 324 
L 402.589332 54 
L 241.706573 54 
z
" style="fill: #ffffff"/>
   </g>
   <g id="patch_19">
    <path d="M 249.019426 324 
L 261.640593 324 
L 261.640593 303.958074 
L 249.019426 303.958074 
z
" clip-path="url(#pf63002dad7)" style="fill: #ef9a9a; stroke: #000000; stroke-linejoin: miter"/>
   </g>
   <g id="patch_20">
    <path d="M 263.867858 324 
L 276.489025 324 
L 276.489025 282.816236 
L 263.867858 282.816236 
z
" clip-path="url(#pf63002dad7)" style="fill: #ef9a9a; stroke: #000000; stroke-linejoin: miter"/>
   </g>
   <g id="patch_21">
    <path d="M 278.71629 324 
L 291.337457 324 
L 291.337457 292.667884 
L 278.71629 292.667884 
z
" clip-path="url(#pf63002dad7)" style="fill: #ef9a9a; stroke: #000000; stroke-linejoin: miter"/>
   </g>
   <g id="patch_22">
    <path d="M 293.564721 324 
L 306.185888 324 
L 306.185888 297.478007 
L 293.564721 297.478007 
z
" clip-path="url(#pf63002dad7)" style="fill: #ef9a9a; stroke: #000000; stroke-linejoin: miter"/>
   </g>
   <g id="patch_23">
    <path d="M 308.413153 324 
L 321.03432 324 
L 321.03432 308.748551 
L 308.413153 308.748551 
z
" clip-path="url(#pf63002dad7)" style="fill: #ef9a9a; stroke: #000000; stroke-linejoin: miter"/>
   </g>
   <g id="patch_24">
    <path d="M 323.261585 324 
L 335.882752 324 
L 335.882752 308.749011 
L 323.261585 308.749011 
z
" clip-path="url(#pf63002dad7)" style="fill: #ef9a9a; stroke: #000000; stroke-linejoin: miter"/>
   </g>
   <g id="patch_25">
    <path d="M 338.110017 324 
L 350.731184 324 
L 350.731184 310.505857 
L 338.110017 310.505857 
z
" clip-path="url(#pf63002dad7)" style="fill: #ef9a9a; stroke: #000000; stroke-linejoin: miter"/>
   </g>
   <g id="patch_26">
    <path d="M 352.958449 324 
L 365.579616 324 
L 365.579616 286.946182 
L 352.958449 286.946182 
z
" clip-path="url(#pf63002dad7)" style="fill: #ef9a9a; stroke: #000000; stroke-linejoin: miter"/>
   </g>
   <g id="patch_27">
    <path d="M 367.80688 324 
L 380.428047 324 
L 380.428047 297.396442 
L 367.80688 297.396442 
z
" clip-path="url(#pf63002dad7)" style="fill: #ef9a9a; stroke: #000000; stroke-linejoin: miter"/>
   </g>
   <g id="patch_28">
    <path d="M 382.655312 324 
L 395.276479 324 
L 395.276479 293.590899 
L 382.655312 293.590899 
z
" clip-path="url(#pf63002dad7)" style="fill: #ef9a9a; stroke: #000000; stroke-linejoin: miter"/>
   </g>
   <g id="matplotlib.axis_3"/>
   <g id="matplotlib.axis_4">
    <g id="ytick_10">
     <g id="line2d_19">
      <path d="M 241.706573 324 
L 402.589332 324 
" clip-path="url(#pf63002dad7)" style="fill: none; stroke-dasharray: 2.96,1.28; stroke-dashoffset: 0; stroke: #b0b0b0; stroke-opacity: 0.5; stroke-width: 0.8"/>
     </g>
     <g id="line2d_20">
      <g>
       <use xlink:href="#m0468b5aa19" x="241.706573" y="324" style="stroke: #000000; stroke-width: 0.8"/>
      </g>
     </g>
     <g id="text_12">
      <!-- 0.0 -->
      <g transform="translate(218.803448 327.799219)scale(0.1 -0.1)">
       <defs>
        <path id="DejaVuSans-2e" d="M 684 794 
L 1344 794 
L 1344 0 
L 684 0 
L 684 794 
z
" transform="scale(0.015625)"/>
       </defs>
       <use xlink:href="#DejaVuSans-30"/>
       <use xlink:href="#DejaVuSans-2e" x="63.623047"/>
       <use xlink:href="#DejaVuSans-30" x="95.410156"/>
      </g>
     </g>
    </g>
    <g id="ytick_11">
     <g id="line2d_21">
      <path d="M 241.706573 272.571429 
L 402.589332 272.571429 
" clip-path="url(#pf63002dad7)" style="fill: none; stroke-dasharray: 2.96,1.28; stroke-dashoffset: 0; stroke: #b0b0b0; stroke-opacity: 0.5; stroke-width: 0.8"/>
     </g>
     <g id="line2d_22">
      <g>
       <use xlink:href="#m0468b5aa19" x="241.706573" y="272.571429" style="stroke: #000000; stroke-width: 0.8"/>
      </g>
     </g>
     <g id="text_13">
      <!-- 0.2 -->
      <g transform="translate(218.803448 276.370647)scale(0.1 -0.1)">
       <use xlink:href="#DejaVuSans-30"/>
       <use xlink:href="#DejaVuSans-2e" x="63.623047"/>
       <use xlink:href="#DejaVuSans-32" x="95.410156"/>
      </g>
     </g>
    </g>
    <g id="ytick_12">
     <g id="line2d_23">
      <path d="M 241.706573 221.142857 
L 402.589332 221.142857 
" clip-path="url(#pf63002dad7)" style="fill: none; stroke-dasharray: 2.96,1.28; stroke-dashoffset: 0; stroke: #b0b0b0; stroke-opacity: 0.5; stroke-width: 0.8"/>
     </g>
     <g id="line2d_24">
      <g>
       <use xlink:href="#m0468b5aa19" x="241.706573" y="221.142857" style="stroke: #000000; stroke-width: 0.8"/>
      </g>
     </g>
     <g id="text_14">
      <!-- 0.4 -->
      <g transform="translate(218.803448 224.942076)scale(0.1 -0.1)">
       <use xlink:href="#DejaVuSans-30"/>
       <use xlink:href="#DejaVuSans-2e" x="63.623047"/>
       <use xlink:href="#DejaVuSans-34" x="95.410156"/>
      </g>
     </g>
    </g>
    <g id="ytick_13">
     <g id="line2d_25">
      <path d="M 241.706573 169.714286 
L 402.589332 169.714286 
" clip-path="url(#pf63002dad7)" style="fill: none; stroke-dasharray: 2.96,1.28; stroke-dashoffset: 0; stroke: #b0b0b0; stroke-opacity: 0.5; stroke-width: 0.8"/>
     </g>
     <g id="line2d_26">
      <g>
       <use xlink:href="#m0468b5aa19" x="241.706573" y="169.714286" style="stroke: #000000; stroke-width: 0.8"/>
      </g>
     </g>
     <g id="text_15">
      <!-- 0.6 -->
      <g transform="translate(218.803448 173.513504)scale(0.1 -0.1)">
       <use xlink:href="#DejaVuSans-30"/>
       <use xlink:href="#DejaVuSans-2e" x="63.623047"/>
       <use xlink:href="#DejaVuSans-36" x="95.410156"/>
      </g>
     </g>
    </g>
    <g id="ytick_14">
     <g id="line2d_27">
      <path d="M 241.706573 118.285714 
L 402.589332 118.285714 
" clip-path="url(#pf63002dad7)" style="fill: none; stroke-dasharray: 2.96,1.28; stroke-dashoffset: 0; stroke: #b0b0b0; stroke-opacity: 0.5; stroke-width: 0.8"/>
     </g>
     <g id="line2d_28">
      <g>
       <use xlink:href="#m0468b5aa19" x="241.706573" y="118.285714" style="stroke: #000000; stroke-width: 0.8"/>
      </g>
     </g>
     <g id="text_16">
      <!-- 0.8 -->
      <g transform="translate(218.803448 122.084933)scale(0.1 -0.1)">
       <use xlink:href="#DejaVuSans-30"/>
       <use xlink:href="#DejaVuSans-2e" x="63.623047"/>
       <use xlink:href="#DejaVuSans-38" x="95.410156"/>
      </g>
     </g>
    </g>
    <g id="ytick_15">
     <g id="line2d_29">
      <path d="M 241.706573 66.857143 
L 402.589332 66.857143 
" clip-path="url(#pf63002dad7)" style="fill: none; stroke-dasharray: 2.96,1.28; stroke-dashoffset: 0; stroke: #b0b0b0; stroke-opacity: 0.5; stroke-width: 0.8"/>
     </g>
     <g id="line2d_30">
      <g>
       <use xlink:href="#m0468b5aa19" x="241.706573" y="66.857143" style="stroke: #000000; stroke-width: 0.8"/>
      </g>
     </g>
     <g id="text_17">
      <!-- 1.0 -->
      <g transform="translate(218.803448 70.656362)scale(0.1 -0.1)">
       <use xlink:href="#DejaVuSans-31"/>
       <use xlink:href="#DejaVuSans-2e" x="63.623047"/>
       <use xlink:href="#DejaVuSans-30" x="95.410156"/>
      </g>
     </g>
    </g>
    <g id="text_18">
     <!-- Probability -->
     <g transform="translate(212.723761 215.428906)rotate(-90)scale(0.1 -0.1)">
      <defs>
       <path id="DejaVuSans-50" d="M 1259 4147 
L 1259 2394 
L 2053 2394 
Q 2494 2394 2734 2622 
Q 2975 2850 2975 3272 
Q 2975 3691 2734 3919 
Q 2494 4147 2053 4147 
L 1259 4147 
z
M 628 4666 
L 2053 4666 
Q 2838 4666 3239 4311 
Q 3641 3956 3641 3272 
Q 3641 2581 3239 2228 
Q 2838 1875 2053 1875 
L 1259 1875 
L 1259 0 
L 628 0 
L 628 4666 
z
" transform="scale(0.015625)"/>
       <path id="DejaVuSans-72" d="M 2631 2963 
Q 2534 3019 2420 3045 
Q 2306 3072 2169 3072 
Q 1681 3072 1420 2755 
Q 1159 2438 1159 1844 
L 1159 0 
L 581 0 
L 581 3500 
L 1159 3500 
L 1159 2956 
Q 1341 3275 1631 3429 
Q 1922 3584 2338 3584 
Q 2397 3584 2469 3576 
Q 2541 3569 2628 3553 
L 2631 2963 
z
" transform="scale(0.015625)"/>
       <path id="DejaVuSans-62" d="M 3116 1747 
Q 3116 2381 2855 2742 
Q 2594 3103 2138 3103 
Q 1681 3103 1420 2742 
Q 1159 2381 1159 1747 
Q 1159 1113 1420 752 
Q 1681 391 2138 391 
Q 2594 391 2855 752 
Q 3116 1113 3116 1747 
z
M 1159 2969 
Q 1341 3281 1617 3432 
Q 1894 3584 2278 3584 
Q 2916 3584 3314 3078 
Q 3713 2572 3713 1747 
Q 3713 922 3314 415 
Q 2916 -91 2278 -91 
Q 1894 -91 1617 61 
Q 1341 213 1159 525 
L 1159 0 
L 581 0 
L 581 4863 
L 1159 4863 
L 1159 2969 
z
" transform="scale(0.015625)"/>
       <path id="DejaVuSans-79" d="M 2059 -325 
Q 1816 -950 1584 -1140 
Q 1353 -1331 966 -1331 
L 506 -1331 
L 506 -850 
L 844 -850 
Q 1081 -850 1212 -737 
Q 1344 -625 1503 -206 
L 1606 56 
L 191 3500 
L 800 3500 
L 1894 763 
L 2988 3500 
L 3597 3500 
L 2059 -325 
z
" transform="scale(0.015625)"/>
      </defs>
      <use xlink:href="#DejaVuSans-50"/>
      <use xlink:href="#DejaVuSans-72" x="58.552734"/>
      <use xlink:href="#DejaVuSans-6f" x="97.416016"/>
      <use xlink:href="#DejaVuSans-62" x="158.597656"/>
      <use xlink:href="#DejaVuSans-61" x="222.074219"/>
      <use xlink:href="#DejaVuSans-62" x="283.353516"/>
      <use xlink:href="#DejaVuSans-69" x="346.830078"/>
      <use xlink:href="#DejaVuSans-6c" x="374.613281"/>
      <use xlink:href="#DejaVuSans-69" x="402.396484"/>
      <use xlink:href="#DejaVuSans-74" x="430.179688"/>
      <use xlink:href="#DejaVuSans-79" x="469.388672"/>
     </g>
    </g>
   </g>
   <g id="patch_29">
    <path d="M 241.706573 324 
L 241.706573 54 
" style="fill: none; stroke: #000000; stroke-width: 0.8; stroke-linejoin: miter; stroke-linecap: square"/>
   </g>
   <g id="patch_30">
    <path d="M 402.589332 324 
L 402.589332 54 
" style="fill: none; stroke: #000000; stroke-width: 0.8; stroke-linejoin: miter; stroke-linecap: square"/>
   </g>
   <g id="patch_31">
    <path d="M 241.706573 324 
L 402.589332 324 
" style="fill: none; stroke: #000000; stroke-width: 0.8; stroke-linejoin: miter; stroke-linecap: square"/>
   </g>
   <g id="patch_32">
    <path d="M 241.706573 54 
L 402.589332 54 
" style="fill: none; stroke: #000000; stroke-width: 0.8; stroke-linejoin: miter; stroke-linecap: square"/>
   </g>
   <g id="text_19">
    <g id="patch_33">
     <path d="M 300.214984 49.2 
L 344.080921 49.2 
Q 347.380921 49.2 347.380921 45.9 
L 347.380921 35.254062 
Q 347.380921 31.954062 344.080921 31.954062 
L 300.214984 31.954062 
Q 296.914984 31.954062 296.914984 35.254062 
L 296.914984 45.9 
Q 296.914984 49.2 300.214984 49.2 
z
" style="fill: #ffffff; stroke: #808080; stroke-linejoin: miter"/>
    </g>
    <!--  T=8.0  -->
    <g transform="translate(300.214984 43.612344)scale(0.11 -0.11)">
     <defs>
      <path id="DejaVuSans-Bold-54" d="M 31 4666 
L 4331 4666 
L 4331 3756 
L 2784 3756 
L 2784 0 
L 1581 0 
L 1581 3756 
L 31 3756 
L 31 4666 
z
" transform="scale(0.015625)"/>
      <path id="DejaVuSans-Bold-3d" d="M 678 3084 
L 4684 3084 
L 4684 2350 
L 678 2350 
L 678 3084 
z
M 678 1663 
L 4684 1663 
L 4684 922 
L 678 922 
L 678 1663 
z
" transform="scale(0.015625)"/>
      <path id="DejaVuSans-Bold-38" d="M 2228 2088 
Q 1891 2088 1709 1903 
Q 1528 1719 1528 1375 
Q 1528 1031 1709 848 
Q 1891 666 2228 666 
Q 2563 666 2741 848 
Q 2919 1031 2919 1375 
Q 2919 1722 2741 1905 
Q 2563 2088 2228 2088 
z
M 1350 2484 
Q 925 2613 709 2878 
Q 494 3144 494 3541 
Q 494 4131 934 4440 
Q 1375 4750 2228 4750 
Q 3075 4750 3515 4442 
Q 3956 4134 3956 3541 
Q 3956 3144 3739 2878 
Q 3522 2613 3097 2484 
Q 3572 2353 3814 2058 
Q 4056 1763 4056 1313 
Q 4056 619 3595 264 
Q 3134 -91 2228 -91 
Q 1319 -91 855 264 
Q 391 619 391 1313 
Q 391 1763 633 2058 
Q 875 2353 1350 2484 
z
M 1631 3419 
Q 1631 3141 1786 2991 
Q 1941 2841 2228 2841 
Q 2509 2841 2662 2991 
Q 2816 3141 2816 3419 
Q 2816 3697 2662 3845 
Q 2509 3994 2228 3994 
Q 1941 3994 1786 3844 
Q 1631 3694 1631 3419 
z
" transform="scale(0.015625)"/>
      <path id="DejaVuSans-Bold-2e" d="M 653 1209 
L 1778 1209 
L 1778 0 
L 653 0 
L 653 1209 
z
" transform="scale(0.015625)"/>
      <path id="DejaVuSans-Bold-30" d="M 2944 2338 
Q 2944 3213 2780 3570 
Q 2616 3928 2228 3928 
Q 1841 3928 1675 3570 
Q 1509 3213 1509 2338 
Q 1509 1453 1675 1090 
Q 1841 728 2228 728 
Q 2613 728 2778 1090 
Q 2944 1453 2944 2338 
z
M 4147 2328 
Q 4147 1169 3647 539 
Q 3147 -91 2228 -91 
Q 1306 -91 806 539 
Q 306 1169 306 2328 
Q 306 3491 806 4120 
Q 1306 4750 2228 4750 
Q 3147 4750 3647 4120 
Q 4147 3491 4147 2328 
z
" transform="scale(0.015625)"/>
     </defs>
     <use xlink:href="#DejaVuSans-Bold-20"/>
     <use xlink:href="#DejaVuSans-Bold-54" x="34.814453"/>
     <use xlink:href="#DejaVuSans-Bold-3d" x="103.027344"/>
     <use xlink:href="#DejaVuSans-Bold-38" x="186.816406"/>
     <use xlink:href="#DejaVuSans-Bold-2e" x="256.396484"/>
     <use xlink:href="#DejaVuSans-Bold-30" x="294.384766"/>
     <use xlink:href="#DejaVuSans-Bold-20" x="363.964844"/>
    </g>
   </g>
  </g>
  <g id="axes_3">
   <g id="patch_34">
    <path d="M 402.589332 324 
L 563.472091 324 
L 563.472091 54 
L 402.589332 54 
z
" style="fill: #ffffff"/>
   </g>
   <g id="patch_35">
    <path d="M 409.902185 324 
L 422.523352 324 
L 422.523352 310.108949 
L 409.902185 310.108949 
z
" clip-path="url(#p351fc88b28)" style="fill: #ffcc80; stroke: #000000; stroke-linejoin: miter"/>
   </g>
   <g id="patch_36">
    <path d="M 424.750616 324 
L 437.371783 324 
L 437.371783 265.344562 
L 424.750616 265.344562 
z
" clip-path="url(#p351fc88b28)" style="fill: #ffcc80; stroke: #000000; stroke-linejoin: miter"/>
   </g>
   <g id="patch_37">
    <path d="M 439.599048 324 
L 452.220215 324 
L 452.220215 290.050322 
L 439.599048 290.050322 
z
" clip-path="url(#p351fc88b28)" style="fill: #ffcc80; stroke: #000000; stroke-linejoin: miter"/>
   </g>
   <g id="patch_38">
    <path d="M 454.44748 324 
L 467.068647 324 
L 467.068647 299.674122 
L 454.44748 299.674122 
z
" clip-path="url(#p351fc88b28)" style="fill: #ffcc80; stroke: #000000; stroke-linejoin: miter"/>
   </g>
   <g id="patch_39">
    <path d="M 469.295912 324 
L 481.917079 324 
L 481.917079 315.955882 
L 469.295912 315.955882 
z
" clip-path="url(#p351fc88b28)" style="fill: #ffcc80; stroke: #000000; stroke-linejoin: miter"/>
   </g>
   <g id="patch_40">
    <path d="M 484.144344 324 
L 496.765511 324 
L 496.765511 315.956367 
L 484.144344 315.956367 
z
" clip-path="url(#p351fc88b28)" style="fill: #ffcc80; stroke: #000000; stroke-linejoin: miter"/>
   </g>
   <g id="patch_41">
    <path d="M 498.992775 324 
L 511.613942 324 
L 511.613942 317.70281 
L 498.992775 317.70281 
z
" clip-path="url(#p351fc88b28)" style="fill: #ffcc80; stroke: #000000; stroke-linejoin: miter"/>
   </g>
   <g id="patch_42">
    <path d="M 513.841207 324 
L 526.462374 324 
L 526.462374 276.51875 
L 513.841207 276.51875 
z
" clip-path="url(#p351fc88b28)" style="fill: #ffcc80; stroke: #000000; stroke-linejoin: miter"/>
   </g>
   <g id="patch_43">
    <path d="M 528.689639 324 
L 541.310806 324 
L 541.310806 299.524269 
L 528.689639 299.524269 
z
" clip-path="url(#p351fc88b28)" style="fill: #ffcc80; stroke: #000000; stroke-linejoin: miter"/>
   </g>
   <g id="patch_44">
    <path d="M 543.538071 324 
L 556.159238 324 
L 556.159238 292.021111 
L 543.538071 292.021111 
z
" clip-path="url(#p351fc88b28)" style="fill: #ffcc80; stroke: #000000; stroke-linejoin: miter"/>
   </g>
   <g id="matplotlib.axis_5"/>
   <g id="matplotlib.axis_6">
    <g id="ytick_16">
     <g id="line2d_31">
      <path d="M 402.589332 324 
L 563.472091 324 
" clip-path="url(#p351fc88b28)" style="fill: none; stroke-dasharray: 2.96,1.28; stroke-dashoffset: 0; stroke: #b0b0b0; stroke-opacity: 0.5; stroke-width: 0.8"/>
     </g>
     <g id="line2d_32"/>
    </g>
    <g id="ytick_17">
     <g id="line2d_33">
      <path d="M 402.589332 272.571429 
L 563.472091 272.571429 
" clip-path="url(#p351fc88b28)" style="fill: none; stroke-dasharray: 2.96,1.28; stroke-dashoffset: 0; stroke: #b0b0b0; stroke-opacity: 0.5; stroke-width: 0.8"/>
     </g>
     <g id="line2d_34"/>
    </g>
    <g id="ytick_18">
     <g id="line2d_35">
      <path d="M 402.589332 221.142857 
L 563.472091 221.142857 
" clip-path="url(#p351fc88b28)" style="fill: none; stroke-dasharray: 2.96,1.28; stroke-dashoffset: 0; stroke: #b0b0b0; stroke-opacity: 0.5; stroke-width: 0.8"/>
     </g>
     <g id="line2d_36"/>
    </g>
    <g id="ytick_19">
     <g id="line2d_37">
      <path d="M 402.589332 169.714286 
L 563.472091 169.714286 
" clip-path="url(#p351fc88b28)" style="fill: none; stroke-dasharray: 2.96,1.28; stroke-dashoffset: 0; stroke: #b0b0b0; stroke-opacity: 0.5; stroke-width: 0.8"/>
     </g>
     <g id="line2d_38"/>
    </g>
    <g id="ytick_20">
     <g id="line2d_39">
      <path d="M 402.589332 118.285714 
L 563.472091 118.285714 
" clip-path="url(#p351fc88b28)" style="fill: none; stroke-dasharray: 2.96,1.28; stroke-dashoffset: 0; stroke: #b0b0b0; stroke-opacity: 0.5; stroke-width: 0.8"/>
     </g>
     <g id="line2d_40"/>
    </g>
    <g id="ytick_21">
     <g id="line2d_41">
      <path d="M 402.589332 66.857143 
L 563.472091 66.857143 
" clip-path="url(#p351fc88b28)" style="fill: none; stroke-dasharray: 2.96,1.28; stroke-dashoffset: 0; stroke: #b0b0b0; stroke-opacity: 0.5; stroke-width: 0.8"/>
     </g>
     <g id="line2d_42"/>
    </g>
   </g>
   <g id="patch_45">
    <path d="M 402.589332 324 
L 402.589332 54 
" style="fill: none; stroke: #000000; stroke-width: 0.8; stroke-linejoin: miter; stroke-linecap: square"/>
   </g>
   <g id="patch_46">
    <path d="M 563.472091 324 
L 563.472091 54 
" style="fill: none; stroke: #000000; stroke-width: 0.8; stroke-linejoin: miter; stroke-linecap: square"/>
   </g>
   <g id="patch_47">
    <path d="M 402.589332 324 
L 563.472091 324 
" style="fill: none; stroke: #000000; stroke-width: 0.8; stroke-linejoin: miter; stroke-linecap: square"/>
   </g>
   <g id="patch_48">
    <path d="M 402.589332 54 
L 563.472091 54 
" style="fill: none; stroke: #000000; stroke-width: 0.8; stroke-linejoin: miter; stroke-linecap: square"/>
   </g>
   <g id="text_20">
    <g id="patch_49">
     <path d="M 461.097742 49.2 
L 504.96368 49.2 
Q 508.26368 49.2 508.26368 45.9 
L 508.26368 35.254062 
Q 508.26368 31.954062 504.96368 31.954062 
L 461.097742 31.954062 
Q 457.797742 31.954062 457.797742 35.254062 
L 457.797742 45.9 
Q 457.797742 49.2 461.097742 49.2 
z
" style="fill: #ffffff; stroke: #808080; stroke-linejoin: miter"/>
    </g>
    <!--  T=4.0  -->
    <g transform="translate(461.097742 43.612344)scale(0.11 -0.11)">
     <defs>
      <path id="DejaVuSans-Bold-34" d="M 2356 3675 
L 1038 1722 
L 2356 1722 
L 2356 3675 
z
M 2156 4666 
L 3494 4666 
L 3494 1722 
L 4159 1722 
L 4159 850 
L 3494 850 
L 3494 0 
L 2356 0 
L 2356 850 
L 288 850 
L 288 1881 
L 2156 4666 
z
" transform="scale(0.015625)"/>
     </defs>
     <use xlink:href="#DejaVuSans-Bold-20"/>
     <use xlink:href="#DejaVuSans-Bold-54" x="34.814453"/>
     <use xlink:href="#DejaVuSans-Bold-3d" x="103.027344"/>
     <use xlink:href="#DejaVuSans-Bold-34" x="186.816406"/>
     <use xlink:href="#DejaVuSans-Bold-2e" x="256.396484"/>
     <use xlink:href="#DejaVuSans-Bold-30" x="294.384766"/>
     <use xlink:href="#DejaVuSans-Bold-20" x="363.964844"/>
    </g>
   </g>
  </g>
  <g id="axes_4">
   <g id="patch_50">
    <path d="M 563.472091 324 
L 724.354849 324 
L 724.354849 54 
L 563.472091 54 
z
" style="fill: #ffffff"/>
   </g>
   <g id="patch_51">
    <path d="M 570.784943 324 
L 583.40611 324 
L 583.40611 318.734304 
L 570.784943 318.734304 
z
" clip-path="url(#pc4be8cfede)" style="fill: #c5e1a5; stroke: #000000; stroke-linejoin: miter"/>
   </g>
   <g id="patch_52">
    <path d="M 585.633375 324 
L 598.254542 324 
L 598.254542 230.113714 
L 585.633375 230.113714 
z
" clip-path="url(#pc4be8cfede)" style="fill: #c5e1a5; stroke: #000000; stroke-linejoin: miter"/>
   </g>
   <g id="patch_53">
    <path d="M 600.481807 324 
L 613.102974 324 
L 613.102974 292.547373 
L 600.481807 292.547373 
z
" clip-path="url(#pc4be8cfede)" style="fill: #c5e1a5; stroke: #000000; stroke-linejoin: miter"/>
   </g>
   <g id="patch_54">
    <path d="M 615.330239 324 
L 627.951406 324 
L 627.951406 307.851854 
L 615.330239 307.851854 
z
" clip-path="url(#pc4be8cfede)" style="fill: #c5e1a5; stroke: #000000; stroke-linejoin: miter"/>
   </g>
   <g id="patch_55">
    <path d="M 630.17867 324 
L 642.799837 324 
L 642.799837 322.234196 
L 630.17867 322.234196 
z
" clip-path="url(#pc4be8cfede)" style="fill: #c5e1a5; stroke: #000000; stroke-linejoin: miter"/>
   </g>
   <g id="patch_56">
    <path d="M 645.027102 324 
L 657.648269 324 
L 657.648269 322.234409 
L 645.027102 322.234409 
z
" clip-path="url(#pc4be8cfede)" style="fill: #c5e1a5; stroke: #000000; stroke-linejoin: miter"/>
   </g>
   <g id="patch_57">
    <path d="M 659.875534 324 
L 672.496701 324 
L 672.496701 322.917871 
L 659.875534 322.917871 
z
" clip-path="url(#pc4be8cfede)" style="fill: #c5e1a5; stroke: #000000; stroke-linejoin: miter"/>
   </g>
   <g id="patch_58">
    <path d="M 674.723966 324 
L 687.345133 324 
L 687.345133 262.47808 
L 674.723966 262.47808 
z
" clip-path="url(#pc4be8cfede)" style="fill: #c5e1a5; stroke: #000000; stroke-linejoin: miter"/>
   </g>
   <g id="patch_59">
    <path d="M 689.572398 324 
L 702.193565 324 
L 702.193565 307.65229 
L 689.572398 307.65229 
z
" clip-path="url(#pc4be8cfede)" style="fill: #c5e1a5; stroke: #000000; stroke-linejoin: miter"/>
   </g>
   <g id="patch_60">
    <path d="M 704.420829 324 
L 717.041996 324 
L 717.041996 296.093052 
L 704.420829 296.093052 
z
" clip-path="url(#pc4be8cfede)" style="fill: #c5e1a5; stroke: #000000; stroke-linejoin: miter"/>
   </g>
   <g id="matplotlib.axis_7"/>
   <g id="matplotlib.axis_8">
    <g id="ytick_22">
     <g id="line2d_43">
      <path d="M 563.472091 324 
L 724.354849 324 
" clip-path="url(#pc4be8cfede)" style="fill: none; stroke-dasharray: 2.96,1.28; stroke-dashoffset: 0; stroke: #b0b0b0; stroke-opacity: 0.5; stroke-width: 0.8"/>
     </g>
     <g id="line2d_44"/>
    </g>
    <g id="ytick_23">
     <g id="line2d_45">
      <path d="M 563.472091 272.571429 
L 724.354849 272.571429 
" clip-path="url(#pc4be8cfede)" style="fill: none; stroke-dasharray: 2.96,1.28; stroke-dashoffset: 0; stroke: #b0b0b0; stroke-opacity: 0.5; stroke-width: 0.8"/>
     </g>
     <g id="line2d_46"/>
    </g>
    <g id="ytick_24">
     <g id="line2d_47">
      <path d="M 563.472091 221.142857 
L 724.354849 221.142857 
" clip-path="url(#pc4be8cfede)" style="fill: none; stroke-dasharray: 2.96,1.28; stroke-dashoffset: 0; stroke: #b0b0b0; stroke-opacity: 0.5; stroke-width: 0.8"/>
     </g>
     <g id="line2d_48"/>
    </g>
    <g id="ytick_25">
     <g id="line2d_49">
      <path d="M 563.472091 169.714286 
L 724.354849 169.714286 
" clip-path="url(#pc4be8cfede)" style="fill: none; stroke-dasharray: 2.96,1.28; stroke-dashoffset: 0; stroke: #b0b0b0; stroke-opacity: 0.5; stroke-width: 0.8"/>
     </g>
     <g id="line2d_50"/>
    </g>
    <g id="ytick_26">
     <g id="line2d_51">
      <path d="M 563.472091 118.285714 
L 724.354849 118.285714 
" clip-path="url(#pc4be8cfede)" style="fill: none; stroke-dasharray: 2.96,1.28; stroke-dashoffset: 0; stroke: #b0b0b0; stroke-opacity: 0.5; stroke-width: 0.8"/>
     </g>
     <g id="line2d_52"/>
    </g>
    <g id="ytick_27">
     <g id="line2d_53">
      <path d="M 563.472091 66.857143 
L 724.354849 66.857143 
" clip-path="url(#pc4be8cfede)" style="fill: none; stroke-dasharray: 2.96,1.28; stroke-dashoffset: 0; stroke: #b0b0b0; stroke-opacity: 0.5; stroke-width: 0.8"/>
     </g>
     <g id="line2d_54"/>
    </g>
   </g>
   <g id="patch_61">
    <path d="M 563.472091 324 
L 563.472091 54 
" style="fill: none; stroke: #000000; stroke-width: 0.8; stroke-linejoin: miter; stroke-linecap: square"/>
   </g>
   <g id="patch_62">
    <path d="M 724.354849 324 
L 724.354849 54 
" style="fill: none; stroke: #000000; stroke-width: 0.8; stroke-linejoin: miter; stroke-linecap: square"/>
   </g>
   <g id="patch_63">
    <path d="M 563.472091 324 
L 724.354849 324 
" style="fill: none; stroke: #000000; stroke-width: 0.8; stroke-linejoin: miter; stroke-linecap: square"/>
   </g>
   <g id="patch_64">
    <path d="M 563.472091 54 
L 724.354849 54 
" style="fill: none; stroke: #000000; stroke-width: 0.8; stroke-linejoin: miter; stroke-linecap: square"/>
   </g>
   <g id="text_21">
    <g id="patch_65">
     <path d="M 621.980501 49.2 
L 665.846439 49.2 
Q 669.146439 49.2 669.146439 45.9 
L 669.146439 35.254062 
Q 669.146439 31.954062 665.846439 31.954062 
L 621.980501 31.954062 
Q 618.680501 31.954062 618.680501 35.254062 
L 618.680501 45.9 
Q 618.680501 49.2 621.980501 49.2 
z
" style="fill: #ffffff; stroke: #808080; stroke-linejoin: miter"/>
    </g>
    <!--  T=2.0  -->
    <g transform="translate(621.980501 43.612344)scale(0.11 -0.11)">
     <defs>
      <path id="DejaVuSans-Bold-32" d="M 1844 884 
L 3897 884 
L 3897 0 
L 506 0 
L 506 884 
L 2209 2388 
Q 2438 2594 2547 2791 
Q 2656 2988 2656 3200 
Q 2656 3528 2436 3728 
Q 2216 3928 1850 3928 
Q 1569 3928 1234 3808 
Q 900 3688 519 3450 
L 519 4475 
Q 925 4609 1322 4679 
Q 1719 4750 2100 4750 
Q 2938 4750 3402 4381 
Q 3866 4013 3866 3353 
Q 3866 2972 3669 2642 
Q 3472 2313 2841 1759 
L 1844 884 
z
" transform="scale(0.015625)"/>
     </defs>
     <use xlink:href="#DejaVuSans-Bold-20"/>
     <use xlink:href="#DejaVuSans-Bold-54" x="34.814453"/>
     <use xlink:href="#DejaVuSans-Bold-3d" x="103.027344"/>
     <use xlink:href="#DejaVuSans-Bold-32" x="186.816406"/>
     <use xlink:href="#DejaVuSans-Bold-2e" x="256.396484"/>
     <use xlink:href="#DejaVuSans-Bold-30" x="294.384766"/>
     <use xlink:href="#DejaVuSans-Bold-20" x="363.964844"/>
    </g>
   </g>
  </g>
  <g id="axes_5">
   <g id="patch_66">
    <path d="M 724.354849 324 
L 885.237608 324 
L 885.237608 54 
L 724.354849 54 
z
" style="fill: #ffffff"/>
   </g>
   <g id="patch_67">
    <path d="M 731.667702 324 
L 744.288869 324 
L 744.288869 323.522467 
L 731.667702 323.522467 
z
" clip-path="url(#pe7fc086856)" style="fill: #80cbc4; stroke: #000000; stroke-linejoin: miter"/>
   </g>
   <g id="patch_68">
    <path d="M 746.516134 324 
L 759.137301 324 
L 759.137301 172.191542 
L 746.516134 172.191542 
z
" clip-path="url(#pe7fc086856)" style="fill: #80cbc4; stroke: #000000; stroke-linejoin: miter"/>
   </g>
   <g id="patch_69">
    <path d="M 761.364565 324 
L 773.985732 324 
L 773.985732 306.962515 
L 761.364565 306.962515 
z
" clip-path="url(#pe7fc086856)" style="fill: #80cbc4; stroke: #000000; stroke-linejoin: miter"/>
   </g>
   <g id="patch_70">
    <path d="M 776.212997 324 
L 788.834164 324 
L 788.834164 319.509063 
L 776.212997 319.509063 
z
" clip-path="url(#pe7fc086856)" style="fill: #80cbc4; stroke: #000000; stroke-linejoin: miter"/>
   </g>
   <g id="patch_71">
    <path d="M 791.061429 324 
L 803.682596 324 
L 803.682596 323.9463 
L 791.061429 323.9463 
z
" clip-path="url(#pe7fc086856)" style="fill: #80cbc4; stroke: #000000; stroke-linejoin: miter"/>
   </g>
   <g id="patch_72">
    <path d="M 805.909861 324 
L 818.531028 324 
L 818.531028 323.946313 
L 805.909861 323.946313 
z
" clip-path="url(#pe7fc086856)" style="fill: #80cbc4; stroke: #000000; stroke-linejoin: miter"/>
   </g>
   <g id="patch_73">
    <path d="M 820.758293 324 
L 833.37946 324 
L 833.37946 323.979833 
L 820.758293 323.979833 
z
" clip-path="url(#pe7fc086856)" style="fill: #80cbc4; stroke: #000000; stroke-linejoin: miter"/>
   </g>
   <g id="patch_74">
    <path d="M 835.606724 324 
L 848.227891 324 
L 848.227891 258.81444 
L 835.606724 258.81444 
z
" clip-path="url(#pe7fc086856)" style="fill: #80cbc4; stroke: #000000; stroke-linejoin: miter"/>
   </g>
   <g id="patch_75">
    <path d="M 850.455156 324 
L 863.076323 324 
L 863.076323 319.397376 
L 850.455156 319.397376 
z
" clip-path="url(#pe7fc086856)" style="fill: #80cbc4; stroke: #000000; stroke-linejoin: miter"/>
   </g>
   <g id="patch_76">
    <path d="M 865.303588 324 
L 877.924755 324 
L 877.924755 310.587296 
L 865.303588 310.587296 
z
" clip-path="url(#pe7fc086856)" style="fill: #80cbc4; stroke: #000000; stroke-linejoin: miter"/>
   </g>
   <g id="matplotlib.axis_9"/>
   <g id="matplotlib.axis_10">
    <g id="ytick_28">
     <g id="line2d_55">
      <path d="M 724.354849 324 
L 885.237608 324 
" clip-path="url(#pe7fc086856)" style="fill: none; stroke-dasharray: 2.96,1.28; stroke-dashoffset: 0; stroke: #b0b0b0; stroke-opacity: 0.5; stroke-width: 0.8"/>
     </g>
     <g id="line2d_56"/>
    </g>
    <g id="ytick_29">
     <g id="line2d_57">
      <path d="M 724.354849 272.571429 
L 885.237608 272.571429 
" clip-path="url(#pe7fc086856)" style="fill: none; stroke-dasharray: 2.96,1.28; stroke-dashoffset: 0; stroke: #b0b0b0; stroke-opacity: 0.5; stroke-width: 0.8"/>
     </g>
     <g id="line2d_58"/>
    </g>
    <g id="ytick_30">
     <g id="line2d_59">
      <path d="M 724.354849 221.142857 
L 885.237608 221.142857 
" clip-path="url(#pe7fc086856)" style="fill: none; stroke-dasharray: 2.96,1.28; stroke-dashoffset: 0; stroke: #b0b0b0; stroke-opacity: 0.5; stroke-width: 0.8"/>
     </g>
     <g id="line2d_60"/>
    </g>
    <g id="ytick_31">
     <g id="line2d_61">
      <path d="M 724.354849 169.714286 
L 885.237608 169.714286 
" clip-path="url(#pe7fc086856)" style="fill: none; stroke-dasharray: 2.96,1.28; stroke-dashoffset: 0; stroke: #b0b0b0; stroke-opacity: 0.5; stroke-width: 0.8"/>
     </g>
     <g id="line2d_62"/>
    </g>
    <g id="ytick_32">
     <g id="line2d_63">
      <path d="M 724.354849 118.285714 
L 885.237608 118.285714 
" clip-path="url(#pe7fc086856)" style="fill: none; stroke-dasharray: 2.96,1.28; stroke-dashoffset: 0; stroke: #b0b0b0; stroke-opacity: 0.5; stroke-width: 0.8"/>
     </g>
     <g id="line2d_64"/>
    </g>
    <g id="ytick_33">
     <g id="line2d_65">
      <path d="M 724.354849 66.857143 
L 885.237608 66.857143 
" clip-path="url(#pe7fc086856)" style="fill: none; stroke-dasharray: 2.96,1.28; stroke-dashoffset: 0; stroke: #b0b0b0; stroke-opacity: 0.5; stroke-width: 0.8"/>
     </g>
     <g id="line2d_66"/>
    </g>
   </g>
   <g id="patch_77">
    <path d="M 724.354849 324 
L 724.354849 54 
" style="fill: none; stroke: #000000; stroke-width: 0.8; stroke-linejoin: miter; stroke-linecap: square"/>
   </g>
   <g id="patch_78">
    <path d="M 885.237608 324 
L 885.237608 54 
" style="fill: none; stroke: #000000; stroke-width: 0.8; stroke-linejoin: miter; stroke-linecap: square"/>
   </g>
   <g id="patch_79">
    <path d="M 724.354849 324 
L 885.237608 324 
" style="fill: none; stroke: #000000; stroke-width: 0.8; stroke-linejoin: miter; stroke-linecap: square"/>
   </g>
   <g id="patch_80">
    <path d="M 724.354849 54 
L 885.237608 54 
" style="fill: none; stroke: #000000; stroke-width: 0.8; stroke-linejoin: miter; stroke-linecap: square"/>
   </g>
   <g id="text_22">
    <g id="patch_81">
     <path d="M 782.86326 49.2 
L 826.729197 49.2 
Q 830.029197 49.2 830.029197 45.9 
L 830.029197 35.254062 
Q 830.029197 31.954062 826.729197 31.954062 
L 782.86326 31.954062 
Q 779.56326 31.954062 779.56326 35.254062 
L 779.56326 45.9 
Q 779.56326 49.2 782.86326 49.2 
z
" style="fill: #ffffff; stroke: #808080; stroke-linejoin: miter"/>
    </g>
    <!--  T=1.0  -->
    <g transform="translate(782.86326 43.612344)scale(0.11 -0.11)">
     <defs>
      <path id="DejaVuSans-Bold-31" d="M 750 831 
L 1813 831 
L 1813 3847 
L 722 3622 
L 722 4441 
L 1806 4666 
L 2950 4666 
L 2950 831 
L 4013 831 
L 4013 0 
L 750 0 
L 750 831 
z
" transform="scale(0.015625)"/>
     </defs>
     <use xlink:href="#DejaVuSans-Bold-20"/>
     <use xlink:href="#DejaVuSans-Bold-54" x="34.814453"/>
     <use xlink:href="#DejaVuSans-Bold-3d" x="103.027344"/>
     <use xlink:href="#DejaVuSans-Bold-31" x="186.816406"/>
     <use xlink:href="#DejaVuSans-Bold-2e" x="256.396484"/>
     <use xlink:href="#DejaVuSans-Bold-30" x="294.384766"/>
     <use xlink:href="#DejaVuSans-Bold-20" x="363.964844"/>
    </g>
   </g>
  </g>
  <g id="axes_6">
   <g id="patch_82">
    <path d="M 885.237608 324 
L 1046.120366 324 
L 1046.120366 54 
L 885.237608 54 
z
" style="fill: #ffffff"/>
   </g>
   <g id="patch_83">
    <path d="M 892.55046 324 
L 905.171627 324 
L 905.171627 323.997891 
L 892.55046 323.997891 
z
" clip-path="url(#p13286b72bc)" style="fill: #6666ff; stroke: #000000; stroke-linejoin: miter"/>
   </g>
   <g id="patch_84">
    <path d="M 907.398892 324 
L 920.020059 324 
L 920.020059 110.88378 
L 907.398892 110.88378 
z
" clip-path="url(#p13286b72bc)" style="fill: #6666ff; stroke: #000000; stroke-linejoin: miter"/>
   </g>
   <g id="patch_85">
    <path d="M 922.247324 324 
L 934.868491 324 
L 934.868491 321.315672 
L 922.247324 321.315672 
z
" clip-path="url(#p13286b72bc)" style="fill: #6666ff; stroke: #000000; stroke-linejoin: miter"/>
   </g>
   <g id="patch_86">
    <path d="M 937.095756 324 
L 949.716923 324 
L 949.716923 323.813492 
L 937.095756 323.813492 
z
" clip-path="url(#p13286b72bc)" style="fill: #6666ff; stroke: #000000; stroke-linejoin: miter"/>
   </g>
   <g id="patch_87">
    <path d="M 951.944188 324 
L 964.565355 324 
L 964.565355 323.999973 
L 951.944188 323.999973 
z
" clip-path="url(#p13286b72bc)" style="fill: #6666ff; stroke: #000000; stroke-linejoin: miter"/>
   </g>
   <g id="patch_88">
    <path d="M 966.792619 324 
L 979.413786 324 
L 979.413786 323.999973 
L 966.792619 323.999973 
z
" clip-path="url(#p13286b72bc)" style="fill: #6666ff; stroke: #000000; stroke-linejoin: miter"/>
   </g>
   <g id="patch_89">
    <path d="M 981.641051 324 
L 994.262218 324 
L 994.262218 323.999996 
L 981.641051 323.999996 
z
" clip-path="url(#p13286b72bc)" style="fill: #6666ff; stroke: #000000; stroke-linejoin: miter"/>
   </g>
   <g id="patch_90">
    <path d="M 996.489483 324 
L 1009.11065 324 
L 1009.11065 284.705898 
L 996.489483 284.705898 
z
" clip-path="url(#p13286b72bc)" style="fill: #6666ff; stroke: #000000; stroke-linejoin: miter"/>
   </g>
   <g id="patch_91">
    <path d="M 1011.337915 324 
L 1023.959082 324 
L 1023.959082 323.804099 
L 1011.337915 323.804099 
z
" clip-path="url(#p13286b72bc)" style="fill: #6666ff; stroke: #000000; stroke-linejoin: miter"/>
   </g>
   <g id="patch_92">
    <path d="M 1026.186347 324 
L 1038.807514 324 
L 1038.807514 322.336368 
L 1026.186347 322.336368 
z
" clip-path="url(#p13286b72bc)" style="fill: #6666ff; stroke: #000000; stroke-linejoin: miter"/>
   </g>
   <g id="matplotlib.axis_11"/>
   <g id="matplotlib.axis_12">
    <g id="ytick_34">
     <g id="line2d_67">
      <path d="M 885.237608 324 
L 1046.120366 324 
" clip-path="url(#p13286b72bc)" style="fill: none; stroke-dasharray: 2.96,1.28; stroke-dashoffset: 0; stroke: #b0b0b0; stroke-opacity: 0.5; stroke-width: 0.8"/>
     </g>
     <g id="line2d_68"/>
    </g>
    <g id="ytick_35">
     <g id="line2d_69">
      <path d="M 885.237608 272.571429 
L 1046.120366 272.571429 
" clip-path="url(#p13286b72bc)" style="fill: none; stroke-dasharray: 2.96,1.28; stroke-dashoffset: 0; stroke: #b0b0b0; stroke-opacity: 0.5; stroke-width: 0.8"/>
     </g>
     <g id="line2d_70"/>
    </g>
    <g id="ytick_36">
     <g id="line2d_71">
      <path d="M 885.237608 221.142857 
L 1046.120366 221.142857 
" clip-path="url(#p13286b72bc)" style="fill: none; stroke-dasharray: 2.96,1.28; stroke-dashoffset: 0; stroke: #b0b0b0; stroke-opacity: 0.5; stroke-width: 0.8"/>
     </g>
     <g id="line2d_72"/>
    </g>
    <g id="ytick_37">
     <g id="line2d_73">
      <path d="M 885.237608 169.714286 
L 1046.120366 169.714286 
" clip-path="url(#p13286b72bc)" style="fill: none; stroke-dasharray: 2.96,1.28; stroke-dashoffset: 0; stroke: #b0b0b0; stroke-opacity: 0.5; stroke-width: 0.8"/>
     </g>
     <g id="line2d_74"/>
    </g>
    <g id="ytick_38">
     <g id="line2d_75">
      <path d="M 885.237608 118.285714 
L 1046.120366 118.285714 
" clip-path="url(#p13286b72bc)" style="fill: none; stroke-dasharray: 2.96,1.28; stroke-dashoffset: 0; stroke: #b0b0b0; stroke-opacity: 0.5; stroke-width: 0.8"/>
     </g>
     <g id="line2d_76"/>
    </g>
    <g id="ytick_39">
     <g id="line2d_77">
      <path d="M 885.237608 66.857143 
L 1046.120366 66.857143 
" clip-path="url(#p13286b72bc)" style="fill: none; stroke-dasharray: 2.96,1.28; stroke-dashoffset: 0; stroke: #b0b0b0; stroke-opacity: 0.5; stroke-width: 0.8"/>
     </g>
     <g id="line2d_78"/>
    </g>
   </g>
   <g id="patch_93">
    <path d="M 885.237608 324 
L 885.237608 54 
" style="fill: none; stroke: #000000; stroke-width: 0.8; stroke-linejoin: miter; stroke-linecap: square"/>
   </g>
   <g id="patch_94">
    <path d="M 1046.120366 324 
L 1046.120366 54 
" style="fill: none; stroke: #000000; stroke-width: 0.8; stroke-linejoin: miter; stroke-linecap: square"/>
   </g>
   <g id="patch_95">
    <path d="M 885.237608 324 
L 1046.120366 324 
" style="fill: none; stroke: #000000; stroke-width: 0.8; stroke-linejoin: miter; stroke-linecap: square"/>
   </g>
   <g id="patch_96">
    <path d="M 885.237608 54 
L 1046.120366 54 
" style="fill: none; stroke: #000000; stroke-width: 0.8; stroke-linejoin: miter; stroke-linecap: square"/>
   </g>
   <g id="text_23">
    <g id="patch_97">
     <path d="M 943.746018 49.2 
L 987.611956 49.2 
Q 990.911956 49.2 990.911956 45.9 
L 990.911956 35.254062 
Q 990.911956 31.954062 987.611956 31.954062 
L 943.746018 31.954062 
Q 940.446018 31.954062 940.446018 35.254062 
L 940.446018 45.9 
Q 940.446018 49.2 943.746018 49.2 
z
" style="fill: #ffffff; stroke: #808080; stroke-linejoin: miter"/>
    </g>
    <!--  T=0.5  -->
    <g transform="translate(943.746018 43.612344)scale(0.11 -0.11)">
     <defs>
      <path id="DejaVuSans-Bold-35" d="M 678 4666 
L 3669 4666 
L 3669 3781 
L 1638 3781 
L 1638 3059 
Q 1775 3097 1914 3117 
Q 2053 3138 2203 3138 
Q 3056 3138 3531 2711 
Q 4006 2284 4006 1522 
Q 4006 766 3489 337 
Q 2972 -91 2053 -91 
Q 1656 -91 1267 -14 
Q 878 63 494 219 
L 494 1166 
Q 875 947 1217 837 
Q 1559 728 1863 728 
Q 2300 728 2551 942 
Q 2803 1156 2803 1522 
Q 2803 1891 2551 2103 
Q 2300 2316 1863 2316 
Q 1603 2316 1309 2248 
Q 1016 2181 678 2041 
L 678 4666 
z
" transform="scale(0.015625)"/>
     </defs>
     <use xlink:href="#DejaVuSans-Bold-20"/>
     <use xlink:href="#DejaVuSans-Bold-54" x="34.814453"/>
     <use xlink:href="#DejaVuSans-Bold-3d" x="103.027344"/>
     <use xlink:href="#DejaVuSans-Bold-30" x="186.816406"/>
     <use xlink:href="#DejaVuSans-Bold-2e" x="256.396484"/>
     <use xlink:href="#DejaVuSans-Bold-35" x="294.384766"/>
     <use xlink:href="#DejaVuSans-Bold-20" x="363.964844"/>
    </g>
   </g>
  </g>
  <g id="axes_7">
   <g id="patch_98">
    <path d="M 1046.120366 324 
L 1207.003125 324 
L 1207.003125 54 
L 1046.120366 54 
z
" style="fill: #ffffff"/>
   </g>
   <g id="patch_99">
    <path d="M 1053.433219 324 
L 1066.054386 324 
L 1066.054386 324 
L 1053.433219 324 
z
" clip-path="url(#pf79c88ca75)" style="fill: #ce93d8; stroke: #000000; stroke-linejoin: miter"/>
   </g>
   <g id="patch_100">
    <path d="M 1068.281651 324 
L 1080.902818 324 
L 1080.902818 66.857143 
L 1068.281651 66.857143 
z
" clip-path="url(#pf79c88ca75)" style="fill: #ce93d8; stroke: #000000; stroke-linejoin: miter"/>
   </g>
   <g id="patch_101">
    <path d="M 1083.130083 324 
L 1095.75125 324 
L 1095.75125 324 
L 1083.130083 324 
z
" clip-path="url(#pf79c88ca75)" style="fill: #ce93d8; stroke: #000000; stroke-linejoin: miter"/>
   </g>
   <g id="patch_102">
    <path d="M 1097.978514 324 
L 1110.599681 324 
L 1110.599681 324 
L 1097.978514 324 
z
" clip-path="url(#pf79c88ca75)" style="fill: #ce93d8; stroke: #000000; stroke-linejoin: miter"/>
   </g>
   <g id="patch_103">
    <path d="M 1112.826946 324 
L 1125.448113 324 
L 1125.448113 324 
L 1112.826946 324 
z
" clip-path="url(#pf79c88ca75)" style="fill: #ce93d8; stroke: #000000; stroke-linejoin: miter"/>
   </g>
   <g id="patch_104">
    <path d="M 1127.675378 324 
L 1140.296545 324 
L 1140.296545 324 
L 1127.675378 324 
z
" clip-path="url(#pf79c88ca75)" style="fill: #ce93d8; stroke: #000000; stroke-linejoin: miter"/>
   </g>
   <g id="patch_105">
    <path d="M 1142.52381 324 
L 1155.144977 324 
L 1155.144977 324 
L 1142.52381 324 
z
" clip-path="url(#pf79c88ca75)" style="fill: #ce93d8; stroke: #000000; stroke-linejoin: miter"/>
   </g>
   <g id="patch_106">
    <path d="M 1157.372242 324 
L 1169.993409 324 
L 1169.993409 324 
L 1157.372242 324 
z
" clip-path="url(#pf79c88ca75)" style="fill: #ce93d8; stroke: #000000; stroke-linejoin: miter"/>
   </g>
   <g id="patch_107">
    <path d="M 1172.220673 324 
L 1184.841841 324 
L 1184.841841 324 
L 1172.220673 324 
z
" clip-path="url(#pf79c88ca75)" style="fill: #ce93d8; stroke: #000000; stroke-linejoin: miter"/>
   </g>
   <g id="patch_108">
    <path d="M 1187.069105 324 
L 1199.690272 324 
L 1199.690272 324 
L 1187.069105 324 
z
" clip-path="url(#pf79c88ca75)" style="fill: #ce93d8; stroke: #000000; stroke-linejoin: miter"/>
   </g>
   <g id="matplotlib.axis_13"/>
   <g id="matplotlib.axis_14">
    <g id="ytick_40">
     <g id="line2d_79">
      <path d="M 1046.120366 324 
L 1207.003125 324 
" clip-path="url(#pf79c88ca75)" style="fill: none; stroke-dasharray: 2.96,1.28; stroke-dashoffset: 0; stroke: #b0b0b0; stroke-opacity: 0.5; stroke-width: 0.8"/>
     </g>
     <g id="line2d_80"/>
    </g>
    <g id="ytick_41">
     <g id="line2d_81">
      <path d="M 1046.120366 272.571429 
L 1207.003125 272.571429 
" clip-path="url(#pf79c88ca75)" style="fill: none; stroke-dasharray: 2.96,1.28; stroke-dashoffset: 0; stroke: #b0b0b0; stroke-opacity: 0.5; stroke-width: 0.8"/>
     </g>
     <g id="line2d_82"/>
    </g>
    <g id="ytick_42">
     <g id="line2d_83">
      <path d="M 1046.120366 221.142857 
L 1207.003125 221.142857 
" clip-path="url(#pf79c88ca75)" style="fill: none; stroke-dasharray: 2.96,1.28; stroke-dashoffset: 0; stroke: #b0b0b0; stroke-opacity: 0.5; stroke-width: 0.8"/>
     </g>
     <g id="line2d_84"/>
    </g>
    <g id="ytick_43">
     <g id="line2d_85">
      <path d="M 1046.120366 169.714286 
L 1207.003125 169.714286 
" clip-path="url(#pf79c88ca75)" style="fill: none; stroke-dasharray: 2.96,1.28; stroke-dashoffset: 0; stroke: #b0b0b0; stroke-opacity: 0.5; stroke-width: 0.8"/>
     </g>
     <g id="line2d_86"/>
    </g>
    <g id="ytick_44">
     <g id="line2d_87">
      <path d="M 1046.120366 118.285714 
L 1207.003125 118.285714 
" clip-path="url(#pf79c88ca75)" style="fill: none; stroke-dasharray: 2.96,1.28; stroke-dashoffset: 0; stroke: #b0b0b0; stroke-opacity: 0.5; stroke-width: 0.8"/>
     </g>
     <g id="line2d_88"/>
    </g>
    <g id="ytick_45">
     <g id="line2d_89">
      <path d="M 1046.120366 66.857143 
L 1207.003125 66.857143 
" clip-path="url(#pf79c88ca75)" style="fill: none; stroke-dasharray: 2.96,1.28; stroke-dashoffset: 0; stroke: #b0b0b0; stroke-opacity: 0.5; stroke-width: 0.8"/>
     </g>
     <g id="line2d_90"/>
    </g>
   </g>
   <g id="patch_109">
    <path d="M 1046.120366 324 
L 1046.120366 54 
" style="fill: none; stroke: #000000; stroke-width: 0.8; stroke-linejoin: miter; stroke-linecap: square"/>
   </g>
   <g id="patch_110">
    <path d="M 1207.003125 324 
L 1207.003125 54 
" style="fill: none; stroke: #000000; stroke-width: 0.8; stroke-linejoin: miter; stroke-linecap: square"/>
   </g>
   <g id="patch_111">
    <path d="M 1046.120366 324 
L 1207.003125 324 
" style="fill: none; stroke: #000000; stroke-width: 0.8; stroke-linejoin: miter; stroke-linecap: square"/>
   </g>
   <g id="patch_112">
    <path d="M 1046.120366 54 
L 1207.003125 54 
" style="fill: none; stroke: #000000; stroke-width: 0.8; stroke-linejoin: miter; stroke-linecap: square"/>
   </g>
   <g id="text_24">
    <g id="patch_113">
     <path d="M 1098.836589 49.2 
L 1154.286902 49.2 
Q 1157.586902 49.2 1157.586902 45.9 
L 1157.586902 35.254062 
Q 1157.586902 31.954062 1154.286902 31.954062 
L 1098.836589 31.954062 
Q 1095.536589 31.954062 1095.536589 35.254062 
L 1095.536589 45.9 
Q 1095.536589 49.2 1098.836589 49.2 
z
" style="fill: #ffffff; stroke: #808080; stroke-linejoin: miter"/>
    </g>
    <!--  Argmax  -->
    <g transform="translate(1098.836589 43.526406)scale(0.11 -0.11)">
     <defs>
      <path id="DejaVuSans-Bold-41" d="M 3419 850 
L 1538 850 
L 1241 0 
L 31 0 
L 1759 4666 
L 3194 4666 
L 4922 0 
L 3713 0 
L 3419 850 
z
M 1838 1716 
L 3116 1716 
L 2478 3572 
L 1838 1716 
z
" transform="scale(0.015625)"/>
      <path id="DejaVuSans-Bold-6d" d="M 3781 2919 
Q 3994 3244 4286 3414 
Q 4578 3584 4928 3584 
Q 5531 3584 5847 3212 
Q 6163 2841 6163 2131 
L 6163 0 
L 5038 0 
L 5038 1825 
Q 5041 1866 5042 1909 
Q 5044 1953 5044 2034 
Q 5044 2406 4934 2573 
Q 4825 2741 4581 2741 
Q 4263 2741 4089 2478 
Q 3916 2216 3909 1719 
L 3909 0 
L 2784 0 
L 2784 1825 
Q 2784 2406 2684 2573 
Q 2584 2741 2328 2741 
Q 2006 2741 1831 2477 
Q 1656 2213 1656 1722 
L 1656 0 
L 531 0 
L 531 3500 
L 1656 3500 
L 1656 2988 
Q 1863 3284 2130 3434 
Q 2397 3584 2719 3584 
Q 3081 3584 3359 3409 
Q 3638 3234 3781 2919 
z
" transform="scale(0.015625)"/>
      <path id="DejaVuSans-Bold-61" d="M 2106 1575 
Q 1756 1575 1579 1456 
Q 1403 1338 1403 1106 
Q 1403 894 1545 773 
Q 1688 653 1941 653 
Q 2256 653 2472 879 
Q 2688 1106 2688 1447 
L 2688 1575 
L 2106 1575 
z
M 3816 1997 
L 3816 0 
L 2688 0 
L 2688 519 
Q 2463 200 2181 54 
Q 1900 -91 1497 -91 
Q 953 -91 614 226 
Q 275 544 275 1050 
Q 275 1666 698 1953 
Q 1122 2241 2028 2241 
L 2688 2241 
L 2688 2328 
Q 2688 2594 2478 2717 
Q 2269 2841 1825 2841 
Q 1466 2841 1156 2769 
Q 847 2697 581 2553 
L 581 3406 
Q 941 3494 1303 3539 
Q 1666 3584 2028 3584 
Q 2975 3584 3395 3211 
Q 3816 2838 3816 1997 
z
" transform="scale(0.015625)"/>
      <path id="DejaVuSans-Bold-78" d="M 1422 1791 
L 159 3500 
L 1344 3500 
L 2059 2463 
L 2784 3500 
L 3969 3500 
L 2706 1797 
L 4031 0 
L 2847 0 
L 2059 1106 
L 1281 0 
L 97 0 
L 1422 1791 
z
" transform="scale(0.015625)"/>
     </defs>
     <use xlink:href="#DejaVuSans-Bold-20"/>
     <use xlink:href="#DejaVuSans-Bold-41" x="34.814453"/>
     <use xlink:href="#DejaVuSans-Bold-72" x="112.207031"/>
     <use xlink:href="#DejaVuSans-Bold-67" x="161.523438"/>
     <use xlink:href="#DejaVuSans-Bold-6d" x="233.105469"/>
     <use xlink:href="#DejaVuSans-Bold-61" x="337.304688"/>
     <use xlink:href="#DejaVuSans-Bold-78" x="404.785156"/>
     <use xlink:href="#DejaVuSans-Bold-20" x="469.287109"/>
    </g>
   </g>
  </g>
  <g id="text_25">
   <!-- Comparison: Logits (Left) vs Probabilities (Right) -->
   <g transform="translate(430.309375 19.3575)scale(0.16 -0.16)">
    <defs>
     <path id="DejaVuSans-43" d="M 4122 4306 
L 4122 3641 
Q 3803 3938 3442 4084 
Q 3081 4231 2675 4231 
Q 1875 4231 1450 3742 
Q 1025 3253 1025 2328 
Q 1025 1406 1450 917 
Q 1875 428 2675 428 
Q 3081 428 3442 575 
Q 3803 722 4122 1019 
L 4122 359 
Q 3791 134 3420 21 
Q 3050 -91 2638 -91 
Q 1578 -91 968 557 
Q 359 1206 359 2328 
Q 359 3453 968 4101 
Q 1578 4750 2638 4750 
Q 3056 4750 3426 4639 
Q 3797 4528 4122 4306 
z
" transform="scale(0.015625)"/>
     <path id="DejaVuSans-6d" d="M 3328 2828 
Q 3544 3216 3844 3400 
Q 4144 3584 4550 3584 
Q 5097 3584 5394 3201 
Q 5691 2819 5691 2113 
L 5691 0 
L 5113 0 
L 5113 2094 
Q 5113 2597 4934 2840 
Q 4756 3084 4391 3084 
Q 3944 3084 3684 2787 
Q 3425 2491 3425 1978 
L 3425 0 
L 2847 0 
L 2847 2094 
Q 2847 2600 2669 2842 
Q 2491 3084 2119 3084 
Q 1678 3084 1418 2786 
Q 1159 2488 1159 1978 
L 1159 0 
L 581 0 
L 581 3500 
L 1159 3500 
L 1159 2956 
Q 1356 3278 1631 3431 
Q 1906 3584 2284 3584 
Q 2666 3584 2933 3390 
Q 3200 3197 3328 2828 
z
" transform="scale(0.015625)"/>
     <path id="DejaVuSans-70" d="M 1159 525 
L 1159 -1331 
L 581 -1331 
L 581 3500 
L 1159 3500 
L 1159 2969 
Q 1341 3281 1617 3432 
Q 1894 3584 2278 3584 
Q 2916 3584 3314 3078 
Q 3713 2572 3713 1747 
Q 3713 922 3314 415 
Q 2916 -91 2278 -91 
Q 1894 -91 1617 61 
Q 1341 213 1159 525 
z
M 3116 1747 
Q 3116 2381 2855 2742 
Q 2594 3103 2138 3103 
Q 1681 3103 1420 2742 
Q 1159 2381 1159 1747 
Q 1159 1113 1420 752 
Q 1681 391 2138 391 
Q 2594 391 2855 752 
Q 3116 1113 3116 1747 
z
" transform="scale(0.015625)"/>
     <path id="DejaVuSans-6e" d="M 3513 2113 
L 3513 0 
L 2938 0 
L 2938 2094 
Q 2938 2591 2744 2837 
Q 2550 3084 2163 3084 
Q 1697 3084 1428 2787 
Q 1159 2491 1159 1978 
L 1159 0 
L 581 0 
L 581 3500 
L 1159 3500 
L 1159 2956 
Q 1366 3272 1645 3428 
Q 1925 3584 2291 3584 
Q 2894 3584 3203 3211 
Q 3513 2838 3513 2113 
z
" transform="scale(0.015625)"/>
     <path id="DejaVuSans-3a" d="M 750 794 
L 1409 794 
L 1409 0 
L 750 0 
L 750 794 
z
M 750 3309 
L 1409 3309 
L 1409 2516 
L 750 2516 
L 750 3309 
z
" transform="scale(0.015625)"/>
     <path id="DejaVuSans-28" d="M 1984 4856 
Q 1566 4138 1362 3434 
Q 1159 2731 1159 2009 
Q 1159 1288 1364 580 
Q 1569 -128 1984 -844 
L 1484 -844 
Q 1016 -109 783 600 
Q 550 1309 550 2009 
Q 550 2706 781 3412 
Q 1013 4119 1484 4856 
L 1984 4856 
z
" transform="scale(0.015625)"/>
     <path id="DejaVuSans-66" d="M 2375 4863 
L 2375 4384 
L 1825 4384 
Q 1516 4384 1395 4259 
Q 1275 4134 1275 3809 
L 1275 3500 
L 2222 3500 
L 2222 3053 
L 1275 3053 
L 1275 0 
L 697 0 
L 697 3053 
L 147 3053 
L 147 3500 
L 697 3500 
L 697 3744 
Q 697 4328 969 4595 
Q 1241 4863 1831 4863 
L 2375 4863 
z
" transform="scale(0.015625)"/>
     <path id="DejaVuSans-29" d="M 513 4856 
L 1013 4856 
Q 1481 4119 1714 3412 
Q 1947 2706 1947 2009 
Q 1947 1309 1714 600 
Q 1481 -109 1013 -844 
L 513 -844 
Q 928 -128 1133 580 
Q 1338 1288 1338 2009 
Q 1338 2731 1133 3434 
Q 928 4138 513 4856 
z
" transform="scale(0.015625)"/>
     <path id="DejaVuSans-76" d="M 191 3500 
L 800 3500 
L 1894 563 
L 2988 3500 
L 3597 3500 
L 2284 0 
L 1503 0 
L 191 3500 
z
" transform="scale(0.015625)"/>
     <path id="DejaVuSans-52" d="M 2841 2188 
Q 3044 2119 3236 1894 
Q 3428 1669 3622 1275 
L 4263 0 
L 3584 0 
L 2988 1197 
Q 2756 1666 2539 1819 
Q 2322 1972 1947 1972 
L 1259 1972 
L 1259 0 
L 628 0 
L 628 4666 
L 2053 4666 
Q 2853 4666 3247 4331 
Q 3641 3997 3641 3322 
Q 3641 2881 3436 2590 
Q 3231 2300 2841 2188 
z
M 1259 4147 
L 1259 2491 
L 2053 2491 
Q 2509 2491 2742 2702 
Q 2975 2913 2975 3322 
Q 2975 3731 2742 3939 
Q 2509 4147 2053 4147 
L 1259 4147 
z
" transform="scale(0.015625)"/>
     <path id="DejaVuSans-68" d="M 3513 2113 
L 3513 0 
L 2938 0 
L 2938 2094 
Q 2938 2591 2744 2837 
Q 2550 3084 2163 3084 
Q 1697 3084 1428 2787 
Q 1159 2491 1159 1978 
L 1159 0 
L 581 0 
L 581 4863 
L 1159 4863 
L 1159 2956 
Q 1366 3272 1645 3428 
Q 1925 3584 2291 3584 
Q 2894 3584 3203 3211 
Q 3513 2838 3513 2113 
z
" transform="scale(0.015625)"/>
    </defs>
    <use xlink:href="#DejaVuSans-43"/>
    <use xlink:href="#DejaVuSans-6f" x="69.824219"/>
    <use xlink:href="#DejaVuSans-6d" x="131.005859"/>
    <use xlink:href="#DejaVuSans-70" x="228.417969"/>
    <use xlink:href="#DejaVuSans-61" x="291.894531"/>
    <use xlink:href="#DejaVuSans-72" x="353.173828"/>
    <use xlink:href="#DejaVuSans-69" x="394.287109"/>
    <use xlink:href="#DejaVuSans-73" x="422.070312"/>
    <use xlink:href="#DejaVuSans-6f" x="474.169922"/>
    <use xlink:href="#DejaVuSans-6e" x="535.351562"/>
    <use xlink:href="#DejaVuSans-3a" x="598.730469"/>
    <use xlink:href="#DejaVuSans-20" x="632.421875"/>
    <use xlink:href="#DejaVuSans-4c" x="664.208984"/>
    <use xlink:href="#DejaVuSans-6f" x="718.171875"/>
    <use xlink:href="#DejaVuSans-67" x="779.353516"/>
    <use xlink:href="#DejaVuSans-69" x="842.830078"/>
    <use xlink:href="#DejaVuSans-74" x="870.613281"/>
    <use xlink:href="#DejaVuSans-73" x="909.822266"/>
    <use xlink:href="#DejaVuSans-20" x="961.921875"/>
    <use xlink:href="#DejaVuSans-28" x="993.708984"/>
    <use xlink:href="#DejaVuSans-4c" x="1032.722656"/>
    <use xlink:href="#DejaVuSans-65" x="1086.685547"/>
    <use xlink:href="#DejaVuSans-66" x="1148.208984"/>
    <use xlink:href="#DejaVuSans-74" x="1181.664062"/>
    <use xlink:href="#DejaVuSans-29" x="1220.873047"/>
    <use xlink:href="#DejaVuSans-20" x="1259.886719"/>
    <use xlink:href="#DejaVuSans-76" x="1291.673828"/>
    <use xlink:href="#DejaVuSans-73" x="1350.853516"/>
    <use xlink:href="#DejaVuSans-20" x="1402.953125"/>
    <use xlink:href="#DejaVuSans-50" x="1434.740234"/>
    <use xlink:href="#DejaVuSans-72" x="1493.292969"/>
    <use xlink:href="#DejaVuSans-6f" x="1532.15625"/>
    <use xlink:href="#DejaVuSans-62" x="1593.337891"/>
    <use xlink:href="#DejaVuSans-61" x="1656.814453"/>
    <use xlink:href="#DejaVuSans-62" x="1718.09375"/>
    <use xlink:href="#DejaVuSans-69" x="1781.570312"/>
    <use xlink:href="#DejaVuSans-6c" x="1809.353516"/>
    <use xlink:href="#DejaVuSans-69" x="1837.136719"/>
    <use xlink:href="#DejaVuSans-74" x="1864.919922"/>
    <use xlink:href="#DejaVuSans-69" x="1904.128906"/>
    <use xlink:href="#DejaVuSans-65" x="1931.912109"/>
    <use xlink:href="#DejaVuSans-73" x="1993.435547"/>
    <use xlink:href="#DejaVuSans-20" x="2045.535156"/>
    <use xlink:href="#DejaVuSans-28" x="2077.322266"/>
    <use xlink:href="#DejaVuSans-52" x="2116.335938"/>
    <use xlink:href="#DejaVuSans-69" x="2185.818359"/>
    <use xlink:href="#DejaVuSans-67" x="2213.601562"/>
    <use xlink:href="#DejaVuSans-68" x="2277.078125"/>
    <use xlink:href="#DejaVuSans-74" x="2340.457031"/>
    <use xlink:href="#DejaVuSans-29" x="2379.666016"/>
   </g>
  </g>
 </g>
 <defs>
  <clipPath id="pd8959f888f">
   <rect x="40.603125" y="54" width="160.882759" height="270"/>
  </clipPath>
  <clipPath id="pf63002dad7">
   <rect x="241.706573" y="54" width="160.882759" height="270"/>
  </clipPath>
  <clipPath id="p351fc88b28">
   <rect x="402.589332" y="54" width="160.882759" height="270"/>
  </clipPath>
  <clipPath id="pc4be8cfede">
   <rect x="563.472091" y="54" width="160.882759" height="270"/>
  </clipPath>
  <clipPath id="pe7fc086856">
   <rect x="724.354849" y="54" width="160.882759" height="270"/>
  </clipPath>
  <clipPath id="p13286b72bc">
   <rect x="885.237608" y="54" width="160.882759" height="270"/>
  </clipPath>
  <clipPath id="pf79c88ca75">
   <rect x="1046.120366" y="54" width="160.882759" height="270"/>
  </clipPath>
 </defs>
</svg>
