<?xml version="1.0" encoding="utf-8" standalone="no"?>
<!DOCTYPE svg PUBLIC "-//W3C//DTD SVG 1.1//EN"
  "http://www.w3.org/Graphics/SVG/1.1/DTD/svg11.dtd">
<svg xmlns:xlink="http://www.w3.org/1999/xlink" width="625.659063pt" height="323.891875pt" viewBox="0 0 625.659063 323.891875" xmlns="http://www.w3.org/2000/svg" version="1.1">
 <metadata>
  <rdf:RDF xmlns:dc="http://purl.org/dc/elements/1.1/" xmlns:cc="http://creativecommons.org/ns#" xmlns:rdf="http://www.w3.org/1999/02/22-rdf-syntax-ns#">
   <cc:Work>
    <dc:type rdf:resource="http://purl.org/dc/dcmitype/StillImage"/>
    <dc:date>2025-11-10T23:20:53.906348</dc:date>
    <dc:format>image/svg+xml</dc:format>
    <dc:creator>
     <cc:Agent>
      <dc:title>Matplotlib v3.5.1, https://matplotlib.org/</dc:title>
     </cc:Agent>
    </dc:creator>
   </cc:Work>
  </rdf:RDF>
 </metadata>
 <defs>
  <style type="text/css">*{stroke-linejoin: round; stroke-linecap: butt}</style>
 </defs>
 <g id="figure_1">
  <g id="patch_1">
   <path d="M 0 323.891875 
L 625.659063 323.891875 
L 625.659063 0 
L 0 0 
z
" style="fill: #ffffff"/>
  </g>
  <g id="axes_1">
   <g id="patch_2">
    <path d="M 60.459063 284.4 
L 618.459062 284.4 
L 618.459062 7.2 
L 60.459063 7.2 
z
" style="fill: #ffffff"/>
   </g>
   <g id="matplotlib.axis_1">
    <g id="xtick_1">
     <g id="line2d_1">
      <path d="M 85.568804 284.4 
L 85.568804 7.2 
" clip-path="url(#pcb099a9b9b)" style="fill: none; stroke: #b0b0b0; stroke-width: 0.8; stroke-linecap: square"/>
     </g>
     <g id="line2d_2">
      <defs>
       <path id="me440e4078a" d="M 0 0 
L 0 3.5 
" style="stroke: #000000; stroke-width: 0.8"/>
      </defs>
      <g>
       <use xlink:href="#me440e4078a" x="85.568804" y="284.4" style="stroke: #000000; stroke-width: 0.8"/>
      </g>
     </g>
     <g id="text_1">
      <!-- 50 -->
      <g transform="translate(79.206304 298.998438)scale(0.1 -0.1)">
       <defs>
        <path id="DejaVuSans-35" d="M 691 4666 
L 3169 4666 
L 3169 4134 
L 1269 4134 
L 1269 2991 
Q 1406 3038 1543 3061 
Q 1681 3084 1819 3084 
Q 2600 3084 3056 2656 
Q 3513 2228 3513 1497 
Q 3513 744 3044 326 
Q 2575 -91 1722 -91 
Q 1428 -91 1123 -41 
Q 819 9 494 109 
L 494 744 
Q 775 591 1075 516 
Q 1375 441 1709 441 
Q 2250 441 2565 725 
Q 2881 1009 2881 1497 
Q 2881 1984 2565 2268 
Q 2250 2553 1709 2553 
Q 1456 2553 1204 2497 
Q 953 2441 691 2322 
L 691 4666 
z
" transform="scale(0.015625)"/>
        <path id="DejaVuSans-30" d="M 2034 4250 
Q 1547 4250 1301 3770 
Q 1056 3291 1056 2328 
Q 1056 1369 1301 889 
Q 1547 409 2034 409 
Q 2525 409 2770 889 
Q 3016 1369 3016 2328 
Q 3016 3291 2770 3770 
Q 2525 4250 2034 4250 
z
M 2034 4750 
Q 2819 4750 3233 4129 
Q 3647 3509 3647 2328 
Q 3647 1150 3233 529 
Q 2819 -91 2034 -91 
Q 1250 -91 836 529 
Q 422 1150 422 2328 
Q 422 3509 836 4129 
Q 1250 4750 2034 4750 
z
" transform="scale(0.015625)"/>
       </defs>
       <use xlink:href="#DejaVuSans-35"/>
       <use xlink:href="#DejaVuSans-30" x="63.623047"/>
      </g>
     </g>
    </g>
    <g id="xtick_2">
     <g id="line2d_3">
      <path d="M 187.074128 284.4 
L 187.074128 7.2 
" clip-path="url(#pcb099a9b9b)" style="fill: none; stroke: #b0b0b0; stroke-width: 0.8; stroke-linecap: square"/>
     </g>
     <g id="line2d_4">
      <g>
       <use xlink:href="#me440e4078a" x="187.074128" y="284.4" style="stroke: #000000; stroke-width: 0.8"/>
      </g>
     </g>
     <g id="text_2">
      <!-- 60 -->
      <g transform="translate(180.711628 298.998438)scale(0.1 -0.1)">
       <defs>
        <path id="DejaVuSans-36" d="M 2113 2584 
Q 1688 2584 1439 2293 
Q 1191 2003 1191 1497 
Q 1191 994 1439 701 
Q 1688 409 2113 409 
Q 2538 409 2786 701 
Q 3034 994 3034 1497 
Q 3034 2003 2786 2293 
Q 2538 2584 2113 2584 
z
M 3366 4563 
L 3366 3988 
Q 3128 4100 2886 4159 
Q 2644 4219 2406 4219 
Q 1781 4219 1451 3797 
Q 1122 3375 1075 2522 
Q 1259 2794 1537 2939 
Q 1816 3084 2150 3084 
Q 2853 3084 3261 2657 
Q 3669 2231 3669 1497 
Q 3669 778 3244 343 
Q 2819 -91 2113 -91 
Q 1303 -91 875 529 
Q 447 1150 447 2328 
Q 447 3434 972 4092 
Q 1497 4750 2381 4750 
Q 2619 4750 2861 4703 
Q 3103 4656 3366 4563 
z
" transform="scale(0.015625)"/>
       </defs>
       <use xlink:href="#DejaVuSans-36"/>
       <use xlink:href="#DejaVuSans-30" x="63.623047"/>
      </g>
     </g>
    </g>
    <g id="xtick_3">
     <g id="line2d_5">
      <path d="M 288.579453 284.4 
L 288.579453 7.2 
" clip-path="url(#pcb099a9b9b)" style="fill: none; stroke: #b0b0b0; stroke-width: 0.8; stroke-linecap: square"/>
     </g>
     <g id="line2d_6">
      <g>
       <use xlink:href="#me440e4078a" x="288.579453" y="284.4" style="stroke: #000000; stroke-width: 0.8"/>
      </g>
     </g>
     <g id="text_3">
      <!-- 70 -->
      <g transform="translate(282.216953 298.998438)scale(0.1 -0.1)">
       <defs>
        <path id="DejaVuSans-37" d="M 525 4666 
L 3525 4666 
L 3525 4397 
L 1831 0 
L 1172 0 
L 2766 4134 
L 525 4134 
L 525 4666 
z
" transform="scale(0.015625)"/>
       </defs>
       <use xlink:href="#DejaVuSans-37"/>
       <use xlink:href="#DejaVuSans-30" x="63.623047"/>
      </g>
     </g>
    </g>
    <g id="xtick_4">
     <g id="line2d_7">
      <path d="M 390.084777 284.4 
L 390.084777 7.2 
" clip-path="url(#pcb099a9b9b)" style="fill: none; stroke: #b0b0b0; stroke-width: 0.8; stroke-linecap: square"/>
     </g>
     <g id="line2d_8">
      <g>
       <use xlink:href="#me440e4078a" x="390.084777" y="284.4" style="stroke: #000000; stroke-width: 0.8"/>
      </g>
     </g>
     <g id="text_4">
      <!-- 80 -->
      <g transform="translate(383.722277 298.998438)scale(0.1 -0.1)">
       <defs>
        <path id="DejaVuSans-38" d="M 2034 2216 
Q 1584 2216 1326 1975 
Q 1069 1734 1069 1313 
Q 1069 891 1326 650 
Q 1584 409 2034 409 
Q 2484 409 2743 651 
Q 3003 894 3003 1313 
Q 3003 1734 2745 1975 
Q 2488 2216 2034 2216 
z
M 1403 2484 
Q 997 2584 770 2862 
Q 544 3141 544 3541 
Q 544 4100 942 4425 
Q 1341 4750 2034 4750 
Q 2731 4750 3128 4425 
Q 3525 4100 3525 3541 
Q 3525 3141 3298 2862 
Q 3072 2584 2669 2484 
Q 3125 2378 3379 2068 
Q 3634 1759 3634 1313 
Q 3634 634 3220 271 
Q 2806 -91 2034 -91 
Q 1263 -91 848 271 
Q 434 634 434 1313 
Q 434 1759 690 2068 
Q 947 2378 1403 2484 
z
M 1172 3481 
Q 1172 3119 1398 2916 
Q 1625 2713 2034 2713 
Q 2441 2713 2670 2916 
Q 2900 3119 2900 3481 
Q 2900 3844 2670 4047 
Q 2441 4250 2034 4250 
Q 1625 4250 1398 4047 
Q 1172 3844 1172 3481 
z
" transform="scale(0.015625)"/>
       </defs>
       <use xlink:href="#DejaVuSans-38"/>
       <use xlink:href="#DejaVuSans-30" x="63.623047"/>
      </g>
     </g>
    </g>
    <g id="xtick_5">
     <g id="line2d_9">
      <path d="M 491.590102 284.4 
L 491.590102 7.2 
" clip-path="url(#pcb099a9b9b)" style="fill: none; stroke: #b0b0b0; stroke-width: 0.8; stroke-linecap: square"/>
     </g>
     <g id="line2d_10">
      <g>
       <use xlink:href="#me440e4078a" x="491.590102" y="284.4" style="stroke: #000000; stroke-width: 0.8"/>
      </g>
     </g>
     <g id="text_5">
      <!-- 90 -->
      <g transform="translate(485.227602 298.998438)scale(0.1 -0.1)">
       <defs>
        <path id="DejaVuSans-39" d="M 703 97 
L 703 672 
Q 941 559 1184 500 
Q 1428 441 1663 441 
Q 2288 441 2617 861 
Q 2947 1281 2994 2138 
Q 2813 1869 2534 1725 
Q 2256 1581 1919 1581 
Q 1219 1581 811 2004 
Q 403 2428 403 3163 
Q 403 3881 828 4315 
Q 1253 4750 1959 4750 
Q 2769 4750 3195 4129 
Q 3622 3509 3622 2328 
Q 3622 1225 3098 567 
Q 2575 -91 1691 -91 
Q 1453 -91 1209 -44 
Q 966 3 703 97 
z
M 1959 2075 
Q 2384 2075 2632 2365 
Q 2881 2656 2881 3163 
Q 2881 3666 2632 3958 
Q 2384 4250 1959 4250 
Q 1534 4250 1286 3958 
Q 1038 3666 1038 3163 
Q 1038 2656 1286 2365 
Q 1534 2075 1959 2075 
z
" transform="scale(0.015625)"/>
       </defs>
       <use xlink:href="#DejaVuSans-39"/>
       <use xlink:href="#DejaVuSans-30" x="63.623047"/>
      </g>
     </g>
    </g>
    <g id="xtick_6">
     <g id="line2d_11">
      <path d="M 593.095426 284.4 
L 593.095426 7.2 
" clip-path="url(#pcb099a9b9b)" style="fill: none; stroke: #b0b0b0; stroke-width: 0.8; stroke-linecap: square"/>
     </g>
     <g id="line2d_12">
      <g>
       <use xlink:href="#me440e4078a" x="593.095426" y="284.4" style="stroke: #000000; stroke-width: 0.8"/>
      </g>
     </g>
     <g id="text_6">
      <!-- 100 -->
      <g transform="translate(583.551676 298.998438)scale(0.1 -0.1)">
       <defs>
        <path id="DejaVuSans-31" d="M 794 531 
L 1825 531 
L 1825 4091 
L 703 3866 
L 703 4441 
L 1819 4666 
L 2450 4666 
L 2450 531 
L 3481 531 
L 3481 0 
L 794 0 
L 794 531 
z
" transform="scale(0.015625)"/>
       </defs>
       <use xlink:href="#DejaVuSans-31"/>
       <use xlink:href="#DejaVuSans-30" x="63.623047"/>
       <use xlink:href="#DejaVuSans-30" x="127.246094"/>
      </g>
     </g>
    </g>
    <g id="text_7">
     <!-- x (Time Step) -->
     <g transform="translate(299.069687 314.19625)scale(0.12 -0.12)">
      <defs>
       <path id="DejaVuSans-78" d="M 3513 3500 
L 2247 1797 
L 3578 0 
L 2900 0 
L 1881 1375 
L 863 0 
L 184 0 
L 1544 1831 
L 300 3500 
L 978 3500 
L 1906 2253 
L 2834 3500 
L 3513 3500 
z
" transform="scale(0.015625)"/>
       <path id="DejaVuSans-20" transform="scale(0.015625)"/>
       <path id="DejaVuSans-28" d="M 1984 4856 
Q 1566 4138 1362 3434 
Q 1159 2731 1159 2009 
Q 1159 1288 1364 580 
Q 1569 -128 1984 -844 
L 1484 -844 
Q 1016 -109 783 600 
Q 550 1309 550 2009 
Q 550 2706 781 3412 
Q 1013 4119 1484 4856 
L 1984 4856 
z
" transform="scale(0.015625)"/>
       <path id="DejaVuSans-54" d="M -19 4666 
L 3928 4666 
L 3928 4134 
L 2272 4134 
L 2272 0 
L 1638 0 
L 1638 4134 
L -19 4134 
L -19 4666 
z
" transform="scale(0.015625)"/>
       <path id="DejaVuSans-69" d="M 603 3500 
L 1178 3500 
L 1178 0 
L 603 0 
L 603 3500 
z
M 603 4863 
L 1178 4863 
L 1178 4134 
L 603 4134 
L 603 4863 
z
" transform="scale(0.015625)"/>
       <path id="DejaVuSans-6d" d="M 3328 2828 
Q 3544 3216 3844 3400 
Q 4144 3584 4550 3584 
Q 5097 3584 5394 3201 
Q 5691 2819 5691 2113 
L 5691 0 
L 5113 0 
L 5113 2094 
Q 5113 2597 4934 2840 
Q 4756 3084 4391 3084 
Q 3944 3084 3684 2787 
Q 3425 2491 3425 1978 
L 3425 0 
L 2847 0 
L 2847 2094 
Q 2847 2600 2669 2842 
Q 2491 3084 2119 3084 
Q 1678 3084 1418 2786 
Q 1159 2488 1159 1978 
L 1159 0 
L 581 0 
L 581 3500 
L 1159 3500 
L 1159 2956 
Q 1356 3278 1631 3431 
Q 1906 3584 2284 3584 
Q 2666 3584 2933 3390 
Q 3200 3197 3328 2828 
z
" transform="scale(0.015625)"/>
       <path id="DejaVuSans-65" d="M 3597 1894 
L 3597 1613 
L 953 1613 
Q 991 1019 1311 708 
Q 1631 397 2203 397 
Q 2534 397 2845 478 
Q 3156 559 3463 722 
L 3463 178 
Q 3153 47 2828 -22 
Q 2503 -91 2169 -91 
Q 1331 -91 842 396 
Q 353 884 353 1716 
Q 353 2575 817 3079 
Q 1281 3584 2069 3584 
Q 2775 3584 3186 3129 
Q 3597 2675 3597 1894 
z
M 3022 2063 
Q 3016 2534 2758 2815 
Q 2500 3097 2075 3097 
Q 1594 3097 1305 2825 
Q 1016 2553 972 2059 
L 3022 2063 
z
" transform="scale(0.015625)"/>
       <path id="DejaVuSans-53" d="M 3425 4513 
L 3425 3897 
Q 3066 4069 2747 4153 
Q 2428 4238 2131 4238 
Q 1616 4238 1336 4038 
Q 1056 3838 1056 3469 
Q 1056 3159 1242 3001 
Q 1428 2844 1947 2747 
L 2328 2669 
Q 3034 2534 3370 2195 
Q 3706 1856 3706 1288 
Q 3706 609 3251 259 
Q 2797 -91 1919 -91 
Q 1588 -91 1214 -16 
Q 841 59 441 206 
L 441 856 
Q 825 641 1194 531 
Q 1563 422 1919 422 
Q 2459 422 2753 634 
Q 3047 847 3047 1241 
Q 3047 1584 2836 1778 
Q 2625 1972 2144 2069 
L 1759 2144 
Q 1053 2284 737 2584 
Q 422 2884 422 3419 
Q 422 4038 858 4394 
Q 1294 4750 2059 4750 
Q 2388 4750 2728 4690 
Q 3069 4631 3425 4513 
z
" transform="scale(0.015625)"/>
       <path id="DejaVuSans-74" d="M 1172 4494 
L 1172 3500 
L 2356 3500 
L 2356 3053 
L 1172 3053 
L 1172 1153 
Q 1172 725 1289 603 
Q 1406 481 1766 481 
L 2356 481 
L 2356 0 
L 1766 0 
Q 1100 0 847 248 
Q 594 497 594 1153 
L 594 3053 
L 172 3053 
L 172 3500 
L 594 3500 
L 594 4494 
L 1172 4494 
z
" transform="scale(0.015625)"/>
       <path id="DejaVuSans-70" d="M 1159 525 
L 1159 -1331 
L 581 -1331 
L 581 3500 
L 1159 3500 
L 1159 2969 
Q 1341 3281 1617 3432 
Q 1894 3584 2278 3584 
Q 2916 3584 3314 3078 
Q 3713 2572 3713 1747 
Q 3713 922 3314 415 
Q 2916 -91 2278 -91 
Q 1894 -91 1617 61 
Q 1341 213 1159 525 
z
M 3116 1747 
Q 3116 2381 2855 2742 
Q 2594 3103 2138 3103 
Q 1681 3103 1420 2742 
Q 1159 2381 1159 1747 
Q 1159 1113 1420 752 
Q 1681 391 2138 391 
Q 2594 391 2855 752 
Q 3116 1113 3116 1747 
z
" transform="scale(0.015625)"/>
       <path id="DejaVuSans-29" d="M 513 4856 
L 1013 4856 
Q 1481 4119 1714 3412 
Q 1947 2706 1947 2009 
Q 1947 1309 1714 600 
Q 1481 -109 1013 -844 
L 513 -844 
Q 928 -128 1133 580 
Q 1338 1288 1338 2009 
Q 1338 2731 1133 3434 
Q 928 4138 513 4856 
z
" transform="scale(0.015625)"/>
      </defs>
      <use xlink:href="#DejaVuSans-78"/>
      <use xlink:href="#DejaVuSans-20" x="59.179688"/>
      <use xlink:href="#DejaVuSans-28" x="90.966797"/>
      <use xlink:href="#DejaVuSans-54" x="129.980469"/>
      <use xlink:href="#DejaVuSans-69" x="187.939453"/>
      <use xlink:href="#DejaVuSans-6d" x="215.722656"/>
      <use xlink:href="#DejaVuSans-65" x="313.134766"/>
      <use xlink:href="#DejaVuSans-20" x="374.658203"/>
      <use xlink:href="#DejaVuSans-53" x="406.445312"/>
      <use xlink:href="#DejaVuSans-74" x="469.921875"/>
      <use xlink:href="#DejaVuSans-65" x="509.130859"/>
      <use xlink:href="#DejaVuSans-70" x="570.654297"/>
      <use xlink:href="#DejaVuSans-29" x="634.130859"/>
     </g>
    </g>
   </g>
   <g id="matplotlib.axis_2">
    <g id="ytick_1">
     <g id="line2d_13">
      <path d="M 60.459063 271.800008 
L 618.459062 271.800008 
" clip-path="url(#pcb099a9b9b)" style="fill: none; stroke: #b0b0b0; stroke-width: 0.8; stroke-linecap: square"/>
     </g>
     <g id="line2d_14">
      <defs>
       <path id="me8a2fcbb60" d="M 0 0 
L -3.5 0 
" style="stroke: #000000; stroke-width: 0.8"/>
      </defs>
      <g>
       <use xlink:href="#me8a2fcbb60" x="60.459063" y="271.800008" style="stroke: #000000; stroke-width: 0.8"/>
      </g>
     </g>
     <g id="text_8">
      <!-- −1.00 -->
      <g transform="translate(22.81375 275.599226)scale(0.1 -0.1)">
       <defs>
        <path id="DejaVuSans-2212" d="M 678 2272 
L 4684 2272 
L 4684 1741 
L 678 1741 
L 678 2272 
z
" transform="scale(0.015625)"/>
        <path id="DejaVuSans-2e" d="M 684 794 
L 1344 794 
L 1344 0 
L 684 0 
L 684 794 
z
" transform="scale(0.015625)"/>
       </defs>
       <use xlink:href="#DejaVuSans-2212"/>
       <use xlink:href="#DejaVuSans-31" x="83.789062"/>
       <use xlink:href="#DejaVuSans-2e" x="147.412109"/>
       <use xlink:href="#DejaVuSans-30" x="179.199219"/>
       <use xlink:href="#DejaVuSans-30" x="242.822266"/>
      </g>
     </g>
    </g>
    <g id="ytick_2">
     <g id="line2d_15">
      <path d="M 60.459063 240.300005 
L 618.459062 240.300005 
" clip-path="url(#pcb099a9b9b)" style="fill: none; stroke: #b0b0b0; stroke-width: 0.8; stroke-linecap: square"/>
     </g>
     <g id="line2d_16">
      <g>
       <use xlink:href="#me8a2fcbb60" x="60.459063" y="240.300005" style="stroke: #000000; stroke-width: 0.8"/>
      </g>
     </g>
     <g id="text_9">
      <!-- −0.75 -->
      <g transform="translate(22.81375 244.099223)scale(0.1 -0.1)">
       <use xlink:href="#DejaVuSans-2212"/>
       <use xlink:href="#DejaVuSans-30" x="83.789062"/>
       <use xlink:href="#DejaVuSans-2e" x="147.412109"/>
       <use xlink:href="#DejaVuSans-37" x="179.199219"/>
       <use xlink:href="#DejaVuSans-35" x="242.822266"/>
      </g>
     </g>
    </g>
    <g id="ytick_3">
     <g id="line2d_17">
      <path d="M 60.459063 208.800002 
L 618.459062 208.800002 
" clip-path="url(#pcb099a9b9b)" style="fill: none; stroke: #b0b0b0; stroke-width: 0.8; stroke-linecap: square"/>
     </g>
     <g id="line2d_18">
      <g>
       <use xlink:href="#me8a2fcbb60" x="60.459063" y="208.800002" style="stroke: #000000; stroke-width: 0.8"/>
      </g>
     </g>
     <g id="text_10">
      <!-- −0.50 -->
      <g transform="translate(22.81375 212.599221)scale(0.1 -0.1)">
       <use xlink:href="#DejaVuSans-2212"/>
       <use xlink:href="#DejaVuSans-30" x="83.789062"/>
       <use xlink:href="#DejaVuSans-2e" x="147.412109"/>
       <use xlink:href="#DejaVuSans-35" x="179.199219"/>
       <use xlink:href="#DejaVuSans-30" x="242.822266"/>
      </g>
     </g>
    </g>
    <g id="ytick_4">
     <g id="line2d_19">
      <path d="M 60.459063 177.299999 
L 618.459062 177.299999 
" clip-path="url(#pcb099a9b9b)" style="fill: none; stroke: #b0b0b0; stroke-width: 0.8; stroke-linecap: square"/>
     </g>
     <g id="line2d_20">
      <g>
       <use xlink:href="#me8a2fcbb60" x="60.459063" y="177.299999" style="stroke: #000000; stroke-width: 0.8"/>
      </g>
     </g>
     <g id="text_11">
      <!-- −0.25 -->
      <g transform="translate(22.81375 181.099218)scale(0.1 -0.1)">
       <defs>
        <path id="DejaVuSans-32" d="M 1228 531 
L 3431 531 
L 3431 0 
L 469 0 
L 469 531 
Q 828 903 1448 1529 
Q 2069 2156 2228 2338 
Q 2531 2678 2651 2914 
Q 2772 3150 2772 3378 
Q 2772 3750 2511 3984 
Q 2250 4219 1831 4219 
Q 1534 4219 1204 4116 
Q 875 4013 500 3803 
L 500 4441 
Q 881 4594 1212 4672 
Q 1544 4750 1819 4750 
Q 2544 4750 2975 4387 
Q 3406 4025 3406 3419 
Q 3406 3131 3298 2873 
Q 3191 2616 2906 2266 
Q 2828 2175 2409 1742 
Q 1991 1309 1228 531 
z
" transform="scale(0.015625)"/>
       </defs>
       <use xlink:href="#DejaVuSans-2212"/>
       <use xlink:href="#DejaVuSans-30" x="83.789062"/>
       <use xlink:href="#DejaVuSans-2e" x="147.412109"/>
       <use xlink:href="#DejaVuSans-32" x="179.199219"/>
       <use xlink:href="#DejaVuSans-35" x="242.822266"/>
      </g>
     </g>
    </g>
    <g id="ytick_5">
     <g id="line2d_21">
      <path d="M 60.459063 145.799996 
L 618.459062 145.799996 
" clip-path="url(#pcb099a9b9b)" style="fill: none; stroke: #b0b0b0; stroke-width: 0.8; stroke-linecap: square"/>
     </g>
     <g id="line2d_22">
      <g>
       <use xlink:href="#me8a2fcbb60" x="60.459063" y="145.799996" style="stroke: #000000; stroke-width: 0.8"/>
      </g>
     </g>
     <g id="text_12">
      <!-- 0.00 -->
      <g transform="translate(31.193438 149.599215)scale(0.1 -0.1)">
       <use xlink:href="#DejaVuSans-30"/>
       <use xlink:href="#DejaVuSans-2e" x="63.623047"/>
       <use xlink:href="#DejaVuSans-30" x="95.410156"/>
       <use xlink:href="#DejaVuSans-30" x="159.033203"/>
      </g>
     </g>
    </g>
    <g id="ytick_6">
     <g id="line2d_23">
      <path d="M 60.459063 114.299993 
L 618.459062 114.299993 
" clip-path="url(#pcb099a9b9b)" style="fill: none; stroke: #b0b0b0; stroke-width: 0.8; stroke-linecap: square"/>
     </g>
     <g id="line2d_24">
      <g>
       <use xlink:href="#me8a2fcbb60" x="60.459063" y="114.299993" style="stroke: #000000; stroke-width: 0.8"/>
      </g>
     </g>
     <g id="text_13">
      <!-- 0.25 -->
      <g transform="translate(31.193438 118.099212)scale(0.1 -0.1)">
       <use xlink:href="#DejaVuSans-30"/>
       <use xlink:href="#DejaVuSans-2e" x="63.623047"/>
       <use xlink:href="#DejaVuSans-32" x="95.410156"/>
       <use xlink:href="#DejaVuSans-35" x="159.033203"/>
      </g>
     </g>
    </g>
    <g id="ytick_7">
     <g id="line2d_25">
      <path d="M 60.459063 82.799991 
L 618.459062 82.799991 
" clip-path="url(#pcb099a9b9b)" style="fill: none; stroke: #b0b0b0; stroke-width: 0.8; stroke-linecap: square"/>
     </g>
     <g id="line2d_26">
      <g>
       <use xlink:href="#me8a2fcbb60" x="60.459063" y="82.799991" style="stroke: #000000; stroke-width: 0.8"/>
      </g>
     </g>
     <g id="text_14">
      <!-- 0.50 -->
      <g transform="translate(31.193438 86.599209)scale(0.1 -0.1)">
       <use xlink:href="#DejaVuSans-30"/>
       <use xlink:href="#DejaVuSans-2e" x="63.623047"/>
       <use xlink:href="#DejaVuSans-35" x="95.410156"/>
       <use xlink:href="#DejaVuSans-30" x="159.033203"/>
      </g>
     </g>
    </g>
    <g id="ytick_8">
     <g id="line2d_27">
      <path d="M 60.459063 51.299988 
L 618.459062 51.299988 
" clip-path="url(#pcb099a9b9b)" style="fill: none; stroke: #b0b0b0; stroke-width: 0.8; stroke-linecap: square"/>
     </g>
     <g id="line2d_28">
      <g>
       <use xlink:href="#me8a2fcbb60" x="60.459063" y="51.299988" style="stroke: #000000; stroke-width: 0.8"/>
      </g>
     </g>
     <g id="text_15">
      <!-- 0.75 -->
      <g transform="translate(31.193438 55.099207)scale(0.1 -0.1)">
       <use xlink:href="#DejaVuSans-30"/>
       <use xlink:href="#DejaVuSans-2e" x="63.623047"/>
       <use xlink:href="#DejaVuSans-37" x="95.410156"/>
       <use xlink:href="#DejaVuSans-35" x="159.033203"/>
      </g>
     </g>
    </g>
    <g id="ytick_9">
     <g id="line2d_29">
      <path d="M 60.459063 19.799985 
L 618.459062 19.799985 
" clip-path="url(#pcb099a9b9b)" style="fill: none; stroke: #b0b0b0; stroke-width: 0.8; stroke-linecap: square"/>
     </g>
     <g id="line2d_30">
      <g>
       <use xlink:href="#me8a2fcbb60" x="60.459063" y="19.799985" style="stroke: #000000; stroke-width: 0.8"/>
      </g>
     </g>
     <g id="text_16">
      <!-- 1.00 -->
      <g transform="translate(31.193438 23.599204)scale(0.1 -0.1)">
       <use xlink:href="#DejaVuSans-31"/>
       <use xlink:href="#DejaVuSans-2e" x="63.623047"/>
       <use xlink:href="#DejaVuSans-30" x="95.410156"/>
       <use xlink:href="#DejaVuSans-30" x="159.033203"/>
      </g>
     </g>
    </g>
    <g id="text_17">
     <!-- sin(x) -->
     <g transform="translate(16.318125 162.628125)rotate(-90)scale(0.12 -0.12)">
      <defs>
       <path id="DejaVuSans-73" d="M 2834 3397 
L 2834 2853 
Q 2591 2978 2328 3040 
Q 2066 3103 1784 3103 
Q 1356 3103 1142 2972 
Q 928 2841 928 2578 
Q 928 2378 1081 2264 
Q 1234 2150 1697 2047 
L 1894 2003 
Q 2506 1872 2764 1633 
Q 3022 1394 3022 966 
Q 3022 478 2636 193 
Q 2250 -91 1575 -91 
Q 1294 -91 989 -36 
Q 684 19 347 128 
L 347 722 
Q 666 556 975 473 
Q 1284 391 1588 391 
Q 1994 391 2212 530 
Q 2431 669 2431 922 
Q 2431 1156 2273 1281 
Q 2116 1406 1581 1522 
L 1381 1569 
Q 847 1681 609 1914 
Q 372 2147 372 2553 
Q 372 3047 722 3315 
Q 1072 3584 1716 3584 
Q 2034 3584 2315 3537 
Q 2597 3491 2834 3397 
z
" transform="scale(0.015625)"/>
       <path id="DejaVuSans-6e" d="M 3513 2113 
L 3513 0 
L 2938 0 
L 2938 2094 
Q 2938 2591 2744 2837 
Q 2550 3084 2163 3084 
Q 1697 3084 1428 2787 
Q 1159 2491 1159 1978 
L 1159 0 
L 581 0 
L 581 3500 
L 1159 3500 
L 1159 2956 
Q 1366 3272 1645 3428 
Q 1925 3584 2291 3584 
Q 2894 3584 3203 3211 
Q 3513 2838 3513 2113 
z
" transform="scale(0.015625)"/>
      </defs>
      <use xlink:href="#DejaVuSans-73"/>
      <use xlink:href="#DejaVuSans-69" x="52.099609"/>
      <use xlink:href="#DejaVuSans-6e" x="79.882812"/>
      <use xlink:href="#DejaVuSans-28" x="143.261719"/>
      <use xlink:href="#DejaVuSans-78" x="182.275391"/>
      <use xlink:href="#DejaVuSans-29" x="241.455078"/>
     </g>
    </g>
   </g>
   <g id="line2d_31">
    <path d="M 85.822699 175.807986 
L 93.439393 84.300177 
L 95.470514 63.66852 
L 96.993884 50.305076 
L 98.517215 39.088711 
L 99.532756 32.930516 
L 100.548336 27.900982 
L 101.563877 24.050803 
L 102.579457 21.418197 
L 103.087247 20.567263 
L 103.594998 20.029692 
L 104.102788 19.806752 
L 104.610578 19.899067 
L 105.118368 20.306389 
L 105.626119 21.027638 
L 106.133909 22.061114 
L 107.149489 25.053533 
L 108.16503 29.253477 
L 109.18061 34.619257 
L 110.196151 41.096799 
L 111.719482 52.753592 
L 113.242852 66.502429 
L 115.273973 87.547536 
L 117.812845 117.014843 
L 125.429577 208.39473 
L 127.460698 228.881398 
L 128.984029 242.110538 
L 130.507399 253.174882 
L 131.522979 259.223217 
L 132.53852 264.136929 
L 133.5541 267.867246 
L 134.569641 270.376564 
L 135.077431 271.165111 
L 135.585221 271.639988 
L 136.092972 271.8 
L 136.600762 271.644772 
L 137.108552 271.174679 
L 137.616342 270.390886 
L 138.124093 269.295451 
L 139.139673 266.180969 
L 140.155214 261.862627 
L 141.170794 256.383271 
L 142.186335 249.798137 
L 143.709705 237.993168 
L 145.233036 224.115982 
L 147.264157 202.934062 
L 149.803068 173.358509 
L 156.911972 87.632904 
L 158.943093 66.577253 
L 160.466424 52.818848 
L 161.989794 41.150377 
L 163.005335 34.664581 
L 164.020915 29.290089 
L 165.036456 25.081073 
L 166.052036 22.079304 
L 166.559787 21.041141 
L 167.067577 20.315041 
L 167.575367 19.90292 
L 168.083157 19.80579 
L 168.590908 20.023886 
L 169.098698 20.556689 
L 169.606488 21.402854 
L 170.114278 22.560279 
L 171.129819 25.796365 
L 172.145399 30.232835 
L 173.16094 35.824972 
L 174.17652 42.517276 
L 175.699851 54.468588 
L 177.223182 68.473019 
L 179.254303 89.789589 
L 181.793214 119.469936 
L 188.902118 205.0797 
L 190.933239 225.996653 
L 192.456609 239.625492 
L 193.97994 251.144766 
L 194.995481 257.522423 
L 196.011061 262.782895 
L 197.026602 266.87316 
L 198.042182 269.752633 
L 198.549972 270.72877 
L 199.057723 271.392287 
L 199.565513 271.741623 
L 200.073303 271.775847 
L 200.581093 271.494869 
L 201.088844 270.899454 
L 201.596634 269.990991 
L 202.104424 268.771803 
L 203.119965 265.414329 
L 204.135583 260.860175 
L 205.151124 255.155573 
L 206.166704 248.356992 
L 207.690035 236.260208 
L 209.213366 222.129876 
L 211.244487 200.680732 
L 213.783398 170.898512 
L 220.384551 91.018181 
L 222.415672 69.557558 
L 223.939003 55.416298 
L 225.462334 43.306867 
L 226.477914 36.499041 
L 227.493455 30.784638 
L 228.508996 26.220541 
L 229.524576 22.85229 
L 230.032366 21.627679 
L 230.540079 20.713869 
L 231.047869 20.112882 
L 231.555659 19.826361 
L 232.063448 19.855042 
L 232.571238 20.198843 
L 233.079028 20.856916 
L 233.586818 21.827592 
L 234.094608 23.108462 
L 235.110111 26.586872 
L 236.12569 31.25787 
L 237.14127 37.074524 
L 238.15685 43.978653 
L 239.680142 56.219325 
L 241.203512 70.474431 
L 243.234595 92.053531 
L 245.773544 121.935055 
L 252.374658 201.711104 
L 254.405818 223.039818 
L 255.92911 237.055019 
L 257.45248 249.019466 
L 258.46806 255.72112 
L 259.483562 261.32296 
L 260.499142 265.769801 
L 261.514722 269.016695 
L 262.022512 270.179542 
L 262.530302 271.031182 
L 263.038014 271.569422 
L 263.545804 271.793083 
L 264.053594 271.701504 
L 264.561384 271.29491 
L 265.069174 270.574315 
L 265.576964 269.541529 
L 266.592544 266.550485 
L 267.608046 262.352058 
L 268.623704 256.987142 
L 269.639283 250.510493 
L 271.162576 238.855578 
L 272.685946 225.108138 
L 274.717105 204.064101 
L 277.255978 174.597936 
L 284.872672 83.21708 
L 286.903831 62.728471 
L 288.427124 49.498234 
L 289.950493 38.432238 
L 290.966073 32.382701 
L 291.981576 27.4679 
L 292.997155 23.736239 
L 294.012735 21.225471 
L 294.520525 20.436248 
L 295.028315 19.960695 
L 295.536028 19.8 
L 296.043818 19.954522 
L 296.551607 20.423916 
L 297.059397 21.207011 
L 297.567187 22.301838 
L 298.582767 25.414998 
L 299.59827 29.731883 
L 300.613849 35.209963 
L 301.629429 41.794173 
L 303.152799 53.597541 
L 304.676091 67.47297 
L 306.707251 88.653798 
L 309.246123 118.227732 
L 316.355027 203.954588 
L 318.386187 225.01215 
L 319.909479 238.771637 
L 321.432849 250.44176 
L 322.448429 256.928998 
L 323.464009 262.304722 
L 324.479511 266.514879 
L 325.495091 269.518015 
L 326.002881 270.556944 
L 326.510671 271.28372 
L 327.018461 271.696525 
L 327.526251 271.79433 
L 328.033963 271.57694 
L 328.541753 271.044843 
L 329.049543 270.199377 
L 329.557333 269.04265 
L 330.572913 265.80778 
L 331.588493 261.37258 
L 332.603995 255.7819 
L 333.619575 249.090782 
L 335.142945 237.140785 
L 336.666237 223.138096 
L 338.697397 201.8226 
L 341.236269 172.14384 
L 348.345173 86.53273 
L 350.376333 65.613846 
L 351.899703 51.983587 
L 353.422995 40.462955 
L 354.438575 34.083863 
L 355.454155 28.822159 
L 356.469657 24.73073 
L 357.485237 21.84989 
L 357.993027 20.873055 
L 358.500817 20.208802 
L 359.008607 19.858782 
L 359.516397 19.823875 
L 360.024187 20.104178 
L 360.531899 20.698857 
L 361.039689 21.60662 
L 361.547479 22.825118 
L 362.563059 26.181382 
L 363.578639 30.734072 
L 364.594141 36.43718 
L 365.609721 43.234529 
L 367.133091 55.329976 
L 368.656383 69.458521 
L 370.687543 90.906572 
L 373.226415 120.687198 
L 379.827684 200.569987 
L 381.858766 222.031598 
L 383.382136 236.174539 
L 384.905428 248.28521 
L 385.921008 255.094177 
L 386.936588 260.809984 
L 387.952168 265.375464 
L 388.96767 268.744729 
L 389.47546 269.970001 
L 389.98325 270.884598 
L 390.49104 271.486224 
L 390.99883 271.773369 
L 391.50662 271.745326 
L 392.01441 271.402148 
L 392.5222 270.744714 
L 393.029912 269.774826 
L 393.537702 268.494624 
L 394.553282 265.017213 
L 395.568862 260.347387 
L 396.584442 254.53186 
L 397.599944 247.629353 
L 399.123314 235.389567 
L 400.646684 221.1357 
L 402.677766 199.557907 
L 405.216638 169.678304 
L 411.81783 89.900226 
L 413.848912 68.57093 
L 415.372282 54.553701 
L 416.895652 42.587782 
L 417.911154 35.885526 
L 418.926734 30.282087 
L 419.942314 25.834059 
L 420.957894 22.585941 
L 421.465606 21.422628 
L 421.973396 20.570312 
L 422.481186 20.031336 
L 422.988976 19.807037 
L 423.496766 19.897985 
L 424.004556 20.303948 
L 424.512346 21.023912 
L 425.020136 22.056075 
L 426.035638 25.045617 
L 427.051218 29.243128 
L 428.066798 34.606444 
L 429.082378 41.081929 
L 430.60567 52.735229 
L 432.12904 66.481273 
L 434.160122 87.52297 
L 436.699072 116.988803 
L 444.315766 208.371099 
L 446.346848 228.860565 
L 447.870218 242.092979 
L 449.393587 253.160627 
L 450.40909 259.210938 
L 451.42467 264.127414 
L 452.44025 267.860374 
L 453.455829 270.372479 
L 453.963542 271.16228 
L 454.471332 271.638561 
L 454.979122 271.799985 
L 455.486912 271.646146 
L 455.994702 271.177428 
L 456.502492 270.395017 
L 457.010281 269.30085 
L 458.025784 266.18929 
L 459.041364 261.873404 
L 460.056944 256.396549 
L 461.072523 249.813503 
L 462.595816 238.012387 
L 464.119186 224.137687 
L 466.150268 202.959184 
L 468.689217 173.385544 
L 475.798122 87.657485 
L 477.829281 66.598432 
L 479.352574 52.837548 
L 480.875943 41.165818 
L 481.891523 34.677408 
L 482.907026 29.300821 
L 483.922605 25.089011 
L 484.938185 22.084553 
L 485.445975 21.044956 
L 485.953765 20.317504 
L 486.461478 19.904061 
L 486.969268 19.805527 
L 487.477057 20.022241 
L 487.984847 20.553662 
L 488.492637 21.398453 
L 489.000427 22.554511 
L 490.016007 25.788066 
L 491.03151 30.221607 
L 492.047089 35.811454 
L 493.062669 42.501414 
L 494.585962 54.449166 
L 496.109331 68.45115 
L 498.140491 89.7652 
L 500.679363 119.442841 
L 507.788267 205.055247 
L 509.819427 225.975647 
L 511.342719 239.606672 
L 512.866089 251.129565 
L 513.881669 257.509836 
L 514.897171 262.772419 
L 515.912751 266.865485 
L 516.928331 269.747654 
L 517.436121 270.725157 
L 517.943911 271.390094 
L 518.451701 271.74079 
L 518.959413 271.776395 
L 519.467203 271.496829 
L 519.974993 270.902758 
L 520.482783 269.99567 
L 520.990573 268.777834 
L 522.006153 265.422883 
L 523.021655 260.871853 
L 524.037235 255.169572 
L 525.052815 248.373372 
L 526.576185 236.279494 
L 528.099477 222.152301 
L 530.130637 200.705674 
L 532.669509 170.926134 
L 539.270623 91.043997 
L 541.301783 69.579998 
L 542.825153 55.435607 
L 544.348445 43.323262 
L 545.364102 36.512589 
L 546.379682 30.795566 
L 547.395185 26.229125 
L 548.410764 22.858245 
L 548.918554 21.632298 
L 549.426344 20.717031 
L 549.934134 20.114729 
L 550.441924 19.826901 
L 550.949714 19.854269 
L 551.457427 20.196688 
L 551.965217 20.853394 
L 552.473006 21.822733 
L 552.980796 23.102274 
L 553.996376 26.578371 
L 555.011956 31.246935 
L 556.027458 37.060773 
L 557.043038 43.962619 
L 558.566408 56.200857 
L 560.0897 70.452607 
L 562.12086 92.029776 
L 564.659732 121.908322 
L 571.260924 201.687567 
L 573.292006 223.018301 
L 574.815376 237.036904 
L 576.338668 249.003852 
L 577.354248 255.707812 
L 578.369828 261.312468 
L 579.385408 265.761765 
L 580.40091 269.011002 
L 580.9087 270.175186 
L 581.41649 271.028171 
L 581.92428 271.56783 
L 582.43207 271.792805 
L 582.93986 271.70254 
L 583.44765 271.297261 
L 583.955362 270.578108 
L 584.463152 269.546659 
L 585.478732 266.558266 
L 586.494312 262.362032 
L 587.509814 257.000398 
L 588.525394 250.526174 
L 590.048764 238.873933 
L 591.572056 225.130045 
L 593.095426 209.602075 
L 593.095426 209.602075 
" clip-path="url(#pcb099a9b9b)" style="fill: none; stroke: #0000ff; stroke-width: 2; stroke-linecap: square"/>
   </g>
   <g id="line2d_32">
    <path d="M 85.822699 167.873471 
L 403.693346 210.836899 
L 593.095426 234.863283 
L 593.095426 234.863283 
" clip-path="url(#pcb099a9b9b)" style="fill: none; stroke-dasharray: 7.4,3.2; stroke-dashoffset: 0; stroke: #ff0000; stroke-width: 2"/>
   </g>
   <g id="patch_3">
    <path d="M 60.459063 284.4 
L 60.459063 7.2 
" style="fill: none; stroke: #000000; stroke-width: 0.8; stroke-linejoin: miter; stroke-linecap: square"/>
   </g>
   <g id="patch_4">
    <path d="M 618.459062 284.4 
L 618.459062 7.2 
" style="fill: none; stroke: #000000; stroke-width: 0.8; stroke-linejoin: miter; stroke-linecap: square"/>
   </g>
   <g id="patch_5">
    <path d="M 60.459063 284.4 
L 618.459063 284.4 
" style="fill: none; stroke: #000000; stroke-width: 0.8; stroke-linejoin: miter; stroke-linecap: square"/>
   </g>
   <g id="patch_6">
    <path d="M 60.459063 7.2 
L 618.459063 7.2 
" style="fill: none; stroke: #000000; stroke-width: 0.8; stroke-linejoin: miter; stroke-linecap: square"/>
   </g>
   <g id="legend_1">
    <g id="patch_7">
     <path d="M 537.155937 44.55625 
L 611.459062 44.55625 
Q 613.459062 44.55625 613.459062 42.55625 
L 613.459062 14.2 
Q 613.459062 12.2 611.459062 12.2 
L 537.155937 12.2 
Q 535.155937 12.2 535.155937 14.2 
L 535.155937 42.55625 
Q 535.155937 44.55625 537.155937 44.55625 
z
" style="fill: #ffffff; opacity: 0.8; stroke: #cccccc; stroke-linejoin: miter"/>
    </g>
    <g id="line2d_33">
     <path d="M 539.155937 20.298437 
L 549.155937 20.298437 
L 559.155937 20.298437 
" style="fill: none; stroke: #0000ff; stroke-width: 2; stroke-linecap: square"/>
    </g>
    <g id="text_18">
     <!-- Actual -->
     <g transform="translate(567.155937 23.798437)scale(0.1 -0.1)">
      <defs>
       <path id="DejaVuSans-41" d="M 2188 4044 
L 1331 1722 
L 3047 1722 
L 2188 4044 
z
M 1831 4666 
L 2547 4666 
L 4325 0 
L 3669 0 
L 3244 1197 
L 1141 1197 
L 716 0 
L 50 0 
L 1831 4666 
z
" transform="scale(0.015625)"/>
       <path id="DejaVuSans-63" d="M 3122 3366 
L 3122 2828 
Q 2878 2963 2633 3030 
Q 2388 3097 2138 3097 
Q 1578 3097 1268 2742 
Q 959 2388 959 1747 
Q 959 1106 1268 751 
Q 1578 397 2138 397 
Q 2388 397 2633 464 
Q 2878 531 3122 666 
L 3122 134 
Q 2881 22 2623 -34 
Q 2366 -91 2075 -91 
Q 1284 -91 818 406 
Q 353 903 353 1747 
Q 353 2603 823 3093 
Q 1294 3584 2113 3584 
Q 2378 3584 2631 3529 
Q 2884 3475 3122 3366 
z
" transform="scale(0.015625)"/>
       <path id="DejaVuSans-75" d="M 544 1381 
L 544 3500 
L 1119 3500 
L 1119 1403 
Q 1119 906 1312 657 
Q 1506 409 1894 409 
Q 2359 409 2629 706 
Q 2900 1003 2900 1516 
L 2900 3500 
L 3475 3500 
L 3475 0 
L 2900 0 
L 2900 538 
Q 2691 219 2414 64 
Q 2138 -91 1772 -91 
Q 1169 -91 856 284 
Q 544 659 544 1381 
z
M 1991 3584 
L 1991 3584 
z
" transform="scale(0.015625)"/>
       <path id="DejaVuSans-61" d="M 2194 1759 
Q 1497 1759 1228 1600 
Q 959 1441 959 1056 
Q 959 750 1161 570 
Q 1363 391 1709 391 
Q 2188 391 2477 730 
Q 2766 1069 2766 1631 
L 2766 1759 
L 2194 1759 
z
M 3341 1997 
L 3341 0 
L 2766 0 
L 2766 531 
Q 2569 213 2275 61 
Q 1981 -91 1556 -91 
Q 1019 -91 701 211 
Q 384 513 384 1019 
Q 384 1609 779 1909 
Q 1175 2209 1959 2209 
L 2766 2209 
L 2766 2266 
Q 2766 2663 2505 2880 
Q 2244 3097 1772 3097 
Q 1472 3097 1187 3025 
Q 903 2953 641 2809 
L 641 3341 
Q 956 3463 1253 3523 
Q 1550 3584 1831 3584 
Q 2591 3584 2966 3190 
Q 3341 2797 3341 1997 
z
" transform="scale(0.015625)"/>
       <path id="DejaVuSans-6c" d="M 603 4863 
L 1178 4863 
L 1178 0 
L 603 0 
L 603 4863 
z
" transform="scale(0.015625)"/>
      </defs>
      <use xlink:href="#DejaVuSans-41"/>
      <use xlink:href="#DejaVuSans-63" x="66.658203"/>
      <use xlink:href="#DejaVuSans-74" x="121.638672"/>
      <use xlink:href="#DejaVuSans-75" x="160.847656"/>
      <use xlink:href="#DejaVuSans-61" x="224.226562"/>
      <use xlink:href="#DejaVuSans-6c" x="285.505859"/>
     </g>
    </g>
    <g id="line2d_34">
     <path d="M 539.155937 34.976562 
L 549.155937 34.976562 
L 559.155937 34.976562 
" style="fill: none; stroke-dasharray: 7.4,3.2; stroke-dashoffset: 0; stroke: #ff0000; stroke-width: 2"/>
    </g>
    <g id="text_19">
     <!-- Forecast -->
     <g transform="translate(567.155937 38.476562)scale(0.1 -0.1)">
      <defs>
       <path id="DejaVuSans-46" d="M 628 4666 
L 3309 4666 
L 3309 4134 
L 1259 4134 
L 1259 2759 
L 3109 2759 
L 3109 2228 
L 1259 2228 
L 1259 0 
L 628 0 
L 628 4666 
z
" transform="scale(0.015625)"/>
       <path id="DejaVuSans-6f" d="M 1959 3097 
Q 1497 3097 1228 2736 
Q 959 2375 959 1747 
Q 959 1119 1226 758 
Q 1494 397 1959 397 
Q 2419 397 2687 759 
Q 2956 1122 2956 1747 
Q 2956 2369 2687 2733 
Q 2419 3097 1959 3097 
z
M 1959 3584 
Q 2709 3584 3137 3096 
Q 3566 2609 3566 1747 
Q 3566 888 3137 398 
Q 2709 -91 1959 -91 
Q 1206 -91 779 398 
Q 353 888 353 1747 
Q 353 2609 779 3096 
Q 1206 3584 1959 3584 
z
" transform="scale(0.015625)"/>
       <path id="DejaVuSans-72" d="M 2631 2963 
Q 2534 3019 2420 3045 
Q 2306 3072 2169 3072 
Q 1681 3072 1420 2755 
Q 1159 2438 1159 1844 
L 1159 0 
L 581 0 
L 581 3500 
L 1159 3500 
L 1159 2956 
Q 1341 3275 1631 3429 
Q 1922 3584 2338 3584 
Q 2397 3584 2469 3576 
Q 2541 3569 2628 3553 
L 2631 2963 
z
" transform="scale(0.015625)"/>
      </defs>
      <use xlink:href="#DejaVuSans-46"/>
      <use xlink:href="#DejaVuSans-6f" x="53.894531"/>
      <use xlink:href="#DejaVuSans-72" x="115.076172"/>
      <use xlink:href="#DejaVuSans-65" x="153.939453"/>
      <use xlink:href="#DejaVuSans-63" x="215.462891"/>
      <use xlink:href="#DejaVuSans-61" x="270.443359"/>
      <use xlink:href="#DejaVuSans-73" x="331.722656"/>
      <use xlink:href="#DejaVuSans-74" x="383.822266"/>
     </g>
    </g>
   </g>
  </g>
 </g>
 <defs>
  <clipPath id="pcb099a9b9b">
   <rect x="60.459063" y="7.2" width="558" height="277.2"/>
  </clipPath>
 </defs>
</svg>
