<?xml version="1.0" encoding="utf-8" standalone="no"?>
<!DOCTYPE svg PUBLIC "-//W3C//DTD SVG 1.1//EN"
  "http://www.w3.org/Graphics/SVG/1.1/DTD/svg11.dtd">
<svg xmlns:xlink="http://www.w3.org/1999/xlink" width="625.659063pt" height="323.891875pt" viewBox="0 0 625.659063 323.891875" xmlns="http://www.w3.org/2000/svg" version="1.1">
 <metadata>
  <rdf:RDF xmlns:dc="http://purl.org/dc/elements/1.1/" xmlns:cc="http://creativecommons.org/ns#" xmlns:rdf="http://www.w3.org/1999/02/22-rdf-syntax-ns#">
   <cc:Work>
    <dc:type rdf:resource="http://purl.org/dc/dcmitype/StillImage"/>
    <dc:date>2025-11-10T22:42:59.476886</dc:date>
    <dc:format>image/svg+xml</dc:format>
    <dc:creator>
     <cc:Agent>
      <dc:title>Matplotlib v3.5.1, https://matplotlib.org/</dc:title>
     </cc:Agent>
    </dc:creator>
   </cc:Work>
  </rdf:RDF>
 </metadata>
 <defs>
  <style type="text/css">*{stroke-linejoin: round; stroke-linecap: butt}</style>
 </defs>
 <g id="figure_1">
  <g id="patch_1">
   <path d="M 0 323.891875 
L 625.659063 323.891875 
L 625.659063 0 
L 0 0 
z
" style="fill: #ffffff"/>
  </g>
  <g id="axes_1">
   <g id="patch_2">
    <path d="M 60.459063 284.4 
L 618.459062 284.4 
L 618.459062 7.2 
L 60.459063 7.2 
z
" style="fill: #ffffff"/>
   </g>
   <g id="matplotlib.axis_1">
    <g id="xtick_1">
     <g id="line2d_1">
      <path d="M 85.568804 284.4 
L 85.568804 7.2 
" clip-path="url(#ped751ad227)" style="fill: none; stroke: #b0b0b0; stroke-width: 0.8; stroke-linecap: square"/>
     </g>
     <g id="line2d_2">
      <defs>
       <path id="mebc60a6217" d="M 0 0 
L 0 3.5 
" style="stroke: #000000; stroke-width: 0.8"/>
      </defs>
      <g>
       <use xlink:href="#mebc60a6217" x="85.568804" y="284.4" style="stroke: #000000; stroke-width: 0.8"/>
      </g>
     </g>
     <g id="text_1">
      <!-- 50 -->
      <g transform="translate(79.206304 298.998438)scale(0.1 -0.1)">
       <defs>
        <path id="DejaVuSans-35" d="M 691 4666 
L 3169 4666 
L 3169 4134 
L 1269 4134 
L 1269 2991 
Q 1406 3038 1543 3061 
Q 1681 3084 1819 3084 
Q 2600 3084 3056 2656 
Q 3513 2228 3513 1497 
Q 3513 744 3044 326 
Q 2575 -91 1722 -91 
Q 1428 -91 1123 -41 
Q 819 9 494 109 
L 494 744 
Q 775 591 1075 516 
Q 1375 441 1709 441 
Q 2250 441 2565 725 
Q 2881 1009 2881 1497 
Q 2881 1984 2565 2268 
Q 2250 2553 1709 2553 
Q 1456 2553 1204 2497 
Q 953 2441 691 2322 
L 691 4666 
z
" transform="scale(0.015625)"/>
        <path id="DejaVuSans-30" d="M 2034 4250 
Q 1547 4250 1301 3770 
Q 1056 3291 1056 2328 
Q 1056 1369 1301 889 
Q 1547 409 2034 409 
Q 2525 409 2770 889 
Q 3016 1369 3016 2328 
Q 3016 3291 2770 3770 
Q 2525 4250 2034 4250 
z
M 2034 4750 
Q 2819 4750 3233 4129 
Q 3647 3509 3647 2328 
Q 3647 1150 3233 529 
Q 2819 -91 2034 -91 
Q 1250 -91 836 529 
Q 422 1150 422 2328 
Q 422 3509 836 4129 
Q 1250 4750 2034 4750 
z
" transform="scale(0.015625)"/>
       </defs>
       <use xlink:href="#DejaVuSans-35"/>
       <use xlink:href="#DejaVuSans-30" x="63.623047"/>
      </g>
     </g>
    </g>
    <g id="xtick_2">
     <g id="line2d_3">
      <path d="M 187.074128 284.4 
L 187.074128 7.2 
" clip-path="url(#ped751ad227)" style="fill: none; stroke: #b0b0b0; stroke-width: 0.8; stroke-linecap: square"/>
     </g>
     <g id="line2d_4">
      <g>
       <use xlink:href="#mebc60a6217" x="187.074128" y="284.4" style="stroke: #000000; stroke-width: 0.8"/>
      </g>
     </g>
     <g id="text_2">
      <!-- 60 -->
      <g transform="translate(180.711628 298.998438)scale(0.1 -0.1)">
       <defs>
        <path id="DejaVuSans-36" d="M 2113 2584 
Q 1688 2584 1439 2293 
Q 1191 2003 1191 1497 
Q 1191 994 1439 701 
Q 1688 409 2113 409 
Q 2538 409 2786 701 
Q 3034 994 3034 1497 
Q 3034 2003 2786 2293 
Q 2538 2584 2113 2584 
z
M 3366 4563 
L 3366 3988 
Q 3128 4100 2886 4159 
Q 2644 4219 2406 4219 
Q 1781 4219 1451 3797 
Q 1122 3375 1075 2522 
Q 1259 2794 1537 2939 
Q 1816 3084 2150 3084 
Q 2853 3084 3261 2657 
Q 3669 2231 3669 1497 
Q 3669 778 3244 343 
Q 2819 -91 2113 -91 
Q 1303 -91 875 529 
Q 447 1150 447 2328 
Q 447 3434 972 4092 
Q 1497 4750 2381 4750 
Q 2619 4750 2861 4703 
Q 3103 4656 3366 4563 
z
" transform="scale(0.015625)"/>
       </defs>
       <use xlink:href="#DejaVuSans-36"/>
       <use xlink:href="#DejaVuSans-30" x="63.623047"/>
      </g>
     </g>
    </g>
    <g id="xtick_3">
     <g id="line2d_5">
      <path d="M 288.579453 284.4 
L 288.579453 7.2 
" clip-path="url(#ped751ad227)" style="fill: none; stroke: #b0b0b0; stroke-width: 0.8; stroke-linecap: square"/>
     </g>
     <g id="line2d_6">
      <g>
       <use xlink:href="#mebc60a6217" x="288.579453" y="284.4" style="stroke: #000000; stroke-width: 0.8"/>
      </g>
     </g>
     <g id="text_3">
      <!-- 70 -->
      <g transform="translate(282.216953 298.998438)scale(0.1 -0.1)">
       <defs>
        <path id="DejaVuSans-37" d="M 525 4666 
L 3525 4666 
L 3525 4397 
L 1831 0 
L 1172 0 
L 2766 4134 
L 525 4134 
L 525 4666 
z
" transform="scale(0.015625)"/>
       </defs>
       <use xlink:href="#DejaVuSans-37"/>
       <use xlink:href="#DejaVuSans-30" x="63.623047"/>
      </g>
     </g>
    </g>
    <g id="xtick_4">
     <g id="line2d_7">
      <path d="M 390.084777 284.4 
L 390.084777 7.2 
" clip-path="url(#ped751ad227)" style="fill: none; stroke: #b0b0b0; stroke-width: 0.8; stroke-linecap: square"/>
     </g>
     <g id="line2d_8">
      <g>
       <use xlink:href="#mebc60a6217" x="390.084777" y="284.4" style="stroke: #000000; stroke-width: 0.8"/>
      </g>
     </g>
     <g id="text_4">
      <!-- 80 -->
      <g transform="translate(383.722277 298.998438)scale(0.1 -0.1)">
       <defs>
        <path id="DejaVuSans-38" d="M 2034 2216 
Q 1584 2216 1326 1975 
Q 1069 1734 1069 1313 
Q 1069 891 1326 650 
Q 1584 409 2034 409 
Q 2484 409 2743 651 
Q 3003 894 3003 1313 
Q 3003 1734 2745 1975 
Q 2488 2216 2034 2216 
z
M 1403 2484 
Q 997 2584 770 2862 
Q 544 3141 544 3541 
Q 544 4100 942 4425 
Q 1341 4750 2034 4750 
Q 2731 4750 3128 4425 
Q 3525 4100 3525 3541 
Q 3525 3141 3298 2862 
Q 3072 2584 2669 2484 
Q 3125 2378 3379 2068 
Q 3634 1759 3634 1313 
Q 3634 634 3220 271 
Q 2806 -91 2034 -91 
Q 1263 -91 848 271 
Q 434 634 434 1313 
Q 434 1759 690 2068 
Q 947 2378 1403 2484 
z
M 1172 3481 
Q 1172 3119 1398 2916 
Q 1625 2713 2034 2713 
Q 2441 2713 2670 2916 
Q 2900 3119 2900 3481 
Q 2900 3844 2670 4047 
Q 2441 4250 2034 4250 
Q 1625 4250 1398 4047 
Q 1172 3844 1172 3481 
z
" transform="scale(0.015625)"/>
       </defs>
       <use xlink:href="#DejaVuSans-38"/>
       <use xlink:href="#DejaVuSans-30" x="63.623047"/>
      </g>
     </g>
    </g>
    <g id="xtick_5">
     <g id="line2d_9">
      <path d="M 491.590102 284.4 
L 491.590102 7.2 
" clip-path="url(#ped751ad227)" style="fill: none; stroke: #b0b0b0; stroke-width: 0.8; stroke-linecap: square"/>
     </g>
     <g id="line2d_10">
      <g>
       <use xlink:href="#mebc60a6217" x="491.590102" y="284.4" style="stroke: #000000; stroke-width: 0.8"/>
      </g>
     </g>
     <g id="text_5">
      <!-- 90 -->
      <g transform="translate(485.227602 298.998438)scale(0.1 -0.1)">
       <defs>
        <path id="DejaVuSans-39" d="M 703 97 
L 703 672 
Q 941 559 1184 500 
Q 1428 441 1663 441 
Q 2288 441 2617 861 
Q 2947 1281 2994 2138 
Q 2813 1869 2534 1725 
Q 2256 1581 1919 1581 
Q 1219 1581 811 2004 
Q 403 2428 403 3163 
Q 403 3881 828 4315 
Q 1253 4750 1959 4750 
Q 2769 4750 3195 4129 
Q 3622 3509 3622 2328 
Q 3622 1225 3098 567 
Q 2575 -91 1691 -91 
Q 1453 -91 1209 -44 
Q 966 3 703 97 
z
M 1959 2075 
Q 2384 2075 2632 2365 
Q 2881 2656 2881 3163 
Q 2881 3666 2632 3958 
Q 2384 4250 1959 4250 
Q 1534 4250 1286 3958 
Q 1038 3666 1038 3163 
Q 1038 2656 1286 2365 
Q 1534 2075 1959 2075 
z
" transform="scale(0.015625)"/>
       </defs>
       <use xlink:href="#DejaVuSans-39"/>
       <use xlink:href="#DejaVuSans-30" x="63.623047"/>
      </g>
     </g>
    </g>
    <g id="xtick_6">
     <g id="line2d_11">
      <path d="M 593.095426 284.4 
L 593.095426 7.2 
" clip-path="url(#ped751ad227)" style="fill: none; stroke: #b0b0b0; stroke-width: 0.8; stroke-linecap: square"/>
     </g>
     <g id="line2d_12">
      <g>
       <use xlink:href="#mebc60a6217" x="593.095426" y="284.4" style="stroke: #000000; stroke-width: 0.8"/>
      </g>
     </g>
     <g id="text_6">
      <!-- 100 -->
      <g transform="translate(583.551676 298.998438)scale(0.1 -0.1)">
       <defs>
        <path id="DejaVuSans-31" d="M 794 531 
L 1825 531 
L 1825 4091 
L 703 3866 
L 703 4441 
L 1819 4666 
L 2450 4666 
L 2450 531 
L 3481 531 
L 3481 0 
L 794 0 
L 794 531 
z
" transform="scale(0.015625)"/>
       </defs>
       <use xlink:href="#DejaVuSans-31"/>
       <use xlink:href="#DejaVuSans-30" x="63.623047"/>
       <use xlink:href="#DejaVuSans-30" x="127.246094"/>
      </g>
     </g>
    </g>
    <g id="text_7">
     <!-- x (Time Step) -->
     <g transform="translate(299.069687 314.19625)scale(0.12 -0.12)">
      <defs>
       <path id="DejaVuSans-78" d="M 3513 3500 
L 2247 1797 
L 3578 0 
L 2900 0 
L 1881 1375 
L 863 0 
L 184 0 
L 1544 1831 
L 300 3500 
L 978 3500 
L 1906 2253 
L 2834 3500 
L 3513 3500 
z
" transform="scale(0.015625)"/>
       <path id="DejaVuSans-20" transform="scale(0.015625)"/>
       <path id="DejaVuSans-28" d="M 1984 4856 
Q 1566 4138 1362 3434 
Q 1159 2731 1159 2009 
Q 1159 1288 1364 580 
Q 1569 -128 1984 -844 
L 1484 -844 
Q 1016 -109 783 600 
Q 550 1309 550 2009 
Q 550 2706 781 3412 
Q 1013 4119 1484 4856 
L 1984 4856 
z
" transform="scale(0.015625)"/>
       <path id="DejaVuSans-54" d="M -19 4666 
L 3928 4666 
L 3928 4134 
L 2272 4134 
L 2272 0 
L 1638 0 
L 1638 4134 
L -19 4134 
L -19 4666 
z
" transform="scale(0.015625)"/>
       <path id="DejaVuSans-69" d="M 603 3500 
L 1178 3500 
L 1178 0 
L 603 0 
L 603 3500 
z
M 603 4863 
L 1178 4863 
L 1178 4134 
L 603 4134 
L 603 4863 
z
" transform="scale(0.015625)"/>
       <path id="DejaVuSans-6d" d="M 3328 2828 
Q 3544 3216 3844 3400 
Q 4144 3584 4550 3584 
Q 5097 3584 5394 3201 
Q 5691 2819 5691 2113 
L 5691 0 
L 5113 0 
L 5113 2094 
Q 5113 2597 4934 2840 
Q 4756 3084 4391 3084 
Q 3944 3084 3684 2787 
Q 3425 2491 3425 1978 
L 3425 0 
L 2847 0 
L 2847 2094 
Q 2847 2600 2669 2842 
Q 2491 3084 2119 3084 
Q 1678 3084 1418 2786 
Q 1159 2488 1159 1978 
L 1159 0 
L 581 0 
L 581 3500 
L 1159 3500 
L 1159 2956 
Q 1356 3278 1631 3431 
Q 1906 3584 2284 3584 
Q 2666 3584 2933 3390 
Q 3200 3197 3328 2828 
z
" transform="scale(0.015625)"/>
       <path id="DejaVuSans-65" d="M 3597 1894 
L 3597 1613 
L 953 1613 
Q 991 1019 1311 708 
Q 1631 397 2203 397 
Q 2534 397 2845 478 
Q 3156 559 3463 722 
L 3463 178 
Q 3153 47 2828 -22 
Q 2503 -91 2169 -91 
Q 1331 -91 842 396 
Q 353 884 353 1716 
Q 353 2575 817 3079 
Q 1281 3584 2069 3584 
Q 2775 3584 3186 3129 
Q 3597 2675 3597 1894 
z
M 3022 2063 
Q 3016 2534 2758 2815 
Q 2500 3097 2075 3097 
Q 1594 3097 1305 2825 
Q 1016 2553 972 2059 
L 3022 2063 
z
" transform="scale(0.015625)"/>
       <path id="DejaVuSans-53" d="M 3425 4513 
L 3425 3897 
Q 3066 4069 2747 4153 
Q 2428 4238 2131 4238 
Q 1616 4238 1336 4038 
Q 1056 3838 1056 3469 
Q 1056 3159 1242 3001 
Q 1428 2844 1947 2747 
L 2328 2669 
Q 3034 2534 3370 2195 
Q 3706 1856 3706 1288 
Q 3706 609 3251 259 
Q 2797 -91 1919 -91 
Q 1588 -91 1214 -16 
Q 841 59 441 206 
L 441 856 
Q 825 641 1194 531 
Q 1563 422 1919 422 
Q 2459 422 2753 634 
Q 3047 847 3047 1241 
Q 3047 1584 2836 1778 
Q 2625 1972 2144 2069 
L 1759 2144 
Q 1053 2284 737 2584 
Q 422 2884 422 3419 
Q 422 4038 858 4394 
Q 1294 4750 2059 4750 
Q 2388 4750 2728 4690 
Q 3069 4631 3425 4513 
z
" transform="scale(0.015625)"/>
       <path id="DejaVuSans-74" d="M 1172 4494 
L 1172 3500 
L 2356 3500 
L 2356 3053 
L 1172 3053 
L 1172 1153 
Q 1172 725 1289 603 
Q 1406 481 1766 481 
L 2356 481 
L 2356 0 
L 1766 0 
Q 1100 0 847 248 
Q 594 497 594 1153 
L 594 3053 
L 172 3053 
L 172 3500 
L 594 3500 
L 594 4494 
L 1172 4494 
z
" transform="scale(0.015625)"/>
       <path id="DejaVuSans-70" d="M 1159 525 
L 1159 -1331 
L 581 -1331 
L 581 3500 
L 1159 3500 
L 1159 2969 
Q 1341 3281 1617 3432 
Q 1894 3584 2278 3584 
Q 2916 3584 3314 3078 
Q 3713 2572 3713 1747 
Q 3713 922 3314 415 
Q 2916 -91 2278 -91 
Q 1894 -91 1617 61 
Q 1341 213 1159 525 
z
M 3116 1747 
Q 3116 2381 2855 2742 
Q 2594 3103 2138 3103 
Q 1681 3103 1420 2742 
Q 1159 2381 1159 1747 
Q 1159 1113 1420 752 
Q 1681 391 2138 391 
Q 2594 391 2855 752 
Q 3116 1113 3116 1747 
z
" transform="scale(0.015625)"/>
       <path id="DejaVuSans-29" d="M 513 4856 
L 1013 4856 
Q 1481 4119 1714 3412 
Q 1947 2706 1947 2009 
Q 1947 1309 1714 600 
Q 1481 -109 1013 -844 
L 513 -844 
Q 928 -128 1133 580 
Q 1338 1288 1338 2009 
Q 1338 2731 1133 3434 
Q 928 4138 513 4856 
z
" transform="scale(0.015625)"/>
      </defs>
      <use xlink:href="#DejaVuSans-78"/>
      <use xlink:href="#DejaVuSans-20" x="59.179688"/>
      <use xlink:href="#DejaVuSans-28" x="90.966797"/>
      <use xlink:href="#DejaVuSans-54" x="129.980469"/>
      <use xlink:href="#DejaVuSans-69" x="187.939453"/>
      <use xlink:href="#DejaVuSans-6d" x="215.722656"/>
      <use xlink:href="#DejaVuSans-65" x="313.134766"/>
      <use xlink:href="#DejaVuSans-20" x="374.658203"/>
      <use xlink:href="#DejaVuSans-53" x="406.445312"/>
      <use xlink:href="#DejaVuSans-74" x="469.921875"/>
      <use xlink:href="#DejaVuSans-65" x="509.130859"/>
      <use xlink:href="#DejaVuSans-70" x="570.654297"/>
      <use xlink:href="#DejaVuSans-29" x="634.130859"/>
     </g>
    </g>
   </g>
   <g id="matplotlib.axis_2">
    <g id="ytick_1">
     <g id="line2d_13">
      <path d="M 60.459063 271.800007 
L 618.459062 271.800007 
" clip-path="url(#ped751ad227)" style="fill: none; stroke: #b0b0b0; stroke-width: 0.8; stroke-linecap: square"/>
     </g>
     <g id="line2d_14">
      <defs>
       <path id="m81dfcecf9a" d="M 0 0 
L -3.5 0 
" style="stroke: #000000; stroke-width: 0.8"/>
      </defs>
      <g>
       <use xlink:href="#m81dfcecf9a" x="60.459063" y="271.800007" style="stroke: #000000; stroke-width: 0.8"/>
      </g>
     </g>
     <g id="text_8">
      <!-- −1.00 -->
      <g transform="translate(22.81375 275.599226)scale(0.1 -0.1)">
       <defs>
        <path id="DejaVuSans-2212" d="M 678 2272 
L 4684 2272 
L 4684 1741 
L 678 1741 
L 678 2272 
z
" transform="scale(0.015625)"/>
        <path id="DejaVuSans-2e" d="M 684 794 
L 1344 794 
L 1344 0 
L 684 0 
L 684 794 
z
" transform="scale(0.015625)"/>
       </defs>
       <use xlink:href="#DejaVuSans-2212"/>
       <use xlink:href="#DejaVuSans-31" x="83.789062"/>
       <use xlink:href="#DejaVuSans-2e" x="147.412109"/>
       <use xlink:href="#DejaVuSans-30" x="179.199219"/>
       <use xlink:href="#DejaVuSans-30" x="242.822266"/>
      </g>
     </g>
    </g>
    <g id="ytick_2">
     <g id="line2d_15">
      <path d="M 60.459063 240.973213 
L 618.459062 240.973213 
" clip-path="url(#ped751ad227)" style="fill: none; stroke: #b0b0b0; stroke-width: 0.8; stroke-linecap: square"/>
     </g>
     <g id="line2d_16">
      <g>
       <use xlink:href="#m81dfcecf9a" x="60.459063" y="240.973213" style="stroke: #000000; stroke-width: 0.8"/>
      </g>
     </g>
     <g id="text_9">
      <!-- −0.75 -->
      <g transform="translate(22.81375 244.772432)scale(0.1 -0.1)">
       <use xlink:href="#DejaVuSans-2212"/>
       <use xlink:href="#DejaVuSans-30" x="83.789062"/>
       <use xlink:href="#DejaVuSans-2e" x="147.412109"/>
       <use xlink:href="#DejaVuSans-37" x="179.199219"/>
       <use xlink:href="#DejaVuSans-35" x="242.822266"/>
      </g>
     </g>
    </g>
    <g id="ytick_3">
     <g id="line2d_17">
      <path d="M 60.459063 210.146419 
L 618.459062 210.146419 
" clip-path="url(#ped751ad227)" style="fill: none; stroke: #b0b0b0; stroke-width: 0.8; stroke-linecap: square"/>
     </g>
     <g id="line2d_18">
      <g>
       <use xlink:href="#m81dfcecf9a" x="60.459063" y="210.146419" style="stroke: #000000; stroke-width: 0.8"/>
      </g>
     </g>
     <g id="text_10">
      <!-- −0.50 -->
      <g transform="translate(22.81375 213.945638)scale(0.1 -0.1)">
       <use xlink:href="#DejaVuSans-2212"/>
       <use xlink:href="#DejaVuSans-30" x="83.789062"/>
       <use xlink:href="#DejaVuSans-2e" x="147.412109"/>
       <use xlink:href="#DejaVuSans-35" x="179.199219"/>
       <use xlink:href="#DejaVuSans-30" x="242.822266"/>
      </g>
     </g>
    </g>
    <g id="ytick_4">
     <g id="line2d_19">
      <path d="M 60.459063 179.319625 
L 618.459062 179.319625 
" clip-path="url(#ped751ad227)" style="fill: none; stroke: #b0b0b0; stroke-width: 0.8; stroke-linecap: square"/>
     </g>
     <g id="line2d_20">
      <g>
       <use xlink:href="#m81dfcecf9a" x="60.459063" y="179.319625" style="stroke: #000000; stroke-width: 0.8"/>
      </g>
     </g>
     <g id="text_11">
      <!-- −0.25 -->
      <g transform="translate(22.81375 183.118844)scale(0.1 -0.1)">
       <defs>
        <path id="DejaVuSans-32" d="M 1228 531 
L 3431 531 
L 3431 0 
L 469 0 
L 469 531 
Q 828 903 1448 1529 
Q 2069 2156 2228 2338 
Q 2531 2678 2651 2914 
Q 2772 3150 2772 3378 
Q 2772 3750 2511 3984 
Q 2250 4219 1831 4219 
Q 1534 4219 1204 4116 
Q 875 4013 500 3803 
L 500 4441 
Q 881 4594 1212 4672 
Q 1544 4750 1819 4750 
Q 2544 4750 2975 4387 
Q 3406 4025 3406 3419 
Q 3406 3131 3298 2873 
Q 3191 2616 2906 2266 
Q 2828 2175 2409 1742 
Q 1991 1309 1228 531 
z
" transform="scale(0.015625)"/>
       </defs>
       <use xlink:href="#DejaVuSans-2212"/>
       <use xlink:href="#DejaVuSans-30" x="83.789062"/>
       <use xlink:href="#DejaVuSans-2e" x="147.412109"/>
       <use xlink:href="#DejaVuSans-32" x="179.199219"/>
       <use xlink:href="#DejaVuSans-35" x="242.822266"/>
      </g>
     </g>
    </g>
    <g id="ytick_5">
     <g id="line2d_21">
      <path d="M 60.459063 148.492831 
L 618.459062 148.492831 
" clip-path="url(#ped751ad227)" style="fill: none; stroke: #b0b0b0; stroke-width: 0.8; stroke-linecap: square"/>
     </g>
     <g id="line2d_22">
      <g>
       <use xlink:href="#m81dfcecf9a" x="60.459063" y="148.492831" style="stroke: #000000; stroke-width: 0.8"/>
      </g>
     </g>
     <g id="text_12">
      <!-- 0.00 -->
      <g transform="translate(31.193438 152.29205)scale(0.1 -0.1)">
       <use xlink:href="#DejaVuSans-30"/>
       <use xlink:href="#DejaVuSans-2e" x="63.623047"/>
       <use xlink:href="#DejaVuSans-30" x="95.410156"/>
       <use xlink:href="#DejaVuSans-30" x="159.033203"/>
      </g>
     </g>
    </g>
    <g id="ytick_6">
     <g id="line2d_23">
      <path d="M 60.459063 117.666037 
L 618.459062 117.666037 
" clip-path="url(#ped751ad227)" style="fill: none; stroke: #b0b0b0; stroke-width: 0.8; stroke-linecap: square"/>
     </g>
     <g id="line2d_24">
      <g>
       <use xlink:href="#m81dfcecf9a" x="60.459063" y="117.666037" style="stroke: #000000; stroke-width: 0.8"/>
      </g>
     </g>
     <g id="text_13">
      <!-- 0.25 -->
      <g transform="translate(31.193438 121.465256)scale(0.1 -0.1)">
       <use xlink:href="#DejaVuSans-30"/>
       <use xlink:href="#DejaVuSans-2e" x="63.623047"/>
       <use xlink:href="#DejaVuSans-32" x="95.410156"/>
       <use xlink:href="#DejaVuSans-35" x="159.033203"/>
      </g>
     </g>
    </g>
    <g id="ytick_7">
     <g id="line2d_25">
      <path d="M 60.459063 86.839243 
L 618.459062 86.839243 
" clip-path="url(#ped751ad227)" style="fill: none; stroke: #b0b0b0; stroke-width: 0.8; stroke-linecap: square"/>
     </g>
     <g id="line2d_26">
      <g>
       <use xlink:href="#m81dfcecf9a" x="60.459063" y="86.839243" style="stroke: #000000; stroke-width: 0.8"/>
      </g>
     </g>
     <g id="text_14">
      <!-- 0.50 -->
      <g transform="translate(31.193438 90.638462)scale(0.1 -0.1)">
       <use xlink:href="#DejaVuSans-30"/>
       <use xlink:href="#DejaVuSans-2e" x="63.623047"/>
       <use xlink:href="#DejaVuSans-35" x="95.410156"/>
       <use xlink:href="#DejaVuSans-30" x="159.033203"/>
      </g>
     </g>
    </g>
    <g id="ytick_8">
     <g id="line2d_27">
      <path d="M 60.459063 56.012449 
L 618.459062 56.012449 
" clip-path="url(#ped751ad227)" style="fill: none; stroke: #b0b0b0; stroke-width: 0.8; stroke-linecap: square"/>
     </g>
     <g id="line2d_28">
      <g>
       <use xlink:href="#m81dfcecf9a" x="60.459063" y="56.012449" style="stroke: #000000; stroke-width: 0.8"/>
      </g>
     </g>
     <g id="text_15">
      <!-- 0.75 -->
      <g transform="translate(31.193438 59.811668)scale(0.1 -0.1)">
       <use xlink:href="#DejaVuSans-30"/>
       <use xlink:href="#DejaVuSans-2e" x="63.623047"/>
       <use xlink:href="#DejaVuSans-37" x="95.410156"/>
       <use xlink:href="#DejaVuSans-35" x="159.033203"/>
      </g>
     </g>
    </g>
    <g id="ytick_9">
     <g id="line2d_29">
      <path d="M 60.459063 25.185655 
L 618.459062 25.185655 
" clip-path="url(#ped751ad227)" style="fill: none; stroke: #b0b0b0; stroke-width: 0.8; stroke-linecap: square"/>
     </g>
     <g id="line2d_30">
      <g>
       <use xlink:href="#m81dfcecf9a" x="60.459063" y="25.185655" style="stroke: #000000; stroke-width: 0.8"/>
      </g>
     </g>
     <g id="text_16">
      <!-- 1.00 -->
      <g transform="translate(31.193438 28.984873)scale(0.1 -0.1)">
       <use xlink:href="#DejaVuSans-31"/>
       <use xlink:href="#DejaVuSans-2e" x="63.623047"/>
       <use xlink:href="#DejaVuSans-30" x="95.410156"/>
       <use xlink:href="#DejaVuSans-30" x="159.033203"/>
      </g>
     </g>
    </g>
    <g id="text_17">
     <!-- sin(x) -->
     <g transform="translate(16.318125 162.628125)rotate(-90)scale(0.12 -0.12)">
      <defs>
       <path id="DejaVuSans-73" d="M 2834 3397 
L 2834 2853 
Q 2591 2978 2328 3040 
Q 2066 3103 1784 3103 
Q 1356 3103 1142 2972 
Q 928 2841 928 2578 
Q 928 2378 1081 2264 
Q 1234 2150 1697 2047 
L 1894 2003 
Q 2506 1872 2764 1633 
Q 3022 1394 3022 966 
Q 3022 478 2636 193 
Q 2250 -91 1575 -91 
Q 1294 -91 989 -36 
Q 684 19 347 128 
L 347 722 
Q 666 556 975 473 
Q 1284 391 1588 391 
Q 1994 391 2212 530 
Q 2431 669 2431 922 
Q 2431 1156 2273 1281 
Q 2116 1406 1581 1522 
L 1381 1569 
Q 847 1681 609 1914 
Q 372 2147 372 2553 
Q 372 3047 722 3315 
Q 1072 3584 1716 3584 
Q 2034 3584 2315 3537 
Q 2597 3491 2834 3397 
z
" transform="scale(0.015625)"/>
       <path id="DejaVuSans-6e" d="M 3513 2113 
L 3513 0 
L 2938 0 
L 2938 2094 
Q 2938 2591 2744 2837 
Q 2550 3084 2163 3084 
Q 1697 3084 1428 2787 
Q 1159 2491 1159 1978 
L 1159 0 
L 581 0 
L 581 3500 
L 1159 3500 
L 1159 2956 
Q 1366 3272 1645 3428 
Q 1925 3584 2291 3584 
Q 2894 3584 3203 3211 
Q 3513 2838 3513 2113 
z
" transform="scale(0.015625)"/>
      </defs>
      <use xlink:href="#DejaVuSans-73"/>
      <use xlink:href="#DejaVuSans-69" x="52.099609"/>
      <use xlink:href="#DejaVuSans-6e" x="79.882812"/>
      <use xlink:href="#DejaVuSans-28" x="143.261719"/>
      <use xlink:href="#DejaVuSans-78" x="182.275391"/>
      <use xlink:href="#DejaVuSans-29" x="241.455078"/>
     </g>
    </g>
   </g>
   <g id="line2d_31">
    <path d="M 85.822699 177.859499 
L 93.439393 88.307367 
L 95.470514 68.116645 
L 96.993884 55.0388 
L 98.517215 44.062148 
L 99.532756 38.035564 
L 100.548336 33.11352 
L 101.563877 29.345625 
L 102.579457 26.769283 
L 103.087247 25.936535 
L 103.594998 25.410452 
L 104.102788 25.192277 
L 104.610578 25.282619 
L 105.118368 25.681236 
L 105.626119 26.38707 
L 106.133909 27.39846 
L 107.149489 30.326925 
L 108.16503 34.437109 
L 109.18061 39.688213 
L 110.196151 46.02732 
L 111.719482 57.434987 
L 113.242852 70.889988 
L 115.273973 91.485325 
L 117.812845 120.322866 
L 125.429577 209.749808 
L 127.460698 229.798642 
L 128.984029 242.745052 
L 130.507399 253.572932 
L 131.522979 259.492005 
L 132.53852 264.300702 
L 133.5541 267.951296 
L 134.569641 270.406986 
L 135.077431 271.17868 
L 135.585221 271.643408 
L 136.092972 271.8 
L 136.600762 271.648089 
L 137.108552 271.188044 
L 137.616342 270.421002 
L 138.124093 269.348977 
L 139.139673 266.301057 
L 140.155214 262.075006 
L 141.170794 256.712752 
L 142.186335 250.268354 
L 143.709705 238.715678 
L 145.233036 225.135071 
L 147.264157 204.405845 
L 149.803068 175.462371 
L 156.911972 91.568869 
L 158.943093 70.963213 
L 160.466424 57.498848 
L 161.989794 46.079753 
L 163.005335 39.732569 
L 164.020915 34.472939 
L 165.036456 30.353877 
L 166.052036 27.416261 
L 166.559787 26.400285 
L 167.067577 25.689703 
L 167.575367 25.286389 
L 168.083157 25.191336 
L 168.590908 25.404771 
L 169.098698 25.926186 
L 169.606488 26.754268 
L 170.114278 27.886956 
L 171.129819 31.053882 
L 172.145399 35.395537 
L 173.16094 40.86816 
L 174.17652 47.417439 
L 175.699851 59.11333 
L 177.223182 72.818463 
L 179.254303 93.679462 
L 181.793214 122.725489 
L 188.902118 206.505626 
L 190.933239 226.975548 
L 192.456609 240.313116 
L 193.97994 251.586203 
L 194.995481 257.827559 
L 196.011061 262.975606 
L 197.026602 266.978455 
L 198.042182 269.796389 
L 198.549972 270.751664 
L 199.057723 271.401001 
L 199.565513 271.742871 
L 200.073303 271.776363 
L 200.581093 271.50139 
L 201.088844 270.9187 
L 201.596634 270.029653 
L 202.104424 268.836521 
L 203.119965 265.550802 
L 204.135583 261.093978 
L 205.151124 255.511293 
L 206.166704 248.858009 
L 207.690035 237.019754 
L 209.213366 223.191411 
L 211.244487 202.200672 
L 213.783398 173.054949 
L 220.384551 94.881796 
L 222.415672 73.879823 
L 223.939003 60.040787 
L 225.462334 48.190155 
L 226.477914 41.527824 
L 227.493455 35.935547 
L 228.508996 31.468992 
L 229.524576 28.172727 
L 230.032366 26.974288 
L 230.540079 26.080008 
L 231.047869 25.491864 
L 231.555659 25.211467 
L 232.063448 25.239535 
L 232.571238 25.575989 
L 233.079028 26.219997 
L 233.586818 27.169929 
L 234.094608 28.423424 
L 235.110111 31.827495 
L 236.12569 36.398665 
L 237.14127 42.091008 
L 238.15685 48.847583 
L 239.680142 60.826651 
L 241.203512 74.777102 
L 243.234595 95.895019 
L 245.773544 125.137924 
L 252.374658 203.209023 
L 254.405818 224.081906 
L 255.92911 237.797578 
L 257.45248 249.506325 
L 258.46806 256.064753 
L 259.483562 261.546872 
L 260.499142 265.898677 
L 261.514722 269.076179 
L 262.022512 270.214174 
L 262.530302 271.047613 
L 263.038014 271.57435 
L 263.545804 271.793231 
L 264.053594 271.703609 
L 264.561384 271.305705 
L 265.069174 270.60051 
L 265.576964 269.589797 
L 266.592544 266.662676 
L 267.608046 262.553977 
L 268.623704 257.303718 
L 269.639283 250.965486 
L 271.162576 239.559657 
L 272.685946 226.106022 
L 274.717105 205.511733 
L 277.255978 176.675309 
L 284.872672 87.247418 
L 286.903831 67.196685 
L 288.427124 54.249202 
L 289.950493 43.419705 
L 290.966073 37.499456 
L 291.981576 32.689693 
L 292.997155 29.037784 
L 294.012735 26.580676 
L 294.520525 25.80832 
L 295.028315 25.342931 
L 295.536028 25.185669 
L 296.043818 25.336889 
L 296.551607 25.796251 
L 297.059397 26.56261 
L 297.567187 27.634039 
L 298.582767 30.680665 
L 299.59827 34.905291 
L 300.613849 40.266295 
L 301.629429 46.709789 
L 303.152799 58.2609 
L 304.676091 71.839787 
L 306.707251 92.567944 
L 309.246123 121.509833 
L 316.355027 205.40456 
L 318.386187 226.012086 
L 319.909479 239.477509 
L 321.432849 250.898222 
L 322.448429 257.246817 
L 323.464009 262.507652 
L 324.479511 266.627831 
L 325.495091 269.566785 
L 326.002881 270.58351 
L 326.510671 271.294754 
L 327.018461 271.698736 
L 327.526251 271.794451 
L 328.033963 271.581707 
L 328.541753 271.060982 
L 329.049543 270.233585 
L 329.557333 269.10158 
L 330.572913 265.935844 
L 331.588493 261.595432 
L 332.603995 256.124234 
L 333.619575 249.576117 
L 335.142945 237.881511 
L 336.666237 224.178084 
L 338.697397 203.318136 
L 341.236269 174.273662 
L 348.345173 90.492207 
L 350.376333 70.020396 
L 351.899703 56.681439 
L 353.422995 45.407022 
L 354.438575 39.164262 
L 355.454155 34.01501 
L 356.469657 30.011021 
L 357.485237 27.19175 
L 357.993027 26.235792 
L 358.500817 25.585735 
L 359.008607 25.243195 
L 359.516397 25.209034 
L 360.024187 25.483346 
L 360.531899 26.065316 
L 361.039689 26.953679 
L 361.547479 28.146135 
L 362.563059 31.430671 
L 363.578639 35.886062 
L 364.594141 41.467284 
L 365.609721 48.119362 
L 367.133091 59.956309 
L 368.656383 73.782903 
L 370.687543 94.772572 
L 373.226415 123.916736 
L 379.827684 202.092294 
L 381.858766 223.095233 
L 383.382136 236.935916 
L 384.905428 248.787761 
L 385.921008 255.451209 
L 386.936588 261.04486 
L 387.952168 265.512767 
L 388.96767 268.810025 
L 389.47546 270.009111 
L 389.98325 270.904162 
L 390.49104 271.49293 
L 390.99883 271.773938 
L 391.50662 271.746494 
L 392.01441 271.410651 
L 392.5222 270.767267 
L 393.029912 269.818107 
L 393.537702 268.565266 
L 394.553282 265.162173 
L 395.568862 260.592149 
L 396.584442 254.900909 
L 397.599944 248.145921 
L 399.123314 236.16772 
L 400.646684 222.218482 
L 402.677766 201.101844 
L 405.216638 171.860818 
L 411.81783 93.787734 
L 413.848912 72.914281 
L 415.372282 59.196624 
L 416.895652 47.486437 
L 417.911154 40.927421 
L 418.926734 35.443736 
L 419.942314 31.09077 
L 420.957894 27.91207 
L 421.465606 26.773619 
L 421.973396 25.939519 
L 422.481186 25.412062 
L 422.988976 25.192556 
L 423.496766 25.281561 
L 424.004556 25.678848 
L 424.512346 26.383425 
L 425.020136 27.393528 
L 426.035638 30.319179 
L 427.051218 34.426981 
L 428.066798 39.675675 
L 429.082378 46.012768 
L 430.60567 57.417017 
L 432.12904 70.869284 
L 434.160122 91.461284 
L 436.699072 120.297382 
L 444.315766 209.726683 
L 446.346848 229.778254 
L 447.870218 242.727869 
L 449.393587 253.558982 
L 450.40909 259.479988 
L 451.42467 264.29139 
L 452.44025 267.944571 
L 453.455829 270.402987 
L 453.963542 271.175909 
L 454.471332 271.642011 
L 454.979122 271.799985 
L 455.486912 271.649434 
L 455.994702 271.190734 
L 456.502492 270.425044 
L 457.010281 269.354262 
L 458.025784 266.309201 
L 459.041364 262.085553 
L 460.056944 256.725747 
L 461.072523 250.283392 
L 462.595816 238.734486 
L 464.119186 225.156311 
L 466.150268 204.430429 
L 468.689217 175.488828 
L 475.798122 91.592924 
L 477.829281 70.983939 
L 479.352574 57.517149 
L 480.875943 46.094864 
L 481.891523 39.745122 
L 482.907026 34.483441 
L 483.922605 30.361645 
L 484.938185 27.421398 
L 485.445975 26.404019 
L 485.953765 25.692114 
L 486.461478 25.287507 
L 486.969268 25.191079 
L 487.477057 25.403161 
L 487.984847 25.923225 
L 488.492637 26.749961 
L 489.000427 27.881312 
L 490.016007 31.045761 
L 491.03151 35.384549 
L 492.047089 40.854931 
L 493.062669 47.401916 
L 494.585962 59.094324 
L 496.109331 72.797061 
L 498.140491 93.655594 
L 500.679363 122.698973 
L 507.788267 206.481696 
L 509.819427 226.954991 
L 511.342719 240.294698 
L 512.866089 251.571328 
L 513.881669 257.815241 
L 514.897171 262.965353 
L 515.912751 266.970944 
L 516.928331 269.791516 
L 517.436121 270.748128 
L 517.943911 271.398854 
L 518.451701 271.742055 
L 518.959413 271.7769 
L 519.467203 271.503308 
L 519.974993 270.921934 
L 520.482783 270.034232 
L 520.990573 268.842422 
L 522.006153 265.559173 
L 523.021655 261.105406 
L 524.037235 255.524993 
L 525.052815 248.874039 
L 526.576185 237.038628 
L 528.099477 223.213357 
L 530.130637 202.225081 
L 532.669509 173.081981 
L 539.270623 94.907061 
L 541.301783 73.901784 
L 542.825153 60.059683 
L 544.348445 48.206199 
L 545.364102 41.541082 
L 546.379682 35.946241 
L 547.395185 31.477393 
L 548.410764 28.178555 
L 548.918554 26.978808 
L 549.426344 26.083102 
L 549.934134 25.493672 
L 550.441924 25.211996 
L 550.949714 25.238778 
L 551.457427 25.57388 
L 551.965217 26.21655 
L 552.473006 27.165174 
L 552.980796 28.417368 
L 553.996376 31.819175 
L 555.011956 36.387964 
L 556.027458 42.07755 
L 557.043038 48.831892 
L 558.566408 60.808578 
L 560.0897 74.755744 
L 562.12086 95.871772 
L 564.659732 125.111763 
L 571.260924 203.185989 
L 573.292006 224.060849 
L 574.815376 237.779851 
L 576.338668 249.491045 
L 577.354248 256.051729 
L 578.369828 261.536605 
L 579.385408 265.890813 
L 580.40091 269.070608 
L 580.9087 270.209911 
L 581.41649 271.044666 
L 581.92428 271.572792 
L 582.43207 271.792959 
L 582.93986 271.704623 
L 583.44765 271.308005 
L 583.955362 270.604222 
L 584.463152 269.594817 
L 585.478732 266.670291 
L 586.494312 262.563737 
L 587.509814 257.31669 
L 588.525394 250.980832 
L 590.048764 239.577619 
L 591.572056 226.127461 
L 593.095426 210.93135 
L 593.095426 210.93135 
" clip-path="url(#ped751ad227)" style="fill: none; stroke: #0000ff; stroke-width: 2; stroke-linecap: square"/>
   </g>
   <g id="line2d_32">
    <path d="M 85.822699 177.722778 
L 87.85382 151.714103 
L 90.392731 116.116203 
L 93.439393 73.143915 
L 94.962763 54.463151 
L 95.978304 43.955482 
L 96.993884 35.315433 
L 98.009425 28.655373 
L 99.025005 23.954774 
L 99.532756 22.302919 
L 100.040546 21.087664 
L 100.548336 20.283521 
L 101.056126 19.863487 
L 101.563877 19.8 
L 102.071667 20.065809 
L 102.579457 20.634644 
L 103.087247 21.481636 
L 104.102788 23.91979 
L 105.118368 27.219723 
L 106.133909 31.253654 
L 107.65724 38.476964 
L 109.18061 46.926509 
L 110.703941 56.49741 
L 112.735062 70.972172 
L 114.766183 87.504782 
L 116.797304 106.28742 
L 118.828425 127.487832 
L 120.859546 151.059023 
L 124.413998 195.884449 
L 126.445119 220.572323 
L 127.96845 236.72221 
L 128.984029 245.799168 
L 129.999571 253.287507 
L 131.015189 259.095276 
L 132.03073 263.227605 
L 132.53852 264.689192 
L 133.04631 265.767889 
L 133.5541 266.481926 
L 134.061851 266.851071 
L 134.569641 266.895808 
L 135.077431 266.636776 
L 135.585221 266.094171 
L 136.092972 265.287411 
L 137.108552 262.95327 
L 138.124093 259.764112 
L 139.139673 255.825653 
L 140.663004 248.685196 
L 142.186335 240.219798 
L 143.709705 230.518065 
L 145.233036 219.595558 
L 147.264157 203.065689 
L 149.295278 184.144591 
L 151.326399 162.726618 
L 153.35752 138.971581 
L 159.450883 65.381263 
L 160.974214 51.324823 
L 161.989794 43.874863 
L 163.005335 38.085549 
L 164.020915 33.954948 
L 164.528666 32.48915 
L 165.036456 31.403573 
L 165.544246 30.680452 
L 166.052036 30.300547 
L 166.559787 30.243749 
L 167.067577 30.489846 
L 167.575367 31.018934 
L 168.083157 31.811899 
L 169.098698 34.118427 
L 170.114278 37.28095 
L 171.129819 41.194332 
L 172.65315 48.30004 
L 174.17652 56.732431 
L 175.699851 66.399289 
L 177.223182 77.279675 
L 179.254303 93.729454 
L 181.285424 112.52283 
L 183.316545 133.740591 
L 185.347666 157.204213 
L 191.441029 229.672506 
L 192.96436 243.573707 
L 193.97994 250.976547 
L 194.995481 256.760636 
L 196.011061 260.920437 
L 196.518851 262.410776 
L 197.026602 263.525914 
L 197.534392 264.282394 
L 198.042182 264.698415 
L 198.549972 264.793043 
L 199.057723 264.585657 
L 199.565513 264.095381 
L 200.073303 263.340716 
L 201.088844 261.107244 
L 202.104424 258.010684 
L 203.119965 254.154314 
L 204.643373 247.11504 
L 206.166704 238.724387 
L 207.690035 229.072905 
L 209.213366 218.179311 
L 210.736736 206.01125 
L 212.767857 187.70044 
L 214.798978 166.901476 
L 216.830099 143.710038 
L 220.384551 99.637675 
L 222.415672 75.471169 
L 223.939003 59.731093 
L 224.954583 50.916563 
L 225.970124 43.669116 
L 226.985704 38.072592 
L 228.001207 34.117758 
L 228.508996 32.732093 
L 229.016786 31.721123 
L 229.524576 31.06709 
L 230.032366 30.750825 
L 230.540079 30.752486 
L 231.047869 31.052155 
L 231.555659 31.63031 
L 232.063448 32.468269 
L 233.079028 34.854277 
L 234.094608 38.085138 
L 235.110111 42.058919 
L 236.63348 49.246406 
L 238.15685 57.756616 
L 239.680142 67.502939 
L 241.203512 78.46817 
L 243.234595 95.042482 
L 245.265754 113.971275 
L 247.296837 135.322481 
L 249.835786 165.050434 
L 254.405818 220.309293 
L 255.92911 235.853602 
L 256.94469 244.569213 
L 257.96027 251.747661 
L 258.975772 257.304615 
L 259.991352 261.245638 
L 260.499142 262.632332 
L 261.006932 263.648587 
L 261.514722 264.311418 
L 262.022512 264.639199 
L 262.530302 264.651105 
L 263.038014 264.366408 
L 263.545804 263.80404 
L 264.053594 262.982243 
L 265.069174 260.627883 
L 266.084754 257.425649 
L 267.100256 253.475505 
L 268.623704 246.311051 
L 270.147073 237.805707 
L 271.670366 228.042656 
L 273.193736 217.035201 
L 274.717105 204.747605 
L 276.748188 186.267557 
L 278.779347 165.296293 
L 280.81043 141.955597 
L 287.411544 63.238882 
L 288.427124 53.908015 
L 289.442703 46.089719 
L 290.458283 39.902964 
L 291.473786 35.370195 
L 291.981576 33.707977 
L 292.489366 32.431734 
L 292.997155 31.525158 
L 293.504945 30.97003 
L 294.012735 30.746923 
L 294.520525 30.835971 
L 295.028315 31.217302 
L 295.536028 31.87163 
L 296.043818 32.78055 
L 297.059397 35.294376 
L 298.074977 38.636988 
L 299.090557 42.709902 
L 300.613849 50.029449 
L 302.137219 58.660127 
L 303.660512 68.522869 
L 305.183881 79.606011 
L 307.215041 96.345456 
L 309.246123 115.448524 
L 311.277283 136.971312 
L 313.816155 166.860173 
L 318.386187 221.923988 
L 319.909479 237.206855 
L 320.925059 245.706981 
L 321.940639 252.651944 
L 322.956219 257.971099 
L 323.971721 261.681849 
L 324.479511 262.959047 
L 324.987301 263.870584 
L 325.495091 264.433952 
L 326.002881 264.667848 
L 326.510671 264.591485 
L 327.018461 264.224096 
L 327.526251 263.584446 
L 328.033963 262.690475 
L 329.049543 260.205784 
L 330.065123 256.889167 
L 331.080703 252.837259 
L 332.603995 245.53685 
L 334.127365 236.907194 
L 335.650735 227.023784 
L 337.174027 215.894222 
L 339.205187 199.044672 
L 341.236269 179.766092 
L 343.267429 157.997871 
L 345.806301 127.733346 
L 349.868543 77.891514 
L 351.391913 61.790554 
L 352.407415 52.669505 
L 353.422995 45.084525 
L 354.438575 39.140126 
L 355.454155 34.84559 
L 355.961945 33.297637 
L 356.469657 32.131132 
L 356.977447 31.329135 
L 357.485237 30.872999 
L 357.993027 30.743101 
L 358.500817 30.919508 
L 359.008607 31.382523 
L 359.516397 32.11303 
L 360.531899 34.305395 
L 361.547479 37.367074 
L 362.563059 41.191216 
L 364.086429 48.180607 
L 365.609721 56.511904 
L 367.133091 66.087097 
L 368.656383 76.880485 
L 370.687543 93.215565 
L 372.718625 111.891786 
L 374.749862 132.991723 
L 376.780944 156.348525 
L 382.874346 228.839075 
L 384.397716 242.869872 
L 385.413218 250.378107 
L 386.428798 256.274836 
L 387.444378 260.547941 
L 387.952168 262.093475 
L 388.459958 263.262104 
L 388.96767 264.070025 
L 389.47546 264.535142 
L 389.98325 264.676374 
L 390.49104 264.51299 
L 390.99883 264.064131 
L 391.50662 263.34836 
L 392.5222 261.185496 
L 393.537702 258.15107 
L 394.553282 254.349764 
L 396.076652 247.383127 
L 397.599944 239.057321 
L 399.123314 229.466818 
L 400.646684 218.633411 
L 402.169976 206.526882 
L 404.201136 188.30171 
L 406.232218 167.590147 
L 408.263378 144.477646 
L 411.81783 100.454199 
L 413.848912 76.216676 
L 415.372282 60.368524 
L 416.387862 51.461652 
L 417.403364 44.112273 
L 418.418944 38.410559 
L 419.434524 34.352882 
L 419.942314 32.91804 
L 420.450104 31.859929 
L 420.957894 31.161011 
L 421.465606 30.802281 
L 421.973396 30.763974 
L 422.481186 31.026166 
L 422.988976 31.569308 
L 423.496766 32.374539 
L 424.512346 34.701521 
L 425.527848 37.880728 
L 426.543428 41.80878 
L 428.066798 48.935662 
L 429.59009 57.391146 
L 431.11346 67.085183 
L 432.63683 77.997996 
L 434.667912 94.49951 
L 436.699072 113.351653 
L 438.730154 134.626857 
L 441.269103 164.280904 
L 445.839058 219.607979 
L 447.362428 235.259373 
L 448.378008 244.064878 
L 449.393587 251.341775 
L 450.40909 256.999897 
L 451.42467 261.039561 
L 451.93246 262.473366 
L 452.44025 263.534792 
L 452.948039 264.240596 
L 453.455829 264.609051 
L 453.963542 264.659234 
L 454.471332 264.410448 
L 454.979122 263.881675 
L 455.486912 263.091253 
L 456.502492 260.793596 
L 457.518071 257.641083 
L 458.533574 253.735103 
L 460.056944 246.629446 
L 461.580313 238.177571 
L 463.103606 228.466005 
L 464.626975 217.510534 
L 466.150268 205.277032 
L 468.181428 186.87305 
L 470.21251 165.979058 
L 472.243669 142.705743 
L 478.844784 63.860761 
L 479.860363 54.442873 
L 480.875943 46.526981 
L 481.891523 40.238087 
L 482.907026 35.604356 
L 483.922605 32.570511 
L 484.430395 31.619293 
L 484.938185 31.02183 
L 485.445975 30.758829 
L 485.953765 30.810431 
L 486.461478 31.156741 
L 486.969268 31.778392 
L 487.477057 32.656855 
L 488.492637 35.115749 
L 489.508217 38.410295 
L 490.52372 42.440536 
L 492.047089 49.703226 
L 493.570459 58.28206 
L 495.093752 68.09475 
L 496.617121 79.127282 
L 498.648204 95.795964 
L 500.679363 114.824496 
L 502.710446 136.274042 
L 505.249395 166.094436 
L 509.819427 221.241725 
L 511.342719 236.635594 
L 512.358299 245.22698 
L 513.373879 252.270657 
L 514.389459 257.690208 
L 515.404961 261.498063 
L 515.912751 262.82141 
L 516.420541 263.777067 
L 516.928331 264.382313 
L 517.436121 264.65575 
L 517.943911 264.616547 
L 518.451701 264.283974 
L 518.959413 263.676861 
L 519.467203 262.813281 
L 520.482783 260.383469 
L 521.498363 257.115052 
L 522.513943 253.106051 
L 524.037235 245.863029 
L 525.560605 237.285908 
L 527.083897 227.453395 
L 528.607267 216.375501 
L 530.130637 204.014434 
L 532.161719 185.430962 
L 534.192879 164.354994 
L 536.223961 140.924068 
L 542.317363 67.514272 
L 543.840655 53.18804 
L 544.856312 45.504522 
L 545.871892 39.458021 
L 546.887472 35.063287 
L 547.395185 33.467348 
L 547.902975 32.254768 
L 548.410764 31.408901 
L 548.918554 30.911247 
L 549.426344 30.742278 
L 549.934134 30.882076 
L 550.441924 31.310849 
L 550.949714 32.009443 
L 551.965217 34.144313 
L 552.980796 37.155829 
L 553.996376 40.935697 
L 555.519669 47.866666 
L 557.043038 56.145412 
L 558.566408 65.670502 
L 560.0897 76.413692 
L 562.12086 92.67892 
L 564.151942 111.281237 
L 566.183102 132.307161 
L 568.214184 155.601498 
L 574.307586 228.200784 
L 575.830878 242.357158 
L 576.846458 249.9621 
L 577.862038 255.959204 
L 578.877618 260.331007 
L 579.385408 261.923904 
L 579.89312 263.138086 
L 580.40091 263.989458 
L 580.9087 264.495748 
L 581.41649 264.675786 
L 581.92428 264.548842 
L 582.43207 264.1341 
L 582.93986 263.450182 
L 583.44765 262.514906 
L 584.463152 259.95552 
L 585.478732 256.573292 
L 586.494312 252.462895 
L 588.017604 245.084095 
L 589.540974 236.382441 
L 591.064266 226.429085 
L 592.587636 215.2284 
L 593.095426 211.211403 
L 593.095426 211.211403 
" clip-path="url(#ped751ad227)" style="fill: none; stroke-dasharray: 7.4,3.2; stroke-dashoffset: 0; stroke: #ff0000; stroke-width: 2"/>
   </g>
   <g id="patch_3">
    <path d="M 60.459063 284.4 
L 60.459063 7.2 
" style="fill: none; stroke: #000000; stroke-width: 0.8; stroke-linejoin: miter; stroke-linecap: square"/>
   </g>
   <g id="patch_4">
    <path d="M 618.459062 284.4 
L 618.459062 7.2 
" style="fill: none; stroke: #000000; stroke-width: 0.8; stroke-linejoin: miter; stroke-linecap: square"/>
   </g>
   <g id="patch_5">
    <path d="M 60.459063 284.4 
L 618.459063 284.4 
" style="fill: none; stroke: #000000; stroke-width: 0.8; stroke-linejoin: miter; stroke-linecap: square"/>
   </g>
   <g id="patch_6">
    <path d="M 60.459063 7.2 
L 618.459063 7.2 
" style="fill: none; stroke: #000000; stroke-width: 0.8; stroke-linejoin: miter; stroke-linecap: square"/>
   </g>
   <g id="legend_1">
    <g id="patch_7">
     <path d="M 537.155937 44.55625 
L 611.459062 44.55625 
Q 613.459062 44.55625 613.459062 42.55625 
L 613.459062 14.2 
Q 613.459062 12.2 611.459062 12.2 
L 537.155937 12.2 
Q 535.155937 12.2 535.155937 14.2 
L 535.155937 42.55625 
Q 535.155937 44.55625 537.155937 44.55625 
z
" style="fill: #ffffff; opacity: 0.8; stroke: #cccccc; stroke-linejoin: miter"/>
    </g>
    <g id="line2d_33">
     <path d="M 539.155937 20.298437 
L 549.155937 20.298437 
L 559.155937 20.298437 
" style="fill: none; stroke: #0000ff; stroke-width: 2; stroke-linecap: square"/>
    </g>
    <g id="text_18">
     <!-- Actual -->
     <g transform="translate(567.155937 23.798437)scale(0.1 -0.1)">
      <defs>
       <path id="DejaVuSans-41" d="M 2188 4044 
L 1331 1722 
L 3047 1722 
L 2188 4044 
z
M 1831 4666 
L 2547 4666 
L 4325 0 
L 3669 0 
L 3244 1197 
L 1141 1197 
L 716 0 
L 50 0 
L 1831 4666 
z
" transform="scale(0.015625)"/>
       <path id="DejaVuSans-63" d="M 3122 3366 
L 3122 2828 
Q 2878 2963 2633 3030 
Q 2388 3097 2138 3097 
Q 1578 3097 1268 2742 
Q 959 2388 959 1747 
Q 959 1106 1268 751 
Q 1578 397 2138 397 
Q 2388 397 2633 464 
Q 2878 531 3122 666 
L 3122 134 
Q 2881 22 2623 -34 
Q 2366 -91 2075 -91 
Q 1284 -91 818 406 
Q 353 903 353 1747 
Q 353 2603 823 3093 
Q 1294 3584 2113 3584 
Q 2378 3584 2631 3529 
Q 2884 3475 3122 3366 
z
" transform="scale(0.015625)"/>
       <path id="DejaVuSans-75" d="M 544 1381 
L 544 3500 
L 1119 3500 
L 1119 1403 
Q 1119 906 1312 657 
Q 1506 409 1894 409 
Q 2359 409 2629 706 
Q 2900 1003 2900 1516 
L 2900 3500 
L 3475 3500 
L 3475 0 
L 2900 0 
L 2900 538 
Q 2691 219 2414 64 
Q 2138 -91 1772 -91 
Q 1169 -91 856 284 
Q 544 659 544 1381 
z
M 1991 3584 
L 1991 3584 
z
" transform="scale(0.015625)"/>
       <path id="DejaVuSans-61" d="M 2194 1759 
Q 1497 1759 1228 1600 
Q 959 1441 959 1056 
Q 959 750 1161 570 
Q 1363 391 1709 391 
Q 2188 391 2477 730 
Q 2766 1069 2766 1631 
L 2766 1759 
L 2194 1759 
z
M 3341 1997 
L 3341 0 
L 2766 0 
L 2766 531 
Q 2569 213 2275 61 
Q 1981 -91 1556 -91 
Q 1019 -91 701 211 
Q 384 513 384 1019 
Q 384 1609 779 1909 
Q 1175 2209 1959 2209 
L 2766 2209 
L 2766 2266 
Q 2766 2663 2505 2880 
Q 2244 3097 1772 3097 
Q 1472 3097 1187 3025 
Q 903 2953 641 2809 
L 641 3341 
Q 956 3463 1253 3523 
Q 1550 3584 1831 3584 
Q 2591 3584 2966 3190 
Q 3341 2797 3341 1997 
z
" transform="scale(0.015625)"/>
       <path id="DejaVuSans-6c" d="M 603 4863 
L 1178 4863 
L 1178 0 
L 603 0 
L 603 4863 
z
" transform="scale(0.015625)"/>
      </defs>
      <use xlink:href="#DejaVuSans-41"/>
      <use xlink:href="#DejaVuSans-63" x="66.658203"/>
      <use xlink:href="#DejaVuSans-74" x="121.638672"/>
      <use xlink:href="#DejaVuSans-75" x="160.847656"/>
      <use xlink:href="#DejaVuSans-61" x="224.226562"/>
      <use xlink:href="#DejaVuSans-6c" x="285.505859"/>
     </g>
    </g>
    <g id="line2d_34">
     <path d="M 539.155937 34.976562 
L 549.155937 34.976562 
L 559.155937 34.976562 
" style="fill: none; stroke-dasharray: 7.4,3.2; stroke-dashoffset: 0; stroke: #ff0000; stroke-width: 2"/>
    </g>
    <g id="text_19">
     <!-- Forecast -->
     <g transform="translate(567.155937 38.476562)scale(0.1 -0.1)">
      <defs>
       <path id="DejaVuSans-46" d="M 628 4666 
L 3309 4666 
L 3309 4134 
L 1259 4134 
L 1259 2759 
L 3109 2759 
L 3109 2228 
L 1259 2228 
L 1259 0 
L 628 0 
L 628 4666 
z
" transform="scale(0.015625)"/>
       <path id="DejaVuSans-6f" d="M 1959 3097 
Q 1497 3097 1228 2736 
Q 959 2375 959 1747 
Q 959 1119 1226 758 
Q 1494 397 1959 397 
Q 2419 397 2687 759 
Q 2956 1122 2956 1747 
Q 2956 2369 2687 2733 
Q 2419 3097 1959 3097 
z
M 1959 3584 
Q 2709 3584 3137 3096 
Q 3566 2609 3566 1747 
Q 3566 888 3137 398 
Q 2709 -91 1959 -91 
Q 1206 -91 779 398 
Q 353 888 353 1747 
Q 353 2609 779 3096 
Q 1206 3584 1959 3584 
z
" transform="scale(0.015625)"/>
       <path id="DejaVuSans-72" d="M 2631 2963 
Q 2534 3019 2420 3045 
Q 2306 3072 2169 3072 
Q 1681 3072 1420 2755 
Q 1159 2438 1159 1844 
L 1159 0 
L 581 0 
L 581 3500 
L 1159 3500 
L 1159 2956 
Q 1341 3275 1631 3429 
Q 1922 3584 2338 3584 
Q 2397 3584 2469 3576 
Q 2541 3569 2628 3553 
L 2631 2963 
z
" transform="scale(0.015625)"/>
      </defs>
      <use xlink:href="#DejaVuSans-46"/>
      <use xlink:href="#DejaVuSans-6f" x="53.894531"/>
      <use xlink:href="#DejaVuSans-72" x="115.076172"/>
      <use xlink:href="#DejaVuSans-65" x="153.939453"/>
      <use xlink:href="#DejaVuSans-63" x="215.462891"/>
      <use xlink:href="#DejaVuSans-61" x="270.443359"/>
      <use xlink:href="#DejaVuSans-73" x="331.722656"/>
      <use xlink:href="#DejaVuSans-74" x="383.822266"/>
     </g>
    </g>
   </g>
  </g>
 </g>
 <defs>
  <clipPath id="ped751ad227">
   <rect x="60.459063" y="7.2" width="558" height="277.2"/>
  </clipPath>
 </defs>
</svg>
