<?xml version="1.0" encoding="utf-8" standalone="no"?>
<!DOCTYPE svg PUBLIC "-//W3C//DTD SVG 1.1//EN"
  "http://www.w3.org/Graphics/SVG/1.1/DTD/svg11.dtd">
<svg xmlns:xlink="http://www.w3.org/1999/xlink" width="625.659063pt" height="323.891875pt" viewBox="0 0 625.659063 323.891875" xmlns="http://www.w3.org/2000/svg" version="1.1">
 <metadata>
  <rdf:RDF xmlns:dc="http://purl.org/dc/elements/1.1/" xmlns:cc="http://creativecommons.org/ns#" xmlns:rdf="http://www.w3.org/1999/02/22-rdf-syntax-ns#">
   <cc:Work>
    <dc:type rdf:resource="http://purl.org/dc/dcmitype/StillImage"/>
    <dc:date>2025-11-10T22:27:35.553684</dc:date>
    <dc:format>image/svg+xml</dc:format>
    <dc:creator>
     <cc:Agent>
      <dc:title>Matplotlib v3.5.1, https://matplotlib.org/</dc:title>
     </cc:Agent>
    </dc:creator>
   </cc:Work>
  </rdf:RDF>
 </metadata>
 <defs>
  <style type="text/css">*{stroke-linejoin: round; stroke-linecap: butt}</style>
 </defs>
 <g id="figure_1">
  <g id="patch_1">
   <path d="M 0 323.891875 
L 625.659063 323.891875 
L 625.659063 0 
L 0 0 
z
" style="fill: #ffffff"/>
  </g>
  <g id="axes_1">
   <g id="patch_2">
    <path d="M 60.459063 284.4 
L 618.459062 284.4 
L 618.459062 7.2 
L 60.459063 7.2 
z
" style="fill: #ffffff"/>
   </g>
   <g id="matplotlib.axis_1">
    <g id="xtick_1">
     <g id="line2d_1">
      <path d="M 134.638241 284.4 
L 134.638241 7.2 
" clip-path="url(#pc228255da9)" style="fill: none; stroke: #b0b0b0; stroke-width: 0.8; stroke-linecap: square"/>
     </g>
     <g id="line2d_2">
      <defs>
       <path id="m21ec2284a2" d="M 0 0 
L 0 3.5 
" style="stroke: #000000; stroke-width: 0.8"/>
      </defs>
      <g>
       <use xlink:href="#m21ec2284a2" x="134.638241" y="284.4" style="stroke: #000000; stroke-width: 0.8"/>
      </g>
     </g>
     <g id="text_1">
      <!-- 85.0 -->
      <g transform="translate(123.505428 298.998438)scale(0.1 -0.1)">
       <defs>
        <path id="DejaVuSans-38" d="M 2034 2216 
Q 1584 2216 1326 1975 
Q 1069 1734 1069 1313 
Q 1069 891 1326 650 
Q 1584 409 2034 409 
Q 2484 409 2743 651 
Q 3003 894 3003 1313 
Q 3003 1734 2745 1975 
Q 2488 2216 2034 2216 
z
M 1403 2484 
Q 997 2584 770 2862 
Q 544 3141 544 3541 
Q 544 4100 942 4425 
Q 1341 4750 2034 4750 
Q 2731 4750 3128 4425 
Q 3525 4100 3525 3541 
Q 3525 3141 3298 2862 
Q 3072 2584 2669 2484 
Q 3125 2378 3379 2068 
Q 3634 1759 3634 1313 
Q 3634 634 3220 271 
Q 2806 -91 2034 -91 
Q 1263 -91 848 271 
Q 434 634 434 1313 
Q 434 1759 690 2068 
Q 947 2378 1403 2484 
z
M 1172 3481 
Q 1172 3119 1398 2916 
Q 1625 2713 2034 2713 
Q 2441 2713 2670 2916 
Q 2900 3119 2900 3481 
Q 2900 3844 2670 4047 
Q 2441 4250 2034 4250 
Q 1625 4250 1398 4047 
Q 1172 3844 1172 3481 
z
" transform="scale(0.015625)"/>
        <path id="DejaVuSans-35" d="M 691 4666 
L 3169 4666 
L 3169 4134 
L 1269 4134 
L 1269 2991 
Q 1406 3038 1543 3061 
Q 1681 3084 1819 3084 
Q 2600 3084 3056 2656 
Q 3513 2228 3513 1497 
Q 3513 744 3044 326 
Q 2575 -91 1722 -91 
Q 1428 -91 1123 -41 
Q 819 9 494 109 
L 494 744 
Q 775 591 1075 516 
Q 1375 441 1709 441 
Q 2250 441 2565 725 
Q 2881 1009 2881 1497 
Q 2881 1984 2565 2268 
Q 2250 2553 1709 2553 
Q 1456 2553 1204 2497 
Q 953 2441 691 2322 
L 691 4666 
z
" transform="scale(0.015625)"/>
        <path id="DejaVuSans-2e" d="M 684 794 
L 1344 794 
L 1344 0 
L 684 0 
L 684 794 
z
" transform="scale(0.015625)"/>
        <path id="DejaVuSans-30" d="M 2034 4250 
Q 1547 4250 1301 3770 
Q 1056 3291 1056 2328 
Q 1056 1369 1301 889 
Q 1547 409 2034 409 
Q 2525 409 2770 889 
Q 3016 1369 3016 2328 
Q 3016 3291 2770 3770 
Q 2525 4250 2034 4250 
z
M 2034 4750 
Q 2819 4750 3233 4129 
Q 3647 3509 3647 2328 
Q 3647 1150 3233 529 
Q 2819 -91 2034 -91 
Q 1250 -91 836 529 
Q 422 1150 422 2328 
Q 422 3509 836 4129 
Q 1250 4750 2034 4750 
z
" transform="scale(0.015625)"/>
       </defs>
       <use xlink:href="#DejaVuSans-38"/>
       <use xlink:href="#DejaVuSans-35" x="63.623047"/>
       <use xlink:href="#DejaVuSans-2e" x="127.246094"/>
       <use xlink:href="#DejaVuSans-30" x="159.033203"/>
      </g>
     </g>
    </g>
    <g id="xtick_2">
     <g id="line2d_3">
      <path d="M 211.047772 284.4 
L 211.047772 7.2 
" clip-path="url(#pc228255da9)" style="fill: none; stroke: #b0b0b0; stroke-width: 0.8; stroke-linecap: square"/>
     </g>
     <g id="line2d_4">
      <g>
       <use xlink:href="#m21ec2284a2" x="211.047772" y="284.4" style="stroke: #000000; stroke-width: 0.8"/>
      </g>
     </g>
     <g id="text_2">
      <!-- 87.5 -->
      <g transform="translate(199.914959 298.998438)scale(0.1 -0.1)">
       <defs>
        <path id="DejaVuSans-37" d="M 525 4666 
L 3525 4666 
L 3525 4397 
L 1831 0 
L 1172 0 
L 2766 4134 
L 525 4134 
L 525 4666 
z
" transform="scale(0.015625)"/>
       </defs>
       <use xlink:href="#DejaVuSans-38"/>
       <use xlink:href="#DejaVuSans-37" x="63.623047"/>
       <use xlink:href="#DejaVuSans-2e" x="127.246094"/>
       <use xlink:href="#DejaVuSans-35" x="159.033203"/>
      </g>
     </g>
    </g>
    <g id="xtick_3">
     <g id="line2d_5">
      <path d="M 287.457303 284.4 
L 287.457303 7.2 
" clip-path="url(#pc228255da9)" style="fill: none; stroke: #b0b0b0; stroke-width: 0.8; stroke-linecap: square"/>
     </g>
     <g id="line2d_6">
      <g>
       <use xlink:href="#m21ec2284a2" x="287.457303" y="284.4" style="stroke: #000000; stroke-width: 0.8"/>
      </g>
     </g>
     <g id="text_3">
      <!-- 90.0 -->
      <g transform="translate(276.32449 298.998438)scale(0.1 -0.1)">
       <defs>
        <path id="DejaVuSans-39" d="M 703 97 
L 703 672 
Q 941 559 1184 500 
Q 1428 441 1663 441 
Q 2288 441 2617 861 
Q 2947 1281 2994 2138 
Q 2813 1869 2534 1725 
Q 2256 1581 1919 1581 
Q 1219 1581 811 2004 
Q 403 2428 403 3163 
Q 403 3881 828 4315 
Q 1253 4750 1959 4750 
Q 2769 4750 3195 4129 
Q 3622 3509 3622 2328 
Q 3622 1225 3098 567 
Q 2575 -91 1691 -91 
Q 1453 -91 1209 -44 
Q 966 3 703 97 
z
M 1959 2075 
Q 2384 2075 2632 2365 
Q 2881 2656 2881 3163 
Q 2881 3666 2632 3958 
Q 2384 4250 1959 4250 
Q 1534 4250 1286 3958 
Q 1038 3666 1038 3163 
Q 1038 2656 1286 2365 
Q 1534 2075 1959 2075 
z
" transform="scale(0.015625)"/>
       </defs>
       <use xlink:href="#DejaVuSans-39"/>
       <use xlink:href="#DejaVuSans-30" x="63.623047"/>
       <use xlink:href="#DejaVuSans-2e" x="127.246094"/>
       <use xlink:href="#DejaVuSans-30" x="159.033203"/>
      </g>
     </g>
    </g>
    <g id="xtick_4">
     <g id="line2d_7">
      <path d="M 363.866834 284.4 
L 363.866834 7.2 
" clip-path="url(#pc228255da9)" style="fill: none; stroke: #b0b0b0; stroke-width: 0.8; stroke-linecap: square"/>
     </g>
     <g id="line2d_8">
      <g>
       <use xlink:href="#m21ec2284a2" x="363.866834" y="284.4" style="stroke: #000000; stroke-width: 0.8"/>
      </g>
     </g>
     <g id="text_4">
      <!-- 92.5 -->
      <g transform="translate(352.734021 298.998438)scale(0.1 -0.1)">
       <defs>
        <path id="DejaVuSans-32" d="M 1228 531 
L 3431 531 
L 3431 0 
L 469 0 
L 469 531 
Q 828 903 1448 1529 
Q 2069 2156 2228 2338 
Q 2531 2678 2651 2914 
Q 2772 3150 2772 3378 
Q 2772 3750 2511 3984 
Q 2250 4219 1831 4219 
Q 1534 4219 1204 4116 
Q 875 4013 500 3803 
L 500 4441 
Q 881 4594 1212 4672 
Q 1544 4750 1819 4750 
Q 2544 4750 2975 4387 
Q 3406 4025 3406 3419 
Q 3406 3131 3298 2873 
Q 3191 2616 2906 2266 
Q 2828 2175 2409 1742 
Q 1991 1309 1228 531 
z
" transform="scale(0.015625)"/>
       </defs>
       <use xlink:href="#DejaVuSans-39"/>
       <use xlink:href="#DejaVuSans-32" x="63.623047"/>
       <use xlink:href="#DejaVuSans-2e" x="127.246094"/>
       <use xlink:href="#DejaVuSans-35" x="159.033203"/>
      </g>
     </g>
    </g>
    <g id="xtick_5">
     <g id="line2d_9">
      <path d="M 440.276364 284.4 
L 440.276364 7.2 
" clip-path="url(#pc228255da9)" style="fill: none; stroke: #b0b0b0; stroke-width: 0.8; stroke-linecap: square"/>
     </g>
     <g id="line2d_10">
      <g>
       <use xlink:href="#m21ec2284a2" x="440.276364" y="284.4" style="stroke: #000000; stroke-width: 0.8"/>
      </g>
     </g>
     <g id="text_5">
      <!-- 95.0 -->
      <g transform="translate(429.143552 298.998438)scale(0.1 -0.1)">
       <use xlink:href="#DejaVuSans-39"/>
       <use xlink:href="#DejaVuSans-35" x="63.623047"/>
       <use xlink:href="#DejaVuSans-2e" x="127.246094"/>
       <use xlink:href="#DejaVuSans-30" x="159.033203"/>
      </g>
     </g>
    </g>
    <g id="xtick_6">
     <g id="line2d_11">
      <path d="M 516.685895 284.4 
L 516.685895 7.2 
" clip-path="url(#pc228255da9)" style="fill: none; stroke: #b0b0b0; stroke-width: 0.8; stroke-linecap: square"/>
     </g>
     <g id="line2d_12">
      <g>
       <use xlink:href="#m21ec2284a2" x="516.685895" y="284.4" style="stroke: #000000; stroke-width: 0.8"/>
      </g>
     </g>
     <g id="text_6">
      <!-- 97.5 -->
      <g transform="translate(505.553083 298.998438)scale(0.1 -0.1)">
       <use xlink:href="#DejaVuSans-39"/>
       <use xlink:href="#DejaVuSans-37" x="63.623047"/>
       <use xlink:href="#DejaVuSans-2e" x="127.246094"/>
       <use xlink:href="#DejaVuSans-35" x="159.033203"/>
      </g>
     </g>
    </g>
    <g id="xtick_7">
     <g id="line2d_13">
      <path d="M 593.095426 284.4 
L 593.095426 7.2 
" clip-path="url(#pc228255da9)" style="fill: none; stroke: #b0b0b0; stroke-width: 0.8; stroke-linecap: square"/>
     </g>
     <g id="line2d_14">
      <g>
       <use xlink:href="#m21ec2284a2" x="593.095426" y="284.4" style="stroke: #000000; stroke-width: 0.8"/>
      </g>
     </g>
     <g id="text_7">
      <!-- 100.0 -->
      <g transform="translate(578.781364 298.998438)scale(0.1 -0.1)">
       <defs>
        <path id="DejaVuSans-31" d="M 794 531 
L 1825 531 
L 1825 4091 
L 703 3866 
L 703 4441 
L 1819 4666 
L 2450 4666 
L 2450 531 
L 3481 531 
L 3481 0 
L 794 0 
L 794 531 
z
" transform="scale(0.015625)"/>
       </defs>
       <use xlink:href="#DejaVuSans-31"/>
       <use xlink:href="#DejaVuSans-30" x="63.623047"/>
       <use xlink:href="#DejaVuSans-30" x="127.246094"/>
       <use xlink:href="#DejaVuSans-2e" x="190.869141"/>
       <use xlink:href="#DejaVuSans-30" x="222.65625"/>
      </g>
     </g>
    </g>
    <g id="text_8">
     <!-- x (Time Step) -->
     <g transform="translate(299.069687 314.19625)scale(0.12 -0.12)">
      <defs>
       <path id="DejaVuSans-78" d="M 3513 3500 
L 2247 1797 
L 3578 0 
L 2900 0 
L 1881 1375 
L 863 0 
L 184 0 
L 1544 1831 
L 300 3500 
L 978 3500 
L 1906 2253 
L 2834 3500 
L 3513 3500 
z
" transform="scale(0.015625)"/>
       <path id="DejaVuSans-20" transform="scale(0.015625)"/>
       <path id="DejaVuSans-28" d="M 1984 4856 
Q 1566 4138 1362 3434 
Q 1159 2731 1159 2009 
Q 1159 1288 1364 580 
Q 1569 -128 1984 -844 
L 1484 -844 
Q 1016 -109 783 600 
Q 550 1309 550 2009 
Q 550 2706 781 3412 
Q 1013 4119 1484 4856 
L 1984 4856 
z
" transform="scale(0.015625)"/>
       <path id="DejaVuSans-54" d="M -19 4666 
L 3928 4666 
L 3928 4134 
L 2272 4134 
L 2272 0 
L 1638 0 
L 1638 4134 
L -19 4134 
L -19 4666 
z
" transform="scale(0.015625)"/>
       <path id="DejaVuSans-69" d="M 603 3500 
L 1178 3500 
L 1178 0 
L 603 0 
L 603 3500 
z
M 603 4863 
L 1178 4863 
L 1178 4134 
L 603 4134 
L 603 4863 
z
" transform="scale(0.015625)"/>
       <path id="DejaVuSans-6d" d="M 3328 2828 
Q 3544 3216 3844 3400 
Q 4144 3584 4550 3584 
Q 5097 3584 5394 3201 
Q 5691 2819 5691 2113 
L 5691 0 
L 5113 0 
L 5113 2094 
Q 5113 2597 4934 2840 
Q 4756 3084 4391 3084 
Q 3944 3084 3684 2787 
Q 3425 2491 3425 1978 
L 3425 0 
L 2847 0 
L 2847 2094 
Q 2847 2600 2669 2842 
Q 2491 3084 2119 3084 
Q 1678 3084 1418 2786 
Q 1159 2488 1159 1978 
L 1159 0 
L 581 0 
L 581 3500 
L 1159 3500 
L 1159 2956 
Q 1356 3278 1631 3431 
Q 1906 3584 2284 3584 
Q 2666 3584 2933 3390 
Q 3200 3197 3328 2828 
z
" transform="scale(0.015625)"/>
       <path id="DejaVuSans-65" d="M 3597 1894 
L 3597 1613 
L 953 1613 
Q 991 1019 1311 708 
Q 1631 397 2203 397 
Q 2534 397 2845 478 
Q 3156 559 3463 722 
L 3463 178 
Q 3153 47 2828 -22 
Q 2503 -91 2169 -91 
Q 1331 -91 842 396 
Q 353 884 353 1716 
Q 353 2575 817 3079 
Q 1281 3584 2069 3584 
Q 2775 3584 3186 3129 
Q 3597 2675 3597 1894 
z
M 3022 2063 
Q 3016 2534 2758 2815 
Q 2500 3097 2075 3097 
Q 1594 3097 1305 2825 
Q 1016 2553 972 2059 
L 3022 2063 
z
" transform="scale(0.015625)"/>
       <path id="DejaVuSans-53" d="M 3425 4513 
L 3425 3897 
Q 3066 4069 2747 4153 
Q 2428 4238 2131 4238 
Q 1616 4238 1336 4038 
Q 1056 3838 1056 3469 
Q 1056 3159 1242 3001 
Q 1428 2844 1947 2747 
L 2328 2669 
Q 3034 2534 3370 2195 
Q 3706 1856 3706 1288 
Q 3706 609 3251 259 
Q 2797 -91 1919 -91 
Q 1588 -91 1214 -16 
Q 841 59 441 206 
L 441 856 
Q 825 641 1194 531 
Q 1563 422 1919 422 
Q 2459 422 2753 634 
Q 3047 847 3047 1241 
Q 3047 1584 2836 1778 
Q 2625 1972 2144 2069 
L 1759 2144 
Q 1053 2284 737 2584 
Q 422 2884 422 3419 
Q 422 4038 858 4394 
Q 1294 4750 2059 4750 
Q 2388 4750 2728 4690 
Q 3069 4631 3425 4513 
z
" transform="scale(0.015625)"/>
       <path id="DejaVuSans-74" d="M 1172 4494 
L 1172 3500 
L 2356 3500 
L 2356 3053 
L 1172 3053 
L 1172 1153 
Q 1172 725 1289 603 
Q 1406 481 1766 481 
L 2356 481 
L 2356 0 
L 1766 0 
Q 1100 0 847 248 
Q 594 497 594 1153 
L 594 3053 
L 172 3053 
L 172 3500 
L 594 3500 
L 594 4494 
L 1172 4494 
z
" transform="scale(0.015625)"/>
       <path id="DejaVuSans-70" d="M 1159 525 
L 1159 -1331 
L 581 -1331 
L 581 3500 
L 1159 3500 
L 1159 2969 
Q 1341 3281 1617 3432 
Q 1894 3584 2278 3584 
Q 2916 3584 3314 3078 
Q 3713 2572 3713 1747 
Q 3713 922 3314 415 
Q 2916 -91 2278 -91 
Q 1894 -91 1617 61 
Q 1341 213 1159 525 
z
M 3116 1747 
Q 3116 2381 2855 2742 
Q 2594 3103 2138 3103 
Q 1681 3103 1420 2742 
Q 1159 2381 1159 1747 
Q 1159 1113 1420 752 
Q 1681 391 2138 391 
Q 2594 391 2855 752 
Q 3116 1113 3116 1747 
z
" transform="scale(0.015625)"/>
       <path id="DejaVuSans-29" d="M 513 4856 
L 1013 4856 
Q 1481 4119 1714 3412 
Q 1947 2706 1947 2009 
Q 1947 1309 1714 600 
Q 1481 -109 1013 -844 
L 513 -844 
Q 928 -128 1133 580 
Q 1338 1288 1338 2009 
Q 1338 2731 1133 3434 
Q 928 4138 513 4856 
z
" transform="scale(0.015625)"/>
      </defs>
      <use xlink:href="#DejaVuSans-78"/>
      <use xlink:href="#DejaVuSans-20" x="59.179688"/>
      <use xlink:href="#DejaVuSans-28" x="90.966797"/>
      <use xlink:href="#DejaVuSans-54" x="129.980469"/>
      <use xlink:href="#DejaVuSans-69" x="187.939453"/>
      <use xlink:href="#DejaVuSans-6d" x="215.722656"/>
      <use xlink:href="#DejaVuSans-65" x="313.134766"/>
      <use xlink:href="#DejaVuSans-20" x="374.658203"/>
      <use xlink:href="#DejaVuSans-53" x="406.445312"/>
      <use xlink:href="#DejaVuSans-74" x="469.921875"/>
      <use xlink:href="#DejaVuSans-65" x="509.130859"/>
      <use xlink:href="#DejaVuSans-70" x="570.654297"/>
      <use xlink:href="#DejaVuSans-29" x="634.130859"/>
     </g>
    </g>
   </g>
   <g id="matplotlib.axis_2">
    <g id="ytick_1">
     <g id="line2d_15">
      <path d="M 60.459063 271.808382 
L 618.459062 271.808382 
" clip-path="url(#pc228255da9)" style="fill: none; stroke: #b0b0b0; stroke-width: 0.8; stroke-linecap: square"/>
     </g>
     <g id="line2d_16">
      <defs>
       <path id="m90aadc3c57" d="M 0 0 
L -3.5 0 
" style="stroke: #000000; stroke-width: 0.8"/>
      </defs>
      <g>
       <use xlink:href="#m90aadc3c57" x="60.459063" y="271.808382" style="stroke: #000000; stroke-width: 0.8"/>
      </g>
     </g>
     <g id="text_9">
      <!-- −1.00 -->
      <g transform="translate(22.81375 275.607601)scale(0.1 -0.1)">
       <defs>
        <path id="DejaVuSans-2212" d="M 678 2272 
L 4684 2272 
L 4684 1741 
L 678 1741 
L 678 2272 
z
" transform="scale(0.015625)"/>
       </defs>
       <use xlink:href="#DejaVuSans-2212"/>
       <use xlink:href="#DejaVuSans-31" x="83.789062"/>
       <use xlink:href="#DejaVuSans-2e" x="147.412109"/>
       <use xlink:href="#DejaVuSans-30" x="179.199219"/>
       <use xlink:href="#DejaVuSans-30" x="242.822266"/>
      </g>
     </g>
    </g>
    <g id="ytick_2">
     <g id="line2d_17">
      <path d="M 60.459063 240.306332 
L 618.459062 240.306332 
" clip-path="url(#pc228255da9)" style="fill: none; stroke: #b0b0b0; stroke-width: 0.8; stroke-linecap: square"/>
     </g>
     <g id="line2d_18">
      <g>
       <use xlink:href="#m90aadc3c57" x="60.459063" y="240.306332" style="stroke: #000000; stroke-width: 0.8"/>
      </g>
     </g>
     <g id="text_10">
      <!-- −0.75 -->
      <g transform="translate(22.81375 244.105551)scale(0.1 -0.1)">
       <use xlink:href="#DejaVuSans-2212"/>
       <use xlink:href="#DejaVuSans-30" x="83.789062"/>
       <use xlink:href="#DejaVuSans-2e" x="147.412109"/>
       <use xlink:href="#DejaVuSans-37" x="179.199219"/>
       <use xlink:href="#DejaVuSans-35" x="242.822266"/>
      </g>
     </g>
    </g>
    <g id="ytick_3">
     <g id="line2d_19">
      <path d="M 60.459063 208.804283 
L 618.459062 208.804283 
" clip-path="url(#pc228255da9)" style="fill: none; stroke: #b0b0b0; stroke-width: 0.8; stroke-linecap: square"/>
     </g>
     <g id="line2d_20">
      <g>
       <use xlink:href="#m90aadc3c57" x="60.459063" y="208.804283" style="stroke: #000000; stroke-width: 0.8"/>
      </g>
     </g>
     <g id="text_11">
      <!-- −0.50 -->
      <g transform="translate(22.81375 212.603502)scale(0.1 -0.1)">
       <use xlink:href="#DejaVuSans-2212"/>
       <use xlink:href="#DejaVuSans-30" x="83.789062"/>
       <use xlink:href="#DejaVuSans-2e" x="147.412109"/>
       <use xlink:href="#DejaVuSans-35" x="179.199219"/>
       <use xlink:href="#DejaVuSans-30" x="242.822266"/>
      </g>
     </g>
    </g>
    <g id="ytick_4">
     <g id="line2d_21">
      <path d="M 60.459063 177.302233 
L 618.459062 177.302233 
" clip-path="url(#pc228255da9)" style="fill: none; stroke: #b0b0b0; stroke-width: 0.8; stroke-linecap: square"/>
     </g>
     <g id="line2d_22">
      <g>
       <use xlink:href="#m90aadc3c57" x="60.459063" y="177.302233" style="stroke: #000000; stroke-width: 0.8"/>
      </g>
     </g>
     <g id="text_12">
      <!-- −0.25 -->
      <g transform="translate(22.81375 181.101452)scale(0.1 -0.1)">
       <use xlink:href="#DejaVuSans-2212"/>
       <use xlink:href="#DejaVuSans-30" x="83.789062"/>
       <use xlink:href="#DejaVuSans-2e" x="147.412109"/>
       <use xlink:href="#DejaVuSans-32" x="179.199219"/>
       <use xlink:href="#DejaVuSans-35" x="242.822266"/>
      </g>
     </g>
    </g>
    <g id="ytick_5">
     <g id="line2d_23">
      <path d="M 60.459063 145.800184 
L 618.459062 145.800184 
" clip-path="url(#pc228255da9)" style="fill: none; stroke: #b0b0b0; stroke-width: 0.8; stroke-linecap: square"/>
     </g>
     <g id="line2d_24">
      <g>
       <use xlink:href="#m90aadc3c57" x="60.459063" y="145.800184" style="stroke: #000000; stroke-width: 0.8"/>
      </g>
     </g>
     <g id="text_13">
      <!-- 0.00 -->
      <g transform="translate(31.193438 149.599403)scale(0.1 -0.1)">
       <use xlink:href="#DejaVuSans-30"/>
       <use xlink:href="#DejaVuSans-2e" x="63.623047"/>
       <use xlink:href="#DejaVuSans-30" x="95.410156"/>
       <use xlink:href="#DejaVuSans-30" x="159.033203"/>
      </g>
     </g>
    </g>
    <g id="ytick_6">
     <g id="line2d_25">
      <path d="M 60.459063 114.298135 
L 618.459062 114.298135 
" clip-path="url(#pc228255da9)" style="fill: none; stroke: #b0b0b0; stroke-width: 0.8; stroke-linecap: square"/>
     </g>
     <g id="line2d_26">
      <g>
       <use xlink:href="#m90aadc3c57" x="60.459063" y="114.298135" style="stroke: #000000; stroke-width: 0.8"/>
      </g>
     </g>
     <g id="text_14">
      <!-- 0.25 -->
      <g transform="translate(31.193438 118.097353)scale(0.1 -0.1)">
       <use xlink:href="#DejaVuSans-30"/>
       <use xlink:href="#DejaVuSans-2e" x="63.623047"/>
       <use xlink:href="#DejaVuSans-32" x="95.410156"/>
       <use xlink:href="#DejaVuSans-35" x="159.033203"/>
      </g>
     </g>
    </g>
    <g id="ytick_7">
     <g id="line2d_27">
      <path d="M 60.459063 82.796085 
L 618.459062 82.796085 
" clip-path="url(#pc228255da9)" style="fill: none; stroke: #b0b0b0; stroke-width: 0.8; stroke-linecap: square"/>
     </g>
     <g id="line2d_28">
      <g>
       <use xlink:href="#m90aadc3c57" x="60.459063" y="82.796085" style="stroke: #000000; stroke-width: 0.8"/>
      </g>
     </g>
     <g id="text_15">
      <!-- 0.50 -->
      <g transform="translate(31.193438 86.595304)scale(0.1 -0.1)">
       <use xlink:href="#DejaVuSans-30"/>
       <use xlink:href="#DejaVuSans-2e" x="63.623047"/>
       <use xlink:href="#DejaVuSans-35" x="95.410156"/>
       <use xlink:href="#DejaVuSans-30" x="159.033203"/>
      </g>
     </g>
    </g>
    <g id="ytick_8">
     <g id="line2d_29">
      <path d="M 60.459063 51.294036 
L 618.459062 51.294036 
" clip-path="url(#pc228255da9)" style="fill: none; stroke: #b0b0b0; stroke-width: 0.8; stroke-linecap: square"/>
     </g>
     <g id="line2d_30">
      <g>
       <use xlink:href="#m90aadc3c57" x="60.459063" y="51.294036" style="stroke: #000000; stroke-width: 0.8"/>
      </g>
     </g>
     <g id="text_16">
      <!-- 0.75 -->
      <g transform="translate(31.193438 55.093254)scale(0.1 -0.1)">
       <use xlink:href="#DejaVuSans-30"/>
       <use xlink:href="#DejaVuSans-2e" x="63.623047"/>
       <use xlink:href="#DejaVuSans-37" x="95.410156"/>
       <use xlink:href="#DejaVuSans-35" x="159.033203"/>
      </g>
     </g>
    </g>
    <g id="ytick_9">
     <g id="line2d_31">
      <path d="M 60.459063 19.791986 
L 618.459062 19.791986 
" clip-path="url(#pc228255da9)" style="fill: none; stroke: #b0b0b0; stroke-width: 0.8; stroke-linecap: square"/>
     </g>
     <g id="line2d_32">
      <g>
       <use xlink:href="#m90aadc3c57" x="60.459063" y="19.791986" style="stroke: #000000; stroke-width: 0.8"/>
      </g>
     </g>
     <g id="text_17">
      <!-- 1.00 -->
      <g transform="translate(31.193438 23.591205)scale(0.1 -0.1)">
       <use xlink:href="#DejaVuSans-31"/>
       <use xlink:href="#DejaVuSans-2e" x="63.623047"/>
       <use xlink:href="#DejaVuSans-30" x="95.410156"/>
       <use xlink:href="#DejaVuSans-30" x="159.033203"/>
      </g>
     </g>
    </g>
    <g id="text_18">
     <!-- sin(x) -->
     <g transform="translate(16.318125 162.628125)rotate(-90)scale(0.12 -0.12)">
      <defs>
       <path id="DejaVuSans-73" d="M 2834 3397 
L 2834 2853 
Q 2591 2978 2328 3040 
Q 2066 3103 1784 3103 
Q 1356 3103 1142 2972 
Q 928 2841 928 2578 
Q 928 2378 1081 2264 
Q 1234 2150 1697 2047 
L 1894 2003 
Q 2506 1872 2764 1633 
Q 3022 1394 3022 966 
Q 3022 478 2636 193 
Q 2250 -91 1575 -91 
Q 1294 -91 989 -36 
Q 684 19 347 128 
L 347 722 
Q 666 556 975 473 
Q 1284 391 1588 391 
Q 1994 391 2212 530 
Q 2431 669 2431 922 
Q 2431 1156 2273 1281 
Q 2116 1406 1581 1522 
L 1381 1569 
Q 847 1681 609 1914 
Q 372 2147 372 2553 
Q 372 3047 722 3315 
Q 1072 3584 1716 3584 
Q 2034 3584 2315 3537 
Q 2597 3491 2834 3397 
z
" transform="scale(0.015625)"/>
       <path id="DejaVuSans-6e" d="M 3513 2113 
L 3513 0 
L 2938 0 
L 2938 2094 
Q 2938 2591 2744 2837 
Q 2550 3084 2163 3084 
Q 1697 3084 1428 2787 
Q 1159 2491 1159 1978 
L 1159 0 
L 581 0 
L 581 3500 
L 1159 3500 
L 1159 2956 
Q 1366 3272 1645 3428 
Q 1925 3584 2291 3584 
Q 2894 3584 3203 3211 
Q 3513 2838 3513 2113 
z
" transform="scale(0.015625)"/>
      </defs>
      <use xlink:href="#DejaVuSans-73"/>
      <use xlink:href="#DejaVuSans-69" x="52.099609"/>
      <use xlink:href="#DejaVuSans-6e" x="79.882812"/>
      <use xlink:href="#DejaVuSans-28" x="143.261719"/>
      <use xlink:href="#DejaVuSans-78" x="182.275391"/>
      <use xlink:href="#DejaVuSans-29" x="241.455078"/>
     </g>
    </g>
   </g>
   <g id="line2d_33">
    <path d="M 85.822699 21.218751 
L 88.37186 23.227038 
L 90.92102 26.087493 
L 93.470181 29.780221 
L 96.019109 34.279115 
L 98.568269 39.553703 
L 101.11743 45.566944 
L 103.666591 52.27704 
L 106.215752 59.637335 
L 108.764912 67.596659 
L 111.314073 76.099673 
L 113.863001 85.086428 
L 118.961322 104.262413 
L 124.05941 124.590572 
L 139.354142 186.78663 
L 144.452463 206.001994 
L 147.001391 215.013845 
L 149.550551 223.545347 
L 152.099712 231.536344 
L 154.64864 238.930632 
L 157.1978 245.678154 
L 159.746961 251.731292 
L 162.296122 257.04797 
L 164.84505 261.590846 
L 167.39421 265.329164 
L 169.943371 268.236478 
L 172.492532 270.292578 
L 175.041692 271.48317 
L 177.59062 271.8 
L 180.139781 271.240898 
L 182.688942 269.809709 
L 185.238102 267.516362 
L 187.787263 264.37681 
L 190.336424 260.412887 
L 192.885584 255.652134 
L 195.434512 250.128206 
L 197.983673 243.878484 
L 200.532834 236.946891 
L 203.081994 229.381629 
L 205.630922 221.236048 
L 208.180083 212.565298 
L 213.278404 193.894795 
L 218.376492 173.890084 
L 228.572902 132.117465 
L 233.671224 111.509128 
L 238.769312 91.853605 
L 241.318473 82.554331 
L 243.867633 73.694763 
L 246.416561 65.337223 
L 248.965722 57.538305 
L 251.514882 50.353008 
L 254.064043 43.831287 
L 256.613204 38.018476 
L 259.162131 32.955426 
L 261.711292 28.676407 
L 264.260453 25.211673 
L 266.809614 22.585296 
L 269.358541 20.815668 
L 271.907702 19.914771 
L 274.456863 19.889062 
L 277.00579 20.738609 
L 279.554951 22.457652 
L 282.104112 25.034211 
L 284.653272 28.450366 
L 287.2022 32.681947 
L 289.751361 37.700317 
L 292.300522 43.470219 
L 294.849682 49.951555 
L 297.398843 57.099253 
L 299.947771 64.862887 
L 302.496931 73.189903 
L 305.046092 82.021735 
L 310.144414 100.951119 
L 315.242735 121.125553 
L 333.086394 193.325137 
L 338.184715 212.04233 
L 340.733643 220.7412 
L 343.282804 228.919873 
L 345.831964 236.520675 
L 348.381125 243.490761 
L 350.930053 249.78113 
L 353.479213 255.349198 
L 356.028374 260.155662 
L 358.577302 264.166752 
L 361.126462 267.355333 
L 363.675623 269.698829 
L 366.224784 271.18094 
L 368.773711 271.791355 
L 371.322872 271.525943 
L 373.872033 270.386446 
L 376.421194 268.380796 
L 378.970354 265.522924 
L 381.519282 261.83308 
L 384.068443 257.336245 
L 386.617603 252.063977 
L 389.166764 246.052937 
L 391.715925 239.344906 
L 394.265086 231.986526 
L 396.814246 224.02896 
L 399.363174 215.528319 
L 401.912335 206.542158 
L 407.010656 187.368358 
L 412.108745 167.041538 
L 427.403476 104.84419 
L 432.501564 85.627511 
L 435.050725 76.613434 
L 437.599886 68.080362 
L 440.148813 60.088329 
L 442.697974 52.691434 
L 445.247135 45.941854 
L 447.796295 39.886516 
L 450.345223 34.567975 
L 452.894384 30.02223 
L 455.443544 26.281404 
L 457.992705 23.371506 
L 460.541866 21.312777 
L 463.090793 20.119579 
L 465.639954 19.8 
L 468.189115 20.356421 
L 470.738276 21.784951 
L 473.287203 24.075429 
L 475.836364 27.212337 
L 478.385525 31.173706 
L 480.934452 35.931515 
L 483.483613 41.453566 
L 486.032774 47.701064 
L 488.581934 54.630577 
L 491.130862 62.19321 
L 493.680023 70.337755 
L 496.229183 79.00695 
L 501.327505 97.674922 
L 506.425593 117.677957 
L 516.622236 159.450891 
L 521.720325 180.059327 
L 526.818646 199.717659 
L 529.367807 209.018179 
L 531.916734 217.878409 
L 534.465895 226.23836 
L 537.015056 234.039073 
L 539.564217 241.22633 
L 542.113377 247.750161 
L 544.662305 253.564707 
L 547.211466 258.630604 
L 549.760626 262.912079 
L 552.309787 266.379351 
L 554.858715 269.008125 
L 557.407875 270.780599 
L 559.957036 271.68417 
L 562.506197 271.712568 
L 565.055124 270.865695 
L 567.604285 269.149303 
L 570.153446 266.57535 
L 572.702607 263.161726 
L 575.251767 258.93218 
L 577.800695 253.916597 
L 580.349856 248.148933 
L 582.899016 241.669715 
L 585.448177 234.523985 
L 587.997105 226.762161 
L 590.546265 218.436775 
L 593.095426 209.606408 
L 593.095426 209.606408 
" clip-path="url(#pc228255da9)" style="fill: none; stroke: #0000ff; stroke-width: 2; stroke-linecap: square"/>
   </g>
   <g id="line2d_34">
    <path d="M 85.822699 22.016558 
L 88.37186 23.828155 
L 90.92102 26.643944 
L 93.470181 30.22815 
L 96.019109 34.427894 
L 98.568269 39.190742 
L 101.11743 44.465624 
L 103.666591 50.240641 
L 106.215752 56.499691 
L 108.764912 63.231831 
L 111.314073 70.426756 
L 113.863001 77.974818 
L 116.412161 85.964132 
L 121.510483 103.119961 
L 126.608571 121.697324 
L 131.706893 141.487991 
L 139.354142 172.584006 
L 144.452463 193.342149 
L 149.550551 213.110235 
L 152.099712 222.308332 
L 154.64864 230.880339 
L 157.1978 238.709173 
L 159.746961 245.693206 
L 162.296122 251.751751 
L 164.84505 256.828726 
L 167.39421 260.894171 
L 169.943371 263.9418 
L 172.492532 265.987707 
L 175.041692 267.06618 
L 177.59062 267.22464 
L 180.139781 266.518952 
L 182.688942 265.008961 
L 185.238102 262.754925 
L 187.787263 259.814624 
L 190.336424 256.241429 
L 192.885584 252.083016 
L 195.434512 247.380719 
L 197.983673 242.169543 
L 200.532834 236.478555 
L 203.081994 230.331331 
L 205.630922 223.746851 
L 208.180083 216.740482 
L 210.729243 209.325096 
L 213.278404 201.51232 
L 218.376492 184.743621 
L 223.474814 166.560025 
L 228.572902 147.172695 
L 236.220151 116.673554 
L 241.318473 96.294017 
L 246.416561 76.873588 
L 248.965722 67.83486 
L 251.514882 59.411767 
L 254.064043 51.720664 
L 256.613204 44.862833 
L 259.162131 38.919442 
L 261.711292 33.948067 
L 264.260453 29.981409 
L 266.809614 27.028032 
L 269.358541 25.074806 
L 271.907702 24.090863 
L 274.456863 24.031919 
L 277.00579 24.845047 
L 279.554951 26.472821 
L 282.104112 28.856979 
L 284.653272 31.9412 
L 287.2022 35.673178 
L 289.751361 40.005748 
L 292.300522 44.897623 
L 294.849682 50.313404 
L 297.398843 56.223283 
L 299.947771 62.602467 
L 302.496931 69.430278 
L 305.046092 76.689164 
L 307.595253 84.363488 
L 310.144414 92.438191 
L 315.242735 109.722362 
L 320.340823 128.372801 
L 325.439145 148.121189 
L 340.733643 208.665493 
L 343.282804 217.89877 
L 345.831964 226.566538 
L 348.381125 234.551008 
L 350.930053 241.747143 
L 353.479213 248.068021 
L 356.028374 253.448893 
L 358.577302 257.849201 
L 361.126462 261.252746 
L 363.675623 263.665677 
L 366.224784 265.113194 
L 368.773711 265.635306 
L 371.322872 265.28223 
L 373.872033 264.109934 
L 376.421194 262.176453 
L 378.970354 259.538667 
L 381.519282 256.250074 
L 384.068443 252.359274 
L 386.617603 247.909125 
L 389.166764 242.936428 
L 391.715925 237.472097 
L 394.265086 231.541609 
L 396.814246 225.165663 
L 399.363174 218.36115 
L 401.912335 211.14213 
L 404.461495 203.521042 
L 407.010656 195.51009 
L 412.108745 178.374833 
L 417.207066 159.888199 
L 422.305154 140.30686 
L 437.599886 80.260977 
L 440.148813 71.117243 
L 442.697974 62.54356 
L 445.247135 54.658502 
L 447.796295 47.567705 
L 450.345223 41.358533 
L 452.894384 36.096119 
L 455.443544 31.821359 
L 457.992705 28.550957 
L 460.541866 26.279278 
L 463.090793 24.981809 
L 465.639954 24.619269 
L 468.189115 25.142222 
L 470.738276 26.495413 
L 473.287203 28.621474 
L 475.836364 31.464046 
L 478.385525 34.970014 
L 480.934452 39.090986 
L 483.483613 43.784098 
L 486.032774 49.012263 
L 488.581934 54.744071 
L 491.130862 60.953175 
L 493.680023 67.617637 
L 496.229183 74.718889 
L 498.778344 82.240648 
L 501.327505 90.167594 
L 506.425593 107.172079 
L 511.523915 125.571724 
L 516.622236 145.116116 
L 531.916734 205.627651 
L 534.465895 214.978981 
L 537.015056 223.804398 
L 539.564217 231.9841 
L 542.113377 239.409055 
L 544.662305 245.986715 
L 547.211466 251.645467 
L 549.760626 256.337333 
L 552.309787 260.038623 
L 554.858715 262.748684 
L 557.407875 264.486894 
L 559.957036 265.288779 
L 562.506197 265.2014 
L 565.055124 264.278909 
L 567.604285 262.57865 
L 570.153446 260.157742 
L 572.702607 257.070607 
L 575.251767 253.367192 
L 577.800695 249.091973 
L 580.349856 244.283497 
L 582.899016 238.974352 
L 585.448177 233.191576 
L 587.997105 226.957259 
L 590.546265 220.289358 
L 593.095426 213.202751 
L 593.095426 213.202751 
" clip-path="url(#pc228255da9)" style="fill: none; stroke-dasharray: 7.4,3.2; stroke-dashoffset: 0; stroke: #ff0000; stroke-width: 2"/>
   </g>
   <g id="patch_3">
    <path d="M 60.459063 284.4 
L 60.459063 7.2 
" style="fill: none; stroke: #000000; stroke-width: 0.8; stroke-linejoin: miter; stroke-linecap: square"/>
   </g>
   <g id="patch_4">
    <path d="M 618.459062 284.4 
L 618.459062 7.2 
" style="fill: none; stroke: #000000; stroke-width: 0.8; stroke-linejoin: miter; stroke-linecap: square"/>
   </g>
   <g id="patch_5">
    <path d="M 60.459063 284.4 
L 618.459063 284.4 
" style="fill: none; stroke: #000000; stroke-width: 0.8; stroke-linejoin: miter; stroke-linecap: square"/>
   </g>
   <g id="patch_6">
    <path d="M 60.459063 7.2 
L 618.459063 7.2 
" style="fill: none; stroke: #000000; stroke-width: 0.8; stroke-linejoin: miter; stroke-linecap: square"/>
   </g>
   <g id="legend_1">
    <g id="patch_7">
     <path d="M 537.155937 44.55625 
L 611.459062 44.55625 
Q 613.459062 44.55625 613.459062 42.55625 
L 613.459062 14.2 
Q 613.459062 12.2 611.459062 12.2 
L 537.155937 12.2 
Q 535.155937 12.2 535.155937 14.2 
L 535.155937 42.55625 
Q 535.155937 44.55625 537.155937 44.55625 
z
" style="fill: #ffffff; opacity: 0.8; stroke: #cccccc; stroke-linejoin: miter"/>
    </g>
    <g id="line2d_35">
     <path d="M 539.155937 20.298437 
L 549.155937 20.298437 
L 559.155937 20.298437 
" style="fill: none; stroke: #0000ff; stroke-width: 2; stroke-linecap: square"/>
    </g>
    <g id="text_19">
     <!-- Actual -->
     <g transform="translate(567.155937 23.798437)scale(0.1 -0.1)">
      <defs>
       <path id="DejaVuSans-41" d="M 2188 4044 
L 1331 1722 
L 3047 1722 
L 2188 4044 
z
M 1831 4666 
L 2547 4666 
L 4325 0 
L 3669 0 
L 3244 1197 
L 1141 1197 
L 716 0 
L 50 0 
L 1831 4666 
z
" transform="scale(0.015625)"/>
       <path id="DejaVuSans-63" d="M 3122 3366 
L 3122 2828 
Q 2878 2963 2633 3030 
Q 2388 3097 2138 3097 
Q 1578 3097 1268 2742 
Q 959 2388 959 1747 
Q 959 1106 1268 751 
Q 1578 397 2138 397 
Q 2388 397 2633 464 
Q 2878 531 3122 666 
L 3122 134 
Q 2881 22 2623 -34 
Q 2366 -91 2075 -91 
Q 1284 -91 818 406 
Q 353 903 353 1747 
Q 353 2603 823 3093 
Q 1294 3584 2113 3584 
Q 2378 3584 2631 3529 
Q 2884 3475 3122 3366 
z
" transform="scale(0.015625)"/>
       <path id="DejaVuSans-75" d="M 544 1381 
L 544 3500 
L 1119 3500 
L 1119 1403 
Q 1119 906 1312 657 
Q 1506 409 1894 409 
Q 2359 409 2629 706 
Q 2900 1003 2900 1516 
L 2900 3500 
L 3475 3500 
L 3475 0 
L 2900 0 
L 2900 538 
Q 2691 219 2414 64 
Q 2138 -91 1772 -91 
Q 1169 -91 856 284 
Q 544 659 544 1381 
z
M 1991 3584 
L 1991 3584 
z
" transform="scale(0.015625)"/>
       <path id="DejaVuSans-61" d="M 2194 1759 
Q 1497 1759 1228 1600 
Q 959 1441 959 1056 
Q 959 750 1161 570 
Q 1363 391 1709 391 
Q 2188 391 2477 730 
Q 2766 1069 2766 1631 
L 2766 1759 
L 2194 1759 
z
M 3341 1997 
L 3341 0 
L 2766 0 
L 2766 531 
Q 2569 213 2275 61 
Q 1981 -91 1556 -91 
Q 1019 -91 701 211 
Q 384 513 384 1019 
Q 384 1609 779 1909 
Q 1175 2209 1959 2209 
L 2766 2209 
L 2766 2266 
Q 2766 2663 2505 2880 
Q 2244 3097 1772 3097 
Q 1472 3097 1187 3025 
Q 903 2953 641 2809 
L 641 3341 
Q 956 3463 1253 3523 
Q 1550 3584 1831 3584 
Q 2591 3584 2966 3190 
Q 3341 2797 3341 1997 
z
" transform="scale(0.015625)"/>
       <path id="DejaVuSans-6c" d="M 603 4863 
L 1178 4863 
L 1178 0 
L 603 0 
L 603 4863 
z
" transform="scale(0.015625)"/>
      </defs>
      <use xlink:href="#DejaVuSans-41"/>
      <use xlink:href="#DejaVuSans-63" x="66.658203"/>
      <use xlink:href="#DejaVuSans-74" x="121.638672"/>
      <use xlink:href="#DejaVuSans-75" x="160.847656"/>
      <use xlink:href="#DejaVuSans-61" x="224.226562"/>
      <use xlink:href="#DejaVuSans-6c" x="285.505859"/>
     </g>
    </g>
    <g id="line2d_36">
     <path d="M 539.155937 34.976562 
L 549.155937 34.976562 
L 559.155937 34.976562 
" style="fill: none; stroke-dasharray: 7.4,3.2; stroke-dashoffset: 0; stroke: #ff0000; stroke-width: 2"/>
    </g>
    <g id="text_20">
     <!-- Forecast -->
     <g transform="translate(567.155937 38.476562)scale(0.1 -0.1)">
      <defs>
       <path id="DejaVuSans-46" d="M 628 4666 
L 3309 4666 
L 3309 4134 
L 1259 4134 
L 1259 2759 
L 3109 2759 
L 3109 2228 
L 1259 2228 
L 1259 0 
L 628 0 
L 628 4666 
z
" transform="scale(0.015625)"/>
       <path id="DejaVuSans-6f" d="M 1959 3097 
Q 1497 3097 1228 2736 
Q 959 2375 959 1747 
Q 959 1119 1226 758 
Q 1494 397 1959 397 
Q 2419 397 2687 759 
Q 2956 1122 2956 1747 
Q 2956 2369 2687 2733 
Q 2419 3097 1959 3097 
z
M 1959 3584 
Q 2709 3584 3137 3096 
Q 3566 2609 3566 1747 
Q 3566 888 3137 398 
Q 2709 -91 1959 -91 
Q 1206 -91 779 398 
Q 353 888 353 1747 
Q 353 2609 779 3096 
Q 1206 3584 1959 3584 
z
" transform="scale(0.015625)"/>
       <path id="DejaVuSans-72" d="M 2631 2963 
Q 2534 3019 2420 3045 
Q 2306 3072 2169 3072 
Q 1681 3072 1420 2755 
Q 1159 2438 1159 1844 
L 1159 0 
L 581 0 
L 581 3500 
L 1159 3500 
L 1159 2956 
Q 1341 3275 1631 3429 
Q 1922 3584 2338 3584 
Q 2397 3584 2469 3576 
Q 2541 3569 2628 3553 
L 2631 2963 
z
" transform="scale(0.015625)"/>
      </defs>
      <use xlink:href="#DejaVuSans-46"/>
      <use xlink:href="#DejaVuSans-6f" x="53.894531"/>
      <use xlink:href="#DejaVuSans-72" x="115.076172"/>
      <use xlink:href="#DejaVuSans-65" x="153.939453"/>
      <use xlink:href="#DejaVuSans-63" x="215.462891"/>
      <use xlink:href="#DejaVuSans-61" x="270.443359"/>
      <use xlink:href="#DejaVuSans-73" x="331.722656"/>
      <use xlink:href="#DejaVuSans-74" x="383.822266"/>
     </g>
    </g>
   </g>
  </g>
 </g>
 <defs>
  <clipPath id="pc228255da9">
   <rect x="60.459063" y="7.2" width="558" height="277.2"/>
  </clipPath>
 </defs>
</svg>
