<?xml version="1.0" encoding="utf-8" standalone="no"?>
<!DOCTYPE svg PUBLIC "-//W3C//DTD SVG 1.1//EN"
  "http://www.w3.org/Graphics/SVG/1.1/DTD/svg11.dtd">
<svg xmlns:xlink="http://www.w3.org/1999/xlink" width="625.659063pt" height="323.891875pt" viewBox="0 0 625.659063 323.891875" xmlns="http://www.w3.org/2000/svg" version="1.1">
 <metadata>
  <rdf:RDF xmlns:dc="http://purl.org/dc/elements/1.1/" xmlns:cc="http://creativecommons.org/ns#" xmlns:rdf="http://www.w3.org/1999/02/22-rdf-syntax-ns#">
   <cc:Work>
    <dc:type rdf:resource="http://purl.org/dc/dcmitype/StillImage"/>
    <dc:date>2025-11-10T22:44:56.489549</dc:date>
    <dc:format>image/svg+xml</dc:format>
    <dc:creator>
     <cc:Agent>
      <dc:title>Matplotlib v3.5.1, https://matplotlib.org/</dc:title>
     </cc:Agent>
    </dc:creator>
   </cc:Work>
  </rdf:RDF>
 </metadata>
 <defs>
  <style type="text/css">*{stroke-linejoin: round; stroke-linecap: butt}</style>
 </defs>
 <g id="figure_1">
  <g id="patch_1">
   <path d="M 0 323.891875 
L 625.659063 323.891875 
L 625.659063 0 
L 0 0 
z
" style="fill: #ffffff"/>
  </g>
  <g id="axes_1">
   <g id="patch_2">
    <path d="M 60.459063 284.4 
L 618.459062 284.4 
L 618.459062 7.2 
L 60.459063 7.2 
z
" style="fill: #ffffff"/>
   </g>
   <g id="matplotlib.axis_1">
    <g id="xtick_1">
     <g id="line2d_1">
      <path d="M 85.568804 284.4 
L 85.568804 7.2 
" clip-path="url(#p8c6ed8f43d)" style="fill: none; stroke: #b0b0b0; stroke-width: 0.8; stroke-linecap: square"/>
     </g>
     <g id="line2d_2">
      <defs>
       <path id="m3f3aba58da" d="M 0 0 
L 0 3.5 
" style="stroke: #000000; stroke-width: 0.8"/>
      </defs>
      <g>
       <use xlink:href="#m3f3aba58da" x="85.568804" y="284.4" style="stroke: #000000; stroke-width: 0.8"/>
      </g>
     </g>
     <g id="text_1">
      <!-- 50 -->
      <g transform="translate(79.206304 298.998438)scale(0.1 -0.1)">
       <defs>
        <path id="DejaVuSans-35" d="M 691 4666 
L 3169 4666 
L 3169 4134 
L 1269 4134 
L 1269 2991 
Q 1406 3038 1543 3061 
Q 1681 3084 1819 3084 
Q 2600 3084 3056 2656 
Q 3513 2228 3513 1497 
Q 3513 744 3044 326 
Q 2575 -91 1722 -91 
Q 1428 -91 1123 -41 
Q 819 9 494 109 
L 494 744 
Q 775 591 1075 516 
Q 1375 441 1709 441 
Q 2250 441 2565 725 
Q 2881 1009 2881 1497 
Q 2881 1984 2565 2268 
Q 2250 2553 1709 2553 
Q 1456 2553 1204 2497 
Q 953 2441 691 2322 
L 691 4666 
z
" transform="scale(0.015625)"/>
        <path id="DejaVuSans-30" d="M 2034 4250 
Q 1547 4250 1301 3770 
Q 1056 3291 1056 2328 
Q 1056 1369 1301 889 
Q 1547 409 2034 409 
Q 2525 409 2770 889 
Q 3016 1369 3016 2328 
Q 3016 3291 2770 3770 
Q 2525 4250 2034 4250 
z
M 2034 4750 
Q 2819 4750 3233 4129 
Q 3647 3509 3647 2328 
Q 3647 1150 3233 529 
Q 2819 -91 2034 -91 
Q 1250 -91 836 529 
Q 422 1150 422 2328 
Q 422 3509 836 4129 
Q 1250 4750 2034 4750 
z
" transform="scale(0.015625)"/>
       </defs>
       <use xlink:href="#DejaVuSans-35"/>
       <use xlink:href="#DejaVuSans-30" x="63.623047"/>
      </g>
     </g>
    </g>
    <g id="xtick_2">
     <g id="line2d_3">
      <path d="M 187.074128 284.4 
L 187.074128 7.2 
" clip-path="url(#p8c6ed8f43d)" style="fill: none; stroke: #b0b0b0; stroke-width: 0.8; stroke-linecap: square"/>
     </g>
     <g id="line2d_4">
      <g>
       <use xlink:href="#m3f3aba58da" x="187.074128" y="284.4" style="stroke: #000000; stroke-width: 0.8"/>
      </g>
     </g>
     <g id="text_2">
      <!-- 60 -->
      <g transform="translate(180.711628 298.998438)scale(0.1 -0.1)">
       <defs>
        <path id="DejaVuSans-36" d="M 2113 2584 
Q 1688 2584 1439 2293 
Q 1191 2003 1191 1497 
Q 1191 994 1439 701 
Q 1688 409 2113 409 
Q 2538 409 2786 701 
Q 3034 994 3034 1497 
Q 3034 2003 2786 2293 
Q 2538 2584 2113 2584 
z
M 3366 4563 
L 3366 3988 
Q 3128 4100 2886 4159 
Q 2644 4219 2406 4219 
Q 1781 4219 1451 3797 
Q 1122 3375 1075 2522 
Q 1259 2794 1537 2939 
Q 1816 3084 2150 3084 
Q 2853 3084 3261 2657 
Q 3669 2231 3669 1497 
Q 3669 778 3244 343 
Q 2819 -91 2113 -91 
Q 1303 -91 875 529 
Q 447 1150 447 2328 
Q 447 3434 972 4092 
Q 1497 4750 2381 4750 
Q 2619 4750 2861 4703 
Q 3103 4656 3366 4563 
z
" transform="scale(0.015625)"/>
       </defs>
       <use xlink:href="#DejaVuSans-36"/>
       <use xlink:href="#DejaVuSans-30" x="63.623047"/>
      </g>
     </g>
    </g>
    <g id="xtick_3">
     <g id="line2d_5">
      <path d="M 288.579453 284.4 
L 288.579453 7.2 
" clip-path="url(#p8c6ed8f43d)" style="fill: none; stroke: #b0b0b0; stroke-width: 0.8; stroke-linecap: square"/>
     </g>
     <g id="line2d_6">
      <g>
       <use xlink:href="#m3f3aba58da" x="288.579453" y="284.4" style="stroke: #000000; stroke-width: 0.8"/>
      </g>
     </g>
     <g id="text_3">
      <!-- 70 -->
      <g transform="translate(282.216953 298.998438)scale(0.1 -0.1)">
       <defs>
        <path id="DejaVuSans-37" d="M 525 4666 
L 3525 4666 
L 3525 4397 
L 1831 0 
L 1172 0 
L 2766 4134 
L 525 4134 
L 525 4666 
z
" transform="scale(0.015625)"/>
       </defs>
       <use xlink:href="#DejaVuSans-37"/>
       <use xlink:href="#DejaVuSans-30" x="63.623047"/>
      </g>
     </g>
    </g>
    <g id="xtick_4">
     <g id="line2d_7">
      <path d="M 390.084777 284.4 
L 390.084777 7.2 
" clip-path="url(#p8c6ed8f43d)" style="fill: none; stroke: #b0b0b0; stroke-width: 0.8; stroke-linecap: square"/>
     </g>
     <g id="line2d_8">
      <g>
       <use xlink:href="#m3f3aba58da" x="390.084777" y="284.4" style="stroke: #000000; stroke-width: 0.8"/>
      </g>
     </g>
     <g id="text_4">
      <!-- 80 -->
      <g transform="translate(383.722277 298.998438)scale(0.1 -0.1)">
       <defs>
        <path id="DejaVuSans-38" d="M 2034 2216 
Q 1584 2216 1326 1975 
Q 1069 1734 1069 1313 
Q 1069 891 1326 650 
Q 1584 409 2034 409 
Q 2484 409 2743 651 
Q 3003 894 3003 1313 
Q 3003 1734 2745 1975 
Q 2488 2216 2034 2216 
z
M 1403 2484 
Q 997 2584 770 2862 
Q 544 3141 544 3541 
Q 544 4100 942 4425 
Q 1341 4750 2034 4750 
Q 2731 4750 3128 4425 
Q 3525 4100 3525 3541 
Q 3525 3141 3298 2862 
Q 3072 2584 2669 2484 
Q 3125 2378 3379 2068 
Q 3634 1759 3634 1313 
Q 3634 634 3220 271 
Q 2806 -91 2034 -91 
Q 1263 -91 848 271 
Q 434 634 434 1313 
Q 434 1759 690 2068 
Q 947 2378 1403 2484 
z
M 1172 3481 
Q 1172 3119 1398 2916 
Q 1625 2713 2034 2713 
Q 2441 2713 2670 2916 
Q 2900 3119 2900 3481 
Q 2900 3844 2670 4047 
Q 2441 4250 2034 4250 
Q 1625 4250 1398 4047 
Q 1172 3844 1172 3481 
z
" transform="scale(0.015625)"/>
       </defs>
       <use xlink:href="#DejaVuSans-38"/>
       <use xlink:href="#DejaVuSans-30" x="63.623047"/>
      </g>
     </g>
    </g>
    <g id="xtick_5">
     <g id="line2d_9">
      <path d="M 491.590102 284.4 
L 491.590102 7.2 
" clip-path="url(#p8c6ed8f43d)" style="fill: none; stroke: #b0b0b0; stroke-width: 0.8; stroke-linecap: square"/>
     </g>
     <g id="line2d_10">
      <g>
       <use xlink:href="#m3f3aba58da" x="491.590102" y="284.4" style="stroke: #000000; stroke-width: 0.8"/>
      </g>
     </g>
     <g id="text_5">
      <!-- 90 -->
      <g transform="translate(485.227602 298.998438)scale(0.1 -0.1)">
       <defs>
        <path id="DejaVuSans-39" d="M 703 97 
L 703 672 
Q 941 559 1184 500 
Q 1428 441 1663 441 
Q 2288 441 2617 861 
Q 2947 1281 2994 2138 
Q 2813 1869 2534 1725 
Q 2256 1581 1919 1581 
Q 1219 1581 811 2004 
Q 403 2428 403 3163 
Q 403 3881 828 4315 
Q 1253 4750 1959 4750 
Q 2769 4750 3195 4129 
Q 3622 3509 3622 2328 
Q 3622 1225 3098 567 
Q 2575 -91 1691 -91 
Q 1453 -91 1209 -44 
Q 966 3 703 97 
z
M 1959 2075 
Q 2384 2075 2632 2365 
Q 2881 2656 2881 3163 
Q 2881 3666 2632 3958 
Q 2384 4250 1959 4250 
Q 1534 4250 1286 3958 
Q 1038 3666 1038 3163 
Q 1038 2656 1286 2365 
Q 1534 2075 1959 2075 
z
" transform="scale(0.015625)"/>
       </defs>
       <use xlink:href="#DejaVuSans-39"/>
       <use xlink:href="#DejaVuSans-30" x="63.623047"/>
      </g>
     </g>
    </g>
    <g id="xtick_6">
     <g id="line2d_11">
      <path d="M 593.095426 284.4 
L 593.095426 7.2 
" clip-path="url(#p8c6ed8f43d)" style="fill: none; stroke: #b0b0b0; stroke-width: 0.8; stroke-linecap: square"/>
     </g>
     <g id="line2d_12">
      <g>
       <use xlink:href="#m3f3aba58da" x="593.095426" y="284.4" style="stroke: #000000; stroke-width: 0.8"/>
      </g>
     </g>
     <g id="text_6">
      <!-- 100 -->
      <g transform="translate(583.551676 298.998438)scale(0.1 -0.1)">
       <defs>
        <path id="DejaVuSans-31" d="M 794 531 
L 1825 531 
L 1825 4091 
L 703 3866 
L 703 4441 
L 1819 4666 
L 2450 4666 
L 2450 531 
L 3481 531 
L 3481 0 
L 794 0 
L 794 531 
z
" transform="scale(0.015625)"/>
       </defs>
       <use xlink:href="#DejaVuSans-31"/>
       <use xlink:href="#DejaVuSans-30" x="63.623047"/>
       <use xlink:href="#DejaVuSans-30" x="127.246094"/>
      </g>
     </g>
    </g>
    <g id="text_7">
     <!-- x (Time Step) -->
     <g transform="translate(299.069687 314.19625)scale(0.12 -0.12)">
      <defs>
       <path id="DejaVuSans-78" d="M 3513 3500 
L 2247 1797 
L 3578 0 
L 2900 0 
L 1881 1375 
L 863 0 
L 184 0 
L 1544 1831 
L 300 3500 
L 978 3500 
L 1906 2253 
L 2834 3500 
L 3513 3500 
z
" transform="scale(0.015625)"/>
       <path id="DejaVuSans-20" transform="scale(0.015625)"/>
       <path id="DejaVuSans-28" d="M 1984 4856 
Q 1566 4138 1362 3434 
Q 1159 2731 1159 2009 
Q 1159 1288 1364 580 
Q 1569 -128 1984 -844 
L 1484 -844 
Q 1016 -109 783 600 
Q 550 1309 550 2009 
Q 550 2706 781 3412 
Q 1013 4119 1484 4856 
L 1984 4856 
z
" transform="scale(0.015625)"/>
       <path id="DejaVuSans-54" d="M -19 4666 
L 3928 4666 
L 3928 4134 
L 2272 4134 
L 2272 0 
L 1638 0 
L 1638 4134 
L -19 4134 
L -19 4666 
z
" transform="scale(0.015625)"/>
       <path id="DejaVuSans-69" d="M 603 3500 
L 1178 3500 
L 1178 0 
L 603 0 
L 603 3500 
z
M 603 4863 
L 1178 4863 
L 1178 4134 
L 603 4134 
L 603 4863 
z
" transform="scale(0.015625)"/>
       <path id="DejaVuSans-6d" d="M 3328 2828 
Q 3544 3216 3844 3400 
Q 4144 3584 4550 3584 
Q 5097 3584 5394 3201 
Q 5691 2819 5691 2113 
L 5691 0 
L 5113 0 
L 5113 2094 
Q 5113 2597 4934 2840 
Q 4756 3084 4391 3084 
Q 3944 3084 3684 2787 
Q 3425 2491 3425 1978 
L 3425 0 
L 2847 0 
L 2847 2094 
Q 2847 2600 2669 2842 
Q 2491 3084 2119 3084 
Q 1678 3084 1418 2786 
Q 1159 2488 1159 1978 
L 1159 0 
L 581 0 
L 581 3500 
L 1159 3500 
L 1159 2956 
Q 1356 3278 1631 3431 
Q 1906 3584 2284 3584 
Q 2666 3584 2933 3390 
Q 3200 3197 3328 2828 
z
" transform="scale(0.015625)"/>
       <path id="DejaVuSans-65" d="M 3597 1894 
L 3597 1613 
L 953 1613 
Q 991 1019 1311 708 
Q 1631 397 2203 397 
Q 2534 397 2845 478 
Q 3156 559 3463 722 
L 3463 178 
Q 3153 47 2828 -22 
Q 2503 -91 2169 -91 
Q 1331 -91 842 396 
Q 353 884 353 1716 
Q 353 2575 817 3079 
Q 1281 3584 2069 3584 
Q 2775 3584 3186 3129 
Q 3597 2675 3597 1894 
z
M 3022 2063 
Q 3016 2534 2758 2815 
Q 2500 3097 2075 3097 
Q 1594 3097 1305 2825 
Q 1016 2553 972 2059 
L 3022 2063 
z
" transform="scale(0.015625)"/>
       <path id="DejaVuSans-53" d="M 3425 4513 
L 3425 3897 
Q 3066 4069 2747 4153 
Q 2428 4238 2131 4238 
Q 1616 4238 1336 4038 
Q 1056 3838 1056 3469 
Q 1056 3159 1242 3001 
Q 1428 2844 1947 2747 
L 2328 2669 
Q 3034 2534 3370 2195 
Q 3706 1856 3706 1288 
Q 3706 609 3251 259 
Q 2797 -91 1919 -91 
Q 1588 -91 1214 -16 
Q 841 59 441 206 
L 441 856 
Q 825 641 1194 531 
Q 1563 422 1919 422 
Q 2459 422 2753 634 
Q 3047 847 3047 1241 
Q 3047 1584 2836 1778 
Q 2625 1972 2144 2069 
L 1759 2144 
Q 1053 2284 737 2584 
Q 422 2884 422 3419 
Q 422 4038 858 4394 
Q 1294 4750 2059 4750 
Q 2388 4750 2728 4690 
Q 3069 4631 3425 4513 
z
" transform="scale(0.015625)"/>
       <path id="DejaVuSans-74" d="M 1172 4494 
L 1172 3500 
L 2356 3500 
L 2356 3053 
L 1172 3053 
L 1172 1153 
Q 1172 725 1289 603 
Q 1406 481 1766 481 
L 2356 481 
L 2356 0 
L 1766 0 
Q 1100 0 847 248 
Q 594 497 594 1153 
L 594 3053 
L 172 3053 
L 172 3500 
L 594 3500 
L 594 4494 
L 1172 4494 
z
" transform="scale(0.015625)"/>
       <path id="DejaVuSans-70" d="M 1159 525 
L 1159 -1331 
L 581 -1331 
L 581 3500 
L 1159 3500 
L 1159 2969 
Q 1341 3281 1617 3432 
Q 1894 3584 2278 3584 
Q 2916 3584 3314 3078 
Q 3713 2572 3713 1747 
Q 3713 922 3314 415 
Q 2916 -91 2278 -91 
Q 1894 -91 1617 61 
Q 1341 213 1159 525 
z
M 3116 1747 
Q 3116 2381 2855 2742 
Q 2594 3103 2138 3103 
Q 1681 3103 1420 2742 
Q 1159 2381 1159 1747 
Q 1159 1113 1420 752 
Q 1681 391 2138 391 
Q 2594 391 2855 752 
Q 3116 1113 3116 1747 
z
" transform="scale(0.015625)"/>
       <path id="DejaVuSans-29" d="M 513 4856 
L 1013 4856 
Q 1481 4119 1714 3412 
Q 1947 2706 1947 2009 
Q 1947 1309 1714 600 
Q 1481 -109 1013 -844 
L 513 -844 
Q 928 -128 1133 580 
Q 1338 1288 1338 2009 
Q 1338 2731 1133 3434 
Q 928 4138 513 4856 
z
" transform="scale(0.015625)"/>
      </defs>
      <use xlink:href="#DejaVuSans-78"/>
      <use xlink:href="#DejaVuSans-20" x="59.179688"/>
      <use xlink:href="#DejaVuSans-28" x="90.966797"/>
      <use xlink:href="#DejaVuSans-54" x="129.980469"/>
      <use xlink:href="#DejaVuSans-69" x="187.939453"/>
      <use xlink:href="#DejaVuSans-6d" x="215.722656"/>
      <use xlink:href="#DejaVuSans-65" x="313.134766"/>
      <use xlink:href="#DejaVuSans-20" x="374.658203"/>
      <use xlink:href="#DejaVuSans-53" x="406.445312"/>
      <use xlink:href="#DejaVuSans-74" x="469.921875"/>
      <use xlink:href="#DejaVuSans-65" x="509.130859"/>
      <use xlink:href="#DejaVuSans-70" x="570.654297"/>
      <use xlink:href="#DejaVuSans-29" x="634.130859"/>
     </g>
    </g>
   </g>
   <g id="matplotlib.axis_2">
    <g id="ytick_1">
     <g id="line2d_13">
      <path d="M 60.459063 269.207942 
L 618.459062 269.207942 
" clip-path="url(#p8c6ed8f43d)" style="fill: none; stroke: #b0b0b0; stroke-width: 0.8; stroke-linecap: square"/>
     </g>
     <g id="line2d_14">
      <defs>
       <path id="m178bc608fa" d="M 0 0 
L -3.5 0 
" style="stroke: #000000; stroke-width: 0.8"/>
      </defs>
      <g>
       <use xlink:href="#m178bc608fa" x="60.459063" y="269.207942" style="stroke: #000000; stroke-width: 0.8"/>
      </g>
     </g>
     <g id="text_8">
      <!-- −1.00 -->
      <g transform="translate(22.81375 273.007161)scale(0.1 -0.1)">
       <defs>
        <path id="DejaVuSans-2212" d="M 678 2272 
L 4684 2272 
L 4684 1741 
L 678 1741 
L 678 2272 
z
" transform="scale(0.015625)"/>
        <path id="DejaVuSans-2e" d="M 684 794 
L 1344 794 
L 1344 0 
L 684 0 
L 684 794 
z
" transform="scale(0.015625)"/>
       </defs>
       <use xlink:href="#DejaVuSans-2212"/>
       <use xlink:href="#DejaVuSans-31" x="83.789062"/>
       <use xlink:href="#DejaVuSans-2e" x="147.412109"/>
       <use xlink:href="#DejaVuSans-30" x="179.199219"/>
       <use xlink:href="#DejaVuSans-30" x="242.822266"/>
      </g>
     </g>
    </g>
    <g id="ytick_2">
     <g id="line2d_15">
      <path d="M 60.459063 238.031947 
L 618.459062 238.031947 
" clip-path="url(#p8c6ed8f43d)" style="fill: none; stroke: #b0b0b0; stroke-width: 0.8; stroke-linecap: square"/>
     </g>
     <g id="line2d_16">
      <g>
       <use xlink:href="#m178bc608fa" x="60.459063" y="238.031947" style="stroke: #000000; stroke-width: 0.8"/>
      </g>
     </g>
     <g id="text_9">
      <!-- −0.75 -->
      <g transform="translate(22.81375 241.831166)scale(0.1 -0.1)">
       <use xlink:href="#DejaVuSans-2212"/>
       <use xlink:href="#DejaVuSans-30" x="83.789062"/>
       <use xlink:href="#DejaVuSans-2e" x="147.412109"/>
       <use xlink:href="#DejaVuSans-37" x="179.199219"/>
       <use xlink:href="#DejaVuSans-35" x="242.822266"/>
      </g>
     </g>
    </g>
    <g id="ytick_3">
     <g id="line2d_17">
      <path d="M 60.459063 206.855953 
L 618.459062 206.855953 
" clip-path="url(#p8c6ed8f43d)" style="fill: none; stroke: #b0b0b0; stroke-width: 0.8; stroke-linecap: square"/>
     </g>
     <g id="line2d_18">
      <g>
       <use xlink:href="#m178bc608fa" x="60.459063" y="206.855953" style="stroke: #000000; stroke-width: 0.8"/>
      </g>
     </g>
     <g id="text_10">
      <!-- −0.50 -->
      <g transform="translate(22.81375 210.655171)scale(0.1 -0.1)">
       <use xlink:href="#DejaVuSans-2212"/>
       <use xlink:href="#DejaVuSans-30" x="83.789062"/>
       <use xlink:href="#DejaVuSans-2e" x="147.412109"/>
       <use xlink:href="#DejaVuSans-35" x="179.199219"/>
       <use xlink:href="#DejaVuSans-30" x="242.822266"/>
      </g>
     </g>
    </g>
    <g id="ytick_4">
     <g id="line2d_19">
      <path d="M 60.459063 175.679958 
L 618.459062 175.679958 
" clip-path="url(#p8c6ed8f43d)" style="fill: none; stroke: #b0b0b0; stroke-width: 0.8; stroke-linecap: square"/>
     </g>
     <g id="line2d_20">
      <g>
       <use xlink:href="#m178bc608fa" x="60.459063" y="175.679958" style="stroke: #000000; stroke-width: 0.8"/>
      </g>
     </g>
     <g id="text_11">
      <!-- −0.25 -->
      <g transform="translate(22.81375 179.479177)scale(0.1 -0.1)">
       <defs>
        <path id="DejaVuSans-32" d="M 1228 531 
L 3431 531 
L 3431 0 
L 469 0 
L 469 531 
Q 828 903 1448 1529 
Q 2069 2156 2228 2338 
Q 2531 2678 2651 2914 
Q 2772 3150 2772 3378 
Q 2772 3750 2511 3984 
Q 2250 4219 1831 4219 
Q 1534 4219 1204 4116 
Q 875 4013 500 3803 
L 500 4441 
Q 881 4594 1212 4672 
Q 1544 4750 1819 4750 
Q 2544 4750 2975 4387 
Q 3406 4025 3406 3419 
Q 3406 3131 3298 2873 
Q 3191 2616 2906 2266 
Q 2828 2175 2409 1742 
Q 1991 1309 1228 531 
z
" transform="scale(0.015625)"/>
       </defs>
       <use xlink:href="#DejaVuSans-2212"/>
       <use xlink:href="#DejaVuSans-30" x="83.789062"/>
       <use xlink:href="#DejaVuSans-2e" x="147.412109"/>
       <use xlink:href="#DejaVuSans-32" x="179.199219"/>
       <use xlink:href="#DejaVuSans-35" x="242.822266"/>
      </g>
     </g>
    </g>
    <g id="ytick_5">
     <g id="line2d_21">
      <path d="M 60.459063 144.503963 
L 618.459062 144.503963 
" clip-path="url(#p8c6ed8f43d)" style="fill: none; stroke: #b0b0b0; stroke-width: 0.8; stroke-linecap: square"/>
     </g>
     <g id="line2d_22">
      <g>
       <use xlink:href="#m178bc608fa" x="60.459063" y="144.503963" style="stroke: #000000; stroke-width: 0.8"/>
      </g>
     </g>
     <g id="text_12">
      <!-- 0.00 -->
      <g transform="translate(31.193438 148.303182)scale(0.1 -0.1)">
       <use xlink:href="#DejaVuSans-30"/>
       <use xlink:href="#DejaVuSans-2e" x="63.623047"/>
       <use xlink:href="#DejaVuSans-30" x="95.410156"/>
       <use xlink:href="#DejaVuSans-30" x="159.033203"/>
      </g>
     </g>
    </g>
    <g id="ytick_6">
     <g id="line2d_23">
      <path d="M 60.459063 113.327969 
L 618.459062 113.327969 
" clip-path="url(#p8c6ed8f43d)" style="fill: none; stroke: #b0b0b0; stroke-width: 0.8; stroke-linecap: square"/>
     </g>
     <g id="line2d_24">
      <g>
       <use xlink:href="#m178bc608fa" x="60.459063" y="113.327969" style="stroke: #000000; stroke-width: 0.8"/>
      </g>
     </g>
     <g id="text_13">
      <!-- 0.25 -->
      <g transform="translate(31.193438 117.127188)scale(0.1 -0.1)">
       <use xlink:href="#DejaVuSans-30"/>
       <use xlink:href="#DejaVuSans-2e" x="63.623047"/>
       <use xlink:href="#DejaVuSans-32" x="95.410156"/>
       <use xlink:href="#DejaVuSans-35" x="159.033203"/>
      </g>
     </g>
    </g>
    <g id="ytick_7">
     <g id="line2d_25">
      <path d="M 60.459063 82.151974 
L 618.459062 82.151974 
" clip-path="url(#p8c6ed8f43d)" style="fill: none; stroke: #b0b0b0; stroke-width: 0.8; stroke-linecap: square"/>
     </g>
     <g id="line2d_26">
      <g>
       <use xlink:href="#m178bc608fa" x="60.459063" y="82.151974" style="stroke: #000000; stroke-width: 0.8"/>
      </g>
     </g>
     <g id="text_14">
      <!-- 0.50 -->
      <g transform="translate(31.193438 85.951193)scale(0.1 -0.1)">
       <use xlink:href="#DejaVuSans-30"/>
       <use xlink:href="#DejaVuSans-2e" x="63.623047"/>
       <use xlink:href="#DejaVuSans-35" x="95.410156"/>
       <use xlink:href="#DejaVuSans-30" x="159.033203"/>
      </g>
     </g>
    </g>
    <g id="ytick_8">
     <g id="line2d_27">
      <path d="M 60.459063 50.97598 
L 618.459062 50.97598 
" clip-path="url(#p8c6ed8f43d)" style="fill: none; stroke: #b0b0b0; stroke-width: 0.8; stroke-linecap: square"/>
     </g>
     <g id="line2d_28">
      <g>
       <use xlink:href="#m178bc608fa" x="60.459063" y="50.97598" style="stroke: #000000; stroke-width: 0.8"/>
      </g>
     </g>
     <g id="text_15">
      <!-- 0.75 -->
      <g transform="translate(31.193438 54.775198)scale(0.1 -0.1)">
       <use xlink:href="#DejaVuSans-30"/>
       <use xlink:href="#DejaVuSans-2e" x="63.623047"/>
       <use xlink:href="#DejaVuSans-37" x="95.410156"/>
       <use xlink:href="#DejaVuSans-35" x="159.033203"/>
      </g>
     </g>
    </g>
    <g id="ytick_9">
     <g id="line2d_29">
      <path d="M 60.459063 19.799985 
L 618.459062 19.799985 
" clip-path="url(#p8c6ed8f43d)" style="fill: none; stroke: #b0b0b0; stroke-width: 0.8; stroke-linecap: square"/>
     </g>
     <g id="line2d_30">
      <g>
       <use xlink:href="#m178bc608fa" x="60.459063" y="19.799985" style="stroke: #000000; stroke-width: 0.8"/>
      </g>
     </g>
     <g id="text_16">
      <!-- 1.00 -->
      <g transform="translate(31.193438 23.599204)scale(0.1 -0.1)">
       <use xlink:href="#DejaVuSans-31"/>
       <use xlink:href="#DejaVuSans-2e" x="63.623047"/>
       <use xlink:href="#DejaVuSans-30" x="95.410156"/>
       <use xlink:href="#DejaVuSans-30" x="159.033203"/>
      </g>
     </g>
    </g>
    <g id="text_17">
     <!-- sin(x) -->
     <g transform="translate(16.318125 162.628125)rotate(-90)scale(0.12 -0.12)">
      <defs>
       <path id="DejaVuSans-73" d="M 2834 3397 
L 2834 2853 
Q 2591 2978 2328 3040 
Q 2066 3103 1784 3103 
Q 1356 3103 1142 2972 
Q 928 2841 928 2578 
Q 928 2378 1081 2264 
Q 1234 2150 1697 2047 
L 1894 2003 
Q 2506 1872 2764 1633 
Q 3022 1394 3022 966 
Q 3022 478 2636 193 
Q 2250 -91 1575 -91 
Q 1294 -91 989 -36 
Q 684 19 347 128 
L 347 722 
Q 666 556 975 473 
Q 1284 391 1588 391 
Q 1994 391 2212 530 
Q 2431 669 2431 922 
Q 2431 1156 2273 1281 
Q 2116 1406 1581 1522 
L 1381 1569 
Q 847 1681 609 1914 
Q 372 2147 372 2553 
Q 372 3047 722 3315 
Q 1072 3584 1716 3584 
Q 2034 3584 2315 3537 
Q 2597 3491 2834 3397 
z
" transform="scale(0.015625)"/>
       <path id="DejaVuSans-6e" d="M 3513 2113 
L 3513 0 
L 2938 0 
L 2938 2094 
Q 2938 2591 2744 2837 
Q 2550 3084 2163 3084 
Q 1697 3084 1428 2787 
Q 1159 2491 1159 1978 
L 1159 0 
L 581 0 
L 581 3500 
L 1159 3500 
L 1159 2956 
Q 1366 3272 1645 3428 
Q 1925 3584 2291 3584 
Q 2894 3584 3203 3211 
Q 3513 2838 3513 2113 
z
" transform="scale(0.015625)"/>
      </defs>
      <use xlink:href="#DejaVuSans-73"/>
      <use xlink:href="#DejaVuSans-69" x="52.099609"/>
      <use xlink:href="#DejaVuSans-6e" x="79.882812"/>
      <use xlink:href="#DejaVuSans-28" x="143.261719"/>
      <use xlink:href="#DejaVuSans-78" x="182.275391"/>
      <use xlink:href="#DejaVuSans-29" x="241.455078"/>
     </g>
    </g>
   </g>
   <g id="line2d_31">
    <path d="M 85.822699 174.203292 
L 93.439393 83.636729 
L 95.470514 63.21729 
L 96.993884 49.991301 
L 98.517215 38.890308 
L 99.532756 32.795456 
L 100.548336 27.817656 
L 101.563877 24.007079 
L 102.579457 21.401552 
L 103.087247 20.559371 
L 103.594998 20.027329 
L 104.102788 19.806682 
L 104.610578 19.898048 
L 105.118368 20.301181 
L 105.626119 21.01501 
L 106.133909 22.037856 
L 107.149489 24.999495 
L 108.16503 29.156238 
L 109.18061 34.466826 
L 110.196151 40.877741 
L 111.719482 52.414632 
L 113.242852 66.022049 
L 115.273973 86.850686 
L 117.812845 116.014894 
L 125.429577 206.454849 
L 127.460698 226.730792 
L 128.984029 239.823857 
L 130.507399 250.774394 
L 131.522979 256.760516 
L 132.53852 261.623686 
L 133.5541 265.315633 
L 134.569641 267.79914 
L 135.077431 268.579576 
L 135.585221 269.049568 
L 136.092972 269.207934 
L 136.600762 269.054303 
L 137.108552 268.589046 
L 137.616342 267.813315 
L 138.124093 266.729147 
L 139.139673 263.646701 
L 140.155214 259.372777 
L 141.170794 253.949781 
L 142.186335 247.432382 
L 143.709705 235.748839 
L 145.233036 222.014393 
L 147.264157 201.05035 
L 149.803068 171.77901 
L 156.911972 86.935177 
L 158.943093 66.096103 
L 160.466424 52.479217 
L 161.989794 40.930768 
L 163.005335 34.511684 
L 164.020915 29.192474 
L 165.036456 25.026752 
L 166.052036 22.055859 
L 166.559787 21.028374 
L 167.067577 20.309743 
L 167.575367 19.901861 
L 168.083157 19.805731 
L 168.590908 20.021583 
L 169.098698 20.548906 
L 169.606488 21.386367 
L 170.114278 22.531887 
L 171.129819 25.734687 
L 172.145399 30.125523 
L 173.16094 35.660139 
L 174.17652 42.283607 
L 175.699851 54.111988 
L 177.223182 67.97237 
L 179.254303 89.069678 
L 181.793214 118.444734 
L 188.902118 203.173918 
L 190.933239 223.875719 
L 192.456609 237.364373 
L 193.97994 248.765159 
L 194.995481 255.077216 
L 196.011061 260.283579 
L 197.026602 264.331772 
L 198.042182 267.181627 
L 198.549972 268.147723 
L 199.057723 268.804415 
L 199.565513 269.150158 
L 200.073303 269.18403 
L 200.581093 268.905942 
L 201.088844 268.316651 
L 201.596634 267.417533 
L 202.104424 266.210885 
L 203.119965 262.887947 
L 204.135583 258.380636 
L 205.151124 252.734712 
L 206.166704 246.006061 
L 207.690035 234.033704 
L 209.213366 220.048716 
L 211.244487 198.820198 
L 213.783398 169.344316 
L 220.384551 90.285632 
L 222.415672 69.045753 
L 223.939003 55.04995 
L 225.462334 43.065076 
L 226.477914 36.327275 
L 227.493455 30.671651 
L 228.508996 26.154499 
L 229.524576 22.820894 
L 230.032366 21.608879 
L 230.540079 20.704469 
L 231.047869 20.109664 
L 231.555659 19.82609 
L 232.063448 19.854476 
L 232.571238 20.194741 
L 233.079028 20.846045 
L 233.586818 21.806737 
L 234.094608 23.074431 
L 235.110111 26.517063 
L 236.12569 31.140015 
L 237.14127 36.896839 
L 238.15685 43.729952 
L 239.680142 55.844717 
L 241.203512 69.953195 
L 243.234595 91.310333 
L 245.773544 120.884496 
L 252.374658 199.839971 
L 254.405818 220.949298 
L 255.92911 234.820339 
L 257.45248 246.66172 
L 258.46806 253.294441 
L 259.483562 258.838661 
L 260.499142 263.239762 
L 261.514722 266.453258 
L 262.022512 267.604145 
L 262.530302 268.447025 
L 263.038014 268.979728 
L 263.545804 269.201089 
L 264.053594 269.110451 
L 264.561384 268.70804 
L 265.069174 267.994857 
L 265.576964 266.972694 
L 266.592544 264.012416 
L 267.608046 259.857174 
L 268.623704 254.547441 
L 269.639283 248.137411 
L 271.162576 236.602378 
L 272.685946 222.996343 
L 274.717105 202.168765 
L 277.255978 173.005688 
L 284.872672 82.564774 
L 286.903831 62.286909 
L 288.427124 49.192759 
L 289.950493 38.240587 
L 290.966073 32.253275 
L 291.981576 27.389028 
L 292.997155 23.695751 
L 294.012735 21.210808 
L 294.520525 20.429704 
L 295.028315 19.959043 
L 295.536028 19.8 
L 296.043818 19.952933 
L 296.551607 20.417499 
L 297.059397 21.192538 
L 297.567187 22.276104 
L 298.582767 25.357242 
L 299.59827 29.629724 
L 300.613849 35.051456 
L 301.629429 41.567941 
L 303.152799 53.249901 
L 304.676091 66.982607 
L 306.707251 87.945569 
L 309.246123 117.215307 
L 316.355027 202.060378 
L 318.386187 222.901343 
L 319.909479 236.5193 
L 321.432849 248.069384 
L 322.448429 254.489895 
L 323.464009 259.810324 
L 324.479511 263.977176 
L 325.495091 266.949422 
L 326.002881 267.977665 
L 326.510671 268.696965 
L 327.018461 269.105523 
L 327.526251 269.202323 
L 328.033963 268.987169 
L 328.541753 268.460545 
L 329.049543 267.623775 
L 329.557333 266.478947 
L 330.572913 263.277351 
L 331.588493 258.887771 
L 332.603995 253.354596 
L 333.619575 246.732303 
L 335.142945 234.905223 
L 336.666237 221.046565 
L 338.697397 199.95032 
L 341.236269 170.576835 
L 348.345173 85.846318 
L 350.376333 65.142606 
L 351.899703 51.652548 
L 353.422995 40.250416 
L 354.438575 33.936939 
L 355.454155 28.729357 
L 356.469657 24.680013 
L 357.485237 21.828805 
L 357.993027 20.862018 
L 358.500817 20.204597 
L 359.008607 19.858178 
L 359.516397 19.823629 
L 360.024187 20.101049 
L 360.531899 20.689611 
L 361.039689 21.588037 
L 361.547479 22.794002 
L 362.563059 26.115744 
L 363.578639 30.621605 
L 364.594141 36.26605 
L 365.609721 42.993482 
L 367.133091 54.964516 
L 368.656383 68.947735 
L 370.687543 90.175171 
L 373.226415 119.649475 
L 379.827684 198.710592 
L 381.858766 219.951449 
L 383.382136 233.948916 
L 384.905428 245.935017 
L 385.921008 252.673947 
L 386.936588 258.330962 
L 387.952168 262.849481 
L 388.96767 266.18409 
L 389.47546 267.396758 
L 389.98325 268.301949 
L 390.49104 268.897386 
L 390.99883 269.181577 
L 391.50662 269.153823 
L 392.01441 268.814175 
L 392.5222 268.163503 
L 393.029912 267.203591 
L 393.537702 265.936558 
L 394.553282 262.494915 
L 395.568862 257.873123 
L 396.584442 252.117414 
L 397.599944 245.285906 
L 399.123314 233.172018 
L 400.646684 219.064766 
L 402.677766 197.708922 
L 405.216638 168.136659 
L 411.81783 89.179176 
L 413.848912 68.069273 
L 415.372282 54.196225 
L 416.895652 42.353387 
L 417.911154 35.720071 
L 418.926734 30.174268 
L 419.942314 25.771993 
L 420.957894 22.557285 
L 421.465606 21.405938 
L 421.973396 20.562389 
L 422.481186 20.028957 
L 422.988976 19.806965 
L 423.496766 19.896978 
L 424.004556 20.298765 
L 424.512346 21.011323 
L 425.020136 22.032869 
L 426.035638 24.991661 
L 427.051218 29.145996 
L 428.066798 34.454145 
L 429.082378 40.863024 
L 430.60567 52.396458 
L 432.12904 66.00111 
L 434.160122 86.826373 
L 436.699072 115.989122 
L 444.315766 206.431461 
L 446.346848 226.710173 
L 447.870218 239.806479 
L 449.393587 250.760286 
L 450.40909 256.748363 
L 451.42467 261.614268 
L 452.44025 265.308832 
L 453.455829 267.795097 
L 453.963542 268.576774 
L 454.471332 269.048156 
L 454.979122 269.20792 
L 455.486912 269.055663 
L 455.994702 268.591766 
L 456.502492 267.817403 
L 457.010281 266.734491 
L 458.025784 263.654936 
L 459.041364 259.383443 
L 460.056944 253.962923 
L 461.072523 247.44759 
L 462.595816 235.76786 
L 464.119186 222.035874 
L 466.150268 201.075213 
L 468.689217 171.805767 
L 475.798122 86.959505 
L 477.829281 66.117064 
L 479.352574 52.497725 
L 480.875943 40.94605 
L 481.891523 34.524379 
L 482.907026 29.203096 
L 483.922605 25.034608 
L 484.938185 22.061055 
L 485.445975 21.03215 
L 485.953765 20.312181 
L 486.461478 19.902991 
L 486.969268 19.805471 
L 487.477057 20.019955 
L 487.984847 20.54591 
L 488.492637 21.382011 
L 489.000427 22.526178 
L 490.016007 25.726473 
L 491.03151 30.114411 
L 492.047089 35.64676 
L 493.062669 42.267908 
L 494.585962 54.092766 
L 496.109331 67.950725 
L 498.140491 89.04554 
L 500.679363 118.417917 
L 507.788267 203.149716 
L 509.819427 223.854929 
L 511.342719 237.345746 
L 512.866089 248.750115 
L 513.881669 255.064759 
L 514.897171 260.27321 
L 515.912751 264.324176 
L 516.928331 267.176699 
L 517.436121 268.144147 
L 517.943911 268.802245 
L 518.451701 269.149333 
L 518.959413 269.184573 
L 519.467203 268.907882 
L 519.974993 268.319922 
L 520.482783 267.422164 
L 520.990573 266.216854 
L 522.006153 262.896413 
L 523.021655 258.392194 
L 524.037235 252.748567 
L 525.052815 246.022272 
L 526.576185 234.052792 
L 528.099477 220.070911 
L 530.130637 198.844883 
L 532.669509 169.371655 
L 539.270623 90.311183 
L 541.301783 69.067962 
L 542.825153 55.06906 
L 544.348445 43.081302 
L 545.364102 36.340684 
L 546.379682 30.682465 
L 547.395185 26.162995 
L 548.410764 22.826788 
L 548.918554 21.613451 
L 549.426344 20.707599 
L 549.934134 20.111492 
L 550.441924 19.826625 
L 550.949714 19.85371 
L 551.457427 20.192608 
L 551.965217 20.842559 
L 552.473006 21.801928 
L 552.980796 23.068307 
L 553.996376 26.508649 
L 555.011956 31.129192 
L 556.027458 36.883229 
L 557.043038 43.714083 
L 558.566408 55.826439 
L 560.0897 69.931595 
L 562.12086 91.286823 
L 564.659732 120.858039 
L 571.260924 199.816676 
L 573.292006 220.928003 
L 574.815376 234.802411 
L 576.338668 246.646267 
L 577.354248 253.28127 
L 578.369828 258.828277 
L 579.385408 263.231809 
L 580.40091 266.447624 
L 580.9087 267.599834 
L 581.41649 268.444044 
L 581.92428 268.978153 
L 582.43207 269.200814 
L 582.93986 269.111477 
L 583.44765 268.710366 
L 583.955362 267.998611 
L 584.463152 266.977771 
L 585.478732 264.020116 
L 586.494312 259.867045 
L 587.509814 254.56056 
L 588.525394 248.152931 
L 590.048764 236.620544 
L 591.572056 223.018025 
L 593.095426 207.649775 
L 593.095426 207.649775 
" clip-path="url(#p8c6ed8f43d)" style="fill: none; stroke: #0000ff; stroke-width: 2; stroke-linecap: square"/>
   </g>
   <g id="line2d_32">
    <path d="M 85.822699 173.981367 
L 88.36161 142.067464 
L 92.423852 90.197229 
L 93.947183 72.921293 
L 95.470514 57.965913 
L 96.993884 45.708771 
L 98.009425 39.086418 
L 99.025005 33.679314 
L 100.040546 29.448115 
L 101.056126 26.355649 
L 101.563877 25.22701 
L 102.071667 24.372861 
L 102.579457 23.790907 
L 103.087247 23.479289 
L 103.594998 23.436304 
L 104.102788 23.660169 
L 104.610578 24.148699 
L 105.118368 24.899433 
L 105.626119 25.909517 
L 106.641699 28.694326 
L 107.65724 32.471328 
L 108.67282 37.201782 
L 109.688361 42.843203 
L 111.211731 52.917121 
L 112.735062 64.814323 
L 114.258393 78.410665 
L 116.289514 98.992288 
L 118.320635 122.096223 
L 120.859546 153.769578 
L 125.937329 218.260337 
L 127.460698 234.74957 
L 128.984029 248.562902 
L 129.999571 256.025406 
L 131.015189 261.982652 
L 132.03073 266.398931 
L 132.53852 268.030728 
L 133.04631 269.284204 
L 133.5541 270.166523 
L 134.061851 270.686754 
L 134.569641 270.855437 
L 135.077431 270.684435 
L 135.585221 270.186384 
L 136.092972 269.374633 
L 136.600762 268.262829 
L 137.616342 265.193398 
L 138.631883 261.083237 
L 139.647463 256.028142 
L 141.170794 246.849313 
L 142.694125 235.938818 
L 144.217456 223.438759 
L 146.248577 204.451829 
L 148.279698 182.963203 
L 150.310819 159.225563 
L 153.35752 120.75575 
L 156.404182 82.741406 
L 157.927552 65.798459 
L 159.450883 51.162747 
L 160.466424 42.914009 
L 161.482004 35.962452 
L 162.497545 30.342609 
L 163.513125 26.061275 
L 164.528666 23.104773 
L 165.036456 22.114579 
L 165.544246 21.443333 
L 166.052036 21.08514 
L 166.559787 21.033399 
L 167.067577 21.280812 
L 167.575367 21.819492 
L 168.083157 22.641084 
L 168.590908 23.73687 
L 169.606488 26.715329 
L 170.622029 30.683632 
L 171.637609 35.573732 
L 172.65315 41.324111 
L 174.17652 51.4489 
L 175.699851 63.247906 
L 177.223182 76.609695 
L 179.254303 96.687289 
L 181.285424 119.104258 
L 183.824335 149.771474 
L 189.409908 219.134167 
L 190.933239 235.431356 
L 192.456609 249.245543 
L 193.47215 256.781945 
L 194.48773 262.833768 
L 195.503271 267.332359 
L 196.011061 268.992327 
L 196.518851 270.262125 
L 197.026602 271.147507 
L 197.534392 271.656648 
L 198.042182 271.8 
L 198.549972 271.589692 
L 199.057723 271.039224 
L 199.565513 270.162955 
L 200.073303 268.975767 
L 201.088844 265.728614 
L 202.104424 261.414047 
L 203.119965 256.137933 
L 204.643373 246.61438 
L 206.166704 235.361591 
L 207.690035 222.536453 
L 209.721156 203.16159 
L 211.752277 181.358848 
L 214.291188 151.152178 
L 220.384551 75.627001 
L 221.907882 59.750145 
L 223.431213 46.337738 
L 224.446793 38.926305 
L 225.462334 32.796437 
L 226.477914 27.967303 
L 227.493455 24.439639 
L 228.001207 23.159985 
L 228.508996 22.199367 
L 229.016786 21.553846 
L 229.524576 21.21865 
L 230.032366 21.18819 
L 230.540079 21.456036 
L 231.047869 22.015119 
L 231.555659 22.857687 
L 232.571238 25.36032 
L 233.586818 28.895543 
L 234.602321 33.394632 
L 235.617901 38.792951 
L 237.14127 48.452223 
L 238.664563 59.845963 
L 240.187932 72.848941 
L 242.219092 92.507355 
L 244.250174 114.574015 
L 246.789047 144.939902 
L 253.390238 226.072316 
L 254.913531 241.35644 
L 255.92911 250.058624 
L 256.94469 257.387462 
L 257.96027 263.233407 
L 258.975772 267.536245 
L 259.483562 269.104089 
L 259.991352 270.286342 
L 260.499142 271.08901 
L 261.006932 271.520566 
L 261.514722 271.591402 
L 262.022512 271.313633 
L 262.530302 270.70058 
L 263.038014 269.766334 
L 264.053594 266.992734 
L 265.069174 263.108772 
L 266.084754 258.223192 
L 267.100256 252.4315 
L 268.623704 242.214163 
L 270.147073 230.332362 
L 271.670366 216.916848 
L 273.701525 196.792954 
L 275.732608 174.296166 
L 278.271557 143.416174 
L 283.349302 80.047933 
L 284.872672 63.596541 
L 286.396041 49.503998 
L 287.411544 41.609187 
L 288.427124 34.986559 
L 289.442703 29.663001 
L 290.458283 25.644221 
L 291.473786 22.920168 
L 291.981576 22.036727 
L 292.489366 21.466985 
L 292.997155 21.205866 
L 293.504945 21.247497 
L 294.012735 21.58528 
L 294.520525 22.211899 
L 295.028315 23.119557 
L 296.043818 25.744647 
L 297.059397 29.39213 
L 298.074977 33.993965 
L 299.090557 39.486548 
L 300.613849 49.274358 
L 302.137219 60.785003 
L 303.660512 73.89648 
L 305.691671 93.68888 
L 307.722754 115.875409 
L 310.261703 146.356598 
L 316.355027 221.781601 
L 317.878397 237.680793 
L 319.401767 250.99177 
L 320.417269 258.157499 
L 321.432849 263.828607 
L 322.448429 267.951032 
L 322.956219 269.428537 
L 323.464009 270.521327 
L 323.971721 271.236093 
L 324.479511 271.581814 
L 324.987301 271.569445 
L 325.495091 271.211386 
L 326.002881 270.521252 
L 326.510671 269.513376 
L 327.526251 266.602906 
L 328.541753 262.595676 
L 329.557333 257.599204 
L 331.080703 248.450352 
L 332.603995 237.530187 
L 334.127365 225.007287 
L 336.158447 206.000749 
L 338.189607 184.526936 
L 340.728479 154.634825 
L 347.837461 67.620175 
L 349.360753 52.875578 
L 350.884123 40.782785 
L 351.899703 34.306624 
L 352.915205 29.131383 
L 353.930785 25.260882 
L 354.946365 22.683466 
L 355.454155 21.872265 
L 355.961945 21.373783 
L 356.469657 21.182742 
L 356.977447 21.293106 
L 357.485237 21.698045 
L 357.993027 22.39017 
L 358.500817 23.361506 
L 359.516397 26.108214 
L 360.531899 29.869495 
L 361.547479 34.57754 
L 362.563059 40.169405 
L 364.086429 50.095088 
L 365.609721 61.732925 
L 367.133091 74.962898 
L 369.164173 94.900478 
L 371.195333 117.213731 
L 373.734205 147.809411 
L 379.827684 223.06851 
L 381.350976 238.792731 
L 382.874346 251.882585 
L 383.889926 258.882285 
L 384.905428 264.378719 
L 385.921008 268.323586 
L 386.428798 269.712965 
L 386.936588 270.718909 
L 387.444378 271.348672 
L 387.952168 271.611709 
L 388.459958 271.519317 
L 388.96767 271.084253 
L 389.47546 270.320296 
L 389.98325 269.241866 
L 390.99883 266.200293 
L 392.01441 262.074679 
L 393.029912 256.971218 
L 394.553282 247.679371 
L 396.076652 236.631582 
L 397.599944 223.991131 
L 399.631104 204.838 
L 401.662186 183.228937 
L 404.201136 153.200254 
L 410.80225 71.793657 
L 412.32562 56.427057 
L 413.848912 43.624821 
L 414.864492 36.652161 
L 415.880072 30.973777 
L 416.895652 26.600587 
L 417.911154 23.526592 
L 418.418944 22.471011 
L 418.926734 21.731642 
L 419.434524 21.303832 
L 419.942314 21.182155 
L 420.450104 21.360367 
L 420.957894 21.831533 
L 421.465606 22.588109 
L 421.973396 23.622031 
L 422.988976 26.488022 
L 424.004556 30.360746 
L 425.020136 35.172777 
L 426.035638 40.861916 
L 427.559008 50.922909 
L 429.082378 62.685976 
L 430.60567 76.033025 
L 432.63683 96.114463 
L 434.667912 118.553427 
L 437.206862 149.262084 
L 442.792396 218.679524 
L 444.315766 234.976498 
L 445.839058 248.800488 
L 446.854638 256.35615 
L 447.870218 262.440781 
L 448.885798 266.986445 
L 449.393587 268.674896 
L 449.9013 269.976091 
L 450.40909 270.895293 
L 450.91688 271.440305 
L 451.42467 271.62103 
L 451.93246 271.449136 
L 452.44025 270.937646 
L 452.948039 270.100533 
L 453.455829 268.952279 
L 454.471332 265.78112 
L 455.486912 261.538638 
L 456.502492 256.329607 
L 458.025784 246.896586 
L 459.549154 235.722623 
L 461.072523 222.965757 
L 463.103606 203.667275 
L 465.134765 181.924279 
L 467.673638 151.761846 
L 474.274752 70.541646 
L 475.798122 55.356343 
L 477.321491 42.762868 
L 478.336994 35.936964 
L 479.352574 30.407648 
L 480.368153 26.183606 
L 481.383733 23.257148 
L 481.891523 22.274254 
L 482.399236 21.606575 
L 482.907026 21.249289 
L 483.414816 21.196768 
L 483.922605 21.442634 
L 484.430395 21.979753 
L 484.938185 22.800468 
L 485.445975 23.896633 
L 486.461478 26.881232 
L 487.477057 30.864684 
L 488.492637 35.78001 
L 489.508217 41.565778 
L 491.03151 51.761292 
L 492.554879 63.648935 
L 494.078249 77.112406 
L 496.109331 97.336698 
L 498.140491 119.899892 
L 500.679363 150.718259 
L 506.264975 219.993452 
L 507.788267 236.125444 
L 509.311637 249.735581 
L 510.327217 257.128127 
L 511.342719 263.039303 
L 512.358299 267.406986 
L 512.866089 269.006539 
L 513.373879 270.219832 
L 513.881669 271.052678 
L 514.389459 271.513445 
L 514.897171 271.612437 
L 515.404961 271.361695 
L 515.912751 270.774478 
L 516.420541 269.864894 
L 516.928331 268.647588 
L 517.943911 265.348256 
L 518.959413 260.990177 
L 519.974993 255.676683 
L 521.498363 246.103759 
L 523.021655 234.804433 
L 524.545025 221.931642 
L 526.576185 202.488315 
L 528.607267 180.612202 
L 531.146139 150.318641 
L 537.239541 74.813325 
L 538.762911 59.027753 
L 540.286203 45.736146 
L 541.301783 38.417023 
L 542.317363 32.385559 
L 543.332865 27.658204 
L 544.348445 24.233137 
L 544.856312 23.004346 
L 545.364102 22.093908 
L 545.871892 21.49766 
L 546.379682 21.210593 
L 546.887472 21.226886 
L 547.395185 21.539991 
L 547.902975 22.142668 
L 548.410764 23.027091 
L 549.426344 25.608022 
L 550.441924 29.214379 
L 551.457427 33.777949 
L 552.473006 39.234809 
L 553.996376 48.972974 
L 555.519669 60.437625 
L 557.043038 73.505931 
L 559.074198 93.244777 
L 561.10528 115.383646 
L 563.644152 145.819964 
L 569.737554 221.296691 
L 571.260924 237.259591 
L 572.784216 250.652597 
L 573.799796 257.880533 
L 574.815376 263.617422 
L 575.830878 267.806967 
L 576.338668 269.317816 
L 576.846458 270.443504 
L 577.354248 271.190484 
L 577.862038 271.567527 
L 578.369828 271.585441 
L 578.877618 271.256563 
L 579.385408 270.594378 
L 579.89312 269.613141 
L 580.9087 266.752159 
L 581.92428 262.789482 
L 582.93986 257.833119 
L 583.955362 251.977548 
L 585.478732 241.674599 
L 587.002024 229.716008 
L 588.525394 216.229584 
L 590.556554 196.017877 
L 592.587636 173.442858 
L 593.095426 167.465878 
L 593.095426 167.465878 
" clip-path="url(#p8c6ed8f43d)" style="fill: none; stroke-dasharray: 7.4,3.2; stroke-dashoffset: 0; stroke: #ff0000; stroke-width: 2"/>
   </g>
   <g id="patch_3">
    <path d="M 60.459063 284.4 
L 60.459063 7.2 
" style="fill: none; stroke: #000000; stroke-width: 0.8; stroke-linejoin: miter; stroke-linecap: square"/>
   </g>
   <g id="patch_4">
    <path d="M 618.459062 284.4 
L 618.459062 7.2 
" style="fill: none; stroke: #000000; stroke-width: 0.8; stroke-linejoin: miter; stroke-linecap: square"/>
   </g>
   <g id="patch_5">
    <path d="M 60.459063 284.4 
L 618.459063 284.4 
" style="fill: none; stroke: #000000; stroke-width: 0.8; stroke-linejoin: miter; stroke-linecap: square"/>
   </g>
   <g id="patch_6">
    <path d="M 60.459063 7.2 
L 618.459063 7.2 
" style="fill: none; stroke: #000000; stroke-width: 0.8; stroke-linejoin: miter; stroke-linecap: square"/>
   </g>
   <g id="legend_1">
    <g id="patch_7">
     <path d="M 537.155937 44.55625 
L 611.459062 44.55625 
Q 613.459062 44.55625 613.459062 42.55625 
L 613.459062 14.2 
Q 613.459062 12.2 611.459062 12.2 
L 537.155937 12.2 
Q 535.155937 12.2 535.155937 14.2 
L 535.155937 42.55625 
Q 535.155937 44.55625 537.155937 44.55625 
z
" style="fill: #ffffff; opacity: 0.8; stroke: #cccccc; stroke-linejoin: miter"/>
    </g>
    <g id="line2d_33">
     <path d="M 539.155937 20.298437 
L 549.155937 20.298437 
L 559.155937 20.298437 
" style="fill: none; stroke: #0000ff; stroke-width: 2; stroke-linecap: square"/>
    </g>
    <g id="text_18">
     <!-- Actual -->
     <g transform="translate(567.155937 23.798437)scale(0.1 -0.1)">
      <defs>
       <path id="DejaVuSans-41" d="M 2188 4044 
L 1331 1722 
L 3047 1722 
L 2188 4044 
z
M 1831 4666 
L 2547 4666 
L 4325 0 
L 3669 0 
L 3244 1197 
L 1141 1197 
L 716 0 
L 50 0 
L 1831 4666 
z
" transform="scale(0.015625)"/>
       <path id="DejaVuSans-63" d="M 3122 3366 
L 3122 2828 
Q 2878 2963 2633 3030 
Q 2388 3097 2138 3097 
Q 1578 3097 1268 2742 
Q 959 2388 959 1747 
Q 959 1106 1268 751 
Q 1578 397 2138 397 
Q 2388 397 2633 464 
Q 2878 531 3122 666 
L 3122 134 
Q 2881 22 2623 -34 
Q 2366 -91 2075 -91 
Q 1284 -91 818 406 
Q 353 903 353 1747 
Q 353 2603 823 3093 
Q 1294 3584 2113 3584 
Q 2378 3584 2631 3529 
Q 2884 3475 3122 3366 
z
" transform="scale(0.015625)"/>
       <path id="DejaVuSans-75" d="M 544 1381 
L 544 3500 
L 1119 3500 
L 1119 1403 
Q 1119 906 1312 657 
Q 1506 409 1894 409 
Q 2359 409 2629 706 
Q 2900 1003 2900 1516 
L 2900 3500 
L 3475 3500 
L 3475 0 
L 2900 0 
L 2900 538 
Q 2691 219 2414 64 
Q 2138 -91 1772 -91 
Q 1169 -91 856 284 
Q 544 659 544 1381 
z
M 1991 3584 
L 1991 3584 
z
" transform="scale(0.015625)"/>
       <path id="DejaVuSans-61" d="M 2194 1759 
Q 1497 1759 1228 1600 
Q 959 1441 959 1056 
Q 959 750 1161 570 
Q 1363 391 1709 391 
Q 2188 391 2477 730 
Q 2766 1069 2766 1631 
L 2766 1759 
L 2194 1759 
z
M 3341 1997 
L 3341 0 
L 2766 0 
L 2766 531 
Q 2569 213 2275 61 
Q 1981 -91 1556 -91 
Q 1019 -91 701 211 
Q 384 513 384 1019 
Q 384 1609 779 1909 
Q 1175 2209 1959 2209 
L 2766 2209 
L 2766 2266 
Q 2766 2663 2505 2880 
Q 2244 3097 1772 3097 
Q 1472 3097 1187 3025 
Q 903 2953 641 2809 
L 641 3341 
Q 956 3463 1253 3523 
Q 1550 3584 1831 3584 
Q 2591 3584 2966 3190 
Q 3341 2797 3341 1997 
z
" transform="scale(0.015625)"/>
       <path id="DejaVuSans-6c" d="M 603 4863 
L 1178 4863 
L 1178 0 
L 603 0 
L 603 4863 
z
" transform="scale(0.015625)"/>
      </defs>
      <use xlink:href="#DejaVuSans-41"/>
      <use xlink:href="#DejaVuSans-63" x="66.658203"/>
      <use xlink:href="#DejaVuSans-74" x="121.638672"/>
      <use xlink:href="#DejaVuSans-75" x="160.847656"/>
      <use xlink:href="#DejaVuSans-61" x="224.226562"/>
      <use xlink:href="#DejaVuSans-6c" x="285.505859"/>
     </g>
    </g>
    <g id="line2d_34">
     <path d="M 539.155937 34.976562 
L 549.155937 34.976562 
L 559.155937 34.976562 
" style="fill: none; stroke-dasharray: 7.4,3.2; stroke-dashoffset: 0; stroke: #ff0000; stroke-width: 2"/>
    </g>
    <g id="text_19">
     <!-- Forecast -->
     <g transform="translate(567.155937 38.476562)scale(0.1 -0.1)">
      <defs>
       <path id="DejaVuSans-46" d="M 628 4666 
L 3309 4666 
L 3309 4134 
L 1259 4134 
L 1259 2759 
L 3109 2759 
L 3109 2228 
L 1259 2228 
L 1259 0 
L 628 0 
L 628 4666 
z
" transform="scale(0.015625)"/>
       <path id="DejaVuSans-6f" d="M 1959 3097 
Q 1497 3097 1228 2736 
Q 959 2375 959 1747 
Q 959 1119 1226 758 
Q 1494 397 1959 397 
Q 2419 397 2687 759 
Q 2956 1122 2956 1747 
Q 2956 2369 2687 2733 
Q 2419 3097 1959 3097 
z
M 1959 3584 
Q 2709 3584 3137 3096 
Q 3566 2609 3566 1747 
Q 3566 888 3137 398 
Q 2709 -91 1959 -91 
Q 1206 -91 779 398 
Q 353 888 353 1747 
Q 353 2609 779 3096 
Q 1206 3584 1959 3584 
z
" transform="scale(0.015625)"/>
       <path id="DejaVuSans-72" d="M 2631 2963 
Q 2534 3019 2420 3045 
Q 2306 3072 2169 3072 
Q 1681 3072 1420 2755 
Q 1159 2438 1159 1844 
L 1159 0 
L 581 0 
L 581 3500 
L 1159 3500 
L 1159 2956 
Q 1341 3275 1631 3429 
Q 1922 3584 2338 3584 
Q 2397 3584 2469 3576 
Q 2541 3569 2628 3553 
L 2631 2963 
z
" transform="scale(0.015625)"/>
      </defs>
      <use xlink:href="#DejaVuSans-46"/>
      <use xlink:href="#DejaVuSans-6f" x="53.894531"/>
      <use xlink:href="#DejaVuSans-72" x="115.076172"/>
      <use xlink:href="#DejaVuSans-65" x="153.939453"/>
      <use xlink:href="#DejaVuSans-63" x="215.462891"/>
      <use xlink:href="#DejaVuSans-61" x="270.443359"/>
      <use xlink:href="#DejaVuSans-73" x="331.722656"/>
      <use xlink:href="#DejaVuSans-74" x="383.822266"/>
     </g>
    </g>
   </g>
  </g>
 </g>
 <defs>
  <clipPath id="p8c6ed8f43d">
   <rect x="60.459063" y="7.2" width="558" height="277.2"/>
  </clipPath>
 </defs>
</svg>
